<svg width="65" height="64" viewBox="0 0 65 64" fill="none" xmlns="http://www.w3.org/2000/svg">
<path fill-rule="evenodd" clip-rule="evenodd" d="M21.9347 11.3733L17.9952 14.7265L17.7703 19.6328C17.4265 27.132 17.4211 38.6195 17.761 38.6195C18.1743 38.6195 18.5324 31.3963 18.5324 23.0577C18.5324 19.2653 18.6535 16.1652 18.801 16.1688C18.9486 16.172 20.8424 16.7323 23.0091 17.4142C25.1758 18.0961 27.0138 18.6547 27.0933 18.6558C27.1728 18.6568 27.1291 16.3901 26.9962 13.6179L26.7545 8.57834L30.0748 8.79435C31.9009 8.91305 37.5046 9.20142 42.5275 9.43526L51.66 9.86051V26.4679C51.66 35.6018 51.7839 45.6239 51.9354 48.7394L52.2108 54.4035L35.3716 54.1408C24.6128 53.9729 18.5324 54.0021 18.5324 54.2217C18.5324 54.432 23.5753 54.6552 31.5148 54.796C38.6553 54.9229 46.3026 55.1232 48.5091 55.2415L52.5205 55.4565L52.7505 54.5447C52.8769 54.0431 52.8038 49.4929 52.5879 44.433C52.3723 39.3731 52.1957 29.3385 52.1964 22.1334C52.1968 14.9283 52.1567 9.02925 52.1076 9.02426C51.1371 8.92232 28.6268 7.9859 27.4858 8.00016C25.9798 8.0187 25.616 8.2397 21.9347 11.3733ZM26.3759 15.0042C26.401 16.5783 26.28 17.2257 25.9637 17.2103C25.7177 17.1986 23.9349 16.6714 22.0027 16.039L18.4894 14.8891L22.1818 11.9665L25.8742 9.04387L26.1073 10.9103C26.2355 11.9365 26.3566 13.7791 26.3759 15.0042ZM28.2021 19.3188C28.2021 19.6891 45.5659 20.2395 46.1382 19.8873C46.4276 19.7094 46.4047 19.5505 46.0576 19.3316C45.4244 18.9324 28.2021 18.9199 28.2021 19.3188ZM24.2626 22.5797C25.3459 22.7287 30.7448 22.8766 36.2601 22.9083C48.4557 22.9785 47.4916 23.006 46.8573 22.6064C46.5798 22.4314 40.9392 22.2927 34.3226 22.2984C27.2981 22.3045 23.1122 22.4214 24.2626 22.5797ZM29.6346 25.776C19.0632 26.0487 23.2247 26.5 36.3103 26.5C45.418 26.5 46.8251 26.4283 46.8251 25.9653C46.8251 25.3843 45.4155 25.3686 29.6346 25.776ZM36.3497 29.6172C38.1715 29.6821 41.153 29.6821 42.9752 29.6172C44.7974 29.5527 43.3064 29.4996 39.6624 29.4996C36.0184 29.4996 34.5275 29.5527 36.3497 29.6172ZM38.7671 32.9162C38.6245 33.1458 39.9571 33.2727 42.5064 33.2727C44.908 33.2727 46.467 33.1322 46.467 32.9162C46.467 32.7013 44.9818 32.5598 42.7277 32.5598C40.6211 32.5598 38.8917 32.7155 38.7671 32.9162ZM23.6358 33.9015C23.2909 34.2472 21.9744 35.7779 20.7102 37.3028C19.0342 39.3243 18.2577 40.0097 17.8451 39.8333C17.5336 39.7 16.6816 39.4212 15.9517 39.2141C14.8347 38.8969 14.513 38.9375 13.921 39.4708C12.8799 40.4086 12.3155 43.2788 12.5544 46.4228C12.7324 48.7708 12.886 49.2427 13.6965 49.9371C14.8171 50.8967 16.5032 50.9772 17.3685 50.1125C17.964 49.5172 18.084 49.5168 19.7859 50.1011C21.7993 50.7922 24.5301 50.9088 26.4279 50.3841C28.5695 49.7917 29.01 49.2684 29.1554 47.141C29.2281 46.0813 29.3696 44.2266 29.4695 43.02C29.6153 41.2616 29.5304 40.7055 29.0419 40.219C28.302 39.4829 26.0174 39.6736 25.1422 40.5448C24.8274 40.8585 24.3367 41.1148 24.052 41.1148C23.6491 41.1148 23.7261 40.738 24.3994 39.4155C25.6708 36.9182 26.1632 34.8561 25.6958 33.987C25.2217 33.1055 24.461 33.0738 23.6358 33.9015ZM25.0827 35.2721C25.0412 35.8388 24.4406 37.4069 23.7479 38.7561C23.0553 40.1056 22.5818 41.36 22.6957 41.5432C22.9074 41.884 27.3547 41.5707 28.023 41.1675C28.22 41.0488 27.8976 40.8403 27.3067 40.7041C26.2552 40.4621 26.2588 40.4582 27.4829 40.5184C28.8009 40.5833 29.2364 41.2716 28.7192 42.4721C28.5763 42.804 28.4957 44.3072 28.5398 45.8132L28.6204 48.5512L27.4263 49.1679C25.6496 50.0857 21.7194 49.9945 19.3697 48.9807L17.5214 48.1833L17.2779 46.0948C17.1439 44.946 17.1486 43.4877 17.2882 42.8543C17.5676 41.5896 24.1798 33.8968 24.7998 34.1153C24.9968 34.1849 25.1239 34.7053 25.0827 35.2721ZM35.5489 36.0349C33.3846 36.0983 31.4847 36.279 31.3268 36.4362C30.9436 36.8177 45.7786 36.4812 46.467 36.0926C46.9902 35.7975 44.1498 35.7825 35.5489 36.0349ZM16.6884 40.0803C17.834 40.4778 18.2233 41.1148 17.3205 41.1148C16.6568 41.1148 16.2858 44.9011 16.6826 47.628C16.9666 49.5799 16.9408 49.6958 16.1791 49.8861C15.0592 50.1659 13.9311 49.4723 13.6363 48.3227C13.4995 47.7894 13.377 46.0624 13.3638 44.4854C13.3452 42.3107 13.4927 41.3853 13.9744 40.6535C14.6785 39.5841 15.0391 39.5078 16.6884 40.0803ZM40.8335 41.6434C37.1923 43.2186 37.4846 49.0663 41.2665 50.3067C43.5883 51.0685 45.8488 50.111 47.0113 47.8736C48.1251 45.7302 47.2119 42.9402 45.0122 41.766C43.5672 40.9946 42.4107 40.9608 40.8335 41.6434ZM45.0344 42.8707C46.1909 43.6816 46.8269 45.5623 46.4254 46.9831C46.0197 48.4196 44.426 49.6658 42.992 49.668C38.4705 49.6751 37.4205 44.1382 41.6017 42.3374C42.8351 41.8059 43.7101 41.9421 45.0344 42.8707ZM43.0661 45.0811C41.746 46.5354 41.4807 46.5525 40.9707 45.214C40.8962 45.018 40.7314 44.952 40.605 45.0672C40.2519 45.3894 41.1089 47.531 41.591 47.531C42.0419 47.531 45.3926 44.2997 45.3926 43.8652C45.3926 43.1733 44.2609 43.765 43.0661 45.0811ZM14.951 44.8576C14.951 45.1844 15.1244 45.394 15.336 45.3238C15.5477 45.2536 15.721 45.0436 15.721 44.8576C15.721 44.6715 15.5477 44.4615 15.336 44.3913C15.1244 44.3211 14.951 44.5307 14.951 44.8576Z" fill="#B6C0EB"/>
<path d="M19.5153 21.9213C19.7144 24.6491 19.7144 29.1124 19.5153 31.8397C19.3173 34.5675 19.1543 32.3356 19.1543 26.8805C19.1543 21.4254 19.3173 19.1935 19.5153 21.9213Z" fill="#B6C0EB"/>
<path d="M51.1325 41.8217C51.3315 44.5495 51.3315 49.0128 51.1325 51.7401C50.9345 54.4679 50.7715 52.236 50.7715 46.7809C50.7715 41.3258 50.9345 39.0939 51.1325 41.8217Z" fill="#B6C0EB"/>
<path d="M53.361 44.1635C53.5601 46.8913 53.5601 51.3546 53.361 54.0819C53.163 56.8097 53 54.5778 53 49.1227C53 43.6676 53.163 41.4357 53.361 44.1635Z" fill="#B6C0EB"/>
<path d="M52.861 10.1635C53.0601 12.8913 53.0601 17.3546 52.861 20.0819C52.663 22.8097 52.5 20.5778 52.5 15.1227C52.5 9.66756 52.663 7.43565 52.861 10.1635Z" fill="#B6C0EB"/>
</svg>
