<svg width="52" height="48" viewBox="0 0 52 48" fill="none" xmlns="http://www.w3.org/2000/svg">
<path d="M0.372941 15.1844L12.8589 7.22718C25.0401 -0.536806 25.3995 -0.697794 27.6183 0.632752C34.9552 5.03078 38.504 7.4282 38.5186 7.9947C38.535 8.64823 4.00638 30.989 1.63018 31.861C0.552157 32.2569 0.330186 30.8576 0.3502 23.762L0.372941 15.1844Z" fill="#F05A63"/>
<path fill-rule="evenodd" clip-rule="evenodd" d="M21.2948 24.1022L0 37.808L0.0400267 42.5941L0.0791459 47.3803L6.97303 47.6335L13.8678 47.8867L32.569 35.964L51.2711 24.0422V19.8356C51.2711 15.9023 51.0255 15.4585 47.4958 13.0123C45.4189 11.5739 43.4657 10.3965 43.1546 10.3965C42.8444 10.3965 33.0066 16.5636 21.2948 24.1022ZM35.8058 38.2431L20.7954 47.8136L36.0333 47.8145L51.2711 47.8154V38.2431C51.2711 32.9784 51.1692 28.6717 51.0437 28.6717C50.9182 28.6726 44.0616 32.9792 35.8058 38.2431Z" fill="#273366"/>
</svg>
