<svg width="64" height="27" viewBox="0 0 64 27" fill="none" xmlns="http://www.w3.org/2000/svg">
<path fill-rule="evenodd" clip-rule="evenodd" d="M-5.28911 0.176979C-5.28263 0.323776 -5.25065 0.353639 -5.2076 0.253213C-5.16861 0.162236 -5.17346 0.0534935 -5.21826 0.0116595C-5.26307 -0.0301744 -5.29491 0.044169 -5.28911 0.176979ZM70.2781 0.176979C70.2846 0.323776 70.3166 0.353639 70.3596 0.253213C70.3986 0.162236 70.3938 0.0534935 70.349 0.0116595C70.3042 -0.0301744 70.2723 0.044169 70.2781 0.176979ZM-10.2242 5.01636C-10.2714 5.08768 -10.2173 5.10885 -10.0972 5.06588C-9.86349 4.98209 -9.82071 4.89174 -10.0148 4.89174C-10.0847 4.89174 -10.1788 4.94781 -10.2242 5.01636ZM-10.5625 5.89979C-10.6841 5.97312 -10.7008 6.02264 -10.6042 6.0239C-10.5158 6.02491 -10.406 5.96909 -10.3601 5.89979C-10.2566 5.74329 -10.3033 5.74329 -10.5625 5.89979ZM32.0116 6.4251C30.2552 6.97764 29.0219 8.19448 28.4484 9.94092C28.2518 10.5394 28.2609 11.9258 28.466 12.6708C28.8153 13.9392 29.7899 15.1729 30.9396 15.8021C32.0883 16.4307 34.2532 16.4563 35.6177 15.8574C35.9631 15.7058 36.5472 15.3001 36.916 14.9557C38.216 13.7418 38.7576 12.0118 38.3763 10.2905C37.9644 8.43049 36.8113 7.08563 35.1388 6.51482C34.3728 6.25336 32.7092 6.2056 32.0116 6.4251ZM7.61899 6.56132C7.58715 6.64801 7.62763 6.88893 7.709 7.09684C7.88996 7.55916 7.91316 14.4439 7.7372 15.5077L7.61751 16.2323H10.2468H12.8763L13.1138 15.6967C13.2444 15.4021 13.4425 15.0002 13.554 14.8034C13.8206 14.3323 13.6097 14.0963 13.1604 14.363C12.7287 14.6193 11.5308 14.8524 10.4884 14.8832L9.61127 14.9092V13.3971V11.8851L10.1772 11.8466C10.503 11.8246 10.9152 11.8914 11.1488 12.0041C11.7512 12.2951 11.8718 12.2548 12.2773 11.6279C12.9381 10.6064 12.8887 10.562 11.0913 10.562H9.5353L9.57322 9.08143L9.61127 7.60086L10.2034 7.5613C10.7553 7.52438 11.2041 7.62455 11.9344 7.94763C12.28 8.10048 12.6475 7.89584 12.6475 7.55046C12.6475 7.4358 12.7439 7.21327 12.8619 7.05601C13.3173 6.44892 13.1405 6.40381 10.3015 6.40381C8.32285 6.40381 7.66285 6.44262 7.61899 6.56132ZM14.647 6.53561C14.6148 6.62596 14.6678 6.98583 14.765 7.33537C15.0116 8.22346 15.0116 14.4126 14.765 15.3007C14.6678 15.6502 14.6122 16.0028 14.6412 16.0842C14.6764 16.1827 15.0942 16.2323 15.8906 16.2323C18.9962 16.2323 20.609 15.2851 20.609 13.4614C20.609 12.4845 20.0753 11.6821 19.0529 11.122C18.8241 10.9967 18.8235 10.9785 19.0411 10.807C20.0273 10.0305 20.3549 9.26099 20.0734 8.38223C19.8366 7.64282 19.4768 7.21554 18.7617 6.82416C18.2038 6.51885 17.9866 6.48218 16.4261 6.42951C15.0891 6.3844 14.6925 6.40809 14.647 6.53561ZM21.6135 6.56573C21.5691 6.67371 21.6113 6.8941 21.7074 7.05551C21.9455 7.45508 22.0432 13.5482 21.8314 14.7832C21.568 16.3202 21.4733 16.1693 22.7006 16.1693H23.7801L23.7383 15.7912C23.6088 14.6198 23.5708 12.5341 23.6773 12.4347C23.7452 12.3713 24.1302 12.2839 24.5327 12.2407C25.4627 12.1405 26.6088 11.6411 26.9572 11.1842C28.1305 9.64556 27.6644 7.53118 25.972 6.71416C25.3279 6.40318 21.7306 6.2807 21.6135 6.56573ZM39.9749 6.52717C39.9299 6.59509 39.96 6.86449 40.0418 7.1257C40.1788 7.56407 40.1641 14.7494 40.024 15.7912L39.9731 16.1693L41.0209 16.2061C41.8997 16.2369 42.0828 16.2088 42.1555 16.0319C42.2032 15.9159 42.1744 15.7194 42.0914 15.5954C41.9902 15.444 41.935 14.1355 41.9237 11.6114L41.9067 7.85288H43.7061H45.5057V10.877C45.5057 12.5403 45.4753 14.4115 45.4382 15.0352L45.3708 16.1693L46.4313 16.2063L47.4918 16.2434L47.3972 15.7023C47.3452 15.4047 47.2744 13.5344 47.24 11.5459C47.1902 8.67191 47.2164 7.80625 47.3675 7.32466C47.4721 6.9915 47.5311 6.64801 47.4987 6.56132C47.4247 6.36324 40.1054 6.32997 39.9749 6.52717ZM53.2986 6.48722C53.2059 6.52225 53.1299 6.64448 53.1299 6.75902C53.1299 6.87356 52.9703 7.27993 52.7751 7.6621C52.5799 8.04428 52.3715 8.4703 52.312 8.60891C52.2524 8.74752 51.9566 9.35814 51.6547 9.96587C51.3529 10.5736 51.1058 11.0988 51.1058 11.1329C51.1058 11.1671 50.8891 11.6338 50.6242 12.1701C50.3594 12.7064 50.0491 13.3436 49.9346 13.5861C49.4694 14.572 49.1095 15.1756 48.703 15.6519C48.5183 15.8682 48.4412 16.0627 48.5134 16.1301C48.5802 16.1924 49.1113 16.2268 49.6936 16.2064L50.7522 16.1693L51.0533 15.0982C51.2189 14.5091 51.4091 13.8571 51.4759 13.6491L51.5975 13.2711H53.4611H55.3246L55.6551 14.2162C55.8368 14.7359 56.0278 15.388 56.0792 15.6652L56.1728 16.1693L57.2362 16.2064C57.822 16.2268 58.3601 16.187 58.4343 16.1177C58.5241 16.0339 58.457 15.8531 58.2337 15.5765C57.8623 15.1167 57.0137 13.4943 56.0061 11.318C55.8938 11.0755 55.6634 10.5935 55.4944 10.247C55.3251 9.90047 55.0936 9.4185 54.9798 9.17594C54.8659 8.93338 54.5785 8.338 54.3411 7.85288C54.1036 7.36775 53.857 6.84319 53.7929 6.68732C53.6751 6.40078 53.6042 6.37206 53.2986 6.48722ZM17.9861 7.9242C18.3273 8.25672 18.3825 8.40781 18.3825 9.00961C18.3825 9.66623 18.3504 9.73477 17.8539 10.1353C17.5215 10.4037 17.1835 10.562 16.943 10.562H16.5608V9.04993V7.53786H17.0753C17.4732 7.53786 17.6796 7.62531 17.9861 7.9242ZM25.0698 7.79504C25.3295 7.96767 25.5334 8.28004 25.6906 8.74537C25.892 9.34189 25.901 9.52119 25.7551 10.0303C25.662 10.3556 25.4843 10.7264 25.3604 10.8543C25.0833 11.1402 24.3301 11.444 23.8986 11.444H23.5777V9.49095V7.53786H24.1304C24.4705 7.53786 24.8319 7.63678 25.0698 7.79504ZM34.4489 7.77992C35.3816 8.20481 36.5321 9.54627 36.5321 10.2088C36.5321 10.3318 36.6039 10.683 36.6916 10.9894C36.817 11.4268 36.8137 11.7044 36.6768 12.2827C36.436 13.2991 36.1545 13.7871 35.4936 14.3342C33.7954 15.7401 31.2675 14.9657 30.3774 12.7671C30.0073 11.8529 30.0294 10.0725 30.4203 9.30194C31.1776 7.80915 33.001 7.12028 34.4489 7.77992ZM53.6894 9.64846C53.7713 9.83911 53.8859 10.1084 53.9441 10.247C54.0024 10.3856 54.1771 10.7579 54.3322 11.0743C54.4873 11.3907 54.6143 11.6884 54.6143 11.7359C54.6143 11.7832 54.0981 11.8221 53.4673 11.8221C52.8136 11.8221 52.3203 11.7693 52.3203 11.6995C52.3203 11.6319 52.4506 11.3059 52.6098 10.9749C52.9745 10.2171 53.0912 9.94142 53.1981 9.58546C53.3126 9.20315 53.5088 9.22823 53.6894 9.64846ZM18.0119 11.7916C18.5981 12.1502 18.8548 12.6327 18.8548 13.3753C18.8548 13.9786 18.8016 14.1204 18.4534 14.4455C18.0509 14.8214 16.9001 15.2792 16.6788 15.1515C16.6139 15.114 16.5608 14.2595 16.5608 13.2526V11.4219L17.1313 11.512C17.4452 11.5614 17.8414 11.6872 18.0119 11.7916ZM42.6719 20.4628C42.1524 20.836 41.5452 21.2291 41.3225 21.3364C40.8794 21.55 40.5704 21.7218 40.0147 22.0638C39.6633 22.28 39.6291 22.2792 39.0694 22.0405C38.2386 21.6862 35.8181 20.9562 34.7104 20.726C32.815 20.3319 32.3231 20.2701 29.9625 20.1296C27.9683 20.011 27.3744 20.0174 26.479 20.1668L25.3994 20.347L27.0862 20.4421C29.6274 20.5854 32.0286 20.9881 34.6429 21.7092C35.0511 21.8218 35.8405 22.0259 36.3972 22.1627C37.8382 22.5171 38.0787 22.6257 37.891 22.837C37.8068 22.9317 37.5729 23.0387 37.3712 23.0748C37.1694 23.1108 36.6097 23.2232 36.1273 23.3246C35.6449 23.4259 34.9001 23.5485 34.4724 23.597C33.2093 23.7402 33.7283 23.9186 35.4075 23.9186C37.0761 23.9186 39.2362 23.625 39.7438 23.3293C40.0137 23.172 40.1457 23.1723 40.7559 23.3316C41.1417 23.4322 41.6943 23.5531 41.9836 23.5998C42.4926 23.6822 42.5014 23.6922 42.2535 23.903C42.1126 24.0228 41.6329 24.2237 41.1876 24.3494C40.7423 24.4751 40.2565 24.6202 40.1081 24.6719C39.6426 24.8338 38.7752 25.0887 38.3538 25.1875C38.1312 25.2397 37.4328 25.4022 36.802 25.5489C36.1711 25.6956 35.4354 25.8707 35.167 25.9381C34.8986 26.0055 34.52 26.0607 34.3255 26.0607C34.1312 26.0607 33.7132 26.1172 33.3966 26.1861C33.0802 26.255 32.4113 26.3445 31.9104 26.3851C31.4095 26.4256 30.9995 26.5075 30.9995 26.567C30.9995 27.0266 36.5395 26.7125 38.8936 26.1197C39.3389 26.0075 39.9158 25.8718 40.1755 25.8182C40.842 25.6804 43.5125 24.8167 44.1479 24.5335C44.4402 24.4032 44.7858 24.2966 44.9159 24.2966C45.046 24.2966 45.1844 24.2484 45.2234 24.1893C45.2625 24.1303 45.5849 23.9792 45.9398 23.8536C46.2949 23.728 47.0403 23.4298 47.5965 23.1909C48.1527 22.952 48.889 22.6531 49.2327 22.5266C49.5765 22.4001 50.1233 22.1852 50.4479 22.0489C50.7726 21.9127 51.4937 21.6504 52.0504 21.4659C52.607 21.2816 53.2619 21.0492 53.5056 20.9495C53.7493 20.85 54.0413 20.7685 54.1545 20.7685C54.2691 20.7685 54.3198 20.7074 54.2691 20.6306C54.152 20.4537 52.6579 20.6537 51.5781 20.9907C51.3554 21.0602 50.9 21.1877 50.566 21.2741C49.9472 21.4342 48.9609 21.7279 48.4744 21.897C48.0958 22.0287 47.3863 22.2576 46.5178 22.5285C46.1096 22.6558 45.4821 22.8789 45.1234 23.0244C44.7648 23.1696 44.3794 23.2886 44.2671 23.2886C44.1548 23.2886 43.894 23.401 43.6872 23.5385L43.3114 23.7883L42.4243 23.381C41.9364 23.1569 41.5526 22.9227 41.5714 22.8605C41.6015 22.7611 42.2388 22.4055 43.4477 21.8138C43.6518 21.7139 43.853 21.505 43.8948 21.3495C44.0076 20.9293 43.9068 19.8476 43.7515 19.8137C43.6773 19.7975 43.1915 20.0896 42.6719 20.4628ZM56.467 20.0966C56.1131 20.1978 55.8586 20.3336 55.9015 20.3985C55.9445 20.4634 56.5796 20.5165 57.3127 20.5165C59.5614 20.5165 61.6322 21.0889 64.1276 22.4005C64.4245 22.5565 64.7632 22.7634 64.8805 22.8603C65.3039 23.2107 65.4096 23.0682 65.4096 22.1466V21.2567L64.5662 20.9082C63.7698 20.5792 62.9372 20.3423 61.4607 20.0247C60.5279 19.8241 57.2559 19.8712 56.467 20.0966ZM10.079 20.2546C8.77963 20.4924 9.18769 20.746 10.8932 20.7605C11.5241 20.766 12.5564 20.8332 13.1872 20.91C13.8181 20.9867 14.633 21.0856 14.9983 21.1296C15.8705 21.2346 15.9202 21.4519 15.1151 21.6403C13.783 21.9522 12.8393 22.1862 12.5125 22.2857C12.327 22.3423 11.659 22.5363 11.0282 22.717C10.3973 22.8976 9.75971 23.0934 9.61127 23.152C9.46283 23.2105 9.09849 23.3449 8.80162 23.4508C8.50475 23.5565 7.82181 23.8043 7.28393 24.0014L6.30615 24.3596L6.30561 25.1261C6.30534 25.5477 6.34312 25.928 6.38927 25.9713C6.43555 26.0145 6.669 25.9105 6.90812 25.7403C7.1471 25.57 7.38662 25.4307 7.44019 25.4307C7.4939 25.4307 8.09534 25.1814 8.77693 24.8768C11.5112 23.6544 13.0663 23.0653 16.3569 22.0057L17.5698 21.615L18.5834 21.8365C19.1408 21.9583 19.9006 22.1288 20.2716 22.2155C20.6427 22.3021 21.3107 22.4436 21.756 22.5299C22.2013 22.6162 22.8693 22.758 23.2404 22.8449C26.5167 23.6125 31.8809 24.1938 32.1358 23.8086C32.1759 23.7483 31.6178 23.6012 30.8956 23.4819C29.5079 23.2528 28.0968 22.9678 27.4235 22.7808C26.8948 22.6339 24.856 22.1506 24.2524 22.0292C23.9927 21.9769 23.689 21.9054 23.5777 21.8704C23.1976 21.7508 21.8919 21.4092 21.2525 21.262C20.9014 21.1813 20.545 21.0374 20.4607 20.9425C20.3488 20.8166 20.1166 20.7906 19.6048 20.8468C19.112 20.9009 18.7846 20.8683 18.5074 20.7373C18.2903 20.6347 17.7482 20.5155 17.3029 20.4725C16.8576 20.4294 16.0379 20.3392 15.4812 20.2719C14.3368 20.1335 10.8025 20.1223 10.079 20.2546ZM6.44014 20.7715C6.03195 20.8243 5.33362 20.9635 4.88832 21.081C4.44301 21.1983 3.8965 21.3412 3.67384 21.3984C2.98132 21.5763 2.36788 21.8173 1.10995 22.4055L-0.10452 22.9736L-0.145273 23.7798C-0.167538 24.2233 -0.130294 24.638 -0.0622832 24.7015C0.0126095 24.7714 0.305297 24.6197 0.68003 24.3169C1.51518 23.6419 3.34351 22.5366 4.41602 22.0583C5.45602 21.5944 6.70476 21.1466 6.95859 21.1466C7.05831 21.1465 7.29419 21.0331 7.48284 20.8945L7.82599 20.6425L7.50416 20.659C7.32711 20.668 6.84834 20.7187 6.44014 20.7715ZM19.5567 23.6509C19.4076 23.7369 19.4192 25.1622 19.5708 25.3912C19.6187 25.4636 19.8567 25.5583 20.0997 25.6017C20.3428 25.6451 20.7844 25.7347 21.0813 25.8006C23.6363 26.3684 24.8951 26.5305 27.6597 26.6477C28.8846 26.6996 29.3802 26.6799 29.3802 26.5796C29.3802 26.5021 29.2476 26.4387 29.0855 26.4387C28.9233 26.4387 28.4528 26.3592 28.0397 26.2619C27.6266 26.1647 26.9546 26.0183 26.5464 25.9367C25.2726 25.6819 23.2242 25.0519 21.9936 24.5363C21.679 24.4045 21.3872 24.2966 21.3451 24.2966C21.303 24.2966 20.9153 24.133 20.4835 23.9329C20.0517 23.7329 19.6346 23.6059 19.5567 23.6509ZM64.5775 24.1075C64.4628 24.2146 63.0677 24.4505 58.9999 25.0505C57.142 25.3246 53.0693 25.4796 51.7391 25.327C50.2895 25.1607 48.7149 25.1303 48.8663 25.2715C48.9791 25.3769 50.2154 25.5912 52.3877 25.882C54.5681 26.1739 60.3609 26.1661 63.1437 25.8675C64.3318 25.7402 65.2842 25.5803 65.3109 25.5039C65.3373 25.429 65.3339 25.0699 65.3037 24.7062C65.2549 24.1206 65.2139 24.0446 64.9467 24.0446C64.7808 24.0446 64.6146 24.0728 64.5775 24.1075Z" fill="#32407B"/>
</svg>
