<svg width="65" height="64" viewBox="0 0 65 64" fill="none" xmlns="http://www.w3.org/2000/svg">
<path fill-rule="evenodd" clip-rule="evenodd" d="M28.3364 6.03553C26.9412 6.09647 24.8564 6.22469 23.7725 6.31621C20.5413 6.58909 17.7653 7.24539 16.9991 7.91759C16.6174 8.25254 16.5929 8.35767 16.6172 9.5575L16.6385 10.6161L16.3046 10.296C15.1728 9.21113 13.9709 8.7337 12.3715 8.7337C9.98777 8.7337 8.14978 9.89744 7.35644 11.9091C7.04089 12.7092 7.00249 12.9491 7.00015 14.1353C6.99826 15.0776 7.0133 15.299 7.10774 15.7172C7.44873 17.2277 8.38109 19.08 9.43592 20.3429C10.4065 21.5048 11.897 22.6937 16.1236 25.6769C20.1511 28.5195 21.945 29.9614 23.9521 31.9688C25.4329 33.4499 26.149 34.4131 26.5398 35.4493C26.8025 36.1459 26.8271 36.7915 26.5998 37.0187C26.5366 37.0818 26.4308 37.1178 26.308 37.1178C26.0414 37.1178 25.9117 37.2263 25.809 37.5351C25.6378 38.0501 25.711 38.4647 26.0244 38.7554C26.2829 38.9952 26.4966 39.074 26.8831 39.0719C27.8392 39.0669 28.5883 38.3527 28.8259 37.2197C28.9758 36.5046 28.8949 35.1876 28.6651 34.6043C28.6073 34.4573 29.8507 35.3667 30.2531 35.7657C30.8655 36.373 31.1563 37.1165 31.1606 38.086C31.163 38.6383 31.0961 39.0138 30.9244 39.4109C30.8699 39.537 30.8177 39.6976 30.8083 39.7676C30.7441 40.25 30.5783 42.8199 30.5793 43.3184L30.5801 43.6842L30.2869 43.766C28.472 44.2722 27.5472 44.7527 27.339 45.2976L27.2517 45.526L26.5065 45.5278C25.7938 45.5295 24.8572 45.6225 24.7804 45.6993C24.6527 45.8269 24.5866 47.3429 24.4879 52.4136C24.4763 53.009 24.447 53.4064 24.4095 53.4763C24.3766 53.5378 24.1434 54.0615 23.8913 54.6402C23.3708 55.8348 23.3467 55.953 23.4342 56.8744C23.5061 57.63 23.5682 57.7741 23.8559 57.8517C24.3457 57.9837 26.9281 58.0178 34.4909 57.992C41.5552 57.968 42.1081 57.9599 42.2316 57.879C42.4585 57.7305 42.5145 57.5446 42.5748 56.7402C42.6293 56.0125 42.6274 55.9778 42.5233 55.7781C42.4177 55.5756 41.8468 54.1356 41.7721 53.8832C41.7514 53.8132 41.6935 53.6747 41.6434 53.5754C41.5648 53.4197 41.548 53.1927 41.5204 51.9192C41.4075 46.7047 41.3721 45.9299 41.234 45.6722C41.1297 45.4775 40.9877 45.4522 39.8863 45.4324L38.8154 45.4132L38.7241 45.2193C38.6739 45.1125 38.5304 44.9414 38.4053 44.839C37.9713 44.4836 37.4641 44.2775 35.6539 43.7208C35.4544 43.6594 35.4496 43.6525 35.4393 43.4072C35.3202 40.5902 35.2409 39.6738 35.086 39.3236C34.9222 38.9536 34.8452 38.405 34.8799 37.8567C34.9593 36.6025 35.432 35.8636 36.7152 34.9877C37.0149 34.7831 37.2601 34.6247 37.2601 34.6356C37.2601 34.6465 37.2158 34.8286 37.1616 35.0404C36.965 35.8088 36.9779 36.8261 37.1929 37.5C37.4056 38.1665 37.8128 38.666 38.3565 38.9272C38.6087 39.0485 38.7295 39.0745 39.0449 39.0755C39.3684 39.0765 39.4671 39.0548 39.6856 38.9351C40.0699 38.7244 40.218 38.467 40.2166 38.0121C40.2154 37.6127 40.0924 37.2654 39.9195 37.1729C39.8628 37.1425 39.7249 37.1178 39.6128 37.1178C39.1982 37.1178 39.09 36.6893 39.2988 35.8734C39.7566 34.0844 41.6896 31.9149 45.5975 28.8039C46.738 27.896 47.795 27.1153 50.4163 25.2447C53.793 22.8351 54.4702 22.3206 55.5076 21.3762C57.1567 19.8751 58.4708 17.5971 58.8853 15.5212C59.0372 14.7609 59.0383 13.6507 58.8881 12.9327C58.4117 10.657 56.8675 9.1805 54.5752 8.80896C52.7999 8.5212 51.0124 9.05158 49.6916 10.2579L49.414 10.5114L49.4373 9.70385C49.4501 9.25969 49.4454 8.81564 49.427 8.71708C49.3817 8.47605 48.9409 8.03317 48.5021 7.788C47.6047 7.28641 45.5719 6.76281 43.4813 6.49467C42.5303 6.37272 40.5648 6.21582 38.5859 6.10391C36.9121 6.00923 29.9946 5.96306 28.3364 6.03553ZM34.6847 6.90004C40.4207 7.03982 43.4475 7.34002 46.2424 8.04636C47.1267 8.26987 47.7218 8.48517 48.088 8.71403C48.4907 8.96576 48.4737 9.07201 48.0579 8.90196C47.4111 8.63743 46.9087 8.46932 46.3369 8.32613C45.7429 8.17738 44.7048 8.00356 44.6626 8.0458C44.6327 8.07561 44.6394 8.07745 45.5902 8.3005C46.4211 8.49541 47.3195 8.77344 47.9451 9.02921C48.2139 9.13912 48.3041 9.20124 48.3164 9.28527C48.3253 9.34627 48.3215 9.39616 48.3078 9.39616C48.2941 9.39616 48.0229 9.31468 47.7051 9.21511C44.8162 8.30987 41.8558 7.94287 35.6029 7.71477C33.8128 7.64944 29.4367 7.65 28.0049 7.71574C26.9944 7.76211 25.3068 7.87693 24.6394 7.9447C23.1128 8.09972 22.3778 8.17921 22.2877 8.19899C22.1983 8.2186 22.1642 8.18258 22.091 7.99102C22.0423 7.86357 22.0106 7.75325 22.0206 7.74586C22.0306 7.73847 22.1852 7.70626 22.3641 7.67436C22.6708 7.61963 22.7719 7.58325 22.7229 7.54508C22.7113 7.53601 22.5296 7.54299 22.3192 7.56068C21.9296 7.59344 21.8627 7.57041 21.8611 7.40306C21.8602 7.31169 21.8791 7.30894 23.3901 7.18129C26.6169 6.90866 30.7826 6.80495 34.6847 6.90004ZM21.6229 7.58727C21.6403 7.7135 21.7023 7.91066 21.7609 8.02537C21.8195 8.14013 21.8601 8.23888 21.8511 8.24485C21.8421 8.25081 21.4676 8.30707 21.0189 8.36995C20.2876 8.47238 19.0183 8.69706 18.7899 8.76453C18.7259 8.78343 18.6808 8.73854 18.6216 8.59702C18.4922 8.28745 18.4471 8.0296 18.5133 7.97798C18.6227 7.89257 19.9168 7.60618 20.9424 7.44031C21.6193 7.3309 21.5868 7.32387 21.6229 7.58727ZM36.0652 7.97181C41.1436 8.15776 44.8843 8.63677 47.4587 9.43076C47.7812 9.53023 48.0968 9.62313 48.1599 9.6372C48.2982 9.66808 48.2966 9.6161 48.1968 10.8814C48.0906 12.2294 48.0285 12.6643 47.9264 12.7777C47.8795 12.8298 47.5543 13.0896 47.2037 13.3551C46.8532 13.6205 46.5584 13.8597 46.5487 13.8865C46.5222 13.9597 47.2505 13.5065 47.6186 13.2206C47.7961 13.0828 47.9492 12.9778 47.9588 12.9874C47.9684 12.997 47.9354 13.2611 47.8854 13.5744L47.7946 14.1439L47.4967 14.4194C47.1631 14.7281 46.5855 15.1711 46.0708 15.513C45.8824 15.6381 45.7275 15.7581 45.7266 15.7796C45.7216 15.8984 46.7949 15.2397 47.3521 14.782C47.6764 14.5155 47.7258 14.4893 47.7011 14.5965C47.6853 14.6652 47.6185 14.9715 47.5527 15.2772L47.4332 15.8331L47.0253 16.1874C46.512 16.6332 45.5436 17.3647 45.1258 17.6223C44.6098 17.9405 44.7614 17.9283 45.3043 17.608C45.9367 17.2348 46.6605 16.7487 47.0231 16.4535C47.1786 16.327 47.3057 16.2518 47.3057 16.2865C47.3057 16.3687 46.8983 17.8627 46.8547 17.9405C46.7795 18.0747 45.3712 19.1595 44.6434 19.6439C43.7588 20.2327 43.8144 20.1927 43.8424 20.2203C43.9078 20.2843 45.6769 19.1528 46.3357 18.6255C46.5455 18.4576 46.724 18.3272 46.7324 18.3356C46.7522 18.3553 46.2152 19.8929 46.1386 20.0359C46.0743 20.1561 44.1503 21.4548 43.214 22.0101C42.5732 22.3901 42.3868 22.5712 42.9586 22.2582C44.1025 21.6319 44.7032 21.2799 45.2883 20.8927C45.6512 20.6527 45.9544 20.4627 45.9622 20.4705C45.9993 20.5075 45.3167 21.9978 45.2336 22.0614C44.5357 22.5947 43.079 23.4996 41.977 24.0846C41.1191 24.54 41.3868 24.4823 42.3535 24.0036C43.265 23.5521 43.9886 23.1449 44.6285 22.7233C44.895 22.5477 45.1127 22.4182 45.1123 22.4356C45.1119 22.4529 44.955 22.7629 44.7637 23.1244L44.4159 23.7816L43.7829 24.1705C43.1428 24.5637 42.041 25.2073 41.3396 25.5976C41.1292 25.7147 41.0145 25.7953 41.0846 25.7769C41.2642 25.7295 42.9353 24.8635 43.6215 24.4622C43.937 24.2777 44.1951 24.1431 44.1949 24.1632C44.1948 24.1833 44.0147 24.5053 43.7947 24.8788L43.3947 25.5579L42.8133 25.9265C41.9894 26.4489 40.5481 27.3117 39.8709 27.6878C39.554 27.8639 39.3049 28.0181 39.3173 28.0306C39.3785 28.0917 41.6833 26.858 42.7291 26.2042C42.9465 26.0683 43.1243 25.9693 43.1243 25.9841C43.1243 25.999 42.8937 26.3558 42.6117 26.7771C42.144 27.476 42.0693 27.5623 41.7576 27.7634C41.2058 28.1195 40.1661 28.7041 39.0323 29.2959C38.4505 29.5996 37.9854 29.8589 37.9987 29.8722C38.0561 29.9297 40.193 28.9014 41.1262 28.3672C41.4436 28.1855 41.7115 28.0451 41.7215 28.055C41.7315 28.0651 41.5407 28.3411 41.2974 28.6685L40.8551 29.2637L40.2177 29.6439C39.3776 30.145 38.1017 30.8289 37.4369 31.1345C36.8177 31.4192 36.7116 31.5394 37.3028 31.2866C38.5332 30.7603 39.1856 30.4441 40.0358 29.9619C40.3144 29.8039 40.5079 29.7154 40.4659 29.7654C40.4238 29.8153 40.208 30.0855 39.9864 30.3657C39.7648 30.646 39.5483 30.9036 39.5054 30.9381C39.4118 31.0135 37.5712 31.9227 36.9419 32.2045C36.6968 32.3143 36.496 32.4186 36.4957 32.4364C36.4946 32.5129 38.0232 31.8982 38.7772 31.5189C39.0085 31.4025 39.197 31.3248 39.1959 31.3461C39.1949 31.3674 39.0515 31.5519 38.8772 31.756C38.5768 32.108 38.5249 32.1442 37.872 32.4579C37.4934 32.6399 37.1761 32.8107 37.167 32.8375C37.1499 32.8873 37.1814 32.8758 37.9103 32.563C38.1416 32.4637 38.331 32.4011 38.331 32.4239C38.331 32.4801 37.1175 33.7454 37.0067 33.8046C36.9057 33.8586 35.6413 34.0752 34.9007 34.1653C34.6268 34.1986 34.3911 34.2446 34.3769 34.2675C34.3628 34.2903 34.4264 34.2998 34.5181 34.2885C34.6099 34.2773 34.9489 34.2554 35.2714 34.2399C35.5939 34.2243 36.0251 34.1817 36.2296 34.1452C36.5977 34.0794 36.6004 34.0797 36.5024 34.1776C36.3471 34.3328 34.9647 34.5298 33.5122 34.6037C32.7477 34.6425 32.7475 34.6426 33.1552 34.6793C33.7779 34.7355 35.322 34.6326 35.9853 34.4906C36.1099 34.464 36.1094 34.4662 35.9598 34.5886C35.8407 34.6862 35.6881 34.7318 35.2714 34.7946C33.9872 34.9879 32.9201 35.0217 31.3195 34.9197L30.4016 34.8612L29.7132 34.3214C28.8738 33.6632 28.3104 33.1282 27.5061 32.2257C27.169 31.8474 26.8099 31.4461 26.7082 31.3339C26.2959 30.879 25.091 29.3875 24.4882 28.5854C22.3323 25.7175 20.5808 22.451 19.5121 19.3052C18.621 16.6822 18.074 13.9105 17.8583 10.9249C17.8148 10.3223 17.7651 9.67786 17.7479 9.49278L17.7166 9.1562L18.2656 9.07079C18.5675 9.0238 18.8215 8.99226 18.8299 9.00072C18.8384 9.00918 18.8934 9.40544 18.9521 9.88134C19.2626 12.3982 19.8079 15.0496 20.504 17.4277C20.7716 18.3416 21.3949 20.1255 21.7307 20.9383C22.1664 21.993 23.0128 23.6816 23.5653 24.5982C24.1904 25.6354 24.6654 26.2659 25.3012 26.9026C26.1035 27.706 26.8955 28.1872 28.6989 28.9668C29.53 29.3261 29.6528 29.348 29.7284 29.1512C29.7589 29.0718 29.4149 28.5094 28.5078 27.1553C27.764 26.0451 27.2931 25.2451 26.7078 24.0978C24.87 20.4954 23.5409 16.195 22.9357 11.8931C22.8309 11.1482 22.5232 8.58821 22.5232 8.46117C22.5232 8.38753 22.857 8.33876 24.3079 8.20051C27.4282 7.90317 31.8449 7.81725 36.0652 7.97181ZM18.1793 8.2346C18.165 8.38106 18.1378 8.40593 17.9176 8.47401C17.7035 8.54015 17.6658 8.54046 17.6251 8.4762C17.5432 8.34677 17.5723 8.29249 17.7681 8.20984C18.18 8.03591 18.1986 8.03704 18.1793 8.2346ZM22.3602 9.35794C22.4744 11.184 22.8771 13.833 23.346 15.8425C23.5748 16.8231 24.0619 18.534 24.3609 19.4073C25.2399 21.9746 26.0462 23.7404 27.5613 26.4164C27.8925 27.0014 28.7228 28.2748 28.9863 28.6022L29.1256 28.7751L28.9987 28.7353C28.7726 28.6644 27.4846 28.0636 27.0434 27.8232C25.7832 27.1368 24.7516 26.0273 23.7214 24.2507C23.2398 23.4203 22.3613 21.6606 21.9913 20.7855C21.6205 19.9082 21.0266 18.1825 20.6848 16.989C20.2394 15.4334 19.7816 13.2838 19.2901 10.4408C19.0126 8.83566 19.0202 8.95287 19.1909 8.91903C19.2708 8.90324 19.841 8.80881 20.458 8.70929C21.9668 8.46596 22.1276 8.44084 22.2214 8.43391C22.2902 8.42881 22.3105 8.564 22.3602 9.35794ZM18.286 8.69099C18.3169 8.77961 18.3364 8.85651 18.3293 8.86186C18.3221 8.86716 18.2102 8.89743 18.0806 8.92907C17.951 8.96077 17.8076 9.00097 17.7619 9.0185C17.6949 9.04424 17.6789 9.01575 17.6789 8.87078C17.6789 8.70552 17.6962 8.68513 17.8956 8.61455C18.2014 8.50637 18.2231 8.51065 18.286 8.69099ZM54.695 9.7864C56.3141 10.1114 57.4404 11.1859 57.8913 12.8359C58.021 13.3102 58.0471 14.5667 57.9406 15.2033C57.7688 16.23 57.4696 17.039 56.8713 18.0947C55.7967 19.991 54.7421 20.9829 50.9772 23.6385C45.8059 27.2862 43.2645 29.3129 41.16 31.4675C39.6907 32.9719 38.8957 34.1197 38.4718 35.3489C38.3311 35.7569 38.3097 35.8884 38.3077 36.3534C38.3059 36.7804 38.3247 36.9245 38.4004 37.0668C38.5995 37.4407 38.9566 37.7212 39.3381 37.8035C39.65 37.8708 39.4831 38.1378 39.1305 38.1356C39.0133 38.1349 38.8256 38.0892 38.7134 38.0342C38.6012 37.9791 38.5554 37.9433 38.6114 37.9546C38.9965 38.0323 39.1056 38.0385 39.0866 37.9818C39.0756 37.9489 38.8922 37.8669 38.679 37.7998C38.249 37.6643 38.1829 37.5981 38.0584 37.1792C37.8197 36.3762 37.9412 35.4036 38.4058 34.3986C38.7366 33.683 39.2477 33.0029 40.2364 31.963C42.5461 29.5336 44.0341 28.2705 47.6117 25.7026C49.1869 24.572 50.1592 23.8494 50.1362 23.8264C50.1138 23.804 48.8594 24.5969 48.1471 25.0837C46.7803 26.0178 44.9706 27.3898 43.5572 28.5636C43.1228 28.9244 42.7674 29.2094 42.7674 29.197C42.7674 29.15 44.5234 27.6683 45.6485 26.766C46.9312 25.7372 48.3686 24.6492 49.7534 23.6588C50.6654 23.0065 50.9585 22.8023 52.252 21.9176C53.2124 21.2608 53.8482 20.7486 54.4342 20.1593C55.4433 19.1445 56.2019 18.0229 56.6596 16.8686C56.8465 16.3973 57.1781 15.0829 57.2528 14.5175C57.4851 12.7583 56.6771 11.1425 55.3041 10.621C54.9964 10.5041 54.9547 10.4974 54.9547 10.5648C54.9547 10.5909 55.0063 10.6277 55.0694 10.6466C55.1325 10.6654 55.3478 10.7816 55.5479 10.9047C56.5154 11.5002 57.1046 12.5891 57.0892 13.7531L57.0838 14.1608L57.0371 13.8296C56.975 13.3898 56.6947 12.5799 56.4793 12.218C56.0483 11.4939 55.2772 10.8764 54.5009 10.6335C53.6992 10.3827 52.6848 10.4589 51.8486 10.8328C51.1055 11.1651 50.2991 11.8676 49.8919 12.5374C48.8076 14.3213 49.2571 16.8365 50.8698 18.0082C51.1473 18.2099 51.2969 18.4191 51.2192 18.4968C51.2053 18.5107 51.0476 18.437 50.8689 18.3331C50.3863 18.0526 49.9304 17.5606 49.6078 16.9717C49.4576 16.6975 49.3241 16.4838 49.3112 16.4967C49.2665 16.5414 49.4066 16.9651 49.5647 17.2631C49.7265 17.5682 50.0944 17.9847 50.4163 18.2274C50.5676 18.3415 50.5759 18.3571 50.4704 18.3295C50.402 18.3117 50.1828 18.1346 49.9834 17.936C49.3524 17.3079 48.988 16.4301 48.8345 15.1688C48.7842 14.7547 48.7925 14.6441 48.9389 13.7788C49.113 12.7498 49.2386 12.3998 49.6548 11.785C50.7757 10.1288 52.6663 9.37919 54.695 9.7864ZM13.6759 9.84261C14.1783 9.98474 14.4801 10.1262 14.9502 10.44C15.8043 11.01 16.4998 11.875 16.8623 12.818C16.9879 13.1446 17.1689 14.1985 17.1689 14.603C17.169 16.0516 16.5306 17.5917 15.6698 18.2198C15.3815 18.4301 15.3268 18.3979 15.5916 18.1738C16.0597 17.7777 16.335 17.4087 16.5089 16.9441C16.6328 16.6134 16.7138 16.2246 16.659 16.2246C16.6381 16.2246 16.607 16.3127 16.5898 16.4202C16.5429 16.7129 16.2276 17.3042 15.9591 17.6026C15.6905 17.9011 15.3258 18.1833 14.9512 18.3824C14.6449 18.5453 14.621 18.5478 14.6563 18.4129C14.6714 18.3552 14.8519 18.1838 15.0574 18.0319C15.5434 17.6727 15.9496 17.1775 16.2263 16.6068C16.5293 15.9821 16.6111 15.6463 16.6422 14.8997C16.6832 13.9141 16.4954 13.2248 15.9686 12.4282C15.039 11.0227 13.4413 10.2762 11.9239 10.5386C11.0113 10.6963 10.2961 11.1289 9.74601 11.8556C8.98102 12.8663 8.68694 14.2911 8.95899 15.6687C9.02212 15.9885 9.12859 16.397 9.19559 16.5765C9.36438 17.0288 9.31053 17.025 9.12288 16.5713C8.73283 15.6282 8.60632 14.8432 8.70168 13.9579C8.82238 12.8375 9.2551 11.8966 9.98772 11.1617C10.1792 10.9696 10.3359 10.8023 10.3359 10.7898C10.3359 10.7316 9.87507 11.0976 9.64183 11.341C8.99494 12.016 8.61111 12.8974 8.49393 13.9773C8.32459 15.5375 8.87291 17.078 10.113 18.5264C10.3129 18.7599 10.6133 19.1237 10.7806 19.335C11.1778 19.8366 11.9962 20.6531 12.5341 21.0843C12.7695 21.2731 13.3521 21.6947 13.8289 22.0212C18.2518 25.0505 22.2916 28.2252 24.2648 30.2222C25.0844 31.0518 26.9527 33.2449 26.8397 33.2449C26.8264 33.2449 26.507 32.8838 26.1301 32.4423C24.3583 30.3675 22.7676 28.8561 21.0444 27.6102C20.0204 26.8698 20.0255 26.9016 21.0699 27.7715C22.8605 29.2627 24.3529 30.676 25.6121 32.0728C26.8411 33.4363 27.449 34.2292 27.7002 34.797C27.9002 35.249 28.0488 36.0577 28.0136 36.5028C27.944 37.3826 27.7503 37.6442 26.9341 37.9603C26.7216 38.0426 27.0068 38.0458 27.2548 37.9639L27.495 37.8846L27.342 38.0106C27.0888 38.2191 26.7135 38.2404 26.5297 38.0568C26.3962 37.9234 26.4358 37.8425 26.6524 37.8059C26.9122 37.762 27.1415 37.6064 27.3513 37.3315C27.9483 36.5493 27.6938 35.258 26.6261 33.6526C26.1536 32.942 25.7043 32.4042 24.8449 31.5205C22.6047 29.2171 19.6826 26.8994 14.4918 23.3091C12.7417 22.0987 11.8103 21.3655 10.9945 20.5561C10.2319 19.7996 9.7145 19.1401 9.219 18.2929C8.36365 16.8305 8.00231 15.73 7.95433 14.4411C7.92266 13.5908 7.97804 13.1401 8.19221 12.5051C8.42025 11.8288 8.67577 11.4124 9.16597 10.9179C9.5451 10.5354 9.67212 10.4439 10.1348 10.22C10.9819 9.8101 11.5318 9.69988 12.6051 9.72495C13.1212 9.73698 13.4179 9.76959 13.6759 9.84261ZM13.4095 11.5818C14.2753 11.8844 15.0012 12.508 15.3776 13.2723C15.7078 13.9431 15.8111 14.4361 15.7766 15.1784C15.7334 16.1123 15.4941 16.8046 14.9972 17.4332C14.7984 17.6847 14.7173 17.7504 14.604 17.7517C13.9774 17.7591 13.7758 18.6865 14.3236 19.0415C15.1323 19.5656 16.4774 18.9253 17.2693 17.6392C17.4119 17.4077 17.5555 17.1438 17.5884 17.0527C17.6214 16.9617 17.6625 16.8871 17.6798 16.8871C17.6971 16.8871 17.7525 17.0648 17.803 17.282C18.0453 18.3245 18.7122 20.3101 19.2705 21.6518C19.9291 23.2342 21.245 25.6914 21.9927 26.7349C22.088 26.8681 22.1537 26.977 22.1386 26.977C22.1234 26.977 21.8194 26.7396 21.463 26.4496C20.3878 25.5746 18.5096 24.1632 16.8372 22.9732C15.968 22.3547 14.7863 21.5141 14.2114 21.1051C12.7823 20.0885 12.1749 19.5293 11.4253 18.54C10.7369 17.6314 10.3548 16.9477 10.0838 16.1393C9.87584 15.5192 9.80771 15.0274 9.84132 14.3901C9.91888 12.9182 10.6872 11.8527 11.9167 11.512C12.2886 11.409 13.0119 11.4428 13.4095 11.5818ZM54.0912 11.5668C55.0104 11.8366 55.6082 12.4402 55.979 13.4729C56.0843 13.7663 56.0981 13.8973 56.1 14.6194C56.1017 15.3319 56.0868 15.4862 55.9813 15.8425C55.5926 17.155 54.7274 18.4964 53.5079 19.677C52.961 20.2064 52.3246 20.698 51.0779 21.554C48.9722 22.9998 45.4931 25.6119 43.8179 27.0049C43.6245 27.1658 43.4851 27.2654 43.5082 27.2264C43.5313 27.1873 43.6573 26.9948 43.7881 26.7986C45.567 24.1303 47.3591 20.2675 48.0938 17.5177C48.1678 17.241 48.2386 16.9843 48.2511 16.9474C48.2637 16.9106 48.3609 17.0482 48.4671 17.2532C49.1019 18.4786 50.0219 19.1921 50.9772 19.2001C51.2935 19.2028 51.3985 19.1815 51.5841 19.0771C51.9717 18.8591 52.1071 18.4185 51.8938 18.0688C51.7918 17.9017 51.5315 17.7534 51.3401 17.7534C51.2123 17.7534 50.8633 17.3565 50.6462 16.9644C50.2022 16.1619 50.0461 15.0527 50.2548 14.1813C50.3868 13.63 50.5577 13.2422 50.8474 12.8364C51.4594 11.9795 52.3696 11.4889 53.3519 11.4865C53.6286 11.4859 53.9255 11.5181 54.0912 11.5668ZM36.2658 33.4028C34.9659 33.682 33.1968 33.7695 31.5744 33.6348C30.0642 33.5095 29.4254 33.48 29.4837 33.5383C29.621 33.6757 30.7746 33.8896 31.6087 33.9324C33.658 34.0376 35.1642 33.9551 36.5207 33.6635C36.8983 33.5823 36.9287 33.5663 36.9287 33.4486C36.9287 33.2837 36.8465 33.2781 36.2658 33.4028ZM35.3224 35.1095C35.3224 35.126 35.2111 35.2643 35.075 35.4169C34.9389 35.5694 34.7726 35.8053 34.7053 35.9411C34.5928 36.1682 34.5651 36.1905 34.3591 36.2197C34.2361 36.2372 34.0181 36.2518 33.8747 36.2522C33.5643 36.253 33.3847 36.2949 33.3847 36.3665C33.3847 36.4007 33.5792 36.4095 33.9456 36.3922C34.2541 36.3776 34.5062 36.3686 34.5058 36.3722C34.5053 36.3759 34.4741 36.4821 34.4365 36.6082C34.3592 36.867 34.3923 36.8562 33.4222 36.937C33.1656 36.9583 32.9767 36.9969 32.9767 37.0281C32.9767 37.0829 33.9834 37.0467 34.2385 36.9827C34.3489 36.955 34.3557 36.9644 34.3235 37.0989C34.3042 37.1793 34.2801 37.2603 34.2699 37.2786C34.2598 37.297 34.0335 37.3284 33.7671 37.3484C33.1311 37.3961 33.1271 37.4903 33.762 37.4668C34.0256 37.457 34.2436 37.4662 34.2464 37.4872C34.2493 37.5082 34.2516 37.6318 34.2516 37.7618V37.9981L33.8691 37.9635C33.6492 37.9436 33.4867 37.9485 33.4867 37.975C33.4867 38.0241 33.8462 38.086 34.1312 38.086C34.297 38.086 34.3025 38.0926 34.3025 38.2889C34.3025 38.5199 34.2754 38.5338 33.7792 38.5566C33.3224 38.5776 33.4543 38.672 33.9403 38.672C34.3213 38.672 34.373 38.6833 34.4085 38.7739C34.4754 38.9449 34.4652 38.9523 34.1623 38.9529C33.8275 38.9535 33.4867 39.0016 33.4867 39.0481C33.4867 39.0655 33.717 39.0797 33.9986 39.0797H34.5105L34.6096 39.2998L34.7087 39.52L34.4674 39.5066C34.0589 39.4839 33.7416 39.5102 33.7416 39.5667C33.7416 39.6016 33.9223 39.6172 34.2551 39.611C34.5768 39.6051 34.7898 39.6227 34.8254 39.6582C34.8566 39.6895 34.8703 39.7269 34.8558 39.7414C34.8238 39.7733 33.918 39.8997 33.3735 39.9481C33.0243 39.9792 31.3231 39.8974 31.1508 39.8413C31.1023 39.8255 31.118 39.7743 31.2087 39.6534C31.5596 39.1857 31.7529 38.5183 31.7529 37.7741C31.7529 36.884 31.5025 36.1156 31.0066 35.4839C30.8842 35.328 30.784 35.1881 30.784 35.173C30.784 35.1579 30.9045 35.1676 31.0518 35.1945C31.4744 35.2717 34.0883 35.2509 34.685 35.1656C35.3336 35.0729 35.3224 35.0739 35.3224 35.1095ZM31.6509 40.1342C31.9857 40.2287 32.17 40.2423 33.1297 40.2433C33.9526 40.2442 34.3136 40.2244 34.5771 40.1637L34.9282 40.083L34.9013 40.5144C34.8865 40.7517 34.8622 40.9579 34.8475 40.9727C34.7979 41.0221 33.7699 41.1494 33.5504 41.1333C33.4312 41.1245 33.3337 41.1375 33.3337 41.1622C33.3337 41.187 33.6751 41.1974 34.0986 41.1854L34.8635 41.1637V41.3003C34.8635 41.4313 34.8478 41.4392 34.4789 41.494C34.2675 41.5255 33.9404 41.5519 33.7523 41.5527C33.4774 41.554 33.4292 41.5654 33.5073 41.6106C33.6076 41.6688 34.5197 41.6407 34.7522 41.5723C34.8632 41.5396 34.8694 41.5496 34.8542 41.7354L34.838 41.9334L34.4768 41.9656C33.9046 42.0168 33.5886 42.0673 33.5886 42.1077C33.5886 42.1283 33.6517 42.1384 33.7289 42.1304C33.806 42.1223 34.0814 42.1062 34.3408 42.0947L34.8125 42.0736V42.2424C34.8125 42.403 34.8018 42.4125 34.5958 42.4375C34.4765 42.4519 34.2069 42.4861 33.9966 42.5136C33.6165 42.5631 33.6178 42.5633 34.1878 42.5475L34.7615 42.5316V42.7221V42.9126L34.448 42.9453C34.2757 42.9633 34.0519 42.9807 33.9509 42.9841C33.7828 42.9895 33.7889 42.994 34.0221 43.0362C34.1623 43.0617 34.3861 43.0696 34.5193 43.054C34.7366 43.0284 34.7615 43.0359 34.7615 43.1268C34.7615 43.202 34.7187 43.2348 34.5958 43.2537C34.5046 43.2677 34.3153 43.3018 34.1751 43.3295C33.9312 43.3775 33.9384 43.3793 34.3408 43.3696C34.6284 43.3627 34.7615 43.3779 34.7615 43.4178C34.7615 43.4708 34.6846 43.4945 34.3025 43.5592C34.2324 43.571 33.5211 43.5861 32.7218 43.5926L31.2685 43.6045L31.2356 42.8453C31.1715 41.3672 31.0889 40.0619 31.0562 40.009C31.0345 39.9739 31.0653 39.9676 31.1458 39.9909C31.2132 40.0104 31.4406 40.0749 31.6509 40.1342ZM32.05 44.3815C32.6733 44.4644 34.2146 44.4776 34.7212 44.4044C34.928 44.3745 35.1113 44.3731 35.1846 44.401C35.2512 44.4263 35.5792 44.5068 35.9133 44.5798C36.2474 44.6529 36.5751 44.7248 36.6415 44.7396C36.7079 44.7544 36.7535 44.7753 36.7428 44.786C36.7322 44.7967 36.2074 44.8422 35.5767 44.8872C34.946 44.9322 34.3956 44.977 34.3535 44.9868C34.1169 45.0418 36.3755 45.0014 36.7239 44.9444C37.0735 44.8872 37.1635 44.8886 37.3613 44.9539C37.488 44.9957 37.6091 45.0455 37.6304 45.0645C37.7108 45.136 35.8987 45.2216 34.2261 45.2252C33.018 45.2278 32.5387 45.2441 32.6453 45.279C32.9002 45.3623 35.5511 45.3919 36.8473 45.3259C37.9132 45.2716 38.0493 45.2736 38.1203 45.3446C38.1924 45.4166 37.9551 45.4241 35.601 45.4241C34.1717 45.4242 31.8434 45.4374 30.4271 45.4537L27.8519 45.4831L27.9794 45.3732C28.2222 45.1639 28.9266 44.8755 29.7642 44.6426C31.0662 44.2804 31.1551 44.2603 31.3361 44.2854C31.4294 44.2984 31.7506 44.3416 32.05 44.3815ZM26.2427 46.036C27.9726 46.1222 38.2767 46.2841 40.313 46.2572L40.8927 46.2495L40.8603 46.4611C40.8425 46.5774 40.8066 47.7159 40.7805 48.9912C40.7544 50.2664 40.7174 51.6124 40.6981 51.9822L40.6632 52.6546L40.4022 52.6805C40.2587 52.6947 39.7052 52.7315 39.1724 52.7622C38.0992 52.8243 37.7943 52.8597 37.8561 52.9154C37.8959 52.9512 39.1448 52.9091 40.1733 52.8372L40.6643 52.803L40.6848 52.9783L40.7053 53.1536L38.3326 53.186C31.6359 53.2776 28.3132 53.3298 26.8831 53.3655C26.0137 53.3873 25.2965 53.4018 25.2894 53.3977C25.2823 53.3936 25.2903 53.2891 25.3073 53.1654L25.3381 52.9405L26.7735 52.9579C27.563 52.9675 28.1946 52.9608 28.177 52.943C28.1595 52.9253 27.5176 52.8761 26.7507 52.8337C25.9837 52.7913 25.3502 52.7506 25.3428 52.7432C25.3354 52.7358 25.3067 51.6192 25.2788 50.2617C25.227 47.7324 25.1977 46.8868 25.1403 46.2691C25.1098 45.9402 25.1139 45.9189 25.202 45.9527C25.2539 45.9726 25.7222 46.0101 26.2427 46.036ZM33.2062 46.9845C29.266 47.0962 29.0827 47.1043 29.043 47.1679C29.0206 47.2037 28.9872 47.3363 28.9686 47.4624C28.9021 47.9165 28.6855 48.1471 28.177 48.3051L27.8902 48.3943L27.8626 48.7309C27.8475 48.9161 27.8481 49.5187 27.864 50.0701L27.8931 51.0725L28.204 51.1856C28.6449 51.3459 28.8682 51.5829 28.9457 51.9729C28.979 52.1407 29.0167 52.3147 29.0293 52.3596C29.0475 52.4241 29.1559 52.448 29.5485 52.474C30.3797 52.529 35.4572 52.5106 35.9853 52.4506C36.2518 52.4204 36.6043 52.3806 36.7688 52.3623L37.0678 52.329L37.1794 52.0297C37.3471 51.5795 37.5496 51.37 37.9726 51.2085C38.3289 51.0724 38.3311 51.0704 38.407 50.8086C38.471 50.5879 38.4756 50.3851 38.4357 49.551C38.4095 49.0041 38.3732 48.518 38.3551 48.4709C38.337 48.4238 38.163 48.3244 37.9684 48.2501C37.5501 48.0904 37.3468 47.8793 37.1794 47.431L37.0678 47.1322L36.5393 47.0694C35.9685 47.0017 34.1944 46.9565 33.2062 46.9845ZM36.833 47.5808C36.8406 47.9045 36.9831 48.243 37.2058 48.4658C37.3921 48.6522 37.7481 48.8383 37.9185 48.8383C38.0289 48.8383 38.0329 48.8515 38.0008 49.1058C37.9822 49.253 37.9342 49.5683 37.8942 49.8065C37.8541 50.0448 37.8213 50.3255 37.8212 50.4305C37.8211 50.6057 37.8029 50.6299 37.5992 50.7256C37.1377 50.9423 36.8446 51.3833 36.8332 51.8782L36.8267 52.1594L36.6482 52.1316C35.8835 52.0125 35.1656 51.9873 33.4367 52.0186L31.5765 52.0523L31.7412 51.8825C32.0183 51.5968 31.9241 51.5632 31.6213 51.8398C31.3553 52.0827 31.3196 52.0996 31.0731 52.0986L30.8095 52.0976L31.056 51.882C31.4044 51.5774 31.2922 51.5425 30.9171 51.8388C30.6922 52.0165 30.5453 52.0927 30.3888 52.1129C30.2697 52.1283 30.1721 52.1333 30.1721 52.1239C30.1721 52.1146 30.31 51.9755 30.4784 51.8149C30.6469 51.6543 30.7741 51.5123 30.7611 51.4993C30.7482 51.4863 30.5702 51.6273 30.3656 51.8126C30.0444 52.1035 29.9671 52.1496 29.799 52.1501L29.6043 52.1506L29.9647 51.8337C30.2949 51.5434 30.3822 51.4372 30.2907 51.4372C30.2718 51.4372 30.0886 51.5748 29.8836 51.743C29.6786 51.9111 29.499 52.0487 29.4845 52.0487C29.406 52.0487 29.481 51.9023 29.6461 51.7333C29.8681 51.5062 29.8338 51.4024 29.6082 51.6184C29.4792 51.7419 29.4456 51.7541 29.4065 51.6911C29.3712 51.6343 29.4351 51.5393 29.6638 51.3084C30.0614 50.9072 30.0551 50.8404 29.6541 51.2031C29.3982 51.4345 29.3264 51.4759 29.2665 51.4262C29.2049 51.3751 29.2353 51.3249 29.4556 51.115C29.7867 50.7993 29.7539 50.7423 29.4086 51.0333C29.1757 51.2296 29.1411 51.244 29.0711 51.1741C29.0011 51.1041 29.0196 51.076 29.2511 50.8995C29.4829 50.7229 29.5655 50.6219 29.4783 50.6219C29.4612 50.6219 29.3321 50.7136 29.1912 50.8257C28.9118 51.048 28.9066 51.05 28.7962 50.9802C28.7331 50.9403 28.7452 50.9068 28.8695 50.7771C28.9514 50.6917 28.9951 50.6219 28.9667 50.6219C28.9383 50.6219 28.8612 50.6792 28.7953 50.7493C28.689 50.8624 28.5404 50.9213 28.5404 50.8505C28.5404 50.836 28.6149 50.7577 28.706 50.6763C28.9111 50.4932 28.8657 50.4164 28.6564 50.5924L28.5048 50.7199L28.4724 50.1231C28.4407 49.5361 28.3439 49.0483 28.2066 48.7829L28.1368 48.6481L28.3861 48.6186C28.9845 48.5478 29.4582 48.069 29.4582 47.535C29.4582 47.3791 29.4724 47.3552 29.5475 47.3846C29.5965 47.4039 30.6464 47.4373 31.8804 47.4591C34.0531 47.4974 35.8427 47.4606 36.3678 47.367C36.8391 47.2829 36.8259 47.2769 36.833 47.5808ZM31.3195 49.0467C30.5479 49.0979 30.168 49.1553 30.1691 49.2205C30.1695 49.2487 30.4041 49.2879 30.6937 49.3083C31.3417 49.3538 36.1908 49.4431 36.2785 49.4112C36.3754 49.3759 36.3558 49.1551 36.253 49.1233C35.9129 49.0177 32.5442 48.9655 31.3195 49.0467ZM32.1736 49.9747C31.5294 50.0108 31.294 50.041 31.294 50.0877C31.294 50.1367 31.653 50.1593 32.8365 50.185C34.5086 50.2213 35.0304 50.1908 35.0565 50.0552C35.0663 50.0044 35.0272 49.9605 34.9552 49.9412C34.7908 49.8972 33.222 49.9161 32.1736 49.9747ZM40.9578 53.6665C41.0535 53.7201 41.5997 55.6282 41.5371 55.69C41.5266 55.7003 39.6708 55.7228 37.4131 55.7401C32.4257 55.7783 26.389 55.8656 25.1748 55.9172C24.684 55.9381 24.277 55.9517 24.2703 55.9474C24.2636 55.9432 24.324 55.735 24.4046 55.4848C24.4851 55.2346 24.6457 54.7283 24.7615 54.3599C24.9552 53.7428 25.0196 53.6284 25.173 53.6284C25.1954 53.6284 25.1362 53.8728 25.0413 54.1715C24.7963 54.9433 24.8332 54.9891 25.1067 54.2527C25.3393 53.6265 25.3936 53.5586 25.5722 53.6718C25.6244 53.7049 25.6115 53.7869 25.5109 54.0641C25.4409 54.2569 25.3934 54.4244 25.4054 54.4364C25.4331 54.4641 25.7356 53.8289 25.7357 53.7431C25.7357 53.7043 25.8055 53.6794 25.9142 53.6794C26.0124 53.6794 26.0927 53.6873 26.0927 53.697C26.0927 53.7068 26.0564 53.7873 26.0122 53.876C25.9679 53.9648 25.9417 54.0657 25.9541 54.1004C25.9664 54.1351 26.0302 54.0546 26.0958 53.9215L26.215 53.6794L28.6652 53.672C30.0129 53.6679 32.4235 53.6508 34.0221 53.6338C37.6696 53.5951 40.857 53.6101 40.9578 53.6665ZM27.0361 56.4792C28.4664 56.5075 32.3731 56.5348 35.7176 56.54C40.6563 56.5476 41.7985 56.5618 41.7985 56.6153C41.7985 56.6517 41.7239 56.6923 41.6328 56.7057C41.1855 56.7716 38.4785 56.9016 37.0179 56.9273C36.0005 56.9452 35.3734 56.9753 35.3734 57.006C35.3734 57.0881 40.0923 57.015 41.0287 56.9184C41.4606 56.8739 41.8188 56.8435 41.8246 56.8509C41.8304 56.8583 41.8494 56.924 41.8669 56.997L41.8987 57.1297L39.3882 57.163C38.0074 57.1813 36.0057 57.2078 34.94 57.2218C33.8742 57.2358 32.5318 57.2589 31.9569 57.273C31.3819 57.2871 29.8904 57.3223 28.6423 57.3513C27.3943 57.3803 25.8569 57.4238 25.2258 57.4479C24.5948 57.472 24.0752 57.4882 24.0711 57.4838C24.0671 57.4794 24.0789 57.3841 24.0974 57.272L24.1311 57.0682L26.272 57.0338C28.2486 57.002 29.8234 56.9039 29.9122 56.807C29.9289 56.7887 29.5296 56.792 29.0248 56.8142C28.52 56.8364 27.2161 56.86 26.1274 56.8665L24.1479 56.8783L24.1828 56.6675C24.227 56.4005 24.2461 56.3702 24.3505 56.4019C24.3972 56.4161 25.6057 56.4509 27.0361 56.4792Z" fill="#B6C0EB"/>
</svg>
