<svg width="65" height="64" viewBox="0 0 65 64" fill="none" xmlns="http://www.w3.org/2000/svg">
<path fill-rule="evenodd" clip-rule="evenodd" d="M30.5959 5.47604C29.8548 5.73551 28.5365 6.19415 27.6664 6.49526C23.8091 7.83003 17.1894 10.256 14.0732 11.4768C12.4506 12.1126 9.13039 13.4488 8.18485 13.8467C5.16559 15.1171 2.18975 16.5403 2.02335 16.7934C1.96851 16.8768 2.0162 17.08 2.10468 17.1397C3.33415 17.9699 8.06673 20.0576 14.0938 22.4286L15.0518 22.8055L15.0188 23.0729C14.9649 23.5105 14.7712 27.8191 14.7101 29.9409C14.6727 31.2416 14.6767 31.3189 14.8026 31.7356C15.0509 32.5571 15.4105 33.1214 16.1538 33.8557C18.6116 36.2838 23.4742 38.1044 28.9847 38.6598C30.3801 38.8005 33.5828 38.8013 34.961 38.6615C37.2839 38.4257 39.1499 38.0688 41.1716 37.4733C42.3489 37.1267 42.8874 36.9257 44.6605 36.1718C44.7016 36.1543 44.7228 36.4731 44.725 37.143C44.7294 38.4199 44.7491 38.4638 45.4212 38.6944C45.9497 38.8757 46.6114 38.9128 46.9302 38.7789C47.2201 38.6571 47.7919 38.2054 47.885 38.0246C47.9933 37.814 47.9916 37.2049 47.8802 36.4012C47.6632 34.834 47.6087 34.4641 47.5804 34.3677C47.5566 34.2866 47.5856 34.2646 47.7164 34.2646C47.8484 34.2646 47.9928 34.1524 48.4181 33.7199C49.1249 33.0009 49.3929 32.5993 49.624 31.913L49.8137 31.3495V29.995C49.8137 28.1563 49.6767 23.172 49.6165 22.8223C49.5588 22.4866 49.4981 22.5326 50.4849 22.1635C50.8771 22.0168 51.9807 21.5819 52.9374 21.1971C57.9952 19.1622 59.6564 18.4356 61.0949 17.6286C62.3321 16.9344 62.3275 16.8963 60.9168 16.1743C59.0602 15.224 55.7239 13.7667 52.216 12.3739C47.7974 10.6195 39.8534 7.67055 36.0449 6.371C33.7301 5.58116 31.9884 4.99578 31.9657 5.00002C31.9535 5.00232 31.3371 5.21651 30.5959 5.47604ZM33.1804 6.43472C34.0148 6.72023 36.3702 7.56231 38.7108 8.41193C39.1458 8.56987 40.3191 8.98977 41.3181 9.34511C44.1383 10.3483 51.1045 12.9058 53.8273 13.9376C57.0456 15.1572 58.1493 15.5782 58.954 15.893C59.4696 16.0947 60.31 16.4119 60.8216 16.5979L61.7518 16.936L60.9974 17.1871C59.9937 17.5211 58.5073 18.0722 57.1084 18.6288C56.48 18.8788 55.6626 19.1973 55.2921 19.3364C54.9215 19.4755 54.3282 19.6997 53.9738 19.8348C53.6193 19.9698 52.947 20.2217 52.4797 20.3946C48.2522 21.9589 47.1273 22.3687 47.0606 22.3687C47.0181 22.3687 46.9142 22.2503 46.8299 22.1056C46.6366 21.7742 46.178 21.3179 45.7497 21.0312C45.2875 20.7217 38.6967 17.6979 35.957 16.5384C35.3608 16.2861 34.751 16.0262 34.6019 15.9609L34.3308 15.8421L34.3071 15.4687C34.2638 14.7846 33.7809 14.3188 32.9806 14.1893C32.6102 14.1293 31.826 14.209 31.2491 14.3651C30.6188 14.5357 30.185 14.9025 30.1172 15.3224C29.9783 16.1833 30.6953 16.682 32.1663 16.7475C32.7431 16.7731 32.835 16.7937 33.2029 16.98C33.5526 17.157 34.2422 17.4827 35.6348 18.1285C35.8281 18.2182 36.3554 18.4632 36.8066 18.673C37.2577 18.8828 38.5365 19.4583 39.6482 19.952C42.9759 21.4297 43.2304 21.5447 43.7634 21.8113C44.3978 22.1287 44.7204 22.3495 44.9932 22.6529C45.2757 22.9673 45.3607 23.1282 45.2609 23.1604C45.0466 23.2293 40.0666 25.0443 39.6775 25.1952C39.0262 25.4479 34.9656 26.9116 33.1472 27.549L32.0073 27.9486L31.2723 27.6958C30.135 27.3045 19.7817 23.5332 16.1825 22.1992C12.5659 20.8586 8.42917 19.2922 5.66543 18.2168C4.77924 17.872 3.7246 17.4695 3.32179 17.3224C2.91898 17.1754 2.51499 17.0275 2.42406 16.994C2.26979 16.937 2.31496 16.9124 3.09785 16.626C3.55938 16.4573 4.45113 16.1209 5.07952 15.8784C10.3929 13.8285 17.4684 11.2085 22.8326 9.30471C26.0446 8.1647 27.2075 7.7494 28.5245 7.27203C31.9939 6.01442 31.9997 6.01248 32.1193 6.06259C32.1837 6.08962 32.6613 6.25705 33.1804 6.43472ZM32.8663 7.30731C32.8963 7.39765 32.9 7.39906 35.9277 8.47135C37.2812 8.95072 39.0417 9.58309 39.84 9.87666C41.4537 10.4701 42.9595 10.9632 43.0575 10.9303C43.1316 10.9055 41.133 10.1504 39.2925 9.50789C38.5974 9.2652 37.7405 8.95661 37.3883 8.82216C36.0326 8.30451 33.0052 7.2337 32.8975 7.2337C32.8669 7.2337 32.8529 7.26679 32.8663 7.30731ZM33.0736 14.9287C33.4635 15.1307 33.6601 15.4262 33.5354 15.6231C33.3211 15.9614 32.2613 16.2014 31.524 16.0786C30.8792 15.9712 30.5856 15.6824 30.74 15.3075C30.9223 14.8653 31.3763 14.6991 32.2889 14.7407C32.655 14.7574 32.8185 14.7965 33.0736 14.9287ZM31.2795 15.2014C31.1143 15.4018 31.3147 15.6071 31.7479 15.6813C31.9726 15.7198 32.5872 15.5926 32.5526 15.5148C32.5399 15.4863 32.3032 15.4679 32.0267 15.4739C31.5047 15.4855 31.4223 15.453 31.3786 15.2189C31.3595 15.1171 31.3504 15.1155 31.2795 15.2014ZM35.4346 16.8942C37.1848 17.7292 39.2205 18.6575 41.7575 19.7775C44.8734 21.153 45.0593 21.2404 45.5313 21.5519C46.0651 21.9041 46.3992 22.3403 46.5611 22.8965C46.6647 23.2524 46.6754 23.5632 46.7026 27.021C46.7187 29.0778 46.7494 30.8467 46.7708 30.952C46.8059 31.125 46.7964 31.1434 46.6712 31.1433L46.5327 31.1431L46.5269 30.2746C46.5237 29.7969 46.4988 29.2471 46.4716 29.0528L46.4221 28.6994L46.3807 29.0233C46.3579 29.2015 46.3366 29.7513 46.3334 30.2453L46.3276 31.1434H46.0866H45.8456L45.8882 30.952C45.9116 30.8467 45.9427 29.0901 45.9573 27.0484C45.9837 23.3548 45.9832 23.3343 45.8571 22.9957C45.6997 22.5729 45.189 22.007 44.6241 21.6296C44.1779 21.3314 43.1774 20.8399 42.3727 20.5236C42.0827 20.4096 41.389 20.1023 40.8311 19.8408C40.2734 19.5792 39.808 19.3652 39.7972 19.3652C39.7863 19.3652 39.47 19.2195 39.0943 19.0413C38.7185 18.8632 38.4024 18.7174 38.3917 18.7174C38.3811 18.7174 38.0992 18.5884 37.7653 18.4309C37.1332 18.1325 36.0508 17.6548 34.4776 16.9798C33.9701 16.7621 33.5548 16.567 33.555 16.5465C33.5551 16.5103 33.9539 16.2634 34.0331 16.2504C34.0545 16.2469 34.6852 16.5366 35.4346 16.8942ZM57.9872 16.6127C57.1958 16.8529 54.5767 17.8081 52.9777 18.4397C52.3654 18.6816 51.5876 18.9799 51.2493 19.1027C50.1816 19.49 47.5991 20.4675 47.3078 20.5946C47.1541 20.6617 47.0114 20.7606 46.9909 20.8145C46.9307 20.972 47.0553 21.1047 47.2437 21.0841C47.618 21.0429 49.7377 20.2757 51.3079 19.6132C53.5388 18.6717 55.1946 17.9946 56.9619 17.301C57.9382 16.9178 58.433 16.6948 58.4456 16.6323C58.4677 16.523 58.3057 16.5161 57.9872 16.6127ZM51.0442 17.1248C50.0939 17.455 48.6501 18.0125 48.5873 18.0735C48.4667 18.1905 48.6242 18.1941 48.9463 18.0818C50.7803 17.4423 52.127 16.8776 51.7737 16.8963C51.7269 16.8988 51.3987 17.0016 51.0442 17.1248ZM52.4797 17.5195C51.3989 17.9564 48.437 19.0912 48.0414 19.2199C48.0012 19.233 47.9682 19.2827 47.9682 19.3302C47.9682 19.4038 48.0271 19.4002 48.3652 19.306C48.9233 19.1506 50.2616 18.6716 51.1614 18.3054C51.9824 17.9711 53.9445 17.0399 53.9445 16.9845C53.9445 16.9287 53.9083 16.9419 52.4797 17.5195ZM6.98666 17.1199C7.01724 17.1483 7.46418 17.3225 7.97978 17.5072C9.58306 18.0814 16.4756 20.6738 18.0867 21.3086C18.4895 21.4673 19.5046 21.8611 20.3425 22.1837C23.039 23.222 24.6984 23.8702 26.436 24.5642C28.4378 25.3637 28.7834 25.4802 28.876 25.3871C29.0583 25.2038 28.6765 24.9828 27.3734 24.5168C26.9867 24.3785 25.7871 23.9294 24.7075 23.5188C20.4215 21.8885 16.4116 20.3847 14.249 19.5967C12.0781 18.8056 7.09664 17.0685 6.99896 17.0685C6.95678 17.0685 6.95209 17.088 6.98666 17.1199ZM11.7356 17.5987C11.8302 17.6937 13.9725 18.5711 15.1844 19.0112C17.0578 19.6913 18.5403 20.2254 19.4929 20.5634C19.9924 20.7405 21.0444 21.1146 21.8305 21.3947C22.8316 21.7512 23.2784 21.8852 23.3217 21.8418C23.4175 21.7455 23.3349 21.7021 22.4811 21.4C21.1799 20.9397 20.3091 20.6251 18.6434 20.0137C14.1166 18.3521 11.8497 17.5396 11.7402 17.5396C11.6978 17.5396 11.6963 17.5592 11.7356 17.5987ZM14.2783 17.5985C14.2783 17.6309 14.3078 17.6574 14.344 17.6574C14.3801 17.6574 14.9008 17.8457 15.5012 18.0759C17.1701 18.7157 18.9199 19.3652 18.9749 19.3652C19.002 19.3652 19.0242 19.3291 19.0242 19.285C19.0242 19.2353 18.7286 19.0988 18.2479 18.9265C16.9541 18.4627 14.3278 17.5396 14.3023 17.5396C14.2891 17.5396 14.2783 17.5661 14.2783 17.5985ZM48.6672 25.0187C48.6407 26.201 48.5891 27.95 48.5525 28.9055C48.482 30.7487 48.4685 30.8353 48.0731 31.9973C47.9578 32.3363 47.5211 33.2635 47.4768 33.2635C47.465 33.2635 47.518 33.09 47.5946 32.878C47.8646 32.1303 47.7285 31.5598 47.2211 31.3129C46.9746 31.193 46.9656 31.1793 46.9969 30.9743C47.0725 30.4783 47.2852 25.0656 47.2517 24.4884C47.2489 24.44 47.2508 24.1711 47.2558 23.8909L47.2651 23.3813L47.4503 23.3164C47.5522 23.2807 47.6419 23.2583 47.6495 23.2664C47.6572 23.2747 47.6463 24.6463 47.6254 26.3143C47.5836 29.6457 47.5969 30.9667 47.6724 30.9667C47.7456 30.9667 47.7877 29.7665 47.8365 26.2864L47.8803 23.1666L48.2904 23.0082C48.516 22.9211 48.7039 22.8541 48.708 22.8595C48.712 22.8648 48.6937 23.8365 48.6672 25.0187ZM15.8569 23.1116L16.2704 23.2657L16.2692 24.7164C16.2685 25.5143 16.3012 27.3464 16.3418 28.7878C16.406 31.0639 16.4217 31.3155 16.461 30.7017C16.4859 30.313 16.5258 28.5071 16.5495 26.6885L16.5927 23.3819L17.0828 23.5673L17.5731 23.7526L17.5223 25.8727C17.4595 28.4973 17.4602 29.8414 17.5245 29.995C17.5696 30.1026 17.5787 30.0975 17.6301 29.9361C17.6826 29.7712 17.7742 26.9345 17.7951 24.8274C17.8025 24.0791 17.82 23.8998 17.8858 23.8998C17.9306 23.8998 18.1388 23.9706 18.3485 24.0572L18.7297 24.2145L18.7451 26.2165C18.756 27.6251 18.7799 28.225 18.8259 28.2404C18.8726 28.256 18.9036 27.7016 18.9343 26.3019C18.958 25.2237 18.9835 24.3349 18.991 24.3268C18.9984 24.3188 19.6484 24.5531 20.4352 24.8476C22.4921 25.6175 26.0927 26.9381 26.8461 27.1989C29.9002 28.2563 31.5157 28.8142 31.7385 28.8883L32.0021 28.9762L33.877 28.3167C37.8958 26.9033 39.9642 26.1644 42.1855 25.3486C42.856 25.1024 43.4163 24.901 43.4306 24.901C43.445 24.901 43.4601 25.4376 43.4644 26.0935C43.4686 26.7494 43.4904 27.5908 43.5129 27.9633L43.5536 28.6405L43.5639 27.9044C43.5695 27.4995 43.5913 26.6365 43.6122 25.9867L43.6503 24.8051L44.0076 24.6764C44.2041 24.6056 44.3886 24.5476 44.4176 24.5476C44.4488 24.5476 44.453 25.9061 44.4279 27.8688C44.4022 29.8759 44.4067 31.2032 44.4392 31.2234C44.5139 31.2697 44.5694 29.7586 44.57 27.6688C44.5702 26.7133 44.5874 25.5959 44.6082 25.1858L44.6461 24.44L44.9716 24.3194C45.1506 24.2532 45.3026 24.2045 45.3094 24.2113C45.3161 24.2181 45.3498 25.668 45.3843 27.4333C45.4187 29.1985 45.4697 30.7701 45.4976 30.9256C45.5473 31.2028 45.5447 31.2102 45.3667 31.3006C45.2668 31.3513 45.126 31.447 45.0539 31.5133C44.9023 31.6526 44.6871 32.1907 44.6871 32.4305C44.6871 32.6792 44.8474 33.1689 44.9873 33.3477C45.1202 33.5176 45.1195 33.5812 44.9755 34.413L44.9141 34.7676L44.698 34.747C44.5332 34.7313 44.313 34.8032 43.7689 35.0508C41.1856 36.2259 38.0451 37.0139 34.8145 37.2977C33.4954 37.4136 30.668 37.4131 29.2665 37.2967C25.4672 36.9813 22.1059 36.107 19.3157 34.7086C17.4871 33.7921 16.4468 33.0081 15.8558 32.101C15.5932 31.6981 15.5814 31.6631 15.642 31.4648C15.6886 31.3121 15.6864 30.5869 15.6336 28.7994C15.5537 26.0882 15.4708 24.0389 15.4145 23.3845C15.3943 23.1497 15.3925 22.9576 15.4106 22.9576C15.4286 22.9576 15.6295 23.0269 15.8569 23.1116ZM46.4673 31.6726L46.6363 31.6734L46.6029 32.0709C46.5845 32.2895 46.5516 32.5281 46.5296 32.6009C46.5069 32.6763 46.5148 32.7335 46.5479 32.7335C46.6329 32.7335 46.8549 32.1825 46.8549 31.9717C46.8549 31.7715 46.917 31.7443 47.0559 31.8837C47.1512 31.9796 47.1836 32.5393 47.114 32.8889L47.0802 33.0592L46.66 33.0379C46.4288 33.0263 46.1475 33.042 46.0347 33.073C45.867 33.119 45.9347 33.1293 46.405 33.1298C46.7487 33.1301 47.0066 33.1568 47.0455 33.1959C47.0815 33.232 47.0994 33.2728 47.0854 33.2866C47.0714 33.3005 46.7055 33.3198 46.2722 33.3295L45.4844 33.3473L45.38 32.9373C45.2215 32.3147 45.2368 31.996 45.4341 31.8118L45.5952 31.6612L45.6302 32.0648C45.6625 32.4377 45.7714 32.7923 45.8537 32.7923C45.8727 32.7923 45.8882 32.5711 45.8882 32.3008C45.8882 31.7584 45.9652 31.5819 46.1771 31.6391C46.2438 31.6571 46.3744 31.6722 46.4673 31.6726ZM46.4518 33.764H47.1326L47.1684 34.2646C47.1882 34.5399 47.2435 35.1892 47.2916 35.7074C47.4179 37.0714 47.41 37.7296 47.2651 37.9158L47.1505 38.0631L47.1434 37.2975C47.1395 36.8764 47.1185 36.3862 47.0967 36.208C47.0574 35.8869 47.0567 35.8888 47.0146 36.4379C46.9912 36.7425 46.9721 37.2895 46.9721 37.6536C46.9721 38.1554 46.953 38.3229 46.8929 38.3461C46.8305 38.3701 46.8054 38.2314 46.7745 37.6898C46.6666 35.8 46.627 35.2526 46.596 35.2214C46.5773 35.2026 46.5577 35.7415 46.5523 36.419C46.5404 37.9529 46.5399 37.8928 46.5663 38.2059C46.5807 38.3763 46.5635 38.4748 46.5166 38.4905C46.4678 38.5069 46.4429 38.4327 46.439 38.2594C46.4357 38.119 46.4135 37.9379 46.3894 37.857C46.3553 37.7419 46.3358 37.7968 46.3006 38.1072C46.2757 38.3259 46.2363 38.5048 46.213 38.5048C46.1898 38.5048 46.1534 37.7708 46.1323 36.8738C46.0762 34.4913 45.9485 34.6029 45.8686 37.1041C45.8377 38.0701 45.8141 38.3144 45.755 38.2776C45.7026 38.245 45.6637 37.9156 45.6245 37.1754C45.5938 36.5948 45.5658 36.1064 45.5623 36.0902C45.5588 36.074 45.5325 36.1393 45.504 36.2353C45.4755 36.3314 45.4523 36.7787 45.4526 37.2295C45.4527 37.6803 45.441 38.0611 45.4263 38.0759C45.4117 38.0906 45.3699 38.0468 45.3336 37.9785C45.2845 37.8863 45.2847 37.4718 45.3343 36.3687C45.371 35.5516 45.392 34.6096 45.381 34.2754L45.3609 33.6679L45.5659 33.7159C45.6787 33.7424 46.0774 33.764 46.4518 33.764ZM20.5031 34.1027C20.5699 34.3089 22.7652 35.2028 24.2974 35.6477C27.4928 36.5757 31.1736 36.8355 34.6818 36.3808C36.252 36.1773 38.3592 35.7316 38.3592 35.6031C38.3592 35.5725 38.2999 35.5622 38.2274 35.5803C37.8533 35.6736 36.5556 35.9184 36.0156 35.9976C33.917 36.3052 31.1867 36.3806 29.219 36.1853C26.6962 35.9348 23.9798 35.2943 21.3333 34.3258C20.8873 34.1626 20.5126 34.0291 20.5007 34.0291C20.4889 34.0291 20.49 34.0622 20.5031 34.1027ZM5.95171 34.3835C5.41343 34.5165 4.63751 34.8687 4.15132 35.2006C3.14684 35.8862 2.44357 36.9984 2.17657 38.3238C2.03976 39.0027 2.08253 40.129 2.26732 40.7132C2.67236 41.9939 3.22828 42.539 4.86133 43.2564C6.19328 43.8416 9.07256 45.0971 10.6457 45.7787C11.3385 46.0788 13.0655 46.8275 14.4834 47.4423C18.6257 49.2386 18.9858 49.3918 19.1677 49.4356C19.2627 49.4584 19.4541 49.5643 19.593 49.6709C20.2586 50.1815 22.7225 51.2665 23.4771 51.3813C23.6221 51.4033 24.3999 51.7185 25.2055 52.0818C26.0112 52.4449 27.514 53.1192 28.5452 53.5802C29.5764 54.0411 31.0002 54.6785 31.7092 54.9966C35.4191 56.6612 41.9489 59.5588 42.2556 59.6766C43.2545 60.0602 44.2918 60.104 45.1792 59.8001C47.3372 59.0609 49.056 56.862 49.6209 54.1181C49.8147 53.1762 49.8006 51.8293 49.5885 51.0237C49.3231 50.016 48.9011 49.2642 48.2805 48.6939C47.9686 48.4072 47.233 47.9862 47.0441 47.9862C47.0013 47.9862 46.882 47.9422 46.7788 47.8884C46.6757 47.8345 45.9058 47.5466 45.0679 47.2483C43.4144 46.6598 41.4125 45.9445 39.3846 45.2174C37.9393 44.6993 36.0055 44.0159 33.0568 42.9815C29.8331 41.8505 29.6303 41.774 28.9554 41.4333C28.1007 41.002 27.8227 40.8882 26.4094 40.3915C25.079 39.924 24.5835 39.8004 24.04 39.8004C23.7901 39.8004 23.5624 39.7557 23.3261 39.6604C23.0152 39.535 22.2432 39.2574 18.9656 38.0922C18.4339 37.9032 17.5638 37.5989 17.0321 37.416C16.5004 37.2331 15.7621 36.9768 15.3915 36.8465C14.65 36.5857 12.0623 35.7036 10.3234 35.1188C9.31893 34.781 8.66846 34.5886 7.71612 34.3479C7.27118 34.2355 6.48635 34.2512 5.95171 34.3835ZM8.5368 35.3606C9.42276 35.7604 11.7629 36.6964 13.8389 37.4812C14.2256 37.6274 14.8716 37.8762 15.2744 38.0342C16.5134 38.52 22.1278 40.6245 22.1862 40.6251C22.2034 40.6253 22.0393 40.7329 21.8216 40.8642L21.4257 41.1029L20.5033 40.7076C19.3034 40.1936 17.6169 39.5383 15.3623 38.7102C13.5697 38.0518 12.2939 37.5816 8.98672 36.3603C8.05817 36.0174 7.26057 35.7369 7.21434 35.7369C7.16554 35.7369 7.13108 35.7925 7.13226 35.8694C7.13448 36.0088 6.90311 35.9179 15.0017 38.9635C17.0071 39.7176 19.0073 40.4528 20.1667 40.8621C20.7468 41.0669 21.2291 41.2397 21.2385 41.2462C21.248 41.2527 21.0852 41.4226 20.8768 41.6236C20.1019 42.3716 19.4088 43.5514 19.1062 44.6377C18.8877 45.4222 18.8418 46.7905 19.0102 47.5018L19.1256 47.9891L19.0016 47.9507C18.6963 47.8562 18.5509 47.7226 18.1773 47.1929C17.958 46.8819 17.7656 46.6404 17.7498 46.6563C17.7231 46.6831 17.9863 47.187 18.1931 47.5053L18.2825 47.6428L18.0528 47.5436C17.9264 47.489 17.6171 47.3617 17.3653 47.2607C16.9448 47.0921 16.8891 47.0494 16.6822 46.7379C16.5583 46.5514 16.4116 46.2795 16.3561 46.1337C16.3008 45.9878 16.2338 45.8819 16.2074 45.8983C16.1526 45.9323 16.2599 46.2648 16.4404 46.6203C16.5081 46.7536 16.5634 46.8743 16.5634 46.8886C16.5634 46.9029 16.2463 46.7805 15.8586 46.6167L15.154 46.3188L14.8816 45.901C14.549 45.3909 14.578 45.4275 14.538 45.4677C14.5198 45.486 14.5743 45.6389 14.6592 45.8072C14.7441 45.9756 14.8048 46.1221 14.7942 46.1328C14.7836 46.1434 14.4457 46.0149 14.0432 45.8472L13.3116 45.5422L13.0021 45.0711C12.714 44.6326 12.5792 44.4866 12.5792 44.6132C12.5792 44.6421 12.6719 44.8206 12.7852 45.0097C12.8986 45.1989 12.9817 45.3634 12.9699 45.3752C12.9582 45.387 12.8062 45.3324 12.632 45.2538C12.4579 45.1752 12.117 45.029 11.8743 44.9289L11.4331 44.747L11.0833 44.1039C10.8909 43.7502 10.7244 43.4864 10.7132 43.5177C10.6895 43.5837 10.9223 44.1917 11.0367 44.3628C11.206 44.6159 11.1009 44.6126 10.482 44.346L9.84965 44.0734L9.60287 43.5469C9.46711 43.2573 9.34225 43.0342 9.32538 43.0512C9.30851 43.0681 9.37313 43.2867 9.46899 43.5369C9.56765 43.7943 9.61283 43.9798 9.57322 43.9644C9.53467 43.9493 9.30083 43.8515 9.05358 43.7469C8.56247 43.5393 8.53317 43.4999 8.27525 42.7007C8.22035 42.5307 8.14911 42.3916 8.11688 42.3916C8.04517 42.3916 8.09901 42.6649 8.25029 43.0688C8.31094 43.2308 8.36056 43.3818 8.36056 43.4044C8.36062 43.4663 7.93601 43.2793 7.81965 43.1662C7.76375 43.1119 7.5496 42.7401 7.34377 42.3401C7.13794 41.94 6.95168 41.6417 6.92994 41.6771C6.8942 41.7352 7.40816 42.8457 7.55347 43.0246C7.64235 43.134 7.54626 43.1163 7.13191 42.9471C6.92836 42.864 6.71269 42.7381 6.65263 42.6674C6.44715 42.4255 6.01551 41.4792 5.94936 41.1254C5.86622 40.6809 5.75625 40.5366 5.81478 40.9487C5.87073 41.3431 6.05723 41.9459 6.22873 42.2866C6.3056 42.4393 6.36852 42.5761 6.36852 42.5905C6.36852 42.6049 6.19492 42.5474 5.98264 42.4628C5.63989 42.3261 5.58194 42.279 5.46347 42.041C5.26139 41.635 5.0869 41.0544 5.02907 40.5954L4.97716 40.1831L4.96972 40.5698C4.96081 41.0374 5.04782 41.5418 5.19828 41.8946C5.32408 42.1896 5.30615 42.2047 5.03083 42.036C4.88969 41.9495 4.78229 41.7988 4.64267 41.4914C4.40379 40.9655 4.31801 40.6014 4.30307 40.0502C4.29598 39.7884 4.26821 39.6308 4.23142 39.6437C4.12343 39.6813 4.17663 40.7922 4.30454 41.1696C4.36764 41.3558 4.39793 41.5082 4.3718 41.5082C4.29921 41.5082 3.79731 40.8691 3.66466 40.6078C3.2479 39.7867 3.35038 38.4666 3.92258 37.2837C4.48933 36.1121 6.17342 35.0569 7.51146 35.035C7.74788 35.0311 7.94691 35.0943 8.5368 35.3606ZM25.7622 41.4478C26.8777 41.7796 28.0472 42.1557 28.0472 42.1827C28.0472 42.192 27.8429 42.2724 27.5931 42.3614C25.6816 43.0423 24.4811 44.3066 23.7983 46.3578C23.4956 47.2671 23.3995 47.9304 23.4386 48.8401C23.4567 49.2612 23.4887 49.6765 23.5096 49.7631L23.5477 49.9205L23.0947 49.78C22.8456 49.7028 22.6253 49.6232 22.6053 49.6032C22.5344 49.5322 22.5298 48.1268 22.5991 47.6917C22.6378 47.4488 22.7438 47.0447 22.8348 46.7937C23.0223 46.2761 22.9884 46.1699 22.7911 46.6567C22.507 47.3574 22.4017 47.9143 22.3973 48.7398C22.3932 49.5168 22.3922 49.5225 22.2639 49.4901C21.8704 49.3909 21.8565 49.3739 21.8171 48.948C21.7808 48.5561 21.8445 47.769 21.9485 47.3237C21.9768 47.2022 21.9782 47.1028 21.9516 47.1028C21.8499 47.1028 21.6957 48.0248 21.6929 48.649C21.691 49.065 21.669 49.2744 21.6287 49.2591C21.5949 49.2463 21.2126 49.1088 20.7791 48.9535C20.3457 48.7983 19.9847 48.6677 19.9771 48.6633C19.9086 48.6234 19.6573 47.3649 19.6293 46.9217C19.5225 45.2323 20.2555 43.4586 21.5665 42.2344C22.0908 41.7447 22.5006 41.4916 23.1386 41.2634C23.8611 41.005 24.4012 41.043 25.7622 41.4478ZM23.2492 41.7092C21.7772 42.3132 20.6993 43.6354 20.2807 45.3505C20.171 45.7999 20.1081 47.0449 20.1788 47.3675C20.2359 47.6275 20.3613 47.6939 20.5112 47.5433C20.585 47.469 20.6062 47.327 20.6062 46.9057C20.6062 45.4604 20.8944 44.442 21.5772 43.4741C22.0145 42.8544 22.6031 42.3792 23.5006 41.9214C23.7874 41.7751 24.0189 41.6289 24.015 41.5965C24.0005 41.4737 23.7238 41.5145 23.2492 41.7092ZM31.1633 43.7127C32.1725 44.0829 34.2901 44.8533 35.8691 45.4247C37.4482 45.996 39.096 46.5927 39.5311 46.7508C40.2034 46.995 43.6108 48.2249 43.8624 48.3142C43.9143 48.3325 43.8366 48.4018 43.6573 48.4969C42.5483 49.0855 41.5663 50.1781 40.8611 51.608C39.9907 53.3732 39.7786 55.2621 40.2736 56.8401C40.3533 57.0941 40.41 57.3089 40.3996 57.3175C40.3891 57.3259 40.2167 57.2553 40.0163 57.1604C39.6787 57.0005 39.6298 56.9514 39.3486 56.4904C39.1817 56.2169 39.0316 56.0067 39.015 56.0233C38.9985 56.0399 39.0766 56.2392 39.1887 56.4661C39.3008 56.693 39.3875 56.8787 39.3814 56.8787C39.3754 56.8787 39.0967 56.7573 38.7623 56.6089C38.126 56.3267 37.9223 56.1694 37.5269 55.6553C37.3955 55.4844 37.276 55.3567 37.2611 55.3716C37.232 55.401 37.4708 55.7444 37.7114 56.0191C37.8838 56.216 37.9092 56.2231 36.9824 55.8175C36.1979 55.4743 36.1191 55.4157 35.7328 54.888C35.5834 54.6839 35.4517 54.545 35.4403 54.5794C35.4289 54.6138 35.5089 54.7677 35.6181 54.9212C35.7273 55.0747 35.8359 55.2324 35.8595 55.2716C35.8831 55.3108 35.75 55.274 35.5635 55.1899C35.3771 55.1057 34.9741 54.9269 34.668 54.7923L34.1114 54.5478L33.7057 53.947C33.4826 53.6165 33.2889 53.3573 33.2752 53.371C33.2616 53.3847 33.3577 53.6017 33.4889 53.8532C33.62 54.1047 33.7181 54.3196 33.707 54.3308C33.682 54.3559 32.2241 53.7212 32.0579 53.613C31.9919 53.57 31.7986 53.3064 31.6283 53.0273C31.458 52.7482 31.2946 52.5348 31.2651 52.5531C31.2093 52.5878 31.3042 52.8023 31.5465 53.1888C31.6245 53.3134 31.6798 53.4226 31.6694 53.4315C31.627 53.468 29.8356 52.6493 29.7922 52.5735C29.7663 52.5283 29.6914 52.3654 29.6258 52.2116C29.5602 52.0578 29.4813 51.9319 29.4506 51.9319C29.3723 51.9319 29.3809 52.02 29.4835 52.2667C29.5322 52.384 29.562 52.4902 29.5495 52.5027C29.5371 52.5151 29.2858 52.4143 28.9909 52.2786C28.3807 51.9976 28.3279 51.9244 28.1314 51.0863C28.0733 50.8387 28.0049 50.6363 27.9794 50.6363C27.9169 50.6363 28.0143 51.1525 28.1987 51.7986C28.2339 51.9221 28.2257 51.9265 28.0685 51.8686C27.9763 51.8347 27.73 51.7223 27.5213 51.6191C27.1619 51.4413 27.1359 51.4142 27.0293 51.1074C26.9671 50.9286 26.9042 50.5527 26.8889 50.2682C26.873 49.9744 26.8353 49.7529 26.8011 49.7529C26.7221 49.7529 26.7838 50.8333 26.8779 51.0957C26.9162 51.2026 26.9342 51.3035 26.9179 51.3198C26.8774 51.3606 26.0124 50.9914 25.9383 50.9018C25.8178 50.7557 25.6393 49.8888 25.6315 49.4111C25.6271 49.1422 25.5987 48.9067 25.5683 48.8878C25.4782 48.8317 25.556 50.2771 25.6586 50.5627C25.708 50.7004 25.7285 50.813 25.704 50.813C25.6796 50.813 25.5147 50.7485 25.3376 50.6698L25.0155 50.5267L24.8819 50.0367C24.7233 49.4552 24.6652 48.4698 24.7597 47.9615C24.8348 47.557 24.8053 47.4606 24.7069 47.7893C24.5879 48.1867 24.5674 49.4322 24.6717 49.9256C24.7226 50.1663 24.7556 50.3721 24.7449 50.3828C24.7342 50.3935 24.6308 50.3625 24.5152 50.3139C24.3289 50.2357 24.2993 50.1935 24.2571 49.9451C24.2309 49.7908 24.2127 49.2538 24.2165 48.7518C24.2225 47.9697 24.2455 47.7546 24.3774 47.2501C24.7676 45.757 25.712 44.395 26.8003 43.7556C27.5062 43.3411 27.4966 43.3415 28.3695 43.6867C29.5354 44.1479 32.2347 45.1616 36.6308 46.7894C37.1142 46.9683 37.7865 47.2143 38.1249 47.3358C38.4632 47.4574 39.1179 47.6964 39.5796 47.8671C40.2 48.0963 40.4362 48.16 40.4848 48.1112C40.5263 48.0695 40.53 48.0246 40.4949 47.9897C40.4642 47.9592 39.9646 47.7588 39.3846 47.5443C38.8045 47.3298 37.7103 46.9191 36.9531 46.6318C34.7385 45.7914 32.1993 44.8488 30.1858 44.1197C29.1546 43.7462 28.2186 43.4062 28.1058 43.3641C27.9364 43.3009 27.9191 43.28 28.0061 43.2444C28.1013 43.2054 28.9868 43.0617 29.2298 43.0458C29.284 43.0422 30.1541 43.3424 31.1633 43.7127ZM46.9492 49.348C47.2348 49.482 47.6267 49.8669 47.8112 50.1949C48.1994 50.8846 48.3759 51.6213 48.3773 52.5585C48.3801 54.3759 47.6463 56.1696 46.3932 57.4087C45.5345 58.2577 44.7483 58.6195 43.7789 58.6118C43.3339 58.6082 43.2007 58.5831 42.9259 58.4509C42.7467 58.3647 42.5394 58.2291 42.4651 58.1496L42.33 58.0051L42.615 58.0939C42.9619 58.2021 43.7203 58.2273 43.8133 58.1339C43.8626 58.0843 43.7767 58.0572 43.4777 58.028C42.4869 57.931 42.0217 57.7255 41.7626 57.2705C41.6631 57.0957 41.5818 56.9416 41.5818 56.928C41.5818 56.9145 41.7861 57.0021 42.0358 57.1228C42.682 57.435 43.6851 57.6218 43.9183 57.4733C43.9729 57.4385 43.897 57.4089 43.6839 57.3818C42.6031 57.2441 41.4282 56.6321 41.3208 56.1508L41.2833 55.9823L41.4765 56.0989C41.9832 56.4045 42.2486 56.5343 42.8927 56.7911C43.5049 57.0351 43.6293 57.0655 43.9282 57.0438C44.8241 56.9787 45.4253 56.1092 45.5722 54.6667C45.6533 53.8696 45.6646 53.8842 44.5984 53.4099C43.6028 52.9672 43.2809 52.7844 43.2809 52.6621C43.2809 52.3986 43.8486 51.1124 44.0649 50.886C44.1217 50.8265 44.2196 50.8404 44.5579 50.9561C44.7901 51.0354 44.98 51.0784 44.98 51.0516C44.98 51.0248 44.8087 50.9297 44.5992 50.8402C44.3897 50.7507 44.2183 50.6611 44.2183 50.6411C44.2183 50.5922 44.6865 50.0226 44.7447 50.0006C44.77 49.991 45.1246 50.1143 45.5328 50.2746C45.941 50.4349 46.2653 50.5369 46.2536 50.5012C46.2417 50.4656 45.9523 50.3158 45.6104 50.1683C45.2685 50.0208 44.9711 49.8822 44.9496 49.8603C44.9281 49.8384 45.0212 49.74 45.1563 49.6415L45.4021 49.4626L45.6745 49.6005C46.0817 49.8067 47.0883 50.174 47.1901 50.1536C47.2391 50.1438 46.9216 49.9635 46.4845 49.7529C46.0473 49.5424 45.6882 49.3529 45.6864 49.3318C45.6798 49.2549 46.1302 49.177 46.4155 49.2056C46.5766 49.2218 46.8168 49.2859 46.9492 49.348ZM42.0914 51.9706C41.9933 52.1641 41.8345 52.6898 41.7207 53.198C41.6123 53.6814 41.5447 54.8764 41.6256 54.8764C41.6596 54.8764 41.7051 54.7108 41.7267 54.5084C41.7919 53.8965 41.937 53.1654 42.09 52.6772C42.1697 52.4231 42.2428 52.2244 42.2527 52.2355C42.2625 52.2467 42.2354 52.459 42.1924 52.7073C41.9931 53.8595 41.9939 54.8239 42.1947 55.5903L42.2352 55.7448L41.7327 55.5682L41.2302 55.3915V54.9224C41.2302 54.3782 41.4012 53.4685 41.6052 52.9271C41.8268 52.3395 42.1084 51.7349 42.144 51.7707C42.1618 51.7885 42.1381 51.8785 42.0914 51.9706ZM43.3414 53.4055C43.7689 53.7114 44.6811 54.0498 45.0826 54.0512C45.3151 54.0521 45.322 54.1157 45.1505 54.6738C44.7116 56.1019 43.9286 56.6506 43.4178 55.8879C43.2872 55.6928 43.0752 55.0636 43.1237 55.0148C43.1378 55.0007 43.2909 55.0433 43.464 55.1095C43.8374 55.252 43.8082 55.2484 43.8082 55.1519C43.8082 55.109 43.6435 55.0061 43.442 54.9233C43.0962 54.7811 43.0748 54.7608 43.0577 54.5595C43.0476 54.4423 43.0637 54.3464 43.0933 54.3464C43.123 54.3464 43.3469 54.4392 43.5911 54.5525C44.066 54.7731 44.1012 54.7841 44.1012 54.7119C44.1012 54.6862 43.8612 54.547 43.568 54.4027L43.0348 54.1403L43.07 53.8818C43.0893 53.7396 43.1051 53.5475 43.1051 53.4548C43.1051 53.2544 43.1246 53.2503 43.3414 53.4055Z" fill="#B6C0EB"/>
</svg>
