<svg width="65" height="64" viewBox="0 0 65 64" fill="none" xmlns="http://www.w3.org/2000/svg">
<g clip-path="url(#clip0_1648_73774)">
<path fill-rule="evenodd" clip-rule="evenodd" d="M2.32222 7.14556C2.29404 7.22654 1.87481 8.37852 1.39046 9.70565C-0.584134 15.1166 -0.906497 16.5037 -0.0631802 15.9586C0.0215672 15.9039 0.209651 15.5208 0.354899 15.107C0.500148 14.6934 0.985655 13.3137 1.43387 12.0409C1.88208 10.7681 2.30836 9.52333 2.38133 9.27485C2.73175 8.08049 2.94027 7.18205 2.88739 7.09483C2.79618 6.94428 2.37937 6.98171 2.32222 7.14556ZM2.84282 8.55803C2.84317 9.13325 3.79259 13.8398 4.24369 15.5027C4.49251 16.42 4.62864 16.5628 5.01577 16.3126C5.13966 16.2325 5.10295 15.8718 4.82122 14.4016C4.41319 12.2727 3.9756 10.3384 3.63211 9.14655C3.417 8.39983 3.35223 8.29319 3.11439 8.29319C2.90944 8.29319 2.84259 8.35828 2.84282 8.55803ZM2.25906 10.605C1.92353 11.5048 1.72021 40.9155 2.0114 46.4298C2.19244 49.858 2.19417 49.8677 2.59343 49.8206C2.89351 49.7852 2.90206 49.7611 2.97826 48.725C3.16715 46.1576 3.30466 40.5509 3.30686 35.3207C3.30951 29.0761 3.10261 14.2905 2.97895 11.8832C2.90344 10.4144 2.88993 10.3515 2.64077 10.3155C2.4461 10.2872 2.35062 10.3597 2.25906 10.605ZM57.9921 14.0592C57.6843 14.1819 56.7528 14.4468 55.9222 14.6482C54.197 15.0663 54.0768 15.1156 54.2179 15.3483C54.3153 15.5092 54.9742 15.4472 56.3004 15.1524L56.5891 15.0882L56.2566 15.45C55.9565 15.777 55.9007 15.7966 55.6794 15.6526C55.4563 15.5074 55.2546 15.5922 53.4139 16.6066C49.9529 18.5139 47.8406 19.7272 47.1376 20.2119C46.5295 20.6313 46.4309 20.6643 46.161 20.5389C45.9154 20.4249 45.8388 20.4313 45.7406 20.5745C45.6744 20.6707 45.5684 20.8256 45.5049 20.9186C45.3581 21.1338 43.4994 22.0179 37.5167 24.7183C35.9013 25.4475 35.8766 25.4543 35.7202 25.2141C35.3821 24.695 34.292 25.4013 34.3892 26.0766C34.4355 26.3989 34.3635 26.4812 33.4486 27.1533C32.9038 27.5536 31.1047 28.8109 29.4506 29.9474C26.5169 31.9631 26.436 32.0094 26.1442 31.8425C25.896 31.7005 25.7643 31.696 25.3703 31.8164C24.856 31.9734 24.8183 32.0349 25.0432 32.3484C25.1638 32.5166 25.2485 32.5321 25.505 32.4327C25.8791 32.2877 25.9211 32.4427 25.5717 32.6792C25.356 32.8253 25.3421 32.8834 25.4632 33.1349C25.593 33.4045 25.5826 33.4015 25.3049 33.0913C24.9009 32.6397 24.6067 32.7114 24.6067 33.2615C24.6067 33.6122 24.4289 33.924 23.5676 35.0839C22.3524 36.7201 19.1797 40.1158 18.8167 40.1687C18.5606 40.2059 18.3711 40.6115 18.5555 40.7276C18.6129 40.7638 18.5817 40.9469 18.4862 41.1351C18.3233 41.4565 18.3278 41.4853 18.56 41.612C18.7574 41.7197 18.775 41.7677 18.6473 41.8501C18.5593 41.9069 18.4329 41.9541 18.3663 41.9552C18.22 41.9573 17.9268 41.1781 18.0177 41.0284C18.1 40.8924 17.8118 40.7799 17.381 40.7799C17.0074 40.7799 16.5834 41.1382 16.5802 41.4567C16.5787 41.6087 16.3568 41.734 15.7339 41.935C15.2695 42.0847 14.4852 42.4423 13.9909 42.7294C13.0314 43.2869 10.6524 45.0678 9.13514 46.3643C8.62712 46.7985 7.78288 47.4227 7.25892 47.7516C6.73508 48.0804 6.308 48.381 6.31008 48.4196C6.31204 48.4581 6.38628 48.5872 6.47495 48.7064C6.62886 48.9137 6.67147 48.9044 7.42946 48.4983C7.86578 48.2647 8.8697 47.5708 9.66037 46.9565C13.2613 44.1588 14.6814 43.2086 16.1402 42.6206C17.0423 42.2569 17.1093 42.2515 17.6838 42.4962C18.2177 42.7236 18.7719 42.6391 19.1983 42.2652C19.4519 42.0427 19.5045 41.9002 19.4979 41.4526C19.4906 40.9632 19.5474 40.8425 20.0751 40.2279C20.397 39.853 21.1112 39.0954 21.6622 38.5446C22.7036 37.5036 23.4907 36.5439 24.5936 34.9706C25.2261 34.0683 25.2544 34.0452 25.7672 34.0123C26.4379 33.9692 26.7424 33.6973 26.7438 33.1402C26.7448 32.6694 26.3073 33.0018 31.1173 29.8171C32.0945 29.17 33.4126 28.2453 34.0465 27.7622C34.8929 27.1169 35.2592 26.9033 35.426 26.9572C36.0887 27.1716 36.7605 26.7128 36.8356 25.9944C36.8665 25.6995 36.9845 25.6178 38.0123 25.179C38.6406 24.9107 39.8561 24.3598 40.7134 23.9545C41.5706 23.5492 42.5111 23.121 42.8033 23.003C43.0954 22.8849 43.8143 22.5466 44.4008 22.2513C45.2293 21.8339 45.5147 21.7402 45.6805 21.8306C45.9936 22.0014 46.4556 21.9729 46.9058 21.7552C47.4159 21.5085 47.6288 21.138 47.3711 20.9459C47.1625 20.7905 47.093 20.8341 51.1625 18.5658C52.496 17.8225 54.0648 16.9285 54.6486 16.5792C55.2325 16.2298 55.7426 15.944 55.7823 15.944C55.8219 15.944 55.7553 16.0898 55.6343 16.2677C55.3423 16.6972 55.2543 16.9656 55.3349 17.18C55.4107 17.381 55.7231 17.4218 55.7231 17.2306C55.7231 16.8638 57.4375 14.8738 58.3787 14.148C58.8569 13.7792 58.7545 13.7557 57.9921 14.0592ZM46.3709 21.175C46.3709 21.2036 46.3189 21.2596 46.2554 21.2996C46.1919 21.3397 46.14 21.3162 46.14 21.2477C46.14 21.1792 46.1919 21.1231 46.2554 21.1231C46.3189 21.1231 46.3709 21.1464 46.3709 21.175ZM46.5534 32.0326C46.4814 40.8703 46.5854 49.2773 46.7692 49.4646C46.8041 49.5002 46.8618 49.4998 46.8973 49.4635C47.0497 49.3081 47.1812 39.7211 47.1149 33.5999C47.0333 26.064 46.9195 22.577 46.7495 22.4036C46.671 22.3236 46.6069 25.4682 46.5534 32.0326ZM36.1268 26.1032C36.0972 26.1556 36.0016 26.1026 35.9144 25.9855C35.679 25.6689 35.7156 25.5202 35.9647 25.7813C36.0837 25.9059 36.1566 26.0507 36.1268 26.1032ZM35.3355 29.3919C35.2169 31.3904 35.2534 45.1162 35.3834 47.4063C35.5969 51.1694 35.6917 49.1694 35.7327 40.0382C35.7723 31.1891 35.7126 27.8323 35.5157 27.8323C35.4674 27.8323 35.3863 28.5341 35.3355 29.3919ZM25.8851 34.41C25.7589 34.6181 25.7355 49.1549 25.861 49.3532C26.1818 49.8602 26.2153 49.1344 26.1956 42.102C26.1768 35.4096 26.1208 34.0214 25.8851 34.41ZM18.1396 43.1634C18.1046 43.3092 18.0907 44.8011 18.1086 46.4789C18.1331 48.7907 18.176 49.5413 18.2853 49.5784C18.3986 49.6169 18.4296 48.9022 18.4296 46.263C18.4296 44.1422 18.3877 42.8986 18.3164 42.8986C18.2541 42.8986 18.1746 43.0177 18.1396 43.1634ZM59.528 48.6763C59.4571 48.8113 59.4163 48.9356 59.4373 48.9526C59.4584 48.9695 60.3328 49.5025 61.3806 50.1368C63.6211 51.4931 64.06 51.777 63.7476 51.6677C61.6053 50.9172 57.941 50.4115 53.0098 50.1856C48.767 49.9913 23.2778 49.91 15.7163 50.0666C5.69676 50.2742 2.03276 50.4454 2.03611 50.706C2.0413 51.1046 2.25121 51.17 3.84028 51.2678C9.11147 51.5926 14.3221 51.6588 35.6331 51.672C47.8574 51.6796 58.3267 51.7248 58.8983 51.7723C60.3228 51.8911 61.9305 52.1471 63.1696 52.4527L64.2079 52.7087L63.4005 52.9607C62.3408 53.2914 60.9391 54.0445 59.9499 54.8148C59.0427 55.521 58.8401 55.7751 59.0298 55.9685C59.1212 56.0617 59.3756 55.953 59.9508 55.5747C61.0321 54.8637 62.2341 54.2607 63.3108 53.8891C64.2762 53.5559 65.5439 53.4664 66.8361 53.6403C67.4467 53.7225 67.5 53.7112 67.5 53.5007C67.5 53.3465 67.3695 53.2239 67.0998 53.1244C66.7967 53.0127 66.7291 52.9407 66.8211 52.8277C66.8879 52.7456 66.9127 52.6291 66.8761 52.5687C66.7633 52.3826 61.9238 49.4731 60.6046 48.7982C59.7544 48.3633 59.6957 48.3567 59.528 48.6763Z" fill="#B6C0EB"/>
</g>
<defs>
<clipPath id="clip0_1648_73774">
<rect width="64" height="64" fill="white" transform="translate(0.25)"/>
</clipPath>
</defs>
</svg>
