<svg width="30" height="44" viewBox="0 0 30 44" fill="none" xmlns="http://www.w3.org/2000/svg">
<path d="M15 20.9C13.5792 20.9 12.2166 20.3205 11.2119 19.2891C10.2073 18.2576 9.64286 16.8587 9.64286 15.4C9.64286 13.9413 10.2073 12.5424 11.2119 11.5109C12.2166 10.4795 13.5792 9.9 15 9.9C16.4208 9.9 17.7834 10.4795 18.7881 11.5109C19.7927 12.5424 20.3571 13.9413 20.3571 15.4C20.3571 16.1223 20.2186 16.8375 19.9494 17.5048C19.6801 18.1721 19.2855 18.7784 18.7881 19.2891C18.2906 19.7998 17.7 20.2049 17.0501 20.4813C16.4001 20.7577 15.7035 20.9 15 20.9ZM15 0C11.0218 0 7.20644 1.6225 4.3934 4.51056C1.58035 7.39862 0 11.3157 0 15.4C0 26.95 15 44 15 44C15 44 30 26.95 30 15.4C30 11.3157 28.4196 7.39862 25.6066 4.51056C22.7936 1.6225 18.9782 0 15 0Z" fill="#32407B"/>
</svg>
