<?xml version="1.0" standalone="no"?>
<!DOCTYPE svg PUBLIC "-//W3C//DTD SVG 20010904//EN"
 "http://www.w3.org/TR/2001/REC-SVG-20010904/DTD/svg10.dtd">
<svg version="1.0" xmlns="http://www.w3.org/2000/svg"
 width="1248.000000pt" height="1248.000000pt" viewBox="0 0 1248.000000 1248.000000"
 preserveAspectRatio="xMidYMid meet">
<metadata>
Created by potrace 1.14, written by Peter Selinger 2001-2017
</metadata>
<g transform="translate(0.000000,1248.000000) scale(0.100000,-0.100000)"
fill="#000000" stroke="none">
<path d="M1345 10704 c-56 -29 -73 -59 -80 -137 -5 -54 -14 -129 -21 -158 -3
-13 -7 -35 -10 -49 -3 -14 -8 -34 -11 -45 -4 -11 -7 -22 -8 -25 -11 -61 -87
-216 -154 -317 -139 -207 -361 -383 -591 -468 -19 -7 -44 -16 -55 -21 -11 -4
-24 -8 -30 -10 -83 -22 -135 -34 -160 -38 -16 -2 -30 -5 -30 -6 0 -1 -16 -3
-35 -5 -51 -4 -75 -11 -105 -31 -56 -37 -55 -19 -55 -698 0 -344 4 -635 9
-648 13 -34 42 -62 76 -76 30 -12 132 -10 240 4 28 4 61 8 75 9 44 5 163 26
169 30 4 2 26 6 50 10 24 3 54 10 67 15 13 5 24 7 24 5 0 -2 12 0 28 6 15 6
34 12 42 14 12 3 83 24 135 39 6 2 24 8 40 15 17 6 72 28 124 48 108 41 407
191 438 220 7 7 31 22 53 34 22 13 40 26 40 31 0 4 5 8 11 8 9 0 150 102 186
135 6 5 37 32 70 60 32 27 87 78 121 112 l64 63 53 -53 c57 -55 122 -116 171
-157 99 -85 362 -266 388 -268 5 0 12 -4 15 -9 12 -16 253 -139 311 -158 3 -1
19 -7 35 -14 192 -81 481 -159 690 -186 28 -4 63 -8 79 -11 31 -4 198 -15 284
-18 28 -1 52 2 52 6 0 5 8 5 18 1 9 -5 28 -8 42 -6 14 1 66 4 115 7 94 5 145
10 255 28 36 5 79 12 95 15 67 10 186 38 270 63 39 12 77 23 85 25 8 2 56 18
105 36 50 18 93 32 98 31 4 -1 7 3 7 8 0 6 5 10 10 10 6 0 26 7 46 15 19 8 35
14 37 14 1 0 45 22 97 50 52 27 115 60 140 73 25 13 50 26 55 31 6 4 60 40
120 79 61 39 112 74 115 78 3 3 39 33 80 65 76 61 135 113 220 197 l48 47 64
-62 c89 -85 135 -127 188 -167 24 -19 53 -43 65 -53 28 -26 222 -157 231 -157
4 0 15 -7 25 -16 45 -40 444 -234 484 -234 5 0 21 -6 35 -13 14 -7 48 -19 75
-27 28 -7 56 -17 63 -23 6 -5 12 -7 12 -4 0 4 19 -1 42 -9 23 -8 53 -16 67
-19 27 -5 56 -11 94 -21 48 -11 161 -32 217 -39 76 -10 170 -19 203 -19 20 0
37 -3 37 -7 0 -3 20 -3 45 1 25 4 45 4 45 1 0 -10 305 1 400 14 25 3 65 8 90
12 25 3 54 7 65 10 11 2 35 6 54 9 19 2 52 9 75 15 23 5 50 11 61 14 67 13
257 69 332 99 34 13 64 21 67 18 3 -3 6 0 6 6 0 7 3 11 8 10 14 -3 217 91 317
147 33 18 65 34 70 36 6 2 19 11 29 21 11 10 23 18 27 18 9 0 137 87 157 107
7 7 18 13 23 13 5 0 17 8 27 18 10 9 51 44 92 77 41 33 113 96 160 141 71 69
87 80 102 71 9 -6 16 -13 14 -15 -2 -2 19 -24 47 -50 29 -26 73 -67 100 -92
27 -25 53 -47 59 -49 6 -2 18 -11 28 -20 32 -31 65 -56 130 -101 36 -25 67
-47 70 -50 3 -3 17 -11 33 -19 15 -8 27 -18 27 -23 0 -4 4 -8 10 -8 5 0 39
-18 75 -40 36 -22 67 -40 70 -40 2 0 26 -13 54 -29 27 -16 52 -27 55 -24 3 4
6 0 6 -7 0 -7 3 -11 6 -8 3 4 32 -7 65 -23 49 -25 99 -47 119 -54 15 -5 48
-18 65 -26 38 -16 238 -79 274 -85 20 -4 42 -11 49 -17 7 -5 15 -7 18 -4 3 3
20 1 37 -4 18 -6 43 -12 57 -14 26 -4 68 -11 110 -20 14 -3 45 -7 70 -10 25
-3 57 -8 71 -10 15 -3 71 -7 125 -10 86 -4 102 -2 135 17 42 23 69 74 67 128
0 19 0 49 1 65 1 17 0 50 -2 75 -1 25 1 53 5 62 4 9 5 19 1 21 -10 6 -8 170 1
186 4 6 4 11 -1 11 -10 0 -9 212 1 228 4 7 4 12 -1 12 -7 0 -8 85 -4 205 1 17
1 53 0 80 -1 28 -1 64 0 80 5 89 -6 204 -21 227 -19 29 -76 58 -121 63 -18 2
-32 4 -32 5 0 1 -16 3 -35 5 -19 2 -44 6 -55 8 -11 3 -40 10 -65 16 -126 29
-382 147 -398 184 -2 4 -8 7 -14 7 -23 0 -238 198 -273 252 -5 9 -28 42 -51
74 -112 162 -182 364 -200 574 -4 46 -13 87 -24 105 -39 63 -1 60 -740 63
-371 2 -693 0 -715 -3 -78 -11 -110 -59 -121 -185 -3 -41 -8 -84 -10 -95 -5
-26 -18 -88 -20 -97 -1 -5 -3 -10 -4 -13 -1 -3 -3 -9 -4 -14 0 -5 -4 -13 -8
-17 -5 -4 -8 -16 -8 -26 0 -17 -16 -58 -59 -148 -9 -19 -18 -37 -21 -40 -3 -3
-16 -27 -30 -53 -14 -27 -33 -55 -42 -64 -10 -9 -18 -20 -18 -25 0 -19 -209
-238 -228 -238 -6 0 -12 -4 -14 -9 -3 -9 -153 -111 -163 -111 -4 0 -20 -9 -36
-21 -16 -11 -29 -18 -29 -14 0 3 -10 -1 -22 -9 -26 -16 -218 -82 -263 -90 -16
-2 -41 -7 -54 -10 -84 -19 -248 -24 -367 -12 -69 6 -91 10 -144 21 -14 3 -34
7 -45 9 -11 2 -33 9 -48 15 -16 6 -33 9 -38 5 -5 -3 -9 -1 -9 4 0 5 -19 14
-41 21 -94 28 -285 137 -376 214 -83 71 -181 180 -238 267 -17 25 -32 47 -35
50 -13 11 -112 230 -105 230 3 0 0 12 -6 28 -24 60 -42 153 -54 287 -7 70 -11
79 -49 110 l-38 30 -700 2 c-531 2 -705 0 -721 -9 -12 -7 -24 -12 -27 -11 -11
3 -49 -63 -54 -92 -2 -16 -8 -64 -11 -105 -4 -41 -9 -78 -11 -81 -2 -3 -6 -21
-9 -40 -18 -99 -85 -262 -151 -367 -19 -29 -34 -57 -34 -62 0 -6 -4 -10 -8
-10 -5 0 -23 -20 -40 -44 -52 -72 -173 -184 -279 -259 -125 -88 -337 -173
-503 -202 -87 -16 -314 -26 -335 -16 -5 3 -25 6 -45 7 -79 6 -191 31 -280 61
-72 25 -263 120 -287 142 -13 12 -25 20 -27 19 -3 -2 -16 6 -28 17 -13 11 -39
32 -58 46 -29 21 -104 95 -155 152 -106 118 -226 349 -250 482 -2 11 -6 30 -9
43 -13 49 -16 69 -21 122 -14 145 -24 168 -89 195 -55 23 -1387 22 -1431 -1z"/>
<path d="M76 6326 c-74 -37 -71 -14 -70 -717 1 -343 2 -633 3 -645 1 -29 61
-94 91 -100 36 -7 12119 -6 12155 1 17 4 40 15 52 27 49 46 48 34 48 709 0
700 1 681 -64 721 l-36 23 -6070 0 c-5961 0 -6071 0 -6109 -19z"/>
<path d="M95 3234 c-43 -14 -72 -45 -83 -88 -4 -17 -8 -315 -7 -662 l0 -631
28 -36 c17 -23 42 -40 65 -47 26 -8 365 -10 1114 -8 l1078 3 37 38 38 37 3
651 c3 650 3 651 -19 685 -46 75 49 69 -1146 70 -818 0 -1081 -2 -1108 -12z"/>
<path d="M3418 3233 c-18 -7 -44 -30 -58 -50 l-25 -36 0 -643 0 -642 23 -37
c44 -69 -24 -66 1174 -63 1065 3 1083 3 1110 23 60 45 57 13 58 716 0 622 -1
645 -19 676 -11 18 -32 40 -48 50 -26 17 -84 18 -1104 19 -875 0 -1084 -2
-1111 -13z"/>
<path d="M6744 3232 c-16 -8 -33 -20 -40 -26 -38 -38 -38 -43 -39 -686 0 -344
1 -637 3 -652 4 -29 55 -89 82 -98 8 -3 502 -6 1098 -7 l1083 -3 34 22 c68 45
65 7 65 721 l0 644 -23 34 c-46 68 30 64 -1159 65 -925 0 -1081 -2 -1104 -14z"/>
<path d="M10068 3227 c-75 -38 -73 -15 -72 -730 0 -666 0 -656 45 -700 10 -9
30 -22 44 -27 36 -14 2154 -14 2190 0 52 20 87 73 82 124 -2 20 -1 36 2 36 7
0 7 53 -1 66 -3 5 -2 18 2 29 4 11 4 34 -1 52 -4 18 -3 33 1 33 8 0 6 57 -3
66 -3 3 -2 18 2 32 7 27 5 86 -4 110 -2 6 -1 12 3 12 6 0 8 223 2 290 -1 14
-1 30 0 35 5 23 0 237 -5 245 -4 6 -2 10 3 10 10 0 9 56 -1 66 -3 3 -1 20 4
37 11 39 11 39 0 33 -4 -3 -5 9 -2 27 13 58 -20 129 -74 160 -15 9 -305 12
-1099 13 -1055 0 -1079 0 -1118 -19z"/>
</g>
</svg>
