<svg viewBox="0 0 24 24" xmlns="http://www.w3.org/2000/svg">
<path fill-rule="evenodd" clip-rule="evenodd" d="M9.20243 4.69679C9.29701 4.57278 9.44404 4.5 9.6 4.5H12C12.1825 4.5 12.3506 4.59948 12.4384 4.75952L15.496 10.3333H18.4C18.9637 10.3333 19.5 10.5668 19.8921 10.9752C20.2835 11.383 20.5 11.9318 20.5 12.5C20.5 13.0682 20.2835 13.617 19.8921 14.0248C19.5 14.4332 18.9637 14.6667 18.4 14.6667H15.496L12.4384 20.2405C12.3506 20.4005 12.1825 20.5 12 20.5H9.6C9.44404 20.5 9.29701 20.4272 9.20243 20.3032C9.10785 20.1792 9.07656 20.0182 9.11781 19.8677L10.5444 14.6667H8.21311L6.76069 16.1796C6.66641 16.2778 6.53615 16.3333 6.4 16.3333H4C3.82815 16.3333 3.66833 16.2451 3.57681 16.0996C3.48528 15.9542 3.47487 15.7719 3.54924 15.617L5.04538 12.5L3.54924 9.38303C3.47487 9.2281 3.48528 9.04584 3.57681 8.90038C3.66833 8.75493 3.82815 8.66667 4 8.66667H6.4C6.53615 8.66667 6.66641 8.72219 6.76069 8.8204L8.21311 10.3333H10.5444L9.11781 5.13226C9.07656 4.98185 9.10785 4.82081 9.20243 4.69679ZM10.2556 5.5L11.6822 10.7011C11.7234 10.8515 11.6922 11.0125 11.5976 11.1365C11.503 11.2606 11.356 11.3333 11.2 11.3333H8C7.86385 11.3333 7.73359 11.2778 7.63931 11.1796L6.18689 9.66667H4.79462L6.05076 12.2836C6.11641 12.4204 6.11641 12.5796 6.05076 12.7164L4.79462 15.3333H6.18689L7.63931 13.8204C7.73359 13.7222 7.86385 13.6667 8 13.6667H11.2C11.356 13.6667 11.503 13.7394 11.5976 13.8635C11.6922 13.9875 11.7234 14.1485 11.6822 14.2989L10.2556 19.5H11.704L14.7616 13.9262C14.8494 13.7661 15.0175 13.6667 15.2 13.6667H18.4C18.685 13.6667 18.9627 13.5489 19.1707 13.3322C19.3794 13.1149 19.5 12.8159 19.5 12.5C19.5 12.1841 19.3794 11.8851 19.1707 11.6678C18.9627 11.4511 18.685 11.3333 18.4 11.3333H15.2C15.0175 11.3333 14.8494 11.2339 14.7616 11.0738L11.704 5.5H10.2556Z"/>
</svg>
