<svg viewBox="0 0 24 24" xmlns="http://www.w3.org/2000/svg">
<path d="M6.50178 23.875H18.4982C20.8365 23.875 22 22.7118 22 20.4077V10.3495C22 8.92049 21.8419 8.30011 20.9382 7.39179L14.7027 1.17733C13.8443 0.313299 13.1439 0.125 11.8674 0.125H6.50178C4.17479 0.125 3 1.29922 3 3.60332V20.4077C3 22.7229 4.17479 23.875 6.50178 23.875ZM6.59215 22.0915C5.42863 22.0915 4.81865 21.4823 4.81865 20.3745V3.63655C4.81865 2.53989 5.42863 1.90845 6.60343 1.90845H11.6189V8.34444C11.6189 9.74018 12.3418 10.427 13.7426 10.427H20.1813V20.3745C20.1813 21.4823 19.5826 22.0915 18.4079 22.0915H6.59215ZM13.9459 8.75431C13.5053 8.75431 13.3246 8.57707 13.3246 8.13397V2.25187L19.8312 8.75431H13.9459ZM13.3698 12.5096C13.3698 12.0554 12.9631 11.6898 12.5 11.6898C12.0369 11.6898 11.6415 12.0554 11.6415 12.5096V16.5306L11.7093 18.3363L10.7491 17.3615L9.73245 16.3424C9.57432 16.1762 9.33709 16.0876 9.13375 16.0876C8.67063 16.0876 8.33171 16.4088 8.33171 16.8519C8.33171 17.1067 8.43341 17.295 8.61414 17.4501L11.8674 20.3856C12.1046 20.5961 12.2854 20.6736 12.5 20.6736C12.7259 20.6736 12.8954 20.5961 13.1326 20.3856L16.3859 17.4501C16.5666 17.295 16.6682 17.1067 16.6682 16.8519C16.6682 16.4088 16.3294 16.0876 15.8775 16.0876C15.6516 16.0876 15.437 16.1762 15.2788 16.3424L14.2509 17.3615L13.2907 18.3363L13.3698 16.5306V12.5096Z"/>
</svg>
