<svg viewBox="0 0 24 24" xmlns="http://www.w3.org/2000/svg">
<path d="M7.1251 0.810919C6.89541 0.885918 6.50166 1.28904 6.43135 1.52811C6.35166 1.80936 6.35166 16.5656 6.43135 16.8469C6.50635 17.1047 6.89541 17.4937 7.15322 17.5687C7.30322 17.6109 9.08916 17.625 14.822 17.625C23.2642 17.625 22.5704 17.6578 22.936 17.25C23.0485 17.1281 23.1657 16.9406 23.1938 16.8375C23.2735 16.5703 23.2735 1.80467 23.1938 1.53748C23.1657 1.43436 23.0485 1.24686 22.936 1.12498C22.5704 0.717169 23.2688 0.749981 14.7938 0.754669C9.46416 0.759356 7.24229 0.773418 7.1251 0.810919ZM21.7501 9.18748V16.125H14.8126H7.8751V9.18748V2.24998H14.8126H21.7501V9.18748Z" />
<path d="M1.5001 6.43592C1.27041 6.51092 0.87666 6.91404 0.806348 7.15311C0.72666 7.43436 0.72666 22.1906 0.806348 22.4719C0.881348 22.7297 1.27041 23.1187 1.52822 23.1937C1.67822 23.2359 3.46416 23.25 9.19697 23.25C17.6392 23.25 16.9454 23.2828 17.311 22.875C17.4235 22.7531 17.5407 22.5656 17.5688 22.4625C17.6063 22.3359 17.6251 21.7828 17.6251 20.7V19.125H16.8751H16.1251V20.4375V21.75H9.1876H2.2501V14.8125V7.87498H3.5626H4.8751V7.12498V6.37498L3.27197 6.37967C2.24072 6.38436 1.60322 6.40311 1.5001 6.43592Z"/>
</svg>
