<svg viewBox="0 0 24 24" xmlns="http://www.w3.org/2000/svg">
<path d="M5.99063 2.43281C5.64375 2.54531 5.45156 2.66719 5.19375 2.93906C4.95 3.20625 4.8 3.49687 4.73438 3.83906C4.70625 3.98438 4.6875 4.86094 4.6875 5.86406V7.64062H3.56719C2.95312 7.64062 2.33438 7.66406 2.19844 7.6875C1.62188 7.79531 1.125 8.18437 0.871875 8.71875L0.726562 9.02344V13.5469V18.0703L0.871875 18.375C1.14375 18.9375 1.63594 19.3078 2.25 19.4062C2.41875 19.4297 3.03281 19.4531 3.62344 19.4531H4.6875V19.6828C4.6875 20.025 4.76719 20.3859 4.90781 20.6625C5.07656 20.9953 5.50313 21.3844 5.84531 21.525L6.11719 21.6328H12H17.8828L18.1547 21.525C18.5063 21.3797 18.9281 20.9906 19.0875 20.6625C19.2281 20.3719 19.3125 20.0109 19.3125 19.6875V19.4531H20.3813C20.9672 19.4531 21.5813 19.4297 21.7453 19.4016C22.3688 19.3031 22.8563 18.9375 23.1281 18.375L23.2734 18.0703V13.5469V9.02344L23.1281 8.71875C22.875 8.17969 22.3828 7.79531 21.8016 7.6875C21.6656 7.66406 21.0469 7.64062 20.4328 7.64062H19.3172L19.3031 6.60937L19.2891 5.57812L17.6719 3.96094L16.05 2.34375L11.1562 2.34844C6.5625 2.34844 6.23906 2.35312 5.99063 2.43281ZM15.3844 4.18125C15.3984 5.03906 15.4031 5.1 15.5203 5.34375C15.6609 5.64375 15.9703 5.9625 16.2422 6.09375C16.5375 6.23906 16.875 6.28125 17.6531 6.28125H18.375V6.96094V7.64062H12H5.625V5.86875C5.625 4.8 5.64375 4.03125 5.67188 3.92812C5.7375 3.69375 5.92969 3.47344 6.16406 3.37031C6.34219 3.28594 6.58594 3.28125 10.8609 3.28125H15.3656L15.3844 4.18125ZM17.5922 5.33906C17.55 5.34844 17.3391 5.34375 17.1281 5.33437C16.4766 5.30156 16.3125 5.11406 16.3125 4.40625V3.96094L16.9922 4.64062C17.4891 5.1375 17.6531 5.325 17.5922 5.33906ZM21.7172 8.62969C21.9563 8.69531 22.2516 8.96719 22.3125 9.18281C22.35 9.29531 22.3594 10.7344 22.35 13.65L22.3359 17.9437L22.1906 18.1266C21.9 18.4828 21.8766 18.4922 20.5219 18.5062L19.3125 18.5203V16.8094V15.0937H19.7859C20.2453 15.0937 20.2594 15.0891 20.3953 14.9578C20.5406 14.8125 20.5781 14.5687 20.4844 14.3859C20.3531 14.1422 20.8031 14.1562 12 14.1562C3.19687 14.1562 3.64687 14.1422 3.51562 14.3859C3.42188 14.5687 3.45938 14.8125 3.60469 14.9578C3.74063 15.0891 3.75469 15.0937 4.21406 15.0937H4.6875V16.8094V18.5203L3.48281 18.5062C2.12344 18.4922 2.1 18.4828 1.80938 18.1266L1.66406 17.9437L1.65 13.65C1.64063 10.8187 1.65469 9.29531 1.68281 9.1875C1.74375 8.97656 1.99688 8.73281 2.23125 8.64844C2.38594 8.59219 3.97031 8.58281 11.9766 8.58281C18.5672 8.57812 21.5953 8.59219 21.7172 8.62969ZM18.375 17.4937C18.375 19.0031 18.3563 19.9641 18.3281 20.0719C18.2625 20.3062 18.0703 20.5266 17.8359 20.6297C17.6578 20.7141 17.3813 20.7187 12 20.7187C6.61875 20.7187 6.34219 20.7141 6.16406 20.6297C5.92969 20.5266 5.7375 20.3062 5.67188 20.0719C5.64375 19.9641 5.625 19.0031 5.625 17.4937V15.0937H12H18.375V17.4937Z"/>
<path fill-rule="evenodd" clip-rule="evenodd" d="M4.90781 20.6625C4.76719 20.3859 4.6875 20.025 4.6875 19.6828V19.4531M4.86532 3.86418C4.92594 3.54808 5.06365 3.2798 5.29138 3.02988C5.5337 2.77452 5.70683 2.66507 6.03135 2.55977M5.19375 2.93906C5.45156 2.66719 5.64375 2.54531 5.99063 2.43281C6.23906 2.35312 6.5625 2.34844 11.1562 2.34844L16.05 2.34375L17.6719 3.96094L19.2891 5.57812L19.3172 7.64062H20.4328C21.0469 7.64062 21.6656 7.66406 21.8016 7.6875C22.3828 7.79531 22.875 8.17969 23.1281 8.71875L23.2734 9.02344V18.0703L23.1281 18.375C22.8563 18.9375 22.3688 19.3031 21.7453 19.4016C21.5813 19.4297 20.9672 19.4531 20.3813 19.4531H19.3125V19.6875C19.3125 20.0109 19.2281 20.3719 19.0875 20.6625C18.9281 20.9906 18.5063 21.3797 18.1547 21.525L17.8828 21.6328H6.11719L5.84531 21.525C5.50313 21.3844 5.07656 20.9953 4.90781 20.6625M5.89526 21.4014L6.14266 21.4995H17.8573L18.1038 21.4018C18.1035 21.4019 18.104 21.4017 18.1038 21.4018C18.2606 21.3368 18.4414 21.2134 18.6027 21.0644C18.7645 20.9149 18.8974 20.7486 18.9675 20.6044C19.0995 20.3315 19.1792 19.9904 19.1792 19.6875V19.3198H20.3813C20.6726 19.3198 20.9709 19.314 21.2164 19.3047C21.4658 19.2952 21.6511 19.2824 21.7228 19.2701L21.7245 19.2699C22.3044 19.1783 22.7549 18.8405 23.0079 18.3174C23.0078 18.3175 23.008 18.3172 23.0079 18.3174L23.1401 18.0401V9.05361L23.0078 8.77615C22.7727 8.27555 22.316 7.91883 21.7781 7.81876C21.7202 7.80894 21.5422 7.79738 21.2918 7.78852C21.0449 7.77979 20.7383 7.77396 20.4328 7.77396H19.1857L19.1565 5.6341L17.5777 4.05536L15.9949 2.47714L11.1564 2.48177C8.85887 2.48177 7.63087 2.48295 6.94611 2.49406C6.25617 2.50525 6.13315 2.52717 6.03135 2.55977M5.89526 21.4014C5.74331 21.3388 5.56452 21.217 5.40167 21.0676C5.2385 20.9179 5.10157 20.7498 5.02673 20.6022C4.89684 20.3467 4.82083 20.0068 4.82083 19.6828V19.3198H3.62344C3.03317 19.3198 2.42994 19.2963 2.26969 19.2744C1.70009 19.1826 1.24509 18.8405 0.992071 18.3173C0.992021 18.3172 0.992121 18.3174 0.992071 18.3173L0.859896 18.0401V9.0536L0.992222 8.77614C1.22735 8.27977 1.68881 7.91878 2.22196 7.81875C2.27998 7.80893 2.4579 7.79738 2.70823 7.78852C2.95506 7.77979 3.2617 7.77396 3.56719 7.77396H4.82083V5.86406C4.82083 5.36321 4.82552 4.89433 4.83369 4.5329C4.83778 4.3521 4.84273 4.19882 4.84836 4.08214C4.8542 3.96124 4.86047 3.88927 4.86532 3.86418M0.726562 18.0703L0.871875 18.375C1.14375 18.9375 1.63594 19.3078 2.25 19.4062M0.726562 9.02344V18.0703ZM15.5177 4.17847L15.4962 3.14792H10.8609C8.7242 3.14792 7.59283 3.14908 6.97364 3.16083C6.36894 3.17231 6.22886 3.19251 6.10867 3.24902C5.83976 3.36798 5.62006 3.61868 5.54348 3.89217C5.53663 3.91731 5.53223 3.95191 5.52908 3.98439C5.52562 4.01995 5.52246 4.06465 5.51956 4.1172C5.51373 4.22244 5.50871 4.36316 5.5046 4.5331C5.49636 4.87322 5.49167 5.33375 5.49167 5.86875V7.77396H18.5083V6.14792H17.6531C16.8738 6.14792 16.5654 6.10419 16.3011 5.97411L16.3002 5.97367C16.0579 5.85673 15.7697 5.56153 15.641 5.28716L15.6405 5.28597C15.5858 5.17233 15.5615 5.11092 15.5461 4.97755C15.5295 4.83281 15.5248 4.61081 15.5177 4.17847ZM6.16406 3.37031C5.92969 3.47344 5.7375 3.69375 5.67188 3.92812C5.64375 4.03125 5.625 4.8 5.625 5.86875M5.75833 7.64062H18.375V6.28125H17.6531C16.875 6.28125 16.5375 6.23906 16.2422 6.09375C15.9703 5.9625 15.6609 5.64375 15.5203 5.34375C15.4031 5.1 15.3984 5.03906 15.3844 4.18125L15.3656 3.28125H10.8609C6.58594 3.28125 6.34219 3.28594 6.16406 3.37031M17.6211 5.46922L17.6222 5.46898C17.6445 5.46383 17.6751 5.45155 17.7004 5.42317C17.7267 5.39377 17.7361 5.35974 17.7374 5.33211C17.7398 5.28617 17.7208 5.24822 17.7117 5.23111C17.6894 5.18946 17.6503 5.13939 17.6023 5.08382C17.5032 4.96881 17.3345 4.79442 17.0865 4.54634L16.1792 3.63904V4.40625C16.1792 4.75945 16.2172 5.03087 16.3758 5.21142C16.5376 5.39567 16.7933 5.45102 17.1214 5.46754C17.2277 5.47226 17.3354 5.47587 17.4216 5.47707C17.4646 5.47767 17.5034 5.47769 17.5349 5.47689C17.5617 5.47622 17.5958 5.47484 17.6211 5.46922ZM22.1906 18.1266L22.3359 17.9437L22.35 13.65C22.3594 10.7344 22.35 9.29531 22.3125 9.18281C22.2516 8.96719 21.9563 8.69531 21.7172 8.62969C21.5953 8.59219 18.5672 8.57812 11.9766 8.58281C3.97031 8.58281 2.38594 8.59219 2.23125 8.64844C1.99688 8.73281 1.74375 8.97656 1.68281 9.1875C1.65469 9.29531 1.64063 10.8187 1.65 13.65L1.66406 17.9437L1.80938 18.1266C2.1 18.4828 2.12344 18.4922 3.48281 18.5062L4.6875 18.5203V15.0937H4.21406C3.75469 15.0937 3.74063 15.0891 3.60469 14.9578C3.45938 14.8125 3.42188 14.5687 3.51562 14.3859C3.5287 14.3617 3.536 14.3399 3.54726 14.3205C3.64903 14.1448 4.07368 14.1562 12 14.1562C19.9263 14.1562 20.351 14.1448 20.4527 14.3205C20.464 14.3399 20.4713 14.3617 20.4844 14.3859C20.5781 14.5687 20.5406 14.8125 20.3953 14.9578C20.2594 15.0891 20.2453 15.0937 19.7859 15.0937H19.3125V18.5203L20.5219 18.5062C21.8766 18.4922 21.9 18.4828 22.1906 18.1266ZM20.5234 18.6396C21.1921 18.6326 21.5557 18.6274 21.7852 18.5747C21.9073 18.5466 21.9988 18.5039 22.0809 18.4385C22.1583 18.3768 22.2232 18.2976 22.2939 18.2108L22.295 18.2095L22.4691 17.9905L22.4833 13.6504C22.488 12.1926 22.488 11.1033 22.4822 10.3642C22.4792 9.99476 22.4748 9.71201 22.4688 9.51418C22.4657 9.41541 22.4623 9.33664 22.4583 9.27835C22.4563 9.2493 22.4541 9.22405 22.4516 9.20334C22.4495 9.18678 22.4464 9.16444 22.4402 9.14436C22.3997 9.00366 22.2914 8.86252 22.1722 8.75218C22.0516 8.64039 21.9001 8.54193 21.7536 8.50142M20.5234 18.6396L19.1792 18.6552V14.9604H19.7859C20.0235 14.9604 20.1229 14.9584 20.1826 14.9449C20.2212 14.9362 20.2356 14.9267 20.3018 14.8627C20.405 14.7588 20.433 14.5789 20.3662 14.4477C20.3576 14.4315 20.3501 14.4147 20.3455 14.4044C20.3445 14.4021 20.3436 14.4001 20.3429 14.3985C20.3403 14.393 20.3387 14.3899 20.3379 14.3882C20.3339 14.3858 20.3242 14.3811 20.3042 14.3753C20.2102 14.3481 19.998 14.3266 19.4906 14.313C18.598 14.289 16.8458 14.2892 13.3613 14.2895C12.9341 14.2895 12.4809 14.2896 12 14.2896C11.5191 14.2896 11.0659 14.2895 10.6387 14.2895C7.1542 14.2892 5.40196 14.289 4.50944 14.313C4.00203 14.3266 3.78981 14.3481 3.69583 14.3753C3.67582 14.3811 3.66613 14.3858 3.66214 14.3882C3.66126 14.3899 3.65967 14.393 3.65712 14.3985C3.65641 14.4001 3.65552 14.4021 3.65447 14.4045C3.64992 14.4147 3.64243 14.4315 3.63378 14.4477C3.56705 14.579 3.59499 14.7588 3.69821 14.8628C3.76442 14.9267 3.77886 14.9362 3.81742 14.9449C3.87709 14.9584 3.97652 14.9604 4.21406 14.9604H4.82083V18.6552L3.48143 18.6396C2.81033 18.6326 2.44549 18.6274 2.21551 18.5747C2.09313 18.5466 2.00148 18.504 1.91925 18.4385C1.84171 18.3768 1.77679 18.2976 1.70606 18.2108L1.53088 17.9905L1.51667 13.6504C1.51198 12.2346 1.51315 11.1454 1.51901 10.3964C1.52195 10.022 1.52606 9.73211 1.53121 9.52872C1.53379 9.42714 1.53664 9.34631 1.5398 9.287C1.54137 9.25741 1.54307 9.23221 1.54494 9.21198C1.54654 9.19475 1.54895 9.17241 1.5538 9.15384L1.55472 9.15049C1.59388 9.01492 1.68929 8.8821 1.79883 8.77512C1.90942 8.66712 2.047 8.5731 2.18589 8.52306C2.22543 8.50873 2.28591 8.50187 2.35586 8.49652C2.43273 8.49064 2.54102 8.48559 2.68937 8.48118C2.98643 8.47234 3.45051 8.46589 4.15869 8.4612C5.57543 8.45182 7.97355 8.44948 11.9765 8.44948M3.65981 14.3899C3.65988 14.3899 3.66041 14.3896 3.66119 14.3888ZM20.3402 14.3899C20.3403 14.3899 20.3399 14.3895 20.3388 14.3888ZM18.4571 20.1055C18.4641 20.079 18.468 20.0407 18.4711 20.0028C18.4745 19.961 18.4776 19.9069 18.4805 19.8417C18.4863 19.7112 18.4913 19.5325 18.4954 19.3109C18.5036 18.8673 18.5083 18.2489 18.5083 17.4937V14.9604H5.49167V17.4937C5.49167 18.2489 5.49636 18.8673 5.50458 19.3109C5.50869 19.5325 5.5137 19.7112 5.51948 19.8417C5.52237 19.9069 5.5255 19.961 5.52889 20.0028C5.53196 20.0407 5.53594 20.079 5.54286 20.1055L5.54346 20.1078C5.62004 20.3813 5.83978 20.632 6.1087 20.751C6.17232 20.7809 6.24024 20.799 6.38224 20.812C6.52291 20.8248 6.74696 20.8333 7.12881 20.8392C7.89418 20.8509 9.31 20.8521 12 20.8521C14.69 20.8521 16.1058 20.8509 16.8712 20.8392C17.253 20.8333 17.4771 20.8248 17.6178 20.812C17.7598 20.799 17.8277 20.7809 17.8913 20.751C18.1602 20.632 18.3799 20.3813 18.4565 20.1078L18.4571 20.1055ZM17.8359 20.6297C17.6578 20.7141 17.3813 20.7187 12 20.7187C6.61875 20.7187 6.34219 20.7141 6.16406 20.6297C5.92969 20.5266 5.7375 20.3062 5.67188 20.0719C5.64375 19.9641 5.625 19.0031 5.625 17.4937V15.0937H18.375V17.4937C18.375 19.0031 18.3563 19.9641 18.3281 20.0719C18.2625 20.3062 18.0703 20.5266 17.8359 20.6297ZM16.3125 4.40625C16.3125 5.11406 16.4766 5.30156 17.1281 5.33437C17.2535 5.33994 17.3788 5.34386 17.4687 5.34415C17.4701 5.34416 17.4715 5.34416 17.4729 5.34416C17.5322 5.34428 17.5755 5.34278 17.5922 5.33906C17.6122 5.33444 17.6079 5.31109 17.5756 5.26419C17.5752 5.26373 17.5749 5.26327 17.5746 5.26281C17.5653 5.24943 17.5537 5.23417 17.5398 5.21691C17.5381 5.21469 17.5362 5.21243 17.5344 5.21014C17.4464 5.10229 17.2721 4.92056 16.9922 4.64062L16.3125 3.96094V4.40625ZM5.19375 2.93906C4.95 3.20625 4.8 3.49687 4.73438 3.83906Z" />
<path d="M19.3453 9.90936C18.4688 10.2234 18.1922 11.3391 18.8203 12.0375C19.3594 12.6375 20.25 12.6375 20.7891 12.0375C21.5532 11.1891 20.9578 9.83905 19.8282 9.84843C19.6594 9.84843 19.4438 9.87655 19.3453 9.90936ZM20.086 10.8984C20.236 11.0437 20.236 11.25 20.0953 11.4141C19.8657 11.6812 19.4063 11.5078 19.4063 11.1516C19.4063 10.8234 19.8469 10.6547 20.086 10.8984Z" />
<path fill-rule="evenodd" clip-rule="evenodd" d="M18.9195 11.9484L18.9195 11.9483C18.3541 11.3196 18.6041 10.3177 19.3888 10.0354C19.4693 10.009 19.6678 9.98176 19.8282 9.98176H19.8293L19.8293 9.98175C20.8391 9.97337 21.379 11.1831 20.69 11.9483L20.6899 11.9484C20.2038 12.4894 19.4056 12.4894 18.9195 11.9484ZM19.3453 9.90936C18.4688 10.2234 18.1922 11.3391 18.8203 12.0375C19.3594 12.6375 20.25 12.6375 20.7891 12.0375C21.5532 11.1891 20.9578 9.83905 19.8282 9.84843C19.6594 9.84843 19.4438 9.87655 19.3453 9.90936ZM20.1965 11.501L20.1966 11.5008C20.2849 11.3978 20.3346 11.2746 20.333 11.1475C20.3313 11.0199 20.2779 10.8993 20.18 10.8038C20.0176 10.6393 19.79 10.6178 19.6095 10.6858C19.4288 10.7538 19.2729 10.9208 19.2729 11.1516C19.2729 11.6275 19.8836 11.865 20.1965 11.501ZM20.086 10.8984C20.236 11.0437 20.236 11.25 20.0953 11.4141C19.8657 11.6812 19.4063 11.5078 19.4063 11.1516C19.4063 10.8234 19.8469 10.6547 20.086 10.8984Z" />
<path d="M7.27037 16.4719C7.06412 16.5891 6.96568 16.9031 7.07818 17.1141C7.20943 17.3531 7.05474 17.3438 12.0001 17.3438C16.9454 17.3438 16.7907 17.3531 16.9219 17.1141C17.0344 16.8984 16.936 16.5797 16.7297 16.4719C16.5422 16.3781 7.44381 16.3781 7.27037 16.4719Z" />
<path fill-rule="evenodd" clip-rule="evenodd" d="M7.32201 16.5966C7.32392 16.5963 7.32609 16.596 7.32853 16.5957C7.34724 16.5934 7.3749 16.5909 7.41207 16.5884C7.48601 16.5835 7.59094 16.5788 7.72334 16.5744C7.98777 16.5656 8.3571 16.5583 8.79697 16.5525C9.67647 16.5408 10.8353 16.5349 11.9948 16.5349C13.1543 16.5349 14.314 16.5408 15.1952 16.5525C15.636 16.5583 16.0064 16.5656 16.2722 16.5744C16.4052 16.5788 16.5109 16.5835 16.5857 16.5884C16.6232 16.5909 16.6514 16.5934 16.6706 16.5957C16.6744 16.5962 16.6776 16.5966 16.6803 16.597C16.7392 16.633 16.7909 16.7025 16.8177 16.7911C16.8461 16.885 16.8406 16.9808 16.8043 17.0513C16.797 17.0646 16.7919 17.0743 16.7879 17.0817C16.78 17.0967 16.7769 17.1024 16.7712 17.1096L16.7711 17.1098C16.7688 17.1127 16.764 17.1187 16.7431 17.1272C16.6863 17.15 16.5618 17.1714 16.2601 17.1854C15.7125 17.2107 14.6504 17.2106 12.534 17.2105C12.363 17.2104 12.1851 17.2104 12.0001 17.2104C11.815 17.2104 11.6372 17.2104 11.4662 17.2105C9.34974 17.2106 8.28762 17.2107 7.74 17.1854C7.43835 17.1714 7.31379 17.15 7.25701 17.1272C7.2361 17.1187 7.23133 17.1127 7.22906 17.1098C7.229 17.1097 7.22894 17.1097 7.22888 17.1096C7.22319 17.1024 7.22012 17.0967 7.21219 17.0817C7.20818 17.0742 7.20294 17.0643 7.1955 17.0507C7.1598 16.9833 7.15387 16.8902 7.18232 16.7966C7.20883 16.7093 7.26059 16.6372 7.32201 16.5966ZM7.07818 17.1141C6.96568 16.9031 7.06412 16.5891 7.27037 16.4719C7.44381 16.3781 16.5422 16.3781 16.7297 16.4719C16.936 16.5797 17.0344 16.8984 16.9219 17.1141C16.9075 17.1404 16.8965 17.1638 16.8817 17.1845C16.7627 17.3512 16.3998 17.3438 12.0001 17.3438C7.60035 17.3438 7.23738 17.3512 7.11842 17.1845C7.10366 17.1638 7.09266 17.1404 7.07818 17.1141ZM16.6889 16.5984C16.6901 16.5987 16.6907 16.5989 16.6907 16.5988Z" />
<path d="M7.28911 18.525C7.05943 18.6516 6.96099 18.9516 7.07818 19.1766C7.20943 19.4156 7.05474 19.4063 12.0001 19.4063C15.2954 19.4063 16.6313 19.3922 16.7016 19.3547C17.0532 19.1719 17.0532 18.7031 16.7016 18.5203C16.5563 18.4453 7.42505 18.45 7.28911 18.525Z" />
<path fill-rule="evenodd" clip-rule="evenodd" d="M16.6389 19.237L16.6401 19.2364ZM7.19583 19.1138C7.11799 18.9627 7.17884 18.7499 7.33733 18.6512C7.33859 18.6511 7.33995 18.651 7.34142 18.6508C7.35954 18.6489 7.38658 18.6469 7.42303 18.6449C7.4955 18.6409 7.59914 18.6371 7.73025 18.6335C7.99215 18.6264 8.35972 18.6203 8.79822 18.6154C9.67502 18.6056 10.8332 18.6003 11.9919 18.5998C13.1506 18.5992 14.3094 18.6033 15.1874 18.6122C15.6265 18.6167 15.9948 18.6223 16.2575 18.6292C16.3891 18.6326 16.4932 18.6364 16.5662 18.6403C16.6029 18.6423 16.6303 18.6443 16.6487 18.6462C16.6512 18.6464 16.6533 18.6467 16.6552 18.6469C16.8918 18.7826 16.8909 19.0955 16.6523 19.2298C16.6422 19.2313 16.6264 19.233 16.6039 19.2348C16.5572 19.2385 16.4887 19.2421 16.396 19.2453C16.2111 19.2519 15.9359 19.2571 15.5588 19.2612C14.8049 19.2694 13.6477 19.2729 12.0001 19.2729C11.815 19.2729 11.6371 19.2729 11.4662 19.273C9.34973 19.2731 8.28762 19.2732 7.74 19.2479C7.43835 19.2339 7.31379 19.2125 7.257 19.1897C7.23609 19.1812 7.23132 19.1752 7.22905 19.1723C7.22899 19.1722 7.22893 19.1722 7.22887 19.1721C7.22319 19.1649 7.22011 19.1591 7.21218 19.1442C7.20824 19.1368 7.20309 19.1271 7.19583 19.1138ZM7.07818 19.1766C6.96099 18.9516 7.05943 18.6516 7.28911 18.525C7.42505 18.45 16.5563 18.4453 16.7016 18.5203C17.0532 18.7031 17.0532 19.1719 16.7016 19.3547C16.6313 19.3922 15.2954 19.4063 12.0001 19.4063C7.60035 19.4063 7.23737 19.4137 7.11841 19.247C7.10366 19.2263 7.09266 19.2029 7.07818 19.1766ZM7.32517 18.6529C7.32152 18.6535 7.32228 18.6536 7.32584 18.6527ZM7.35352 18.6418L7.35346 18.6418Z" />
</svg>
