<svg viewBox="0 0 28 28" xmlns="http://www.w3.org/2000/svg">
<path fill-rule="evenodd" clip-rule="evenodd" d="M14.0697 2.39226C13.8964 2.44754 11.4381 3.21781 8.60696 4.10397C5.77577 4.99019 3.3982 5.7465 3.32345 5.78469C3.15535 5.87059 3.00862 6.02619 2.8903 6.24408C2.81187 6.38855 2.7998 6.52177 2.7998 7.244C2.7998 8.01212 2.80814 8.09259 2.90674 8.27363C3.07314 8.57922 3.32088 8.75297 3.70866 8.83615L3.84196 8.86472V15.2966V21.7285L4.00677 21.8904C4.19106 22.0714 4.3819 22.1006 4.6134 21.983C4.92644 21.8239 4.90836 22.2388 4.90836 15.2242V8.86291H14.6998H24.4913V15.2242C24.4913 22.2388 24.4732 21.8239 24.7862 21.983C25.0177 22.1006 25.2085 22.0714 25.3928 21.8904L25.5576 21.7285V15.2966V8.86472L25.6909 8.83615C26.0787 8.75297 26.3265 8.57922 26.4929 8.27363C26.5915 8.09259 26.5998 8.01212 26.5998 7.244C26.5998 6.44292 26.5951 6.40264 26.4786 6.2007C26.2393 5.78588 26.3758 5.83735 21.4132 4.29091C18.8806 3.50164 16.4375 2.73728 15.9843 2.59234C14.9851 2.2727 14.578 2.23018 14.0697 2.39226ZM19.7601 4.86777C22.4556 5.70827 24.8627 6.45921 25.1093 6.53653L25.5576 6.67709V7.24624V7.81538H14.6998H3.84196V7.25209V6.68881L9.16182 5.01894C12.0878 4.1005 14.5667 3.34694 14.6705 3.34432C14.7946 3.34118 16.5387 3.86323 19.7601 4.86777ZM10.6524 10.953C10.5457 11.0015 10.3996 11.1028 10.3277 11.1781C10.0386 11.481 10.0464 11.3799 10.0464 14.8102V17.9513L8.87099 17.9662L7.69553 17.9812L7.46422 18.1148C7.33698 18.1882 7.17338 18.3366 7.10067 18.4446L6.96844 18.6408L6.95385 21.9297C6.94377 24.213 6.95555 25.2735 6.99243 25.3981C7.06311 25.6368 7.30964 25.9047 7.55767 26.0125C7.75016 26.0962 8.06785 26.1 14.6998 26.1C21.3318 26.1 21.6495 26.0962 21.8419 26.0125C22.09 25.9047 22.3365 25.6368 22.4072 25.3981C22.4441 25.2735 22.4558 24.213 22.4458 21.9297L22.4312 18.6408L22.2989 18.4446C22.2262 18.3366 22.0626 18.1882 21.9354 18.1148L21.7041 17.9812L20.0207 17.967L18.3372 17.9528L18.3241 14.773L18.311 11.5933L18.1653 11.3589C18.056 11.183 17.9542 11.092 17.7568 10.9937L17.4938 10.8627L14.17 10.8638C11.0382 10.8648 10.835 10.8699 10.6524 10.953ZM12.0907 13.0411C12.1059 14.0288 12.1195 14.1931 12.1978 14.3386C12.3235 14.5721 12.463 14.7123 12.6882 14.8313C12.873 14.929 12.9435 14.9338 14.1908 14.9338H15.4996L15.7215 14.8057C15.8436 14.7352 16.0072 14.5852 16.0851 14.4724L16.2267 14.2672L16.2419 13.0888L16.2571 11.9103H16.7629H17.2688V14.9338V17.9574H14.1908H11.1128V14.9338V11.9103H11.5931H12.0734L12.0907 13.0411ZM15.1845 12.9102V13.9101H14.1666H13.1487V12.9102V11.9103H14.1666H15.1845V12.9102ZM8.98005 20.0025C8.98005 21.1759 9.0165 21.3943 9.25891 21.6726C9.57209 22.032 9.6575 22.0501 11.0401 22.051C11.7066 22.0514 12.3283 22.0309 12.4216 22.0054C12.6587 21.9406 12.9508 21.6901 13.0569 21.4605C13.1359 21.2896 13.1467 21.1328 13.1476 20.1358L13.1487 19.0049H13.6576H14.1666V22.0523V25.0997H11.0886H8.0106V22.0523V19.0049H8.49532H8.98005V20.0025ZM12.0823 20.0048V21.0048H11.0644H10.0464V20.0048V19.0049H11.0644H12.0823V20.0048ZM16.252 20.1358C16.2529 21.1328 16.2637 21.2896 16.3427 21.4605C16.4488 21.6901 16.7409 21.9406 16.978 22.0054C17.0713 22.0309 17.693 22.0514 18.3595 22.051C19.7421 22.0501 19.8275 22.032 20.1407 21.6726C20.3831 21.3943 20.4196 21.1759 20.4196 20.0025V19.0049H20.9043H21.389V22.0523V25.0997H18.311H15.233V22.0523V19.0049H15.742H16.2509L16.252 20.1358ZM19.3532 20.0048V21.0048H18.3352H17.3173V20.0048V19.0049H18.3352H19.3532V20.0048Z" />
</svg>
