<svg viewBox="0 0 30 28" xmlns="http://www.w3.org/2000/svg">
<path fill-rule="evenodd" clip-rule="evenodd" d="M3.76086 4.02132C3.58921 4.06284 3.49798 4.13235 3.4381 4.26721C3.39723 4.35921 3.38808 4.45951 3.3508 5.22255C3.34245 5.39382 3.33533 6.31135 3.33498 7.26153L3.33436 8.9891H3.10665C2.56928 8.9891 2.31453 9.09385 2.22411 9.35199C2.174 9.495 2.16855 9.71987 2.15893 12.0325L2.14841 14.5569L1.762 14.5711C1.41181 14.5839 1.36413 14.5924 1.25379 14.662C1.11737 14.7481 1 14.9469 1 15.0919C1 15.1532 1.15569 15.4777 1.45448 16.039C1.70445 16.5087 1.91989 16.9063 1.93325 16.9226C1.94657 16.9389 2.13954 17.2792 2.36205 17.6789C2.58453 18.0785 2.80144 18.4655 2.84399 18.5389C2.88657 18.6123 3.03746 18.8793 3.17933 19.1321C3.3212 19.3849 3.53138 19.7589 3.64639 19.9632C3.76142 20.1676 3.89925 20.4172 3.95266 20.5181L4.04977 20.7014L3.76211 20.8427C3.25555 21.0914 2.92348 21.4878 2.78675 22.0069C2.65908 22.4915 2.91271 22.8986 3.3423 22.8986C3.5086 22.8986 3.73061 22.774 3.8248 22.6279C3.86022 22.5729 3.90444 22.4478 3.92309 22.35C3.96595 22.1248 4.08739 21.9547 4.26733 21.868C4.45626 21.777 4.5811 21.7814 4.68757 21.8828C4.79508 21.9853 4.94258 22.2638 5.09195 22.6465C5.15563 22.8097 5.2557 23.0306 5.31434 23.1374C5.60352 23.6645 6.18468 23.9976 6.81919 24C7.33969 24.002 7.67982 23.8665 8.05235 23.5087C8.35271 23.2203 8.48101 22.9947 8.55153 22.6309C8.6357 22.1968 8.68618 22.0628 8.81009 21.9447C8.94788 21.8134 9.0983 21.7785 9.29747 21.8317C9.58205 21.9076 9.68824 22.059 9.76164 22.4937C9.83335 22.9182 9.89497 23.0624 10.1344 23.3659C10.304 23.581 10.6254 23.8211 10.8666 23.9131C11.0157 23.9699 11.098 23.9785 11.5046 23.9795C11.9462 23.9807 11.9811 23.9765 12.1481 23.902C12.822 23.6015 13.1346 23.1829 13.263 22.4085C13.3226 22.0495 13.4903 21.8555 13.7767 21.8146C13.9608 21.7883 14.1143 21.8424 14.2287 21.974C14.3286 22.0889 14.3738 22.2194 14.4562 22.6309C14.5264 22.9819 14.6575 23.2179 14.9375 23.4971C15.3011 23.8598 15.6538 23.9951 16.2368 23.9957C16.8644 23.9964 17.4385 23.6493 17.7135 23.1029C17.7824 22.9661 17.8594 22.7541 17.8847 22.6317C17.9848 22.1483 18.0015 22.0941 18.0782 22.0073C18.2501 21.8127 18.5176 21.7517 18.7346 21.8577C18.9681 21.9718 19.0234 22.0674 19.1002 22.49C19.1884 22.9753 19.3834 23.3443 19.6841 23.595C19.9988 23.8573 20.3781 23.9962 20.7786 23.9957C21.3666 23.9951 21.7194 23.8585 22.0826 23.4906C22.363 23.2065 22.4898 22.9779 22.5593 22.6309C22.6512 22.1715 22.6914 22.0636 22.815 21.946C22.9541 21.8134 23.1038 21.7784 23.3036 21.8317C23.589 21.9078 23.6944 22.0588 23.7686 22.4982C23.8317 22.8721 23.9082 23.0589 24.1044 23.3188C24.2899 23.5645 24.6142 23.8155 24.8727 23.9135C25.0214 23.9698 25.1054 23.9785 25.5108 23.9795C25.9524 23.9807 25.9873 23.9765 26.1543 23.902C26.56 23.7211 26.8581 23.4717 27.0317 23.1677C27.2309 22.8189 27.3028 22.3307 27.1875 22.1095C27.1555 22.0481 27.0762 21.9576 27.0114 21.9083C26.856 21.7903 26.5621 21.765 26.4092 21.8565C26.2494 21.9522 26.1452 22.1096 26.0972 22.3279C26.0267 22.6487 25.8539 22.8407 25.5934 22.8875C25.342 22.9328 25.0411 22.7352 24.9729 22.48C24.9428 22.3673 24.873 22.0064 24.8197 21.6884C24.8059 21.6063 24.8797 21.4368 25.2713 20.6504C25.5287 20.1334 25.8472 19.4902 25.9791 19.2211C26.111 18.9519 26.3801 18.4047 26.577 18.0051C26.774 17.6054 27.0159 17.1116 27.1146 16.9077C27.2133 16.7038 27.3879 16.3435 27.5025 16.107C28.2524 14.5596 28.8436 13.304 28.9474 13.0382C29.0398 12.8019 29.018 12.7098 28.8213 12.5047L28.6637 12.3404L25.5155 12.3419L22.3672 12.3434L21.187 13.4541L20.0069 14.5648H19.2651H18.5233L18.5212 12.3182C18.5185 9.43456 18.4905 8.26758 18.4209 8.14044C18.2996 7.91871 18.0395 7.89442 15.7677 7.89285L14.1792 7.89176L14.0169 8.04838L13.8545 8.20503V9.14572V10.0864L13.0998 10.0906C12.6847 10.0929 12.1699 10.0989 11.9559 10.1039C11.742 10.1089 11.3638 10.1152 11.1156 10.1178L10.6643 10.1225L10.5188 10.2753L10.3733 10.4282L10.3545 12.237C10.3441 13.2318 10.3278 14.1559 10.3182 14.2904L10.3007 14.5351H9.74327H9.18583L9.18343 13.7121C9.18212 13.2595 9.17565 12.8624 9.16905 12.8298C9.16242 12.7972 9.15414 12.2967 9.15066 11.7176C9.14714 11.1386 9.13413 10.3469 9.12171 9.95829C9.10014 9.28301 9.09609 9.24869 9.02961 9.18128C8.92329 9.07341 8.70579 9.01561 8.33768 8.99731L8.00308 8.9807L8.00283 7.93945C8.00262 6.86631 7.97874 6.5664 7.88347 6.43852C7.76109 6.27422 7.42133 6.18379 7.21167 6.25974C7.16788 6.27561 7.06893 6.34403 6.99178 6.41183L6.85147 6.53506V7.76206V8.9891H5.68429H4.5171V6.66472V4.34037L4.38152 4.2213C4.14703 4.01532 3.992 3.96538 3.76086 4.02132ZM17.3405 11.7621V14.5055H16.1733H15.0062V11.7621V9.01875H16.1733H17.3405V11.7621ZM8.00308 12.3108V14.5055H5.68429H3.36549V12.3108V10.1161H5.68429H8.00308V12.3108ZM13.7923 12.8817L13.7923 14.5203L12.6562 14.5122L11.5202 14.504V12.8736V11.2431H12.6562H13.7923V12.8817ZM27.4388 13.4707C27.4599 13.4908 27.348 13.7453 27.0362 14.3868C26.9213 14.6233 26.7464 14.9837 26.6476 15.1876C26.5488 15.3915 26.3244 15.8519 26.149 16.2108C25.9736 16.5696 25.7428 17.0434 25.6361 17.2636C25.5294 17.4839 25.2427 18.0711 24.9989 18.5686C24.7551 19.0661 24.4151 19.7601 24.2433 20.1108C24.0715 20.4615 23.9193 20.7606 23.9051 20.7754C23.8898 20.7914 23.7932 20.7793 23.6679 20.7457C23.2161 20.6247 22.6126 20.7119 22.2427 20.9517C21.9077 21.1688 21.5897 21.5616 21.4949 21.8754C21.4702 21.957 21.4356 22.1224 21.4179 22.243C21.3596 22.6405 21.2415 22.7972 20.9434 22.8732C20.811 22.9069 20.7908 22.9038 20.6203 22.8224C20.3945 22.7145 20.3141 22.5798 20.2498 22.2015C20.2253 22.0572 20.189 21.8915 20.1692 21.8332C19.9986 21.3304 19.4849 20.8577 18.9935 20.7512C18.716 20.6911 18.3008 20.6908 18.0251 20.7505C17.6748 20.8264 17.2918 21.0926 17.0629 21.4193C16.9033 21.6469 16.8244 21.8527 16.7675 22.1898C16.7032 22.5705 16.621 22.714 16.4083 22.8171C16.3157 22.8619 16.21 22.8986 16.1733 22.8986C16.1367 22.8986 16.0306 22.8619 15.9377 22.8171C15.7336 22.7186 15.6514 22.5855 15.5979 22.2671C15.4662 21.4824 15.0139 20.9445 14.3235 20.7513C14.1079 20.6909 13.6155 20.6893 13.3784 20.7481C12.9795 20.8471 12.6087 21.0998 12.3903 21.4215C12.2625 21.6098 12.1405 21.9556 12.0685 22.3339C12.0174 22.6019 11.9634 22.6967 11.8017 22.8015C11.5967 22.9345 11.3428 22.9179 11.1439 22.7584C11.0172 22.6568 10.9756 22.5589 10.913 22.215C10.7857 21.516 10.4752 21.102 9.87057 20.8255C9.6381 20.7192 9.63539 20.7188 9.21695 20.7188C8.5685 20.7188 8.32028 20.8137 7.90971 21.2185C7.62293 21.5012 7.47633 21.8029 7.41171 22.243C7.35338 22.6405 7.23536 22.7972 6.93718 22.8732C6.80487 22.9069 6.78467 22.9038 6.61414 22.8224C6.38659 22.7137 6.30756 22.5793 6.24157 22.1887C6.1844 21.8503 6.07481 21.5831 5.90091 21.358C5.72836 21.1346 5.57417 20.8963 5.29554 20.4222C5.17091 20.2101 5.00931 19.9366 4.93642 19.8142C4.05082 18.3276 2.5883 15.74 2.61849 15.7132C2.62705 15.7056 6.49275 15.6909 11.2089 15.6805C15.9251 15.6702 19.9309 15.6535 20.1106 15.6436C20.3029 15.633 20.4809 15.6065 20.543 15.5792C20.601 15.5537 21.1473 15.0611 21.7568 14.4845L22.8652 13.4363L25.1425 13.4444C26.395 13.4489 27.4283 13.4607 27.4388 13.4707Z" />
<path fill-rule="evenodd" clip-rule="evenodd" d="M4.1005 3.92781C4.21656 3.96521 4.32612 4.03952 4.44742 4.14607L4.61701 4.29501V8.889H4.51701V8.989H4.61701V8.889H6.75137V8.989H6.85137V8.889H6.75137V6.48969L6.92567 6.33661C6.96731 6.30002 7.01441 6.2636 7.05726 6.23397C7.09733 6.20625 7.14231 6.17838 7.17751 6.16563C7.30752 6.11853 7.46696 6.12532 7.60592 6.1623C7.74379 6.19899 7.88364 6.27139 7.96357 6.37868M7.96357 6.37868C8.03011 6.468 8.06052 6.60186 8.07839 6.82649C8.09665 7.05614 8.10263 7.40327 8.10274 7.93933L8.10296 8.88544L8.00794 8.88073L8.00299 8.98061L8.10299 8.98058L8.10296 8.88544L8.34254 8.89734C8.52995 8.90665 8.68416 8.9262 8.80741 8.95897C8.93006 8.99157 9.03012 9.03936 9.10071 9.11096M9.10071 9.11096C9.12077 9.1313 9.14342 9.15646 9.16069 9.19634C9.17653 9.23294 9.18532 9.27605 9.19171 9.32997C9.20437 9.43682 9.21086 9.61991 9.22156 9.955C9.23402 10.3447 9.24704 11.1374 9.25056 11.7169C9.2523 12.0062 9.25524 12.2757 9.25856 12.4769C9.26023 12.5775 9.26198 12.6607 9.26373 12.7207C9.2646 12.7507 9.26546 12.7745 9.26629 12.7915C9.26692 12.8045 9.26742 12.8104 9.26748 12.8118C9.26751 12.8126 9.2674 12.812 9.26709 12.8105C9.26958 12.8232 9.27059 12.8407 9.27126 12.853C9.27213 12.8689 9.27296 12.8897 9.27375 12.9145C9.27533 12.9641 9.27681 13.0315 9.27811 13.1117C9.28073 13.2722 9.28268 13.4851 9.28333 13.7117L9.28544 14.435H9.18573V14.535L9.28573 14.5347L9.28544 14.435H10.2075L10.2009 14.5279L10.3006 14.535V14.435H10.2075L10.2183 14.2832C10.2276 14.1525 10.244 13.2329 10.2544 12.2358L10.2736 10.3876L10.6209 10.0229L11.1144 10.0177C11.3623 10.0151 11.74 10.0089 11.9535 10.0038C12.1684 9.99877 12.6839 9.99278 13.0991 9.99049L13.7545 9.98689V10.0863H13.8545L13.8539 9.98634L13.7545 9.98689V8.16246L14.1388 7.79163L15.7676 7.79276C16.9014 7.79354 17.54 7.7999 17.91 7.83442C18.0942 7.85162 18.2223 7.87653 18.3145 7.91664C18.4139 7.9599 18.4688 8.01958 18.5086 8.09235C18.527 8.12601 18.5367 8.17533 18.5439 8.22331C18.5519 8.27665 18.5589 8.34679 18.5652 8.43404C18.5778 8.60882 18.588 8.85864 18.596 9.19313C18.612 9.86248 18.6197 10.8761 18.6211 12.318L18.6231 14.4647H18.5232V14.5647L18.6232 14.5646L18.6231 14.4647H19.9671L19.9382 14.4919L20.0068 14.5647V14.4647H19.9671L22.3274 12.2433L28.7062 12.2403L28.8934 12.4354C28.9924 12.5386 29.0647 12.6298 29.09 12.7366C29.1159 12.8462 29.088 12.953 29.0405 13.0745C28.9348 13.345 28.3412 14.6053 27.5924 16.1505L27.2045 16.9512C27.1056 17.1554 26.8636 17.6495 26.6666 18.0492C26.4697 18.4488 26.2007 18.9959 26.0688 19.265C25.9368 19.5344 25.6181 20.1778 25.3607 20.6948C25.1646 21.0886 25.0495 21.3252 24.9851 21.4733C24.9528 21.5476 24.9348 21.596 24.9256 21.629C24.9211 21.6452 24.9192 21.6559 24.9185 21.6628C24.9181 21.6661 24.9181 21.6684 24.9181 21.6697L24.9182 21.6718C24.9716 21.9903 25.0407 22.3466 25.0694 22.4541C25.0959 22.5533 25.1702 22.6477 25.2693 22.7127C25.3685 22.7779 25.4809 22.8061 25.5756 22.789C25.7857 22.7512 25.9351 22.5995 25.9994 22.3063C26.052 22.0669 26.1696 21.8832 26.3578 21.7706C26.4588 21.7101 26.5941 21.6935 26.7179 21.7041C26.8426 21.7148 26.9748 21.7549 27.0718 21.8286C27.1463 21.8852 27.2361 21.9866 27.2761 22.0632C27.3485 22.2021 27.3558 22.4053 27.3264 22.6052C27.2963 22.8096 27.2248 23.031 27.1184 23.2172C26.9317 23.5441 26.6148 23.8061 26.1949 23.9933C26.1082 24.0319 26.0469 24.0563 25.9474 24.0683C25.855 24.0795 25.7286 24.08 25.5104 24.0794C25.1061 24.0784 25.0049 24.0704 24.8372 24.0069C24.5591 23.9015 24.22 23.638 24.0245 23.379C23.923 23.2445 23.8497 23.1253 23.7939 22.989C23.7385 22.8535 23.702 22.7052 23.6699 22.5147C23.6332 22.2974 23.591 22.1687 23.5332 22.0858C23.4796 22.009 23.4059 21.9624 23.2778 21.9282C23.1891 21.9045 23.1189 21.9024 23.0592 21.9164C23.0001 21.9302 22.9432 21.9617 22.8839 22.0183C22.8326 22.0671 22.8003 22.1109 22.7689 22.1952C22.7351 22.2856 22.7034 22.4196 22.6572 22.6504C22.5835 23.0189 22.446 23.2646 22.1536 23.5608C21.9646 23.7523 21.7741 23.8876 21.5509 23.9741C21.3285 24.0602 21.0801 24.0953 20.7786 24.0956C20.3541 24.0961 19.9523 23.9486 19.62 23.6717C19.297 23.4024 19.093 23.01 19.0017 22.5078C18.963 22.2949 18.9322 22.182 18.8895 22.1081C18.8513 22.042 18.7996 22.0007 18.6906 21.9475C18.5181 21.8632 18.2982 21.9089 18.153 22.0734C18.1242 22.106 18.1078 22.1288 18.0856 22.2002C18.0611 22.2794 18.033 22.4082 17.9825 22.6519C17.9551 22.7845 17.8747 23.0048 17.8027 23.1478C17.5101 23.729 16.9008 24.0963 16.2366 24.0956C15.9377 24.0953 15.6906 24.0605 15.469 23.9755C15.2466 23.8901 15.0561 23.7566 14.8668 23.5678C14.5743 23.2762 14.4325 23.0228 14.358 22.6504C14.275 22.2354 14.2331 22.1314 14.1532 22.0395C14.0627 21.9355 13.944 21.8916 13.7907 21.9135C13.6684 21.931 13.5778 21.9795 13.5103 22.0576C13.4412 22.1376 13.3895 22.2563 13.3616 22.4248C13.2957 22.8217 13.1812 23.1368 12.9902 23.3927C12.7988 23.6491 12.5365 23.8382 12.1888 23.9933C12.102 24.0319 12.0408 24.0563 11.9412 24.0683C11.8488 24.0795 11.7225 24.08 11.5043 24.0794C11.0987 24.0784 10.9991 24.0706 10.8309 24.0064C10.5717 23.9076 10.2359 23.6561 10.0558 23.4277C9.93416 23.2736 9.85252 23.1535 9.79307 23.0144C9.73394 22.876 9.69908 22.7242 9.66294 22.5102C9.62667 22.2955 9.58453 22.1679 9.52677 22.0855C9.47315 22.009 9.39932 21.9623 9.27161 21.9282C9.18329 21.9046 9.11302 21.9025 9.05326 21.9164C8.99411 21.9301 8.93748 21.9613 8.87898 22.017C8.78115 22.1103 8.73436 22.2127 8.64961 22.6498C8.61283 22.8395 8.56005 22.9978 8.47496 23.1474C8.39016 23.2965 8.27585 23.4325 8.12152 23.5807C7.92867 23.7659 7.7399 23.8977 7.52817 23.982C7.31649 24.0664 7.0879 24.1009 6.81872 24.0999C6.15033 24.0974 5.53441 23.7465 5.22657 23.1854C5.16517 23.0736 5.06333 22.8484 4.9987 22.6828C4.92496 22.4939 4.85229 22.3322 4.78559 22.2063C4.7175 22.0777 4.65992 21.9946 4.61849 21.9551M4.61849 21.9551C4.58058 21.919 4.54532 21.9045 4.50475 21.9031C4.45978 21.9015 4.39841 21.9157 4.31064 21.958C4.16377 22.0288 4.05916 22.1693 4.02123 22.3686C4.01079 22.4233 3.99359 22.484 3.97441 22.5383C3.95577 22.591 3.9328 22.6446 3.90877 22.6819C3.85051 22.7723 3.75743 22.8502 3.65943 22.9052C3.56174 22.96 3.4477 22.9985 3.3422 22.9985C3.09272 22.9985 2.8899 22.8788 2.77058 22.6873C2.65247 22.4977 2.62034 22.2455 2.68995 21.9813C2.83449 21.4326 3.18686 21.0136 3.71793 20.7528L3.91304 20.657L3.86419 20.5648C3.81141 20.4651 3.67411 20.2164 3.55915 20.0122C3.44412 19.8079 3.23391 19.4338 3.09202 19.1809C2.95006 18.9279 2.79954 18.6617 2.75739 18.589C2.71429 18.5147 2.49683 18.1266 2.27459 17.7274C2.16342 17.5277 2.05968 17.343 1.98212 17.2062C1.94332 17.1378 1.91117 17.0815 1.88796 17.0415C1.87633 17.0214 1.86712 17.0057 1.86052 16.9947C1.85506 16.9856 1.85292 16.9824 1.85298 16.9823C1.85301 16.9823 1.85359 16.9831 1.85458 16.9843C1.84882 16.977 1.84396 16.9688 1.84275 16.9668L1.83225 16.9488C1.82423 16.9349 1.81346 16.9156 1.80038 16.892C1.77418 16.8447 1.73802 16.7785 1.69458 16.6983C1.60765 16.5379 1.49118 16.3209 1.36611 16.0859C1.21648 15.8048 1.1021 15.5819 1.02494 15.4211C0.986427 15.3409 0.956577 15.2748 0.936144 15.2241C0.92596 15.1988 0.917556 15.176 0.911545 15.1563C0.906381 15.1395 0.899902 15.1155 0.899902 15.0918C0.899902 14.9954 0.937693 14.8917 0.989527 14.8039C1.0418 14.7154 1.11544 14.6309 1.20035 14.5773C1.2626 14.5381 1.31427 14.5121 1.40024 14.4967C1.47812 14.4828 1.58539 14.4774 1.75823 14.471L2.04872 14.4604L2.05884 12.032C2.06364 10.8762 2.06741 10.2405 2.07627 9.87611C2.08501 9.5163 2.09844 9.40787 2.12963 9.31883M4.1005 3.92781C3.98152 3.88948 3.8655 3.89299 3.73726 3.92402ZM3.73726 3.92402C3.64346 3.94671 3.56337 3.97895 3.49687 4.02962C3.42925 4.08114 3.38198 4.14687 3.34661 4.22651C3.3195 4.28754 3.3058 4.34857 3.29342 4.48404C3.28113 4.6186 3.26942 4.8369 3.25082 5.21757C3.24233 5.39191 3.23523 6.31261 3.23489 7.26139L3.2343 8.889M4.03917 4.11817C3.96423 4.09403 3.88717 4.09351 3.78429 4.11841C3.70643 4.13725 3.65507 4.16052 3.61807 4.18871C3.5822 4.21604 3.55391 4.25249 3.5294 4.3077C3.51564 4.33867 3.50433 4.3738 3.49259 4.50224C3.48077 4.63159 3.46926 4.84495 3.45058 5.22731M4.03917 4.11817C4.11704 4.14326 4.20224 4.19691 4.31543 4.29633ZM4.31543 4.29633L4.41701 4.38554ZM4.41701 4.38554V9.089H6.95137V6.58022L7.05767 6.48687C7.09318 6.45566 7.13416 6.42395 7.17102 6.39846C7.21066 6.37105 7.23705 6.35678 7.24564 6.35367C7.32529 6.32481 7.44056 6.32525 7.55448 6.35557C7.6695 6.38618 7.76071 6.44115 7.80318 6.49816C7.83191 6.53672 7.86107 6.61676 7.87902 6.84234C7.89656 7.06289 7.90263 7.40229 7.90274 7.93937L7.90301 9.07577L8.33261 9.09709C8.33261 9.09709 8.33262 9.09709 8.33261 9.09709C8.51331 9.10607 8.65192 9.12458 8.75602 9.15225C8.86072 9.18009 8.92257 9.21513 8.95829 9.25138C8.97148 9.26475 8.97428 9.26918 8.97715 9.2758C8.98143 9.28569 8.98747 9.306 8.9931 9.3535C9.00447 9.44948 9.0108 9.62119 9.02166 9.96138C9.03405 10.3488 9.04705 11.1395 9.05056 11.7181C9.05231 12.0079 9.05525 12.2782 9.05859 12.4802C9.06026 12.5811 9.06203 12.6653 9.06382 12.7265C9.0647 12.757 9.06561 12.7822 9.06652 12.8011C9.06722 12.8156 9.06824 12.8362 9.07096 12.8496C9.07068 12.8482 9.07052 12.8473 9.07049 12.8473C9.07041 12.8473 9.0709 12.8518 9.07156 12.8639C9.07231 12.8776 9.07308 12.8967 9.07385 12.9208C9.07538 12.969 9.07684 13.0352 9.07814 13.115C9.08074 13.2744 9.08268 13.4863 9.08333 13.7123L9.08602 14.635H10.3937L10.4178 14.2975C10.4277 14.159 10.444 13.2305 10.4544 12.2379L10.4728 10.4685L10.7075 10.222L11.1165 10.2177C11.3651 10.2151 11.7437 10.2088 11.9582 10.2038C12.1713 10.1988 12.6853 10.1928 13.1002 10.1905L13.9545 10.1858V8.2474L14.0862 8.12025L14.2195 7.99169L15.7675 7.99276C16.9056 7.99354 17.5329 8.00011 17.8914 8.03356C18.0713 8.05035 18.173 8.07318 18.2347 8.10003C18.2891 8.12372 18.3122 8.1502 18.3331 8.18826C18.3329 8.18797 18.333 8.1883 18.3333 8.18936C18.3347 8.19386 18.3399 8.21166 18.3461 8.25286C18.353 8.29894 18.3596 8.36335 18.3657 8.44844C18.378 8.61834 18.388 8.86434 18.396 9.19793C18.412 9.86477 18.4197 10.8764 18.4211 12.3182L18.4233 14.6647H20.0464L22.4068 12.4433L28.621 12.4404L28.749 12.5738C28.8468 12.6757 28.8836 12.7331 28.8954 12.7827C28.9064 12.8294 28.8991 12.8869 28.8542 13.0017C28.7522 13.2628 28.1634 14.5136 27.4124 16.0633L27.0245 16.8641C26.926 17.0676 26.6842 17.5612 26.4872 17.9608C26.2903 18.3605 26.0212 18.9077 25.8892 19.177C25.7575 19.4458 25.4391 20.0888 25.1816 20.6057C24.9862 20.9983 24.8686 21.2397 24.8017 21.3935C24.7683 21.4702 24.746 21.5287 24.733 21.5752C24.72 21.6215 24.7141 21.6637 24.721 21.7048M14.9061 8.91866H17.4404V14.6054H14.9061V8.91866ZM15.1061 9.11866V14.4054H17.2404V9.11866H15.1061ZM3.26539 10.016H8.10299V14.6054H3.26539V10.016ZM3.46539 10.216H7.90299V14.4054H3.46539V10.216ZM11.4201 11.143H13.8922L13.8922 14.6209L11.4201 14.6032V11.143ZM11.6201 11.343V14.4047L13.6922 14.4195L13.6922 11.343H11.6201ZM22.8254 13.336L25.1428 13.3443C25.7692 13.3466 26.3409 13.3507 26.7575 13.3554C26.9657 13.3578 27.1354 13.3603 27.2538 13.3629C27.3129 13.3642 27.3598 13.3655 27.3924 13.3669C27.4086 13.3675 27.4222 13.3682 27.4324 13.369C27.4373 13.3693 27.4429 13.3698 27.4482 13.3706C27.4507 13.3709 27.4552 13.3716 27.4605 13.3728C27.463 13.3734 27.4678 13.3746 27.4736 13.3768C27.4771 13.3781 27.4928 13.384 27.5076 13.3982C27.5354 13.4246 27.5397 13.4568 27.5407 13.4687C27.5419 13.4834 27.5404 13.4966 27.5389 13.5054C27.5359 13.5237 27.53 13.544 27.5233 13.564C27.5094 13.6051 27.4862 13.6621 27.4538 13.7358C27.3886 13.8841 27.282 14.1097 27.1261 14.4304C27.0111 14.6669 26.8362 15.0272 26.7375 15.2311C26.6386 15.4351 26.4142 15.8957 26.2388 16.2546C26.0634 16.6134 25.8327 17.0871 25.726 17.3071C25.6192 17.5276 25.3324 18.115 25.0886 18.6125L24.333 20.1547C24.2469 20.3304 24.1657 20.4933 24.1041 20.6143C24.0733 20.6748 24.0473 20.7251 24.0279 20.7615C24.0183 20.7796 24.01 20.7949 24.0034 20.8064C24.0002 20.812 23.997 20.8175 23.994 20.8223C23.9928 20.8241 23.9863 20.8349 23.9772 20.8444M22.8254 13.336L22.7964 13.3635ZM22.9047 13.5363L25.142 13.5443C25.7681 13.5466 26.3393 13.5507 26.7552 13.5554C26.9632 13.5578 27.132 13.5603 27.2494 13.5629C27.2713 13.5634 27.2913 13.5638 27.3094 13.5643C27.2991 13.5897 27.2863 13.6199 27.2707 13.6554C27.2072 13.7998 27.1021 14.0223 26.9462 14.343C26.8312 14.5796 26.6563 14.9399 26.5575 15.1439C26.4588 15.3476 26.2345 15.808 26.0591 16.1668C25.8837 16.5257 25.6528 16.9996 25.546 17.2199C25.4395 17.4399 25.1528 18.027 24.909 18.5245L24.1534 20.0667C24.0676 20.2417 23.9869 20.4037 23.9258 20.5236C23.8953 20.5836 23.8699 20.6327 23.8514 20.6675C23.8489 20.6721 23.8466 20.6764 23.8445 20.6804C23.8431 20.6802 23.8416 20.68 23.84 20.6798C23.8043 20.6754 23.7536 20.6651 23.6937 20.6491C23.2164 20.5212 22.5835 20.6115 22.1882 20.8677C22.0105 20.9828 21.8397 21.1429 21.7009 21.3143C21.5627 21.4851 21.4514 21.6731 21.3991 21.8464C21.3725 21.9342 21.337 22.1048 21.3188 22.2284C21.2904 22.422 21.2494 22.5404 21.1906 22.6184C21.1347 22.6927 21.0541 22.7417 20.9186 22.7762C20.8512 22.7934 20.8317 22.7952 20.8116 22.7921C20.786 22.788 20.7524 22.7746 20.6633 22.732C20.5624 22.6839 20.5037 22.6348 20.4602 22.562C20.4139 22.4844 20.38 22.3716 20.3483 22.1846C20.3238 22.0403 20.2865 21.8676 20.2638 21.8009C20.1722 21.5309 19.9903 21.2733 19.7693 21.0699C19.5484 20.8667 19.2817 20.7112 19.0146 20.6534C18.7232 20.5902 18.2935 20.5899 18.0038 20.6527C17.6261 20.7345 17.2225 21.017 16.9809 21.3618C16.8111 21.6041 16.7277 21.8246 16.6688 22.173C16.6371 22.361 16.6027 22.4774 16.5567 22.5578C16.5135 22.6331 16.4569 22.6823 16.3646 22.727C16.3218 22.7477 16.2758 22.7666 16.237 22.7801C16.2176 22.7869 16.2009 22.7919 16.1881 22.7951C16.1801 22.7971 16.1754 22.7979 16.1732 22.7983C16.1711 22.7979 16.1663 22.7971 16.1583 22.7951C16.1454 22.7919 16.1287 22.7868 16.1092 22.7801C16.0703 22.7666 16.0241 22.7477 15.9811 22.7269C15.8916 22.6837 15.8367 22.6372 15.7963 22.5719C15.7538 22.5031 15.7225 22.4055 15.6965 22.2505C15.5592 21.4328 15.083 20.8599 14.3504 20.6549C14.2293 20.621 14.0414 20.6055 13.8593 20.6049C13.6765 20.6043 13.4846 20.6186 13.3543 20.651C12.9329 20.7556 12.5406 21.0219 12.3075 21.3652C12.1684 21.5701 12.0432 21.9314 11.9701 22.3151C11.945 22.4469 11.9211 22.524 11.8896 22.5793C11.8601 22.6311 11.8199 22.6704 11.7472 22.7175C11.5805 22.8257 11.3736 22.8144 11.2063 22.6802C11.1538 22.6381 11.123 22.6011 11.0963 22.5383C11.0671 22.4696 11.0426 22.3693 11.0113 22.197C10.9457 21.8368 10.8316 21.5428 10.6507 21.3017C10.4695 21.0602 10.2261 20.8781 9.91207 20.7345L9.90675 20.7321C9.79582 20.6813 9.72554 20.6492 9.62953 20.6335C9.53877 20.6187 9.42529 20.6187 9.22586 20.6187H9.21685C8.88939 20.6187 8.65028 20.6423 8.43832 20.7233C8.22502 20.8048 8.04865 20.9408 7.8394 21.1472C7.53551 21.4468 7.3801 21.7691 7.31267 22.2284C7.28426 22.422 7.24319 22.5404 7.18441 22.6184C7.12849 22.6927 7.04793 22.7417 6.91239 22.7762C6.84504 22.7934 6.82555 22.7952 6.80545 22.7921C6.77986 22.788 6.74625 22.7746 6.65712 22.732C6.55548 22.6835 6.49686 22.6344 6.45337 22.5605C6.40677 22.4812 6.37277 22.3655 6.34008 22.172C6.28073 21.8207 6.16577 21.5373 5.97995 21.2968C5.81137 21.0785 5.65974 20.8446 5.38165 20.3714C5.25699 20.1593 5.09527 19.8855 5.02223 19.7629C5.02223 19.7629 5.02222 19.7629 5.02223 19.7629M27.3415 13.4734C27.3415 13.4732 27.3415 13.4735 27.3415 13.4734ZM22.9047 13.5363L21.8254 14.5571C21.5202 14.8458 21.2307 15.1136 21.0099 15.3127C20.8996 15.4121 20.8061 15.4948 20.7362 15.5544C20.7013 15.5842 20.6717 15.6088 20.6485 15.627C20.6369 15.6361 20.6262 15.6442 20.6168 15.6508C20.6093 15.6561 20.5967 15.6647 20.5831 15.6706C20.5385 15.6903 20.4662 15.7051 20.3903 15.7165C20.3105 15.7284 20.2148 15.7379 20.1161 15.7434C19.9328 15.7535 15.9222 15.7701 11.2091 15.7804C8.85101 15.7856 6.70559 15.7919 5.14864 15.7978C4.37015 15.8008 3.73884 15.8037 3.30164 15.8063C3.08303 15.8076 2.91306 15.8088 2.79753 15.81C2.78874 15.81 2.78027 15.8101 2.77212 15.8102M22.7964 13.3635L21.688 14.4118ZM21.688 14.4118C21.3837 14.6996 21.0953 14.9664 20.876 15.1641ZM20.876 15.1641C20.7663 15.2631 20.6743 15.3444 20.6064 15.4023ZM20.6064 15.4023C20.5724 15.4313 20.545 15.4539 20.5249 15.4697ZM20.5249 15.4697C20.5148 15.4777 20.5072 15.4834 20.5019 15.4871ZM20.5019 15.4871C20.5008 15.4879 20.4999 15.4885 20.4992 15.489ZM20.4992 15.489C20.4794 15.4966 20.4328 15.5079 20.3608 15.5187C20.288 15.5295 20.1985 15.5385 20.105 15.5437C19.9288 15.5534 15.9278 15.57 11.2086 15.5804C8.85049 15.5856 6.70496 15.5919 5.14788 15.5978C4.36934 15.6008 3.73786 15.6037 3.30045 15.6063C3.08177 15.6076 2.91148 15.6088 2.79554 15.61C2.73761 15.6105 2.69303 15.6111 2.6627 15.6116L2.62715 15.6124L2.61553 15.6129L2.60815 15.6136C2.60684 15.6137 2.60344 15.6141 2.59926 15.6149C2.59698 15.6154 2.59125 15.6169 2.58778 15.6179C2.58164 15.6201 2.56331 15.6297 2.55203 15.6383C2.52406 15.6631 2.51954 15.6939 2.5185 15.7038C2.51719 15.7162 2.51846 15.7263 2.51918 15.7311C2.52071 15.7413 2.52345 15.75 2.525 15.7546C2.52849 15.7651 2.5334 15.7768 2.53839 15.788C2.54874 15.8112 2.56429 15.843 2.5839 15.8814C2.62336 15.9589 2.68199 16.0689 2.75546 16.2039C2.90253 16.4742 3.11049 16.8471 3.34688 17.2654C3.81967 18.1019 4.4071 19.1211 4.85041 19.8653C4.92315 19.9874 5.08464 20.2608 5.20922 20.4728C5.48839 20.9478 5.64515 21.1905 5.82168 21.419C5.98365 21.6287 6.08787 21.8798 6.14287 22.2053C6.17617 22.4024 6.21468 22.5491 6.28097 22.6619C6.35038 22.7799 6.44505 22.8524 6.57096 22.9125C6.65236 22.9514 6.71412 22.9802 6.77434 22.9896C6.84005 23 6.89682 22.9866 6.96178 22.97C7.12442 22.9286 7.25195 22.8612 7.34418 22.7387C7.43354 22.62 7.48065 22.4612 7.51055 22.2574C7.57236 21.8364 7.71015 21.5555 7.97982 21.2896C8.18114 21.0911 8.33417 20.9772 8.50973 20.9101C8.68664 20.8425 8.89586 20.8187 9.21685 20.8187C9.43026 20.8187 9.52532 20.8191 9.59728 20.8309C9.66382 20.8418 9.71043 20.8622 9.82888 20.9164C10.1195 21.0493 10.3336 21.2124 10.4907 21.4217C10.648 21.6315 10.7528 21.8939 10.8145 22.2328C10.8457 22.4044 10.8734 22.525 10.9123 22.6166C10.9537 22.7142 11.007 22.7768 11.0812 22.8363C11.3118 23.0212 11.6128 23.0431 11.8561 22.8853C11.945 22.8277 12.0127 22.7671 12.0633 22.6783C12.112 22.593 12.1407 22.4886 12.1666 22.3525C12.2376 21.9796 12.3563 21.6494 12.4729 21.4776C12.6767 21.1775 13.0259 20.9385 13.4024 20.8451C13.5092 20.8186 13.682 20.8043 13.8586 20.8049C14.0358 20.8055 14.2019 20.821 14.2965 20.8475C14.9447 21.0289 15.373 21.5318 15.4992 22.2836C15.5267 22.4469 15.5632 22.5751 15.6262 22.677C15.6913 22.7824 15.7795 22.8517 15.8941 22.907C15.8941 22.907 15.8941 22.907 15.8941 22.907M1.09996 15.0875C1.10036 15.0892 1.10119 15.0926 1.10281 15.0979C1.10648 15.1099 1.11257 15.1268 1.12165 15.1494C1.13975 15.1943 1.16749 15.2559 1.20525 15.3346C1.28063 15.4917 1.39349 15.7117 1.54266 15.992C1.66756 16.2266 1.78379 16.4432 1.87042 16.6031C1.91375 16.683 1.94958 16.7486 1.97534 16.7951C1.98824 16.8184 1.99845 16.8366 2.00574 16.8493L2.01389 16.8633C2.01419 16.8638 2.01444 16.8642 2.01466 16.8645C2.02075 16.873 2.02719 16.8838 2.03128 16.8906L2.03203 16.8918C2.0394 16.9041 2.04919 16.9208 2.061 16.9412C2.08467 16.982 2.11717 17.0389 2.1561 17.1075C2.23398 17.2449 2.33798 17.4301 2.44933 17.6301C2.67201 18.0301 2.88836 18.4161 2.93039 18.4887M3.73343 19.9141C3.84854 20.1185 3.98689 20.3691 4.04093 20.4712L4.1863 20.7456L3.80609 20.9323C3.32405 21.1691 3.01228 21.5428 2.88336 22.0323C2.82529 22.2527 2.85614 22.4464 2.94033 22.5815C3.0233 22.7147 3.16209 22.7985 3.3422 22.7985C3.403 22.7985 3.48312 22.7748 3.56156 22.7308M23.6419 20.8422C23.7073 20.8597 23.7675 20.8723 23.8152 20.8783C23.8387 20.8812 23.8624 20.883 23.8836 20.882C23.894 20.8816 23.9072 20.8803 23.9208 20.8768C23.9322 20.8738 23.9565 20.866 23.9772 20.8444M4.75646 21.8103C4.82254 21.8733 4.89247 21.9807 4.96234 22.1127C5.03361 22.2473 5.10937 22.4163 5.18501 22.6101C5.24773 22.7708 5.34603 22.9874 5.40191 23.0892C5.67242 23.5823 6.21883 23.8976 6.81947 23.8999C7.07078 23.9008 7.27251 23.8686 7.45415 23.7962C7.63575 23.7239 7.80331 23.609 7.98299 23.4365C8.12902 23.2962 8.22903 23.1753 8.3011 23.0485C8.37288 22.9223 8.41951 22.7859 8.45326 22.6118C8.53684 22.1807 8.59102 22.0152 8.741 21.8723C8.82029 21.7967 8.90777 21.7448 9.00807 21.7215C9.10776 21.6984 9.21229 21.7054 9.32314 21.7349C9.48 21.7768 9.60156 21.8438 9.69053 21.9707C9.77536 22.0916 9.82302 22.2571 9.86014 22.4769C9.89571 22.6875 9.92752 22.8201 9.97698 22.9358C10.0261 23.0508 10.095 23.1545 10.2128 23.3039C10.372 23.5057 10.6788 23.7344 10.9021 23.8195C11.032 23.8691 11.0972 23.8784 11.5048 23.8794C11.7282 23.88 11.84 23.8791 11.9173 23.8698C11.9873 23.8613 12.027 23.8464 12.1073 23.8106C12.4335 23.6652 12.6644 23.4947 12.8299 23.273C12.9957 23.0509 13.1017 22.7694 13.1643 22.392C13.1959 22.2014 13.2579 22.0437 13.3591 21.9267C13.4619 21.8078 13.5984 21.7389 13.7624 21.7155C13.9775 21.6848 14.1656 21.7491 14.3041 21.9083C14.4239 22.0461 14.4725 22.2031 14.5541 22.6112C14.6201 22.9408 14.7405 23.1595 15.008 23.4262C15.1824 23.6001 15.35 23.7156 15.5406 23.7887C15.732 23.8622 15.9528 23.8954 16.2368 23.8956C16.8278 23.8963 17.3666 23.5693 17.6241 23.0579C17.6899 22.9272 17.7635 22.7235 17.7867 22.6114C17.8363 22.3716 17.8666 22.2316 17.8946 22.1411C17.925 22.0429 17.9553 21.9951 18.0031 21.941C18.2017 21.7162 18.5169 21.64 18.7784 21.7678C18.9029 21.8286 18.9956 21.8922 19.0626 22.008C19.1251 22.1161 19.1604 22.2623 19.1985 22.472C19.2836 22.9404 19.4696 23.2859 19.7481 23.5181C20.0452 23.7658 20.4019 23.896 20.7784 23.8956C21.0649 23.8954 21.2869 23.8619 21.4787 23.7876C21.6697 23.7136 21.8372 23.5967 22.0113 23.4203C22.2799 23.1482 22.396 22.9366 22.4611 22.6112C22.5069 22.3825 22.5413 22.233 22.5815 22.1252C22.624 22.0113 22.6737 21.9423 22.7459 21.8735C22.8257 21.7975 22.9132 21.7451 23.0137 21.7216C23.1136 21.6983 23.2182 21.7053 23.3293 21.7349C23.4865 21.7769 23.6082 21.8438 23.6972 21.9714C23.782 22.0929 23.8296 22.2594 23.8671 22.4814C23.8981 22.6649 23.9315 22.797 23.979 22.9133C24.0263 23.0289 24.0894 23.133 24.1841 23.2584C24.3596 23.4909 24.6691 23.7293 24.9081 23.8199C25.0376 23.8689 25.1046 23.8784 25.511 23.8794C25.7343 23.88 25.8462 23.8791 25.9234 23.8698C25.9935 23.8613 26.0332 23.8464 26.1135 23.8106C26.505 23.636 26.7842 23.3991 26.9447 23.118C27.0376 22.9555 27.1017 22.7583 27.1285 22.5761C27.156 22.3895 27.1416 22.238 27.0987 22.1557M4.75646 21.8103C4.68789 21.745 4.60749 21.7066 4.51179 21.7032ZM4.51179 21.7032C4.42049 21.7 4.32498 21.7291 4.22382 21.7778ZM4.22382 21.7778C4.01083 21.8805 3.87254 22.0801 3.82476 22.3312ZM3.78586 22.4716C3.76887 22.5196 3.75203 22.5559 3.74064 22.5736Z" />
</svg>
