<svg viewBox="0 0 24 24" xmlns="http://www.w3.org/2000/svg">
<path fill-rule="evenodd" clip-rule="evenodd" d="M11.6074 4.03904C10.9388 4.26924 5.96372 6.17071 5.79288 6.26129C5.48074 6.42689 5.14982 6.84765 5.05868 7.19476C5.00346 7.40496 4.98809 8.35982 5.00887 10.2793C5.03648 12.8303 5.05163 13.1094 5.19216 13.6648C5.53959 15.0373 6.17347 16.138 7.18097 17.1178C7.724 17.6459 8.05478 17.8766 9.57727 18.7888C10.5488 19.3708 11.475 19.8901 11.6356 19.9428C12.13 20.105 12.4359 19.979 14.3835 18.8108C15.9368 17.879 16.2713 17.6463 16.8155 17.1178C17.8235 16.1389 18.4574 15.0387 18.8052 13.6648C18.9457 13.1094 18.9609 12.8303 18.9885 10.2793C19.0218 7.20323 19.0065 7.05354 18.6113 6.6049C18.3116 6.26457 18.3239 6.26997 15.0237 5.02784C12.4094 4.04393 11.966 3.91555 11.6074 4.03904ZM14.8646 6.24684C16.3798 6.8151 17.6597 7.31176 17.7086 7.35051C17.7769 7.40467 17.7974 8.04139 17.797 10.0942C17.7966 12.4897 17.7821 12.829 17.6581 13.3597C17.3347 14.7434 16.5706 15.9205 15.4851 16.7074C14.8863 17.1414 12.1304 18.7888 12.003 18.7888C11.8755 18.7888 9.10967 17.1393 8.51228 16.7069C7.42758 15.9218 6.66278 14.7437 6.33925 13.3597C6.21524 12.829 6.20079 12.4897 6.20037 10.0896C6.20001 8.06781 6.22107 7.3973 6.28639 7.3527C6.46541 7.23053 11.7922 5.22147 11.9474 5.2176C12.0365 5.21541 13.3493 5.67858 14.8646 6.24684ZM14.1931 9.84616C14.1108 9.90535 13.4596 10.6123 12.7459 11.4172C11.617 12.6904 11.4332 12.8687 11.3322 12.789C11.2683 12.7385 10.9279 12.4471 10.5757 12.1414C9.82217 11.4872 9.66066 11.3898 9.42878 11.4494C9.03666 11.5504 8.8309 12.0761 9.0637 12.3822C9.24934 12.6261 11.2221 14.2717 11.3769 14.3115C11.6707 14.3871 11.9175 14.1883 12.826 13.1437C13.3202 12.5755 14.0229 11.7703 14.3878 11.3542C14.959 10.7026 15.0511 10.562 15.0511 10.3411C15.0511 9.88148 14.548 9.59122 14.1931 9.84616Z"/>
</svg>
