<svg viewBox="0 0 24 24" xmlns="http://www.w3.org/2000/svg">
<path fill-rule="evenodd" clip-rule="evenodd" d="M3.97205 5.01575C3.84944 5.04644 3.78427 5.09783 3.7415 5.1975C3.71231 5.2655 3.70577 5.33964 3.67914 5.90362C3.67318 6.03022 3.66809 6.70839 3.66785 7.41069L3.6674 8.68759H3.50475C3.12092 8.68759 2.93895 8.76502 2.87436 8.95582C2.83857 9.06152 2.83468 9.22773 2.82781 10.9371L2.82029 12.8029L2.54428 12.8134C2.29415 12.8229 2.26009 12.8292 2.18128 12.8806C2.08384 12.9442 2 13.0912 2 13.1984C2 13.2437 2.1112 13.4835 2.32463 13.8984C2.50318 14.2455 2.65707 14.5394 2.6666 14.5515C2.67612 14.5635 2.81396 14.8151 2.9729 15.1105C3.13181 15.4058 3.28674 15.6919 3.31714 15.7462C3.34755 15.8004 3.45533 15.9977 3.55666 16.1846C3.658 16.3715 3.80813 16.6479 3.89028 16.7989C3.97245 16.9499 4.07089 17.1345 4.10904 17.209L4.1784 17.3445L3.97294 17.4489C3.61111 17.6328 3.37392 17.9258 3.27625 18.3095C3.18506 18.6676 3.36622 18.9686 3.67307 18.9686C3.79186 18.9686 3.95044 18.8765 4.01771 18.7684C4.04301 18.7278 4.0746 18.6354 4.08792 18.563C4.11853 18.3966 4.20528 18.2709 4.33381 18.2068C4.46875 18.1395 4.55793 18.1427 4.63398 18.2177C4.71077 18.2935 4.81613 18.4993 4.92282 18.7822C4.96831 18.9028 5.03978 19.0661 5.08167 19.1451C5.28823 19.5346 5.70334 19.7808 6.15656 19.7826C6.52835 19.7841 6.7713 19.6839 7.0374 19.4195C7.25194 19.2063 7.34358 19.0396 7.39395 18.7707C7.45407 18.4498 7.49013 18.3508 7.57863 18.2635C7.67706 18.1664 7.7845 18.1407 7.92677 18.1799C8.13003 18.236 8.20589 18.348 8.25831 18.6692C8.30953 18.983 8.35355 19.0896 8.52454 19.3139C8.64575 19.4729 8.87527 19.6504 9.04755 19.7184C9.15404 19.7604 9.21289 19.7667 9.5033 19.7675C9.81871 19.7683 9.84363 19.7652 9.96295 19.7102C10.4443 19.4881 10.6676 19.1786 10.7593 18.6063C10.8018 18.3409 10.9217 18.1975 11.1262 18.1673C11.2577 18.1479 11.3673 18.1878 11.4491 18.2851C11.5204 18.37 11.5527 18.4665 11.6115 18.7707C11.6617 19.0301 11.7554 19.2045 11.9553 19.4109C12.2151 19.679 12.467 19.779 12.8835 19.7795C13.3317 19.7799 13.7418 19.5234 13.9382 19.1195C13.9874 19.0184 14.0424 18.8617 14.0605 18.7713C14.132 18.4139 14.1439 18.3739 14.1987 18.3097C14.3215 18.1659 14.5126 18.1208 14.6676 18.1992C14.8344 18.2835 14.8738 18.3542 14.9287 18.6665C14.9917 19.0252 15.131 19.2979 15.3458 19.4832C15.5706 19.6771 15.8415 19.7798 16.1276 19.7795C16.5476 19.779 16.7995 19.678 17.059 19.4061C17.2593 19.1961 17.3499 19.0271 17.3995 18.7707C17.4651 18.4311 17.4939 18.3514 17.5821 18.2644C17.6815 18.1664 17.7885 18.1405 17.9312 18.1799C18.135 18.2362 18.2103 18.3478 18.2633 18.6726C18.3084 18.9489 18.363 19.087 18.5031 19.2791C18.6357 19.4607 18.8673 19.6462 19.052 19.7186C19.1581 19.7603 19.2182 19.7667 19.5077 19.7675C19.8231 19.7683 19.848 19.7652 19.9674 19.7102C20.2571 19.5765 20.47 19.3921 20.5941 19.1674C20.7364 18.9096 20.7877 18.5488 20.7053 18.3853C20.6825 18.3399 20.6259 18.273 20.5796 18.2366C20.4686 18.1493 20.2586 18.1306 20.1495 18.1983C20.0353 18.269 19.9608 18.3853 19.9266 18.5467C19.8763 18.7838 19.7528 18.9257 19.5667 18.9604C19.3871 18.9938 19.1722 18.8477 19.1235 18.6591C19.102 18.5758 19.0521 18.3091 19.0141 18.074C19.0042 18.0134 19.0569 17.888 19.3366 17.3068C19.5205 16.9247 19.748 16.4493 19.8422 16.2503C19.9365 16.0514 20.1286 15.647 20.2693 15.3516C20.41 15.0562 20.5828 14.6912 20.6533 14.5405C20.7238 14.3898 20.8485 14.1235 20.9303 13.9486C21.466 12.8049 21.8883 11.8768 21.9625 11.6804C22.0284 11.5057 22.0129 11.4377 21.8724 11.2861L21.7598 11.1647L19.511 11.1658L17.2623 11.1669L16.4193 11.9878L15.5763 12.8087H15.0465H14.5166L14.5151 11.1482C14.5132 9.01685 14.4932 8.1543 14.4435 8.06032C14.3569 7.89644 14.1711 7.87849 12.5483 7.87733L11.4137 7.87651L11.2978 7.99228L11.1818 8.10807V8.80336V9.49867L10.6427 9.50174C10.3462 9.50343 9.97851 9.50786 9.82567 9.51158C9.67282 9.51531 9.4027 9.51991 9.2254 9.52184L8.90304 9.52533L8.79913 9.63829L8.69522 9.75125L8.68176 11.0882C8.67436 11.8235 8.66269 12.5065 8.65584 12.606L8.64337 12.7868H8.2452H7.84702L7.84531 12.1785C7.84437 11.844 7.83975 11.5505 7.83504 11.5264C7.8303 11.5023 7.82439 11.1323 7.8219 10.7043C7.81939 10.2763 7.81009 9.69116 7.80122 9.40395C7.78581 8.90483 7.78292 8.87947 7.73544 8.82964C7.65949 8.74991 7.50414 8.70719 7.2412 8.69367L7.0022 8.68139L7.00203 7.91176C7.00187 7.11857 6.98482 6.89691 6.91677 6.80238C6.82935 6.68094 6.58666 6.6141 6.43691 6.67024C6.40563 6.68197 6.33495 6.73254 6.27984 6.78266L6.17962 6.87374V7.78065V8.68759H5.34592H4.51222V6.96958V5.25158L4.41537 5.16357C4.24788 5.01133 4.13714 4.97441 3.97205 5.01575ZM13.6718 10.7372V12.7649H12.8381H12.0044V10.7372V8.70951H12.8381H13.6718V10.7372ZM7.0022 11.1427V12.7649H5.34592H3.68963V11.1427V9.52059H5.34592H7.0022V11.1427ZM11.1374 11.5647L11.1374 12.7759L10.3259 12.7699L9.51442 12.7639V11.5587V10.3536H10.3259H11.1374V11.5647ZM20.8848 12.0001C20.8999 12.0149 20.82 12.203 20.5973 12.6772C20.5152 12.852 20.3903 13.1184 20.3197 13.2691C20.2491 13.4198 20.0889 13.7601 19.9636 14.0254C19.8383 14.2906 19.6735 14.6408 19.5972 14.8036C19.521 14.9663 19.3162 15.4004 19.1421 15.7681C18.968 16.1358 18.7251 16.6488 18.6024 16.908C18.4796 17.1672 18.3709 17.3882 18.3608 17.3992C18.3498 17.411 18.2808 17.4021 18.1914 17.3773C17.8687 17.2878 17.4376 17.3523 17.1733 17.5295C16.934 17.69 16.7069 17.9803 16.6392 18.2123C16.6216 18.2726 16.5969 18.3948 16.5842 18.484C16.5425 18.7777 16.4582 18.8936 16.2453 18.9498C16.1507 18.9747 16.1363 18.9723 16.0145 18.9122C15.8532 18.8325 15.7958 18.7329 15.7499 18.4533C15.7324 18.3467 15.7065 18.2242 15.6923 18.181C15.5704 17.8095 15.2035 17.46 14.8525 17.3813C14.6543 17.3369 14.3577 17.3366 14.1608 17.3808C13.9106 17.4369 13.637 17.6337 13.4735 17.8751C13.3595 18.0434 13.3032 18.1955 13.2625 18.4446C13.2166 18.726 13.1579 18.8321 13.006 18.9083C12.9398 18.9414 12.8643 18.9686 12.8381 18.9686C12.8119 18.9686 12.7362 18.9414 12.6698 18.9083C12.524 18.8355 12.4653 18.7371 12.4271 18.5018C12.333 17.9218 12.01 17.5242 11.5168 17.3814C11.3628 17.3368 11.0111 17.3355 10.8417 17.379C10.5568 17.4522 10.2919 17.639 10.1359 17.8768C10.0446 18.016 9.95748 18.2715 9.90606 18.5511C9.8696 18.7492 9.83098 18.8193 9.71553 18.8968C9.56909 18.9951 9.3877 18.9828 9.24561 18.8649C9.15513 18.7898 9.12543 18.7175 9.0807 18.4632C8.98979 17.9466 8.76798 17.6406 8.33612 17.4363C8.17007 17.3577 8.16814 17.3574 7.86925 17.3574C7.40607 17.3574 7.22877 17.4275 6.93551 17.7267C6.73066 17.9357 6.62595 18.1586 6.57979 18.484C6.53813 18.7777 6.45383 18.8936 6.24085 18.9498C6.14634 18.9747 6.13191 18.9723 6.0101 18.9122C5.84756 18.8319 5.79111 18.7326 5.74398 18.4439C5.70314 18.1937 5.62486 17.9962 5.50065 17.8298C5.3774 17.6647 5.26726 17.4886 5.06824 17.1381C4.97922 16.9814 4.86379 16.7792 4.81173 16.6888C4.17916 15.5899 3.1345 13.6774 3.15606 13.6576C3.16218 13.652 5.92339 13.6411 9.2921 13.6334C12.6608 13.6258 15.5221 13.6135 15.6505 13.6062C15.7878 13.5983 15.9149 13.5787 15.9593 13.5585C16.0007 13.5397 16.3909 13.1756 16.8263 12.7494L17.618 11.9746L19.2446 11.9807C20.1393 11.984 20.8774 11.9927 20.8848 12.0001Z"/>
</svg>
