<svg viewBox="0 0 28 28" xmlns="http://www.w3.org/2000/svg">
<path d="M2 8.24919C2 7.65267 2.23705 7.08058 2.65901 6.65877C3.08097 6.23697 3.65326 6 4.25 6H17.75C18.3467 6 18.919 6.23697 19.341 6.65877C19.7629 7.08058 20 7.65267 20 8.24919V10.4984H21.53C21.8671 10.4987 22.1998 10.5747 22.5036 10.7208C22.8074 10.8669 23.0744 11.0794 23.285 11.3426L25.5065 14.1166C25.8261 14.5157 26.0002 15.0118 26 15.5231V18.7454C26 19.3419 25.7629 19.914 25.341 20.3358C24.919 20.7576 24.3467 20.9946 23.75 20.9946H23C23 21.79 22.6839 22.5528 22.1213 23.1152C21.5587 23.6776 20.7956 23.9935 20 23.9935C19.2044 23.9935 18.4413 23.6776 17.8787 23.1152C17.3161 22.5528 17 21.79 17 20.9946H9.5C9.50086 21.3943 9.42177 21.7902 9.26738 22.1589C9.11299 22.5277 8.88642 22.8618 8.60097 23.1418C8.31553 23.4217 7.97698 23.6418 7.60523 23.7891C7.23348 23.9363 6.83603 24.0078 6.43624 23.9993C6.03645 23.9908 5.6424 23.9025 5.27725 23.7396C4.91209 23.5767 4.5832 23.3424 4.30992 23.0506C4.03664 22.7588 3.82447 22.4153 3.6859 22.0403C3.54733 21.6654 3.48514 21.2665 3.503 20.8672C3.06357 20.7125 2.68298 20.4254 2.41377 20.0454C2.14455 19.6653 1.99997 19.2111 2 18.7454V8.24919ZM3.941 19.4292C4.2122 18.9853 4.59427 18.6196 5.04965 18.3681C5.50503 18.1165 6.01805 17.9878 6.53829 17.9944C7.05853 18.0011 7.56809 18.1429 8.01688 18.4061C8.46567 18.6692 8.83825 19.0445 9.098 19.4951H17.402C17.6659 19.0397 18.0444 18.6613 18.5 18.3975V8.24919C18.5 8.05035 18.421 7.85965 18.2803 7.71905C18.1397 7.57845 17.9489 7.49946 17.75 7.49946H4.25C4.05109 7.49946 3.86032 7.57845 3.71967 7.71905C3.57902 7.85965 3.5 8.05035 3.5 8.24919V18.7454C3.49988 18.8897 3.54143 19.031 3.61966 19.1523C3.69788 19.2736 3.80946 19.3697 3.941 19.4292ZM20 17.9957C20.5266 17.9957 21.0439 18.1343 21.5 18.3975C21.956 18.6607 22.3347 19.0393 22.598 19.4951H23.75C23.9489 19.4951 24.1397 19.4162 24.2803 19.2756C24.421 19.135 24.5 18.9443 24.5 18.7454V15.5216C24.4997 15.3514 24.4415 15.1865 24.335 15.0537L22.115 12.2797C22.0449 12.1919 21.9559 12.121 21.8546 12.0722C21.7533 12.0234 21.6424 11.998 21.53 11.9978H20V17.9957ZM6.5 19.4951C6.10218 19.4951 5.72064 19.6531 5.43934 19.9343C5.15804 20.2155 5 20.5969 5 20.9946C5 21.3923 5.15804 21.7737 5.43934 22.0549C5.72064 22.3361 6.10218 22.4941 6.5 22.4941C6.89782 22.4941 7.27936 22.3361 7.56066 22.0549C7.84196 21.7737 8 21.3923 8 20.9946C8 20.5969 7.84196 20.2155 7.56066 19.9343C7.27936 19.6531 6.89782 19.4951 6.5 19.4951ZM20 19.4951C19.6022 19.4951 19.2206 19.6531 18.9393 19.9343C18.658 20.2155 18.5 20.5969 18.5 20.9946C18.5 21.3923 18.658 21.7737 18.9393 22.0549C19.2206 22.3361 19.6022 22.4941 20 22.4941C20.3978 22.4941 20.7794 22.3361 21.0607 22.0549C21.342 21.7737 21.5 21.3923 21.5 20.9946C21.5 20.5969 21.342 20.2155 21.0607 19.9343C20.7794 19.6531 20.3978 19.4951 20 19.4951Z"/>
</svg>
