<svg width="39" height="28" viewBox="0 0 39 28" fill="none" xmlns="http://www.w3.org/2000/svg">
<path fill-rule="evenodd" clip-rule="evenodd" d="M0.447697 13.6719H38.1776C38.4152 13.6719 38.6093 13.8575 38.6093 14.0847V17.9038C38.6093 18.1309 38.4152 18.3166 38.1776 18.3166H0.447697C0.210165 18.3166 0.0159912 18.1309 0.0159912 17.9038V14.0847C0.0159912 13.8575 0.210165 13.6719 0.447697 13.6719V13.6719Z" fill="#273366"/>
<path fill-rule="evenodd" clip-rule="evenodd" d="M0.447697 23.3555H6.97231C7.2098 23.3555 7.40402 23.5411 7.40402 23.7683V27.5874C7.40402 27.8145 7.2098 28.0002 6.97231 28.0002H0.447697C0.210213 28.0002 0.0159912 27.8145 0.0159912 27.5874V23.7683C0.0159912 23.5411 0.210213 23.3555 0.447697 23.3555V23.3555Z" fill="#273366"/>
<path fill-rule="evenodd" clip-rule="evenodd" d="M31.6712 23.3555H38.1958C38.4333 23.3555 38.6275 23.5411 38.6275 23.7683V27.5874C38.6275 27.8145 38.4333 28.0002 38.1958 28.0002H31.6712C31.4337 28.0002 31.2395 27.8145 31.2395 27.5874V23.7683C31.2395 23.5411 31.4337 23.3555 31.6712 23.3555V23.3555Z" fill="#273366"/>
<path fill-rule="evenodd" clip-rule="evenodd" d="M21.262 23.3555H27.7866C28.0241 23.3555 28.2184 23.5411 28.2184 23.7683V27.5874C28.2184 27.8145 28.0241 28.0002 27.7866 28.0002H21.262C21.0245 28.0002 20.8303 27.8145 20.8303 27.5874V23.7683C20.8303 23.5411 21.0245 23.3555 21.262 23.3555V23.3555Z" fill="#273366"/>
<path fill-rule="evenodd" clip-rule="evenodd" d="M10.8569 23.3555H17.3815C17.619 23.3555 17.8132 23.5411 17.8132 23.7683V27.5874C17.8132 27.8145 17.619 28.0002 17.3815 28.0002H10.8569C10.6194 28.0002 10.4252 27.8145 10.4252 27.5874V23.7683C10.4252 23.5411 10.6194 23.3555 10.8569 23.3555V23.3555Z" fill="#273366"/>
<path fill-rule="evenodd" clip-rule="evenodd" d="M38.289 8.62225C35.9187 8.50118 33.7991 7.47741 32.2992 5.90407C30.6999 7.58145 28.3963 8.63424 25.8355 8.63424C23.2747 8.63424 20.9712 7.5815 19.3719 5.90407C17.7726 7.58159 15.469 8.63442 12.9081 8.63442C10.3472 8.63442 8.04358 7.58163 6.44428 5.90407C4.94443 7.47727 2.82494 8.50104 0.454753 8.62207C0.331978 8.62836 0.223992 8.5903 0.134779 8.50944C0.0454705 8.42855 0 8.32745 0 8.20986V4.46708C0 4.25441 0.166709 4.07792 0.388012 4.05644C2.34968 3.86571 3.89001 2.31188 3.95608 0.401166C3.96381 0.178856 4.15477 0.00195312 4.38755 0.00195312H8.50117C8.73395 0.00195312 8.92495 0.178626 8.93263 0.401166C9.00326 2.44241 10.7561 4.07632 12.9081 4.07632C15.0601 4.07632 16.8129 2.44241 16.8836 0.401166C16.8913 0.178764 17.0823 0.00195312 17.3151 0.00195312H21.4287C21.6615 0.00195312 21.8524 0.178626 21.8601 0.401166C21.9307 2.44241 23.6836 4.07632 25.8356 4.07632C27.9875 4.07632 29.7404 2.44241 29.8111 0.401166C29.8188 0.178764 30.0097 0.00195312 30.2425 0.00195312H34.3561C34.5889 0.00195312 34.7798 0.178626 34.7876 0.401075C34.8537 2.31193 36.3942 3.86585 38.3558 4.05644C38.577 4.07788 38.7439 4.25441 38.7439 4.46708V8.21C38.7439 8.32758 38.6984 8.42873 38.6091 8.50963C38.5199 8.59048 38.4119 8.62854 38.2891 8.62225H38.289Z" fill="#273366"/>
</svg>
