<svg viewBox="0 0 28 28" xmlns="http://www.w3.org/2000/svg">
<path d="M24.7975 7.27393C24.7943 7.26776 24.7917 7.26137 24.7882 7.25525C24.7838 7.2474 24.7787 7.24022 24.7741 7.23259C24.6346 6.99487 24.4375 6.79811 24.2018 6.66142L14.7732 1.20695C14.5371 1.07126 14.2708 1 14 1C13.7292 1 13.4629 1.07126 13.2268 1.20695L3.7981 6.66149C3.55522 6.80219 3.35334 7.00658 3.21324 7.25363C3.21202 7.25582 3.21057 7.25778 3.20936 7.25997C3.20724 7.26384 3.20569 7.26788 3.20364 7.27181C3.07041 7.51275 3.00026 7.78484 3 8.0617V18.9371C3.00027 19.2219 3.07428 19.5015 3.21449 19.7475C3.35471 19.9934 3.55612 20.197 3.79821 20.3374L13.2268 25.7918C13.4356 25.9111 13.6683 25.9799 13.9071 25.9928C13.9356 25.9971 13.9643 25.9995 13.9931 25.9999C13.9954 26 13.9978 26 14.0001 26C14.0307 25.9998 14.0613 25.9974 14.0916 25.9929C14.3308 25.9802 14.564 25.9114 14.7732 25.7918L24.2019 20.3373C24.444 20.1969 24.6453 19.9934 24.7855 19.7474C24.9257 19.5015 24.9997 19.2219 25 18.9371V8.0617C24.9997 7.78566 24.93 7.51436 24.7975 7.27393ZM13.8895 2.40712C13.9233 2.38774 13.9613 2.37756 14 2.37756C14.0387 2.37756 14.0767 2.38774 14.1105 2.40712L22.9639 7.52888L19.5113 9.54951L10.4757 4.38202L13.8895 2.40712ZM14.1153 12.7076L5.04807 7.52194L9.10297 5.17618L18.1466 10.3483L14.1153 12.7076ZM4.46105 19.1372C4.42644 19.1171 4.39765 19.0881 4.37761 19.0529C4.35756 19.0178 4.34698 18.9778 4.34694 18.9371V8.70023L13.4415 13.9015L13.3369 24.272L4.46105 19.1372ZM23.5391 19.1371L14.6841 24.2598L14.7886 13.9016L18.8417 11.5295V15.8558C18.8417 16.0386 18.9126 16.2139 19.0389 16.3432C19.1652 16.4724 19.3365 16.5451 19.5151 16.5451C19.6937 16.5451 19.865 16.4724 19.9913 16.3432C20.1176 16.2139 20.1886 16.0386 20.1886 15.8558V10.7412L23.6531 8.71364V18.9371C23.653 18.9778 23.6425 19.0177 23.6224 19.0529C23.6024 19.088 23.5736 19.1171 23.5391 19.1371Z"/>
</svg>
