<svg viewBox="0 0 24 24" xmlns="http://www.w3.org/2000/svg">
<path fill-rule="evenodd" clip-rule="evenodd" d="M10.25 14.7334C7.7151 14.7334 5.75 16.6392 5.75 18.8831V19.6997C5.75 20.1139 5.41421 20.4497 5 20.4497C4.58579 20.4497 4.25 20.1139 4.25 19.6997V18.8831C4.25 15.7149 6.98591 13.2334 10.25 13.2334H13.75C17.0141 13.2334 19.75 15.7149 19.75 18.8831V19.6997C19.75 20.1139 19.4142 20.4497 19 20.4497C18.5858 20.4497 18.25 20.1139 18.25 19.6997V18.8831C18.25 16.6392 16.2849 14.7334 13.75 14.7334H10.25Z" />
<path fill-rule="evenodd" clip-rule="evenodd" d="M11.9987 4.75C10.4799 4.75 9.24866 5.98122 9.24866 7.5C9.24866 9.01878 10.4799 10.25 11.9987 10.25C13.5174 10.25 14.7487 9.01878 14.7487 7.5C14.7487 5.98122 13.5174 4.75 11.9987 4.75ZM7.74866 7.5C7.74866 5.15279 9.65145 3.25 11.9987 3.25C14.3458 3.25 16.2487 5.15278 16.2487 7.5C16.2487 9.84722 14.3458 11.75 11.9987 11.75C9.65145 11.75 7.74866 9.84721 7.74866 7.5Z" />
</svg>
