<svg viewBox="0 0 24 24" xmlns="http://www.w3.org/2000/svg">
<path d="M3.13984 8.69413L7.82207 5.71019C12.39 2.7987 12.5248 2.73833 13.3568 3.23728C16.1082 4.88654 17.439 5.78557 17.4445 5.99801C17.4506 6.24308 4.50238 14.6209 3.6113 14.9479C3.20704 15.0964 3.1238 14.5716 3.13131 11.9107L3.13984 8.69413Z" fill="#F05A63"/>
<path fill-rule="evenodd" clip-rule="evenodd" d="M10.9856 12.0381L3 17.1778L3.01501 18.9726L3.02968 20.7674L5.61489 20.8623L8.20043 20.9573L15.2134 16.4863L22.2267 12.0156V10.4381C22.2267 8.96311 22.1346 8.79669 20.8109 7.87938C20.0321 7.33996 19.2996 6.89844 19.183 6.89844C19.0666 6.89844 15.3775 9.21112 10.9856 12.0381ZM16.4272 17.3409L10.7983 20.9299L16.5125 20.9302L22.2267 20.9305V17.3409C22.2267 15.3666 22.1885 13.7516 22.1414 13.7516C22.0943 13.752 19.5231 15.367 16.4272 17.3409Z"/>
</svg>
