<svg viewBox="0 0 40 40" xmlns="http://www.w3.org/2000/svg">
<path fill-rule="evenodd" clip-rule="evenodd" d="M34.9337 11.3396L34.9451 11.3024C34.947 11.296 34.9489 11.2897 34.9507 11.2836C34.9079 11.28 34.8575 11.2777 34.7987 11.2777H31.1521C30.8723 11.2777 30.7502 11.3463 30.694 11.388C30.6271 11.4376 30.5555 11.5242 30.4844 11.6853L30.4812 11.693L30.4633 11.7349C30.4479 11.7709 30.4254 11.823 30.3962 11.8895C30.3377 12.0226 30.252 12.214 30.1412 12.4518C29.9198 12.927 29.5972 13.5899 29.1903 14.3454C28.3828 15.8445 27.2171 17.7577 25.8231 19.2879L25.8044 19.3085L25.7846 19.3279C24.9894 20.1091 24.3196 20.7151 23.384 20.7151C22.3201 20.7151 21.8044 19.6724 21.8044 18.6905V11.5944C21.8044 11.4531 21.7965 11.3505 21.7859 11.2778C21.7823 11.2777 21.7786 11.2777 21.7748 11.2777H16.2854C16.2938 11.2879 16.3025 11.2985 16.3116 11.3096L16.3267 11.328C16.4007 11.418 16.4948 11.5323 16.5906 11.6604C17.0417 12.2629 17.484 13.1059 17.5637 14.5365L17.5653 14.5643V19.8669C17.5653 20.4365 17.526 21.0246 17.272 21.4749C17.1189 21.7464 16.8919 21.965 16.5955 22.0964C16.3272 22.2153 16.0673 22.233 15.889 22.233C15.454 22.233 15.0769 22.0467 14.8053 21.8712C14.516 21.6841 14.2316 21.4335 13.9593 21.1532C13.413 20.5908 12.825 19.8146 12.2401 18.9069C11.0671 17.0861 9.83542 14.6245 8.91852 12.0014C8.75229 11.53 8.6441 11.3893 8.59369 11.3437C8.59363 11.3436 8.59385 11.3439 8.59369 11.3437C8.58891 11.3382 8.53651 11.2777 8.23 11.2777H4.58331C4.46989 11.2777 4.38864 11.2858 4.33304 11.2952C4.3344 11.3965 4.3811 11.7585 4.56036 12.4041C4.73421 13.0303 5.01527 13.8614 5.43761 14.863C6.2818 16.8649 7.68313 19.5304 9.89856 22.5806L9.90527 22.5898C12.7727 26.634 16.7385 28.7222 20.2119 28.7222C20.7607 28.7222 21.1501 28.6914 21.4245 28.6434C21.6423 28.6053 21.7547 28.5618 21.805 28.537C21.8059 28.5312 21.8068 28.5246 21.8077 28.5172C21.8132 28.4741 21.8168 28.4143 21.8168 28.3291V25.1169C21.8168 24.8346 21.8311 24.556 21.8813 24.3005C21.9319 24.0433 22.0306 23.7471 22.2448 23.4856C22.7085 22.9196 23.3895 22.8893 23.7704 22.8893C24.7283 22.8893 25.9058 23.4096 28.0896 25.4781L28.0962 25.4843L28.1026 25.4907C28.7382 26.1149 29.2402 26.6524 29.6532 27.1018C29.7359 27.1918 29.8139 27.277 29.8879 27.3578C30.1921 27.6901 30.4284 27.9483 30.6448 28.1614C30.9096 28.4221 31.0837 28.5526 31.2239 28.6247C31.3431 28.686 31.4705 28.7222 31.6729 28.7222H35.3197C35.4877 28.7222 35.5988 28.7028 35.6646 28.6834C35.661 28.6426 35.6513 28.582 35.6272 28.4986C35.5132 28.1593 35.2211 27.6555 34.709 26.9748C34.2043 26.3039 33.5415 25.5325 32.7648 24.6741L32.7566 24.6651L32.7486 24.6558C32.3596 24.2043 31.8636 23.7248 31.3834 23.2627C31.3583 23.2386 31.333 23.2143 31.3075 23.1898C30.8984 22.7965 30.4466 22.3623 30.1991 22.0285C29.8751 21.6159 29.6012 21.1215 29.6505 20.5161C29.6916 20.0116 29.9625 19.5875 30.1284 19.3278C30.1362 19.3156 30.1438 19.3037 30.1511 19.2922L30.167 19.2672L30.1844 19.2432L30.1961 19.227L30.2322 19.1767C30.2641 19.1322 30.3113 19.0662 30.3716 18.9813C30.4923 18.8115 30.6658 18.566 30.8755 18.2646C31.2954 17.6613 31.859 16.8367 32.4359 15.9493C33.0142 15.0597 33.5989 14.1176 34.0645 13.277C34.5483 12.4034 34.8443 11.7421 34.9253 11.3775L34.9337 11.3396ZM30.9948 19.829C30.6086 20.4361 30.454 20.7397 30.9948 21.4226C31.1853 21.6845 31.5918 22.0756 32.0568 22.523C32.535 22.9831 33.0753 23.5029 33.5062 24.0031C35.0726 25.7341 36.253 27.1943 36.5819 28.2006C36.8825 29.2105 36.3615 29.7222 35.3197 29.7222H31.6729C30.6962 29.7222 30.2044 29.1848 29.1416 28.0236C28.6911 27.5314 28.138 26.9271 27.4019 26.2041C25.2384 24.1549 24.3112 23.8893 23.7704 23.8893C23.0364 23.8893 22.8168 24.0936 22.8168 25.1169V28.3291C22.8168 29.2105 22.53 29.7222 20.2119 29.7222C16.3485 29.7222 12.1029 27.4183 9.08946 23.1683C4.56932 16.9449 3.33301 12.2394 3.33301 11.2907C3.33301 10.7595 3.5414 10.2777 4.58331 10.2777H8.23C9.16199 10.2777 9.51256 10.6784 9.86208 11.6702C11.6456 16.7733 14.6528 21.233 15.889 21.233C16.3526 21.233 16.5653 21.0233 16.5653 19.8669V14.5922C16.4816 13.0907 15.9476 12.4414 15.5521 11.9604C15.3078 11.6634 15.1164 11.4306 15.1164 11.101C15.1164 10.7004 15.4649 10.2777 16.0443 10.2777H21.7748C22.5476 10.2777 22.8044 10.6836 22.8044 11.5944V18.6905C22.8044 19.4494 23.1522 19.7151 23.384 19.7151C23.8476 19.7151 24.234 19.4494 25.0839 18.6145C27.711 15.7306 29.5655 11.2907 29.5655 11.2907C29.7973 10.7595 30.2248 10.2777 31.1521 10.2777H34.7987C35.9015 10.2777 36.1332 10.8354 35.9015 11.5944C35.4379 13.6814 30.9948 19.829 30.9948 19.829Z" />
</svg>
