<svg viewBox="0 0 24 24" xmlns="http://www.w3.org/2000/svg">
<path d="M12 5C12.1083 5 12.2021 5.04948 12.2812 5.14844L13.8813 7.14844C13.9604 7.2474 14 7.36458 14 7.5C14 7.63542 13.9604 7.7526 13.8813 7.85156C13.8021 7.95052 13.7083 8 13.6 8H12.8V16H13.6C13.7083 16 13.8021 16.0495 13.8813 16.1484C13.9604 16.2474 14 16.3646 14 16.5C14 16.6354 13.9604 16.7526 13.8813 16.8516L12.2812 18.8516C12.2021 18.9505 12.1083 19 12 19C11.8917 19 11.7979 18.9505 11.7188 18.8516L10.1187 16.8516C10.0396 16.7526 10 16.6354 10 16.5C10 16.3646 10.0396 16.2474 10.1187 16.1484C10.1979 16.0495 10.2917 16 10.4 16H11.2V8H10.4C10.2917 8 10.1979 7.95052 10.1187 7.85156C10.0396 7.7526 10 7.63542 10 7.5C10 7.36458 10.0396 7.2474 10.1187 7.14844L11.7188 5.14844C11.7979 5.04948 11.8917 5 12 5Z"/>
</svg>
