<svg viewBox="0 0 24 24" xmlns="http://www.w3.org/2000/svg">
<path fill-rule="evenodd" clip-rule="evenodd" d="M5.76752 10.7312C8.29477 14.7464 12.7074 18.8547 18.203 19.4937C18.7376 19.5558 19.257 19.1221 19.3063 18.4653C19.3063 18.4653 19.3063 18.4653 19.3063 18.4653L19.4965 15.9295C19.5412 15.332 19.1592 14.803 18.6145 14.6632L15.6525 13.9037C15.6525 13.9037 15.6525 13.9037 15.6525 13.9037C15.3561 13.8278 15.0421 13.8752 14.7782 14.0376L14.7782 14.0376L13.2882 14.9546C13.1201 15.0581 12.9069 15.0529 12.7439 14.9415C10.6732 13.5255 8.7451 11.1348 8.03675 10.1176C7.9205 9.95067 7.91698 9.72995 8.02783 9.55939L9.19966 7.7564L9.19967 7.75639C9.41855 7.41964 9.46 6.99063 9.30803 6.61471L9.30802 6.61469L8.39339 4.35205C8.21549 3.91195 7.80832 3.62785 7.35944 3.61161L7.35944 3.61161L4.27599 3.50003C4.09405 3.50126 3.97048 3.54305 3.88331 3.59838C3.79491 3.65448 3.71351 3.74381 3.64688 3.8868C3.50581 4.18957 3.45143 4.69278 3.55052 5.39862C3.74645 6.79436 4.50548 8.72616 5.76752 10.7312ZM3.34744 2.75408C3.62147 2.58015 3.9404 2.5 4.28426 2.5C4.29029 2.5 4.29632 2.50011 4.30234 2.50033L7.3956 2.61226C7.3956 2.61226 7.3956 2.61226 7.3956 2.61226C8.24979 2.64317 8.99901 3.18194 9.32051 3.97728L10.2351 6.2399C10.5089 6.91706 10.4358 7.68958 10.0381 8.30137L9.05244 9.81794C9.80751 10.8433 11.3775 12.7115 13.0453 13.9299L14.2541 13.186C14.7476 12.8823 15.3402 12.7913 15.9008 12.935L15.9009 12.935L18.8629 13.6946L18.8629 13.6946C19.8937 13.959 20.5733 14.9409 20.4937 16.0043L20.4937 16.0043L20.3035 18.5401L20.3035 18.5401C20.2192 19.663 19.2821 20.6258 18.0876 20.487L18.0875 20.487C12.1714 19.7991 7.53223 15.4122 4.92121 11.2639C3.61411 9.18726 2.7824 7.12027 2.56023 5.53764C2.45026 4.75431 2.47999 4.02345 2.74045 3.46445C2.87459 3.17655 3.07331 2.92806 3.34744 2.75408Z"/>
</svg>
