<svg viewBox="0 0 24 24" xmlns="http://www.w3.org/2000/svg">
<path d="M3 7.15625C3 6.68383 3.18767 6.23077 3.52172 5.89672C3.85577 5.56267 4.30883 5.375 4.78125 5.375H15.4688C15.9412 5.375 16.3942 5.56267 16.7283 5.89672C17.0623 6.23077 17.25 6.68383 17.25 7.15625V8.9375H18.4613C18.7281 8.93774 18.9915 8.99794 19.232 9.11366C19.4725 9.22938 19.6839 9.39766 19.8506 9.60606L21.6093 11.8029C21.8624 12.119 22.0002 12.5119 22 12.9168V15.4687C22 15.9412 21.8123 16.3942 21.4783 16.7283C21.1442 17.0623 20.6912 17.25 20.2188 17.25H19.625C19.625 17.8799 19.3748 18.484 18.9294 18.9294C18.484 19.3748 17.8799 19.625 17.25 19.625C16.6201 19.625 16.016 19.3748 15.5706 18.9294C15.1252 18.484 14.875 17.8799 14.875 17.25H8.9375C8.93818 17.5666 8.87557 17.8801 8.75335 18.1721C8.63112 18.4641 8.45175 18.7288 8.22577 18.9505C7.99979 19.1722 7.73178 19.3465 7.43747 19.4631C7.14317 19.5797 6.82852 19.6363 6.51202 19.6296C6.19553 19.6229 5.88357 19.5529 5.59449 19.4239C5.30541 19.2949 5.04504 19.1093 4.82869 18.8782C4.61234 18.6471 4.44438 18.3751 4.33467 18.0782C4.22497 17.7812 4.17574 17.4653 4.18988 17.1491C3.84199 17.0266 3.5407 16.7992 3.32757 16.4982C3.11443 16.1973 2.99998 15.8375 3 15.4687L3 7.15625ZM4.53663 16.0102C4.75133 15.6587 5.0538 15.3691 5.4143 15.1699C5.77481 14.9707 6.18096 14.8687 6.59281 14.874C7.00467 14.8793 7.40807 14.9916 7.76336 15.2C8.11866 15.4084 8.41361 15.7056 8.61925 16.0625H15.1932C15.4021 15.7018 15.7018 15.4021 16.0625 15.1932V7.15625C16.0625 6.99878 15.9999 6.84776 15.8886 6.73641C15.7772 6.62506 15.6262 6.5625 15.4688 6.5625H4.78125C4.62378 6.5625 4.47276 6.62506 4.36141 6.73641C4.25006 6.84776 4.1875 6.99878 4.1875 7.15625V15.4687C4.18741 15.583 4.2203 15.6949 4.28223 15.791C4.34416 15.887 4.43249 15.9632 4.53663 16.0102ZM17.25 14.875C17.6669 14.875 18.0764 14.9848 18.4375 15.1932C18.7985 15.4017 19.0983 15.7015 19.3068 16.0625H20.2188C20.3762 16.0625 20.5272 15.9999 20.6386 15.8886C20.7499 15.7772 20.8125 15.6262 20.8125 15.4687V12.9156C20.8123 12.7809 20.7662 12.6502 20.6819 12.5451L18.9244 10.3483C18.8688 10.2787 18.7984 10.2225 18.7182 10.1839C18.6381 10.1453 18.5502 10.1251 18.4613 10.125H17.25V14.875ZM6.5625 16.0625C6.24756 16.0625 5.94551 16.1876 5.72281 16.4103C5.50011 16.633 5.375 16.9351 5.375 17.25C5.375 17.5649 5.50011 17.867 5.72281 18.0897C5.94551 18.3124 6.24756 18.4375 6.5625 18.4375C6.87744 18.4375 7.17949 18.3124 7.40219 18.0897C7.62489 17.867 7.75 17.5649 7.75 17.25C7.75 16.9351 7.62489 16.633 7.40219 16.4103C7.17949 16.1876 6.87744 16.0625 6.5625 16.0625ZM17.25 16.0625C16.9351 16.0625 16.633 16.1876 16.4103 16.4103C16.1876 16.633 16.0625 16.9351 16.0625 17.25C16.0625 17.5649 16.1876 17.867 16.4103 18.0897C16.633 18.3124 16.9351 18.4375 17.25 18.4375C17.5649 18.4375 17.867 18.3124 18.0897 18.0897C18.3124 17.867 18.4375 17.5649 18.4375 17.25C18.4375 16.9351 18.3124 16.633 18.0897 16.4103C17.867 16.1876 17.5649 16.0625 17.25 16.0625Z"/>
</svg>
