<svg viewBox="0 0 18 18" xmlns="http://www.w3.org/2000/svg">
<path fill-rule="evenodd" clip-rule="evenodd" d="M10.0135 0.672116C9.76965 0.800775 9.62313 0.906427 9.46306 1.06907C9.34308 1.19099 8.28156 2.32758 7.10412 3.59482C4.32229 6.58886 3.79691 7.15371 3.05478 7.94881C1.93797 9.14531 1.92103 9.16557 1.52575 9.77881C0.892295 10.7616 0.627595 11.6746 0.671086 12.7268C0.720424 13.921 1.16779 15.0618 1.91916 15.9097C2.57605 16.651 3.74914 17.2853 4.76793 17.4501C5.78942 17.6153 6.81606 17.3684 7.72827 16.738C8.20209 16.4106 8.33608 16.2827 9.42325 15.12C9.96568 14.5399 10.575 13.8898 10.7774 13.6755C10.9797 13.4612 11.3018 13.1183 11.493 12.9135C11.6843 12.7087 12.0066 12.3657 12.2092 12.1511C12.5362 11.8049 14.2136 10.0127 15.9835 8.11847C16.8853 7.15337 17.1493 6.80562 17.4063 6.24408C17.5884 5.84628 17.6384 5.62081 17.6613 5.0955C17.697 4.27255 17.549 3.49327 17.2361 2.8578C16.9422 2.26082 16.5997 1.89375 16.0809 1.61976C15.4269 1.27434 14.9105 1.13027 14.316 1.12735C13.5572 1.12366 12.8308 1.41571 12.0659 2.0319C11.9323 2.13948 7.62079 6.69207 5.80417 8.64368C5.50376 8.9664 5.33956 9.24828 5.16762 9.73635C4.97522 10.2825 4.92671 10.81 5.03127 11.2193C5.08716 11.4381 5.26288 11.8111 5.41943 12.0433C5.60483 12.3182 6.27769 12.7462 6.68432 12.8478C7.01411 12.9303 7.37722 12.9012 7.72096 12.7649C8.28917 12.5396 8.30399 12.5256 10.6661 9.97372C11.8604 8.68356 13.1281 7.31521 13.4832 6.93292C13.8383 6.55064 14.185 6.14924 14.2537 6.04091C14.565 5.54969 14.5725 5.08052 14.2725 4.85251C14.1495 4.75903 13.8684 4.76316 13.6141 4.86224C13.2088 5.02014 13.0458 5.16771 11.9073 6.4073C11.3081 7.05958 10.7036 7.71525 10.5637 7.86434C10.4238 8.01343 9.73138 8.76262 9.02499 9.52919C7.68893 10.979 7.54451 11.1246 7.3437 11.2232C7.108 11.3391 6.79008 11.2827 6.61784 11.0946C6.43976 10.9001 6.37892 10.5172 6.48867 10.2814C6.51963 10.2148 6.83201 9.85695 7.18279 9.48612C7.53361 9.11532 8.74009 7.83635 9.86391 6.64392C10.9877 5.45149 12.1524 4.21667 12.4521 3.89985C13.1409 3.17167 13.4424 2.94861 13.9821 2.76794C14.3482 2.64538 14.9056 2.69024 15.2557 2.87047C15.7594 3.12986 16.0963 3.60594 16.227 4.24317C16.3143 4.6691 16.2321 5.14114 15.9798 5.66185C15.7831 6.06805 15.8431 5.99981 13.2214 8.79616C12.8632 9.17821 12.2565 9.82605 11.8732 10.2358C8.05317 14.3195 7.16768 15.2465 6.87108 15.4723C6.58558 15.6896 6.21789 15.8655 5.90906 15.9323C5.5715 16.0055 4.89897 15.9805 4.5332 15.8812C3.96363 15.7267 3.3955 15.3469 2.96607 14.8337C2.53352 14.3167 2.34195 13.9317 2.20107 13.2966C2.12386 12.9485 2.11728 12.8616 2.12981 12.354C2.1428 11.8288 2.15024 11.7754 2.25281 11.473C2.31284 11.296 2.45242 10.9717 2.56299 10.7524L2.76396 10.3536L4.47832 8.4994C5.4212 7.47961 7.23266 5.52133 8.50377 4.14772C10.3157 2.1897 10.8342 1.61 10.9042 1.46413C11.0774 1.10353 10.991 0.736225 10.6929 0.565346C10.5048 0.457525 10.3842 0.4765 10.0135 0.672116Z" />
</svg>
