<svg viewBox="0 0 28 28" xmlns="http://www.w3.org/2000/svg">
<path fill-rule="evenodd" clip-rule="evenodd" d="M14.8602 1.3947C14.6078 1.54138 14.393 2.10176 14.4602 2.43805C14.4912 2.59251 14.8891 3.16038 15.3445 3.70018C15.8 4.23988 16.1731 4.70482 16.1735 4.73329C16.1741 4.76176 15.8816 5.00555 15.5235 5.27506C15.1655 5.54457 14.7887 5.87071 14.6863 5.99995C14.4203 6.33565 14.4452 6.85181 14.7419 7.1485C14.9578 7.36452 15.0669 7.39033 15.7635 7.39033H16.5433L16.6093 7.80296C16.7064 8.40994 17.2169 9.29509 17.7666 9.80928C18.3459 10.3512 19.1145 10.7208 19.9649 10.8665C21.9788 11.2115 24.0747 9.79461 24.5406 7.77302C24.6915 7.11846 24.6758 2.54473 24.5219 2.33482C24.4191 2.19465 23.71 2.09398 20.2232 1.72499C15.8611 1.2634 15.1603 1.22016 14.8602 1.3947ZM19.9912 2.82429L23.5616 3.19358V3.71585V4.23821H20.4272H17.2927L16.6043 3.42555C15.6805 2.33522 15.6759 2.32615 16.0864 2.39727C16.2703 2.42909 18.0275 2.62127 19.9912 2.82429ZM5.34016 5.52536C3.63375 6.23025 2.13713 6.83231 2.0144 6.86343C1.63166 6.96036 1.40039 7.35989 1.40039 7.92432C1.40039 8.39448 2.78719 15.5063 2.95197 15.8813C2.99245 15.9734 4.24441 17.382 5.73414 19.0114C8.73142 22.2898 8.95628 22.4729 9.99569 22.4823C10.8214 22.4897 11.1482 22.3263 12.2987 21.3316L13.3674 20.4074L13.3935 23.3223C13.4111 25.2725 13.4558 26.2807 13.5288 26.3686C13.6176 26.4757 14.8202 26.5 20.0244 26.5C26.3136 26.5 26.4126 26.497 26.5166 26.3027C26.5893 26.1669 26.6134 24.2566 26.5939 20.1709L26.5657 14.2363L26.3385 13.7797C25.9715 13.0418 25.4821 12.5491 24.7664 12.1965L24.1081 11.8722L20.623 11.8429C18.3708 11.8239 16.9546 11.8516 16.6198 11.9211C15.5165 12.1501 14.8583 12.5802 12.7765 14.4323C11.693 15.3962 10.6628 16.3201 10.487 16.4854L10.1673 16.7859L9.87602 16.5068C9.59945 16.2418 9.59196 16.2139 9.72788 15.9511C9.80648 15.7989 9.871 15.5724 9.8711 15.4479C9.87139 15.1264 8.40688 7.79291 8.27529 7.45662C8.08244 6.96381 7.78262 6.85348 6.48959 6.79931L5.31426 6.75005L6.92769 6.09225C8.34256 5.51551 8.54989 5.45493 8.61195 5.59973C8.65085 5.69065 9.04108 7.60093 9.47919 9.84475C9.91719 12.0887 10.3162 14.0003 10.3657 14.093C10.5915 14.5149 11.3483 14.3052 11.3483 13.8207C11.3483 13.44 9.68701 5.06426 9.55326 4.77072C9.42364 4.48614 9.0075 4.23683 8.66927 4.24107C8.54467 4.24254 7.04658 4.82056 5.34016 5.52536ZM23.5616 5.81427V6.30679H19.8072H16.0529L16.68 5.81624L17.3072 5.32569L20.4344 5.32372L23.5616 5.32175V5.81427ZM23.4631 7.51878C23.4631 7.79419 22.9394 8.67787 22.5991 8.97663C20.8986 10.4699 18.3533 9.76013 17.7055 7.61196L17.6387 7.39033H20.5509C22.8789 7.39033 23.4631 7.41614 23.4631 7.51878ZM8.01015 11.6506L8.75949 15.3691H6.36706H3.97464L3.8201 14.655C3.46109 12.9969 2.48383 8.14142 2.48383 8.01583C2.48383 7.90255 2.88972 7.88383 4.87231 7.9057L7.2608 7.9321L8.01015 11.6506ZM21.6738 12.99C21.6557 13.0358 20.0454 15.0575 18.0952 17.4824L14.5494 21.8915L14.5001 20.3787C14.473 19.5468 14.415 18.8107 14.3712 18.7429C14.3274 18.6752 14.1558 18.6198 13.9899 18.6198C13.7458 18.6198 13.4357 18.8402 12.3625 19.7772C11.6334 20.4138 10.8976 21.0343 10.7275 21.1562C10.3707 21.4118 9.88636 21.4419 9.48293 21.2333C9.32908 21.1537 8.24318 20.0455 7.06982 18.7707L4.93634 16.4527H6.59813H8.25983L9.07152 17.29C9.64643 17.883 9.95226 18.1272 10.1198 18.1272C10.2892 18.1272 11.0778 17.4832 12.8962 15.8599C15.4054 13.6197 15.8434 13.3003 16.7471 13.0513C17.2735 12.9063 21.7285 12.8508 21.6738 12.99ZM23.8035 13.0158C24.0178 13.0753 24.3341 13.2198 24.5064 13.3369L24.8196 13.5498L20.1512 19.4585L15.4828 25.3673L14.9915 25.397L14.5001 25.4268V24.5977V23.7686L18.8585 18.3402C21.2557 15.3546 23.2612 12.9109 23.3154 12.9097C23.3695 12.9086 23.5892 12.9563 23.8035 13.0158ZM25.53 20.1712L25.5315 25.4165H21.2421C17.5923 25.4165 16.9645 25.3959 17.0314 25.2785C17.0748 25.2027 18.9702 22.7884 21.2434 19.9137C23.916 16.5339 25.4034 14.7291 25.4525 14.8064C25.4943 14.8721 25.5291 17.2862 25.53 20.1712Z"/>
</svg>
