<svg viewBox="0 0 24 24" xmlns="http://www.w3.org/2000/svg">
<path fill-rule="evenodd" clip-rule="evenodd" d="M8.39587 3.81625C8.15487 3.6094 7.84656 3.49694 7.52838 3.50006L7.52347 3.50011L4.8086 3.50009C4.62666 3.50029 4.44678 3.53829 4.28041 3.61163C4.11397 3.685 3.96473 3.79212 3.84217 3.92612C3.71961 4.06011 3.62641 4.21805 3.56843 4.38984C3.51084 4.56049 3.48925 4.74113 3.50499 4.92044C3.79424 7.6326 4.71923 10.2388 6.2052 12.528L6.20759 12.5317C7.55766 14.6521 9.35901 16.45 11.4838 17.7975L11.4877 17.7999C13.7711 19.2778 16.3699 20.2009 19.0756 20.4951C19.256 20.5108 19.4378 20.489 19.6094 20.431C19.7823 20.3727 19.941 20.2789 20.0754 20.1559C20.2098 20.0328 20.3169 19.8832 20.3899 19.7166C20.4629 19.55 20.5002 19.37 20.4994 19.1882L20.4994 19.1862V16.464C20.5074 16.1439 20.3974 15.832 20.1898 15.5874C19.9826 15.3434 19.6928 15.1835 19.3751 15.1383C18.4697 15.0189 17.5808 14.7978 16.7251 14.4792L16.724 14.4787C16.4894 14.3907 16.2344 14.3717 15.9893 14.4239C15.7446 14.4759 15.5201 14.5968 15.3422 14.772C15.3419 14.7723 15.3415 14.7726 15.3412 14.7729L14.1938 15.9181C14.0347 16.0768 13.7893 16.11 13.5938 15.999C11.2499 14.6689 9.30894 12.7318 7.97597 10.3922C7.86438 10.1964 7.89765 9.95007 8.0572 9.79083L9.20553 8.64478C9.38108 8.46725 9.50197 8.2434 9.55404 7.99971C9.60621 7.75561 9.58717 7.50169 9.49915 7.26801L9.49873 7.26688C9.1794 6.41281 8.95781 5.52545 8.83818 4.62169C8.79336 4.30885 8.63632 4.02262 8.39587 3.81625ZM7.52117 2.50009C8.08051 2.49522 8.62278 2.69317 9.04717 3.05742C9.47224 3.42226 9.75008 3.9291 9.8286 4.48355L9.82925 4.48815C9.9389 5.31787 10.1422 6.13256 10.4354 6.91667L9.96711 7.09176L10.435 6.91554C10.5905 7.32844 10.6242 7.77723 10.532 8.20869C10.4398 8.64014 10.2256 9.03604 9.91498 9.34954L9.91301 9.35152L9.03765 10.2251C10.2072 12.1536 11.8277 13.7708 13.7604 14.9379L14.6388 14.0612C14.9529 13.7512 15.3493 13.5377 15.7811 13.4458C16.2126 13.3539 16.6615 13.3874 17.0746 13.5422C17.8603 13.8348 18.6766 14.0377 19.508 14.1472L19.5125 14.1477C20.0733 14.2267 20.5857 14.5087 20.9521 14.9403C21.3171 15.3702 21.5118 15.9187 21.4994 16.4823V19.1857M7.52117 2.50009L4.80837 2.50009C4.48781 2.50039 4.17032 2.5673 3.87703 2.69659C3.58374 2.82589 3.32056 3.01475 3.10428 3.2512C2.888 3.48766 2.72337 3.76653 2.62093 4.07009C2.51849 4.37364 2.48049 4.69519 2.50938 5.01424L2.51015 5.02206C2.81547 7.8915 3.79358 10.6488 5.36521 13.0706C6.79365 15.3135 8.69907 17.2152 10.9463 18.6407" />
</svg>
