<svg viewBox="0 0 28 28" xmlns="http://www.w3.org/2000/svg">
<path d="M1.3999 13.1245C1.3999 12.6141 1.60732 12.1247 1.97654 11.7638C2.34575 11.4029 2.84651 11.2002 3.36865 11.2002H15.1812C15.7033 11.2002 16.2041 11.4029 16.5733 11.7638C16.9425 12.1247 17.1499 12.6141 17.1499 13.1245V15.0488H18.4887C18.7836 15.0491 19.0748 15.1141 19.3406 15.2391C19.6064 15.3641 19.84 15.5459 20.0243 15.7711L21.9681 18.1444C22.2478 18.4859 22.4001 18.9103 22.3999 19.3477V22.1046C22.3999 22.615 22.1925 23.1044 21.8233 23.4653C21.4541 23.8262 20.9533 24.0289 20.4312 24.0289H19.7749C19.7749 24.7094 19.4983 25.362 19.0061 25.8432C18.5138 26.3243 17.8461 26.5947 17.1499 26.5947C16.4537 26.5947 15.786 26.3243 15.2937 25.8432C14.8015 25.362 14.5249 24.7094 14.5249 24.0289H7.9624C7.96316 24.3709 7.89395 24.7096 7.75886 25.0251C7.62377 25.3405 7.42552 25.6264 7.17575 25.8659C6.92599 26.1055 6.62976 26.2937 6.30448 26.4197C5.9792 26.5457 5.63143 26.6069 5.28161 26.5996C4.9318 26.5923 4.587 26.5168 4.26749 26.3774C3.94798 26.238 3.66021 26.0376 3.42108 25.7879C3.18196 25.5383 2.99632 25.2444 2.87507 24.9236C2.75381 24.6028 2.6994 24.2615 2.71503 23.9199C2.33053 23.7876 1.99751 23.5419 1.76195 23.2168C1.52638 22.8916 1.39988 22.503 1.3999 22.1046L1.3999 13.1245ZM3.09828 22.6896C3.33558 22.3099 3.66989 21.997 4.06834 21.7818C4.4668 21.5666 4.9157 21.4564 5.37091 21.4621C5.82612 21.4678 6.27198 21.5892 6.66467 21.8143C7.05736 22.0394 7.38337 22.3605 7.61065 22.746H14.8767C15.1075 22.3564 15.4388 22.0326 15.8374 21.807V13.1245C15.8374 12.9544 15.7683 12.7912 15.6452 12.6709C15.5221 12.5506 15.3552 12.4831 15.1812 12.4831H3.36865C3.1946 12.4831 3.02768 12.5506 2.90461 12.6709C2.78154 12.7912 2.7124 12.9544 2.7124 13.1245V22.1046C2.7123 22.2281 2.74865 22.3489 2.8171 22.4527C2.88555 22.5565 2.98318 22.6387 3.09828 22.6896ZM17.1499 21.4632C17.6107 21.4632 18.0633 21.5817 18.4624 21.8069C18.8614 22.0321 19.1928 22.356 19.4232 22.746H20.4312C20.6052 22.746 20.7721 22.6785 20.8952 22.5582C21.0183 22.4379 21.0874 22.2747 21.0874 22.1046V19.3464C21.0871 19.2009 21.0362 19.0597 20.943 18.9462L19.0005 16.5729C18.9391 16.4977 18.8613 16.4371 18.7727 16.3953C18.6841 16.3536 18.587 16.3318 18.4887 16.3317H17.1499V21.4632ZM5.3374 22.746C4.98931 22.746 4.65547 22.8812 4.40932 23.1218C4.16318 23.3624 4.0249 23.6887 4.0249 24.0289C4.0249 24.3692 4.16318 24.6955 4.40932 24.936C4.65547 25.1766 4.98931 25.3118 5.3374 25.3118C5.6855 25.3118 6.01934 25.1766 6.26548 24.936C6.51162 24.6955 6.6499 24.3692 6.6499 24.0289C6.6499 23.6887 6.51162 23.3624 6.26548 23.1218C6.01934 22.8812 5.6855 22.746 5.3374 22.746ZM17.1499 22.746C16.8018 22.746 16.468 22.8812 16.2218 23.1218C15.9757 23.3624 15.8374 23.6887 15.8374 24.0289C15.8374 24.3692 15.9757 24.6955 16.2218 24.936C16.468 25.1766 16.8018 25.3118 17.1499 25.3118C17.498 25.3118 17.8318 25.1766 18.078 24.936C18.3241 24.6955 18.4624 24.3692 18.4624 24.0289C18.4624 23.6887 18.3241 23.3624 18.078 23.1218C17.8318 22.8812 17.498 22.746 17.1499 22.746Z" />
<path fill-rule="evenodd" clip-rule="evenodd" d="M15.5015 1.94512L15.9164 7.37298L15.9156 7.37388L14.0995 7.36865L13.8917 6.68308L13.8426 6.54313C13.5721 5.88767 13.0054 5.47553 12.3679 5.45363L12.2384 5.45656C11.5189 5.52771 10.9868 6.12887 10.9614 6.86819L10.9374 7.56791L10.8038 7.59282C10.4319 7.66355 10.0932 7.86962 9.84476 8.17647C9.59628 8.48331 9.45305 8.87224 9.43911 9.27797C9.42517 9.68371 9.54138 10.0815 9.76823 10.4047C9.99507 10.7279 10.3187 10.9567 10.6849 11.0528L10.8157 11.0868L10.7917 11.7865C10.7814 12.0844 10.8546 12.3643 10.9888 12.6001H13.4718C13.5661 12.47 13.6439 12.3258 13.7024 12.1713L13.9567 11.5016L15.7791 11.6223L15.5365 13.282L16.1002 16.1001H16.4221L17.2669 10.334L13.1178 10.0616L12.5147 11.6549C12.4852 11.733 12.434 11.7997 12.3682 11.8457C12.3024 11.8918 12.2252 11.915 12.1469 11.9123C12.1067 11.9109 12.0754 11.8739 12.0769 11.8306L12.1395 10.0077L10.9932 9.70928C10.9129 9.68869 10.8418 9.63885 10.7919 9.56819C10.742 9.49753 10.7165 9.41038 10.7195 9.32149C10.7226 9.2326 10.7541 9.14742 10.8087 9.08034C10.8633 9.01327 10.9376 8.96843 11.0192 8.95339L12.1833 8.73344L12.2451 6.91043C12.2458 6.89124 12.253 6.87294 12.2653 6.85895C12.2776 6.84496 12.2941 6.83623 12.3119 6.83438L12.3616 6.83424C12.4677 6.83881 12.5972 6.93359 12.6566 7.07574L12.6815 7.14942L13.1646 8.74686L17.3107 8.7593L16.7864 1.89984C16.7884 1.86488 16.8319 1.82121 16.8832 1.82297C16.9998 1.82691 17.1133 1.86309 17.2128 1.92802C17.3123 1.99295 17.3945 2.08444 17.4514 2.19368L17.4936 2.28639L20.1418 8.76713L24.3633 8.77938C24.4867 8.77957 24.6087 8.80592 24.7225 8.85693C24.8362 8.90794 24.9393 8.98261 25.026 9.07667C25.1127 9.17073 25.1812 9.28234 25.2276 9.40512C25.274 9.52789 25.2975 9.65943 25.2966 9.79221L25.2952 9.8318C25.2764 10.3796 24.8407 10.8172 24.3222 10.7994L20.1218 10.5224L17.3814 16.1001H18.8313L20.8667 11.9574L24.2541 12.1807C24.5474 12.1929 24.8403 12.1427 25.116 12.0329C25.3918 11.9231 25.6449 11.7559 25.8608 11.5409C26.0768 11.3259 26.2513 11.0673 26.3745 10.7799C26.4976 10.4926 26.5668 10.1822 26.5782 9.86665L26.5794 9.80586C26.5825 9.49104 26.5278 9.17897 26.4185 8.88752C26.3092 8.59606 26.1475 8.33092 25.9426 8.10728C25.7377 7.88364 25.4936 7.70588 25.2242 7.58417C24.9549 7.46246 24.6657 7.39919 24.373 7.39797L20.9833 7.38939L18.6559 1.69581L18.5865 1.54503C18.2395 0.874033 17.617 0.465505 16.9307 0.441933C16.1691 0.415775 15.5302 1.05843 15.5021 1.87693L15.5015 1.94512Z" />
</svg>
