<svg viewBox="0 0 24 24" xmlns="http://www.w3.org/2000/svg">
<path fill-rule="evenodd" clip-rule="evenodd" d="M12.0499 3.70844C11.9261 3.74793 10.1702 4.29812 8.14796 4.9311C6.12569 5.5641 4.42742 6.10433 4.37403 6.13161C4.25396 6.19296 4.14916 6.30411 4.06464 6.45974C4.00862 6.56293 4 6.65809 4 7.17397C4 7.72263 4.00596 7.78011 4.07638 7.90942C4.19524 8.1277 4.3722 8.25181 4.64919 8.31122L4.7444 8.33163V12.9258V17.52L4.86212 17.6357C4.99376 17.765 5.13007 17.7858 5.29543 17.7018C5.51902 17.5882 5.50611 17.8845 5.50611 12.8741V8.33034H12.5H19.4939V12.8741C19.4939 17.8845 19.481 17.5882 19.7046 17.7018C19.8699 17.7858 20.0062 17.765 20.1379 17.6357L20.2556 17.52V12.9258V8.33163L20.3508 8.31122C20.6278 8.25181 20.8048 8.1277 20.9236 7.90942C20.994 7.78011 21 7.72263 21 7.17397C21 6.60177 20.9966 6.573 20.9134 6.42876C20.7425 6.13246 20.84 6.16922 17.2953 5.06462C15.4863 4.50086 13.7412 3.95488 13.4175 3.85136C12.7038 3.62304 12.413 3.59267 12.0499 3.70844ZM16.1145 5.47666C18.0398 6.07702 19.7592 6.6134 19.9353 6.66864L20.2556 6.76904V7.17557V7.5821H12.5H4.7444V7.17975V6.7774L8.5443 5.58465C10.6343 4.92861 12.4049 4.39036 12.4791 4.38849C12.5677 4.38624 13.8135 4.75914 16.1145 5.47666ZM9.60896 9.82327C9.53279 9.8579 9.42844 9.93027 9.37709 9.98408C9.17056 10.2004 9.17617 10.1282 9.17617 12.5784V14.822L8.33656 14.8327L7.49694 14.8434L7.33172 14.9388C7.24084 14.9913 7.12398 15.0973 7.07205 15.1744L6.9776 15.3146L6.96718 17.6638C6.95997 19.2947 6.96839 20.0522 6.99474 20.1412C7.04522 20.3117 7.22131 20.5031 7.39848 20.5801C7.53597 20.6398 7.76289 20.6426 12.5 20.6426C17.2371 20.6426 17.464 20.6398 17.6015 20.5801C17.7787 20.5031 17.9548 20.3117 18.0053 20.1412C18.0316 20.0522 18.04 19.2947 18.0328 17.6638L18.0224 15.3146L17.928 15.1744C17.876 15.0973 17.7592 14.9913 17.6683 14.9388L17.5031 14.8434L16.3006 14.8333L15.0982 14.8231L15.0888 12.5519L15.0794 10.2806L14.9754 10.1132C14.8973 9.98755 14.8246 9.92255 14.6835 9.85232L14.4957 9.75879L12.1216 9.75954C9.88456 9.76025 9.73946 9.76393 9.60896 9.82327ZM10.6364 11.3148C10.6472 12.0202 10.6569 12.1376 10.7129 12.2416C10.8026 12.4083 10.9023 12.5085 11.0631 12.5935C11.1951 12.6633 11.2455 12.6667 12.1365 12.6667H13.0713L13.2298 12.5752C13.317 12.5248 13.4339 12.4177 13.4895 12.3371L13.5906 12.1906L13.6015 11.3488L13.6123 10.507H13.9737H14.335V12.6667V14.8264H12.1365H9.93788V12.6667V10.507H10.2809H10.624L10.6364 11.3148ZM12.8462 11.2213V11.9355H12.1191H11.3921V11.2213V10.507H12.1191H12.8462V11.2213ZM8.41446 16.2872C8.41446 17.1254 8.4405 17.2814 8.61365 17.4801C8.83735 17.7368 8.89835 17.7498 9.88595 17.7504C10.362 17.7507 10.8061 17.7361 10.8727 17.7178C11.0421 17.6715 11.2507 17.4926 11.3265 17.3286C11.383 17.2065 11.3906 17.0945 11.3913 16.3824L11.3921 15.5746H11.7556H12.1191V17.7513V19.928H9.92057H7.722V17.7513V15.5746H8.06823H8.41446V16.2872ZM10.6303 16.2889V17.0031H9.90326H9.17617V16.2889V15.5746H9.90326H10.6303V16.2889ZM13.6087 16.3824C13.6094 17.0945 13.617 17.2065 13.6735 17.3286C13.7493 17.4926 13.9579 17.6715 14.1273 17.7178C14.1939 17.7361 14.638 17.7507 15.1141 17.7504C16.1016 17.7498 16.1627 17.7368 16.3864 17.4801C16.5595 17.2814 16.5855 17.1254 16.5855 16.2872V15.5746H16.9318H17.278V17.7513V19.928H15.0794H12.8809V17.7513V15.5746H13.2444H13.6079L13.6087 16.3824ZM15.8238 16.2889V17.0031H15.0967H14.3697V16.2889V15.5746H15.0967H15.8238V16.2889Z"/>
</svg>
