<svg viewBox="0 0 24 24" xmlns="http://www.w3.org/2000/svg">
<path fill-rule="evenodd" clip-rule="evenodd" d="M18.5002 6.12592C18.7931 6.41881 18.7931 6.89369 18.5002 7.18658L7.18648 18.5003C6.89359 18.7932 6.41871 18.7932 6.12582 18.5003C5.83293 18.2074 5.83293 17.7325 6.12582 17.4396L17.4395 6.12592C17.7324 5.83303 18.2073 5.83303 18.5002 6.12592Z"/>
<path fill-rule="evenodd" clip-rule="evenodd" d="M6.12714 6.12603C6.42003 5.83314 6.89491 5.83314 7.1878 6.12603L18.5015 17.4397C18.7944 17.7326 18.7944 18.2075 18.5015 18.5004C18.2086 18.7933 17.7337 18.7933 17.4408 18.5004L6.12714 7.18669C5.83425 6.8938 5.83425 6.41893 6.12714 6.12603Z"/>
</svg>
