<svg viewBox="0 0 24 24" xmlns="http://www.w3.org/2000/svg">
<path d="M19.9509 7.58217C19.9485 7.57773 19.9466 7.57313 19.9441 7.56872C19.9408 7.56307 19.9371 7.5579 19.9337 7.55241C19.831 7.38125 19.6858 7.23958 19.5123 7.14117L12.5694 3.21395C12.3955 3.11625 12.1994 3.06494 12 3.06494C11.8006 3.06494 11.6045 3.11625 11.4307 3.21395L4.48772 7.14121C4.30887 7.24252 4.16021 7.38968 4.05705 7.56756C4.05615 7.56913 4.05508 7.57055 4.05419 7.57212C4.05263 7.57491 4.05149 7.57782 4.04998 7.58064C3.95187 7.75412 3.90022 7.95003 3.90002 8.14936V15.9796C3.90022 16.1847 3.95472 16.386 4.05797 16.5631C4.16122 16.7402 4.30953 16.8868 4.4878 16.9878L11.4307 20.9151C11.5844 21.001 11.7558 21.0504 11.9316 21.0597C11.9526 21.0628 11.9737 21.0646 11.9949 21.0649C11.9966 21.0649 11.9984 21.0649 12.0001 21.0649C12.0226 21.0648 12.0451 21.0631 12.0674 21.0598C12.2436 21.0506 12.4154 21.0011 12.5694 20.9151L19.5123 16.9878C19.6906 16.8867 19.8389 16.7402 19.9421 16.5631C20.0453 16.386 20.0998 16.1847 20.1 15.9796V8.14936C20.0998 7.95062 20.0485 7.75528 19.9509 7.58217ZM11.9187 4.07807C11.9435 4.06411 11.9715 4.05678 12 4.05678C12.0285 4.05678 12.0565 4.06411 12.0814 4.07807L18.6007 7.76574L16.0584 9.22059L9.40487 5.5L11.9187 4.07807ZM12.0849 11.4944L5.40815 7.76074L8.39403 6.07179L15.0534 9.79569L12.0849 11.4944ZM4.97589 16.1237C4.95041 16.1093 4.9292 16.0883 4.91444 16.063C4.89968 16.0377 4.89189 16.009 4.89186 15.9797V8.6091L11.5888 12.354L11.5118 19.8208L4.97589 16.1237ZM19.0242 16.1237L12.5038 19.812L12.5807 12.3541L15.5652 10.6462V13.7611C15.5652 13.8927 15.6175 14.0189 15.7105 14.112C15.8035 14.2051 15.9296 14.2574 16.0612 14.2574C16.1927 14.2574 16.3188 14.2051 16.4118 14.112C16.5048 14.0189 16.5571 13.8927 16.5571 13.7611V10.0786L19.1082 8.61876V15.9796C19.1082 16.0089 19.1004 16.0377 19.0856 16.063C19.0709 16.0883 19.0497 16.1092 19.0242 16.1237Z" />
</svg>
