<svg viewBox="0 0 24 24" xmlns="http://www.w3.org/2000/svg">
<path fill-rule="evenodd" clip-rule="evenodd" d="M12.5528 3.89581C12.3905 3.9901 12.2524 4.35035 12.2956 4.56654C12.3155 4.66583 12.5713 5.03089 12.8641 5.3779C13.1569 5.72486 13.3967 6.02374 13.3971 6.04204C13.3974 6.06035 13.2094 6.21707 12.9792 6.39033C12.749 6.56358 12.5068 6.77324 12.441 6.85633C12.2699 7.07213 12.286 7.40395 12.4767 7.59468C12.6155 7.73355 12.6856 7.75014 13.1335 7.75014H13.6347L13.6772 8.01541C13.7396 8.40561 14.0678 8.97463 14.4212 9.30518C14.7936 9.65353 15.2877 9.89118 15.8343 9.98484C17.129 10.2066 18.4763 9.29575 18.7759 7.99615C18.8729 7.57537 18.8628 4.63512 18.7639 4.50017C18.6978 4.41006 18.2419 4.34535 16.0004 4.10814C13.1962 3.8114 12.7457 3.7836 12.5528 3.89581ZM15.8513 4.81483L18.1465 5.05223V5.38797V5.72378H16.1316H14.1165L13.6739 5.20136C13.0801 4.50043 13.0771 4.4946 13.341 4.54032C13.4592 4.56077 14.5889 4.68432 15.8513 4.81483ZM6.43273 6.55123C5.33575 7.00438 4.37364 7.39141 4.29475 7.41142C4.04869 7.47373 3.90002 7.73057 3.90002 8.09342C3.90002 8.39566 4.79154 12.9676 4.89747 13.2087C4.92349 13.2679 5.72832 14.1733 6.68601 15.2208C8.61283 17.3284 8.75738 17.4461 9.42557 17.4521C9.95637 17.4569 10.1665 17.3519 10.9061 16.7124L11.5931 16.1183L11.6099 17.9921C11.6212 19.2458 11.6499 19.8939 11.6968 19.9505C11.754 20.0193 12.5271 20.035 15.8726 20.035C19.9157 20.035 19.9793 20.033 20.0462 19.9081C20.0929 19.8208 20.1084 18.5928 20.0959 15.9662L20.0777 12.1511L19.9316 11.8576C19.6957 11.3832 19.3812 11.0665 18.921 10.8398L18.4978 10.6314L16.2574 10.6125C14.8095 10.6003 13.8992 10.6181 13.6839 10.6628C12.9747 10.81 12.5515 11.0865 11.2132 12.2771C10.5167 12.8968 9.85443 13.4907 9.7414 13.597L9.53587 13.7902L9.34864 13.6108C9.17085 13.4404 9.16604 13.4224 9.25341 13.2535C9.30394 13.1557 9.34541 13.0101 9.34548 12.93C9.34567 12.7233 8.4042 8.00895 8.3196 7.79276C8.19563 7.47595 8.00289 7.40503 7.17165 7.3702L6.41608 7.33854L7.45329 6.91566C8.36285 6.5449 8.49613 6.50595 8.53602 6.59904C8.56103 6.65749 8.8119 7.88553 9.09354 9.32798C9.37511 10.7705 9.63161 11.9994 9.66346 12.059C9.80858 12.3302 10.2951 12.1954 10.2951 11.8839C10.2951 11.6392 9.22714 6.25481 9.14115 6.06611C9.05783 5.88317 8.79031 5.72289 8.57288 5.72562C8.49278 5.72657 7.52971 6.09815 6.43273 6.55123ZM18.1465 6.73696V7.05358H15.733H13.3195L13.7226 6.73823L14.1258 6.42287L16.1362 6.42161L18.1465 6.42034V6.73696ZM18.0832 7.83272C18.0832 8.00977 17.7465 8.57785 17.5278 8.76991C16.4346 9.7299 14.7983 9.27359 14.3819 7.89262L14.3389 7.75014H16.2111C17.7077 7.75014 18.0832 7.76673 18.0832 7.83272ZM8.14915 10.4889L8.63087 12.8794H7.09289H5.5549L5.45555 12.4203C5.22476 11.3543 4.59652 8.23299 4.59652 8.15225C4.59652 8.07942 4.85745 8.06739 6.13198 8.08145L7.66743 8.09842L8.14915 10.4889ZM16.9329 11.3499C16.9213 11.3794 15.8861 12.679 14.6324 14.2379L12.3529 17.0723L12.3213 16.0998C12.3039 15.565 12.2666 15.0918 12.2384 15.0482C12.2102 15.0047 12.0999 14.9691 11.9933 14.9691C11.8363 14.9691 11.637 15.1108 10.9471 15.7131C10.4784 16.1224 10.0054 16.5212 9.89603 16.5996C9.66663 16.764 9.35529 16.7833 9.09594 16.6492C8.99704 16.598 8.29896 15.8856 7.54466 15.0661L6.17313 13.5759H7.24143H8.30966L8.83146 14.1142C9.20105 14.4955 9.39765 14.6524 9.50536 14.6524C9.61426 14.6524 10.1212 14.2384 11.2902 13.1948C12.9032 11.7547 13.1848 11.5494 13.7658 11.3894C14.1042 11.2961 16.9681 11.2604 16.9329 11.3499ZM18.302 11.3665C18.4398 11.4047 18.6431 11.4976 18.7539 11.5729L18.9552 11.7098L15.9541 15.5083L12.953 19.3067L12.6372 19.3259L12.3213 19.345V18.8121V18.2791L15.1231 14.7893C16.6641 12.87 17.9534 11.2991 17.9882 11.2983C18.023 11.2976 18.1642 11.3283 18.302 11.3665ZM19.4119 15.9664L19.4129 19.3384H16.6554C14.3091 19.3384 13.9055 19.3252 13.9486 19.2497C13.9764 19.2009 15.1949 17.6489 16.6563 15.8009C18.3743 13.6282 19.3306 12.4679 19.3621 12.5176C19.3889 12.5598 19.4114 14.1118 19.4119 15.9664Z" />
</svg>
