<svg viewBox="0 0 24 24" xmlns="http://www.w3.org/2000/svg">
<path d="M3 11.3745C3 11.01 3.14816 10.6604 3.41188 10.4026C3.6756 10.1448 4.03329 10 4.40625 10H12.8438C13.2167 10 13.5744 10.1448 13.8381 10.4026C14.1018 10.6604 14.25 11.01 14.25 11.3745V12.749H15.2063C15.4169 12.7492 15.6249 12.7957 15.8148 12.8849C16.0046 12.9742 16.1715 13.1041 16.3031 13.2649L17.6916 14.9601C17.8913 15.204 18.0001 15.5072 18 15.8197V17.7889C18 18.1534 17.8518 18.503 17.5881 18.7608C17.3244 19.0186 16.9667 19.1634 16.5938 19.1634H16.125C16.125 19.6494 15.9275 20.1156 15.5758 20.4593C15.2242 20.803 14.7473 20.996 14.25 20.996C13.7527 20.996 13.2758 20.803 12.9242 20.4593C12.5725 20.1156 12.375 19.6494 12.375 19.1634H7.6875C7.68804 19.4077 7.63861 19.6496 7.54211 19.8749C7.44562 20.1003 7.30401 20.3045 7.12561 20.4755C6.94721 20.6466 6.73561 20.7811 6.50327 20.8711C6.27092 20.9611 6.02252 21.0048 5.77265 20.9996C5.52278 20.9944 5.2765 20.9404 5.04828 20.8409C4.82006 20.7413 4.6145 20.5981 4.4437 20.4198C4.2729 20.2415 4.1403 20.0316 4.05369 19.8024C3.96708 19.5733 3.92821 19.3295 3.93937 19.0855C3.66473 18.991 3.42687 18.8155 3.2586 18.5833C3.09034 18.351 2.99998 18.0735 3 17.7889V11.3745ZM4.21312 18.2067C4.38263 17.9355 4.62142 17.712 4.90603 17.5583C5.19064 17.4046 5.51128 17.3259 5.83643 17.3299C6.16158 17.334 6.48006 17.4207 6.76055 17.5815C7.04104 17.7423 7.27391 17.9716 7.43625 18.247H12.6262C12.7912 17.9687 13.0278 17.7375 13.3125 17.5763V11.3745C13.3125 11.253 13.2631 11.1365 13.1752 11.0505C13.0873 10.9646 12.9681 10.9163 12.8438 10.9163H4.40625C4.28193 10.9163 4.1627 10.9646 4.07479 11.0505C3.98689 11.1365 3.9375 11.253 3.9375 11.3745V17.7889C3.93743 17.8771 3.96339 17.9634 4.01228 18.0375C4.06118 18.1116 4.13091 18.1704 4.21312 18.2067ZM14.25 17.3307C14.5791 17.3307 14.9024 17.4154 15.1875 17.5762C15.4725 17.7371 15.7092 17.9684 15.8738 18.247H16.5938C16.7181 18.247 16.8373 18.1988 16.9252 18.1128C17.0131 18.0269 17.0625 17.9104 17.0625 17.7889V15.8187C17.0623 15.7148 17.0259 15.6139 16.9594 15.5328L15.5719 13.8376C15.528 13.784 15.4724 13.7406 15.4091 13.7108C15.3458 13.681 15.2765 13.6654 15.2063 13.6653H14.25V17.3307ZM5.8125 18.247C5.56386 18.247 5.3254 18.3436 5.14959 18.5154C4.97377 18.6873 4.875 18.9203 4.875 19.1634C4.875 19.4064 4.97377 19.6395 5.14959 19.8113C5.3254 19.9832 5.56386 20.0797 5.8125 20.0797C6.06114 20.0797 6.2996 19.9832 6.47541 19.8113C6.65123 19.6395 6.75 19.4064 6.75 19.1634C6.75 18.9203 6.65123 18.6873 6.47541 18.5154C6.2996 18.3436 6.06114 18.247 5.8125 18.247ZM14.25 18.247C14.0014 18.247 13.7629 18.3436 13.5871 18.5154C13.4113 18.6873 13.3125 18.9203 13.3125 19.1634C13.3125 19.4064 13.4113 19.6395 13.5871 19.8113C13.7629 19.9832 14.0014 20.0797 14.25 20.0797C14.4986 20.0797 14.7371 19.9832 14.9129 19.8113C15.0887 19.6395 15.1875 19.4064 15.1875 19.1634C15.1875 18.9203 15.0887 18.6873 14.9129 18.5154C14.7371 18.3436 14.4986 18.247 14.25 18.247Z" />
<path fill-rule="evenodd" clip-rule="evenodd" d="M13.0723 3.38871L13.3687 7.26575L13.368 7.26639L12.0709 7.26266L11.9225 6.77297L11.8873 6.673C11.6941 6.20482 11.2894 5.91043 10.834 5.89479L10.7415 5.89688C10.2276 5.9477 9.84753 6.3771 9.82939 6.90519L9.81222 7.40499L9.71676 7.42278C9.45112 7.4733 9.20925 7.6205 9.03176 7.83967C8.85427 8.05885 8.75197 8.33665 8.74201 8.62646C8.73206 8.91627 8.81506 9.20044 8.9771 9.43128C9.13913 9.66211 9.37032 9.82556 9.63188 9.89418L9.72528 9.91846L9.70811 10.4183C9.70079 10.6314 9.75325 10.8316 9.84933 11.0002H11.622C11.6896 10.907 11.7453 10.8038 11.7872 10.6931L11.9689 10.2148L13.2705 10.301L13.0973 11.4866L13.5 13.5002H13.7298L14.3333 9.38079L11.3696 9.18616L10.9389 10.3243C10.9178 10.3801 10.8812 10.4277 10.8342 10.4606C10.7873 10.4935 10.7321 10.5101 10.6762 10.5081C10.6474 10.5072 10.6251 10.4807 10.6262 10.4498L10.6709 9.14768L9.85209 8.93454C9.79471 8.91983 9.74392 8.88423 9.70829 8.83376C9.67267 8.78328 9.65441 8.72104 9.65659 8.65755C9.65877 8.59405 9.68126 8.53321 9.72026 8.4853C9.75927 8.43739 9.81238 8.40536 9.87063 8.39462L10.7021 8.23751L10.7463 6.93536C10.7468 6.92165 10.7519 6.90858 10.7607 6.89859C10.7695 6.88859 10.7813 6.88236 10.794 6.88104L10.8295 6.88094C10.9053 6.8842 10.9978 6.9519 11.0402 7.05344L11.058 7.10606L11.4031 8.2471L14.3646 8.25598L13.9901 3.35637C13.9915 3.3314 14.0226 3.3002 14.0593 3.30146C14.1425 3.30427 14.2236 3.33011 14.2947 3.37649C14.3657 3.42287 14.4244 3.48823 14.465 3.56625L14.4952 3.63247L16.3868 8.26157L19.4021 8.27033C19.4903 8.27046 19.5775 8.28928 19.6587 8.32572C19.7399 8.36215 19.8136 8.41549 19.8755 8.48267C19.9374 8.54986 19.9863 8.62958 20.0195 8.71728C20.0527 8.80498 20.0694 8.89893 20.0688 8.99378L20.0678 9.02205C20.0543 9.41335 19.7432 9.72594 19.3728 9.71322L16.3725 9.51536L14.4147 13.5002H15.4503L16.9046 10.5403L19.3242 10.6998C19.5336 10.7086 19.7429 10.6727 19.9398 10.5943C20.1368 10.5159 20.3176 10.3964 20.4718 10.2428C20.6261 10.0892 20.7508 9.90452 20.8387 9.6993C20.9266 9.49407 20.9761 9.27237 20.9842 9.04695L20.9851 9.00352C20.9873 8.77865 20.9482 8.55575 20.8702 8.34756C20.7921 8.13938 20.6766 7.95 20.5302 7.79025C20.3838 7.63051 20.2095 7.50354 20.0171 7.4166C19.8247 7.32967 19.6181 7.28447 19.4091 7.2836L16.9879 7.27747L15.3254 3.21063L15.2759 3.10293C15.028 2.62365 14.5833 2.33184 14.0931 2.315C13.5492 2.29632 13.0928 2.75536 13.0727 3.34L13.0723 3.38871Z" />
</svg>
