<svg viewBox="0 0 32 32" xmlns="http://www.w3.org/2000/svg">
<path fill-rule="evenodd" clip-rule="evenodd" d="M24 12.0996C24 14.245 22.8086 17.957 21.0107 21.2086C20.1257 22.8093 19.1467 24.1993 18.1887 25.1669C17.1804 26.1851 16.4314 26.5 16 26.5C15.9788 26.5 15.8005 26.4833 15.437 26.2541C15.0886 26.0344 14.6697 25.6819 14.1984 25.1874C13.2571 24.1998 12.2403 22.7874 11.2973 21.1766C10.3584 19.5728 9.52262 17.8233 8.92557 16.1894C8.31849 14.5281 8 13.0986 8 12.0996C8 7.96269 11.5202 4.5 16 4.5C20.4798 4.5 24 7.96269 24 12.0996ZM25.5 12.0996C25.5 17.1252 20.1959 28 16 28C12.6742 28 6.5 17.1252 6.5 12.0996C6.5 7.07405 10.7533 3 16 3C21.2467 3 25.5 7.07405 25.5 12.0996ZM18 12.5C18 13.6046 17.1046 14.5 16 14.5C14.8954 14.5 14 13.6046 14 12.5C14 11.3954 14.8954 10.5 16 10.5C17.1046 10.5 18 11.3954 18 12.5ZM19.5 12.5C19.5 14.433 17.933 16 16 16C14.067 16 12.5 14.433 12.5 12.5C12.5 10.567 14.067 9 16 9C17.933 9 19.5 10.567 19.5 12.5Z"/>
</svg>
