<svg viewBox="0 0 24 24" xmlns="http://www.w3.org/2000/svg">
<path fill-rule="evenodd" clip-rule="evenodd" d="M19.75 11.5C19.75 7.49594 16.5041 4.25 12.5 4.25C8.49593 4.25 5.25 7.49594 5.25 11.5C5.25 13.2716 5.88616 14.8956 6.9412 16.1545L4.48733 18.4526C4.185 18.7357 4.16944 19.2103 4.45258 19.5127C4.73572 19.815 5.21034 19.8306 5.51267 19.5474L8.01926 17.1999C9.25227 18.1703 10.809 18.75 12.5 18.75C16.5041 18.75 19.75 15.5041 19.75 11.5ZM12.5 5.75C15.6756 5.75 18.25 8.32436 18.25 11.5C18.25 14.6756 15.6756 17.25 12.5 17.25C10.9547 17.25 9.55315 16.6414 8.5193 15.6493C7.4279 14.6019 6.75 13.1308 6.75 11.5C6.75 8.32436 9.32436 5.75 12.5 5.75Z"/>
</svg>
