<svg viewBox="0 0 24 24" xmlns="http://www.w3.org/2000/svg">
<path fill-rule="evenodd" clip-rule="evenodd" d="M3.212 5.59719C3.4487 5.09165 3.98055 4.72893 4.60864 4.72893H19.6346C20.2627 4.72893 20.7945 5.09165 21.0312 5.59719L12.1216 11.8268L3.212 5.59719ZM2.53434 5.39748C2.4998 5.42081 2.46888 5.45076 2.44356 5.48697C2.37066 5.59123 2.36247 5.7214 2.41056 5.82979C2.39073 5.94512 2.3804 6.06366 2.3804 6.18467V17.0191C2.3804 18.2184 3.39542 19.1749 4.60864 19.1749H19.6346C20.8478 19.1749 21.8628 18.2184 21.8628 17.0191V6.18467C21.8628 6.06366 21.8525 5.94512 21.8327 5.82978C21.8807 5.72139 21.8726 5.59123 21.7997 5.48697C21.7743 5.45076 21.7434 5.42082 21.7089 5.39749C21.3808 4.59278 20.5661 4.02893 19.6346 4.02893H4.60864C3.67712 4.02893 2.86245 4.59277 2.53434 5.39748ZM21.1628 6.35931V17.0191C21.1628 17.8061 20.4874 18.4749 19.6346 18.4749H4.60864C3.7558 18.4749 3.0804 17.8061 3.0804 17.0191V6.35931L11.9211 12.5407C12.0415 12.6249 12.2017 12.6249 12.3222 12.5407L21.1628 6.35931Z" />
<path fill-rule="evenodd" clip-rule="evenodd" d="M4.60854 4.12896C3.7173 4.12896 2.93945 4.66853 2.62684 5.43526C2.61937 5.45358 2.60662 5.46928 2.59022 5.48036C2.56567 5.49695 2.5436 5.51828 2.52541 5.54429C2.4734 5.61867 2.46739 5.71156 2.50186 5.78926C2.50987 5.8073 2.51236 5.82731 2.50901 5.84676C2.49014 5.95652 2.4803 6.06939 2.4803 6.1847V17.0191C2.4803 18.1594 3.44662 19.0749 4.60854 19.0749H19.6345C20.7964 19.0749 21.7627 18.1594 21.7627 17.0191V6.1847C21.7627 6.06939 21.7529 5.95652 21.734 5.84675C21.7307 5.8273 21.7331 5.80729 21.7411 5.78925C21.7756 5.71155 21.7696 5.61867 21.7176 5.54429C21.6994 5.51829 21.6773 5.49696 21.6528 5.48037C21.6364 5.46929 21.6236 5.45359 21.6162 5.43526C21.3036 4.66854 20.5257 4.12896 19.6345 4.12896H4.60854ZM2.45262 5.33332C2.8031 4.50479 3.64693 3.92896 4.60854 3.92896H19.6345C20.5961 3.92896 21.4399 4.5048 21.7904 5.33333C21.8246 5.36016 21.8554 5.39239 21.8815 5.42969C21.9688 5.55453 21.9838 5.70821 21.9358 5.84103C21.9535 5.95303 21.9627 6.06779 21.9627 6.1847V17.0191C21.9627 18.2775 20.899 19.2749 19.6345 19.2749H4.60854C3.34402 19.2749 2.2803 18.2775 2.2803 17.0191V6.1847C2.2803 6.0678 2.28951 5.95304 2.30725 5.84104C2.25918 5.70822 2.27421 5.55453 2.3615 5.42969C2.38758 5.39239 2.4184 5.36016 2.45262 5.33332ZM3.12133 5.55481C3.37437 5.01436 3.94137 4.62896 4.60854 4.62896H19.6345C20.3016 4.62896 20.8686 5.01436 21.1217 5.55481C21.1423 5.59884 21.1283 5.65131 21.0884 5.67917L12.1788 11.9088C12.1444 11.9328 12.0986 11.9328 12.0642 11.9088L3.15459 5.67917C3.11475 5.65131 3.10072 5.59884 3.12133 5.55481ZM3.34031 5.56498L12.1215 11.7048L20.9027 5.56498C20.6666 5.13345 20.1919 4.82896 19.6345 4.82896H4.60854C4.05113 4.82896 3.57641 5.13345 3.34031 5.56498ZM3.03409 6.27065C3.06715 6.25343 3.10705 6.25602 3.1376 6.27738L11.9782 12.4588C12.0643 12.5189 12.1787 12.5189 12.2648 12.4588L21.1054 6.27738C21.136 6.25602 21.1759 6.25343 21.2089 6.27065C21.242 6.28788 21.2627 6.32206 21.2627 6.35934V17.0191C21.2627 17.8648 20.5391 18.5749 19.6345 18.5749H4.60854C3.70394 18.5749 2.9803 17.8648 2.9803 17.0191V6.35934C2.9803 6.32206 3.00103 6.28788 3.03409 6.27065ZM3.1803 6.55128V17.0191C3.1803 17.7475 3.80744 18.3749 4.60854 18.3749H19.6345C20.4356 18.3749 21.0627 17.7475 21.0627 17.0191V6.55128L12.3794 12.6227C12.2245 12.731 12.0185 12.731 11.8636 12.6227L3.1803 6.55128Z" />
</svg>
