<svg viewBox="0 0 28 28" xmlns="http://www.w3.org/2000/svg">
<path d="M10.9681 11.7655L10.1269 4.9533L10.1245 4.86747C10.1245 3.8363 10.9872 3 12.0537 3C13.0146 3 13.9049 3.48717 14.4226 4.31651L14.5268 4.50325L18.0557 11.5671L22.7971 11.4314C23.2065 11.4203 23.6141 11.4874 23.9966 11.629C24.3791 11.7705 24.7291 11.9836 25.0265 12.2562C25.3238 12.5287 25.5628 12.8554 25.7296 13.2174C25.8965 13.5794 25.9879 13.9697 25.9988 14.366L26 14.4426C25.9992 14.8402 25.9173 15.2338 25.7589 15.6006C25.6005 15.9675 25.3688 16.3005 25.0771 16.5804C24.7854 16.8603 24.4394 17.0816 24.059 17.2317C23.6786 17.3818 23.2714 17.4576 22.8606 17.4549L18.112 17.3203L14.5268 24.4979C14.302 24.9481 13.9506 25.3279 13.5129 25.5936C13.0752 25.8593 12.5691 26.0001 12.0525 26C10.9872 26 10.1245 25.1649 10.1245 24.1082L10.1329 23.9713L10.98 17.1185L8.42538 17.0454L8.10185 17.8991C7.93783 18.3336 7.63987 18.7088 7.24832 18.9739C6.85676 19.239 6.39051 19.3813 5.91267 19.3815C4.863 19.3815 4.01225 18.558 4.01225 17.5407V16.6592L3.82772 16.6221C3.31095 16.517 2.84725 16.243 2.51445 15.8462C2.18165 15.4493 2 14.9537 2 14.4426C2 13.9314 2.18165 13.4358 2.51445 13.039C2.84725 12.6421 3.31095 12.3682 3.82772 12.2631L4.01345 12.226V11.3444C4.01345 10.413 4.7288 9.63357 5.73173 9.51294L5.91267 9.50366C6.80536 9.50366 7.61776 9.99778 8.02756 10.8109L8.10305 10.9849L8.42658 11.8386L10.9669 11.7667L10.9681 11.7655ZM12.0537 4.73988C11.9818 4.73988 11.923 4.79671 11.9219 4.84079L12.9847 13.4497L7.1852 13.6132L6.4327 11.624L6.39436 11.5324C6.30449 11.356 6.11876 11.2424 5.97018 11.2412L5.90068 11.2435C5.8759 11.2466 5.85312 11.2583 5.83659 11.2765C5.82006 11.2946 5.8109 11.3179 5.81081 11.3421L5.81201 13.6388L4.19439 13.9659C4.08104 13.9883 3.97919 14.0479 3.90604 14.1347C3.83289 14.2215 3.79294 14.33 3.79294 14.442C3.79294 14.554 3.83289 14.6625 3.90604 14.7493C3.97919 14.8361 4.08104 14.8957 4.19439 14.9181L5.81201 15.2441V17.5407C5.81201 17.5952 5.85755 17.6405 5.91386 17.6405C6.02345 17.6405 6.13039 17.6079 6.2202 17.5471C6.31 17.4863 6.37833 17.4003 6.41593 17.3006L7.1828 15.2696L12.9991 15.4332L11.9242 24.0989V24.1337C11.9242 24.2033 11.9818 24.259 12.0537 24.259C12.2323 24.259 12.4073 24.2102 12.5587 24.1183C12.71 24.0264 12.8315 23.895 12.9092 23.7393L17.0012 15.5468L22.8894 15.7139C23.6155 15.7139 24.2038 15.1443 24.2038 14.4542V14.4043C24.1987 14.2372 24.1596 14.0727 24.0888 13.9202C24.018 13.7677 23.9168 13.6302 23.791 13.5156C23.6653 13.401 23.5174 13.3115 23.3559 13.2522C23.1944 13.1929 23.0225 13.1651 22.8498 13.1702L16.9449 13.3372L12.9296 5.29664L12.8661 5.1818C12.7813 5.0468 12.662 4.93522 12.5197 4.85781C12.3774 4.78041 12.2169 4.73979 12.0537 4.73988Z" />
</svg>
