<svg viewBox="0 0 28 28" xmlns="http://www.w3.org/2000/svg">
<path fill-rule="evenodd" clip-rule="evenodd" d="M12.7898 3.95115C11.9207 4.25328 5.45303 6.74896 5.23095 6.86784C4.82516 7.08519 4.39496 7.63744 4.27647 8.09303C4.2047 8.36891 4.18472 9.62217 4.21173 12.1415C4.24762 15.4897 4.26732 15.856 4.45 16.5849C4.90166 18.3864 5.72571 19.8311 7.03546 21.117C7.74139 21.8101 8.17141 22.1129 10.1506 23.3102C11.4136 24.0741 12.6177 24.7557 12.8265 24.8248C13.4692 25.0378 13.8669 24.8723 16.3988 23.3391C18.4181 22.1161 18.8529 21.8106 19.5603 21.117C20.8707 19.8322 21.6949 18.3882 22.147 16.5849C22.3297 15.856 22.3494 15.4897 22.3852 12.1415C22.4285 8.10414 22.4086 7.90767 21.8949 7.31883C21.5052 6.87215 21.5212 6.87924 17.2311 5.24895C13.8325 3.95757 13.256 3.78907 12.7898 3.95115ZM17.0242 6.84887C18.994 7.59471 20.6578 8.24658 20.7213 8.29745C20.8101 8.36853 20.8368 9.20422 20.8363 11.8986C20.8357 15.0427 20.817 15.488 20.6557 16.1845C20.2353 18.0007 19.242 19.5455 17.8308 20.5783C17.0524 21.148 13.4697 23.3102 13.3041 23.3102C13.1383 23.3102 9.54276 21.1452 8.76616 20.5777C7.35605 19.5472 6.36181 18.001 5.94123 16.1845C5.78 15.4879 5.76123 15.0427 5.76067 11.8925C5.76021 9.2389 5.78759 8.35885 5.8725 8.30032C6.10522 8.13997 13.0301 5.50308 13.2318 5.49801C13.3477 5.49513 15.0543 6.10303 17.0242 6.84887ZM16.1513 11.573C16.0442 11.6507 15.1976 12.5785 14.2699 13.6349C12.8022 15.3061 12.5634 15.5401 12.4321 15.4354C12.349 15.3692 11.9064 14.9867 11.4486 14.5855C10.469 13.7269 10.2591 13.599 9.95761 13.6773C9.44786 13.8098 9.18036 14.4997 9.48301 14.9015C9.72433 15.2217 12.289 17.3815 12.4902 17.4338C12.8722 17.533 13.1929 17.2721 14.374 15.901C15.0164 15.1552 15.93 14.0984 16.4043 13.5522C17.1469 12.6971 17.2666 12.5125 17.2666 12.2226C17.2666 11.6193 16.6125 11.2384 16.1513 11.573Z" />
</svg>
