<svg viewBox="0 0 24 24" xmlns="http://www.w3.org/2000/svg">
<path fill-rule="evenodd" clip-rule="evenodd" d="M2.4994 7.02423C1.89029 7.12549 1.84957 7.53405 2.31608 8.86275C2.88156 10.4732 4.16528 12.6805 5.55855 14.4379C6.61073 15.7651 7.78822 16.7032 9.19298 17.3335C10.3213 17.8398 11.5487 18.0725 12.6032 17.9802C13.2489 17.9236 13.4986 17.8262 13.625 17.5812C13.6877 17.4597 13.694 17.3443 13.6854 16.4715C13.6758 15.492 13.7125 14.9938 13.8045 14.8553C13.9298 14.6664 14.4084 14.6642 14.8234 14.8505C15.3845 15.1024 16.2606 15.8022 17.1749 16.7288C17.9983 17.5632 18.2462 17.7799 18.5118 17.8969L18.7386 17.9969H20.1061C21.4292 17.9969 21.4796 17.9943 21.6581 17.9167C21.8946 17.8139 22.001 17.6558 22 17.4088C21.9975 16.822 21.2206 15.8365 19.2831 13.9624C18.8702 13.563 18.504 13.18 18.4694 13.1115C18.3327 12.8405 18.3833 12.7103 18.8885 12.0345C20.588 9.76113 21.6112 8.04082 21.6102 7.4584C21.6099 7.32303 21.4641 7.13579 21.3067 7.06863C21.179 7.01416 20.995 7.00651 19.8131 7.00651C18.6204 7.00651 18.4446 7.01397 18.2871 7.07113C17.9975 7.17633 17.8553 7.35181 17.5339 8.00046C16.705 9.67328 15.6514 11.1935 14.8235 11.9111C14.3379 12.3321 14.0025 12.4272 13.8195 12.1958C13.7388 12.0937 13.7372 12.0569 13.718 9.76984C13.6992 7.53993 13.6953 7.44186 13.6203 7.30296C13.5773 7.22338 13.4925 7.12413 13.4319 7.08241C13.324 7.00817 13.2799 7.00651 11.4002 7.00651C9.26287 7.00651 9.31046 7.00122 9.14511 7.25642C9.00708 7.46932 9.05818 7.65752 9.34172 7.98058C9.56653 8.23674 9.68437 8.43214 9.80116 8.74259L9.90856 9.02816V10.9579C9.90856 13.0589 9.90645 13.0804 9.69289 13.1636C9.53422 13.2255 9.37583 13.1808 9.11604 13.0009C8.66192 12.6864 7.94102 11.7637 7.29987 10.6763C6.80663 9.83972 6.44304 9.07271 5.88944 7.70093C5.83146 7.55721 5.71972 7.36897 5.64114 7.28263C5.39277 7.00964 5.38359 7.00809 3.95023 7.0007C3.25183 6.9971 2.59896 7.00769 2.4994 7.02423Z"/>
</svg>
