<svg viewBox="0 0 24 24" xmlns="http://www.w3.org/2000/svg">
<path fill-rule="evenodd" clip-rule="evenodd" d="M-1.98343 6.06637C-1.981 6.12142 -1.96901 6.13261 -1.95287 6.09495C-1.93824 6.06084 -1.94006 6.02006 -1.95686 6.00437C-1.97366 5.98868 -1.98561 6.01656 -1.98343 6.06637ZM26.3543 6.06637C26.3567 6.12142 26.3687 6.13261 26.3849 6.09495C26.3995 6.06084 26.3977 6.02006 26.3809 6.00437C26.3641 5.98868 26.3521 6.01656 26.3543 6.06637ZM-3.83409 7.88113C-3.8518 7.90788 -3.83151 7.91582 -3.78647 7.8997C-3.69882 7.86828 -3.68278 7.8344 -3.75555 7.8344C-3.78176 7.8344 -3.81708 7.85543 -3.83409 7.88113ZM-3.96095 8.21242C-4.00654 8.23992 -4.01282 8.25849 -3.97658 8.25896C-3.94344 8.25934 -3.90225 8.23841 -3.88504 8.21242C-3.84623 8.15373 -3.86374 8.15373 -3.96095 8.21242ZM12.0043 8.40941C11.3457 8.61661 10.8832 9.07293 10.6681 9.72784C10.5944 9.95229 10.5978 10.4722 10.6747 10.7516C10.8057 11.2272 11.1712 11.6898 11.6023 11.9258C12.0331 12.1615 12.8449 12.1711 13.3566 11.9465C13.4861 11.8897 13.7052 11.7375 13.8435 11.6084C14.331 11.1532 14.5341 10.5044 14.3911 9.85892C14.2366 9.16143 13.8042 8.65711 13.177 8.44306C12.8898 8.34501 12.2659 8.3271 12.0043 8.40941ZM2.85711 8.46049C2.84516 8.493 2.86035 8.58335 2.89086 8.66132C2.95872 8.83468 2.96742 11.4164 2.90144 11.8154L2.85655 12.0871H3.84255H4.8286L4.91766 11.8863C4.96665 11.7758 5.04093 11.6251 5.08273 11.5513C5.18272 11.3746 5.10363 11.2861 4.93512 11.3861C4.77324 11.4822 4.32404 11.5696 3.93313 11.5812L3.60421 11.591V11.0239V10.4569L3.81644 10.4425C3.9386 10.4342 4.09319 10.4593 4.18078 10.5016C4.40668 10.6107 4.45191 10.5955 4.60398 10.3605C4.85178 9.97738 4.83326 9.96075 4.15923 9.96075H3.57572L3.58994 9.40554L3.60421 8.85032L3.82626 8.83549C4.03322 8.82164 4.20153 8.85921 4.47539 8.98036C4.60499 9.03768 4.74278 8.96094 4.74278 8.83142C4.74278 8.78842 4.77896 8.70498 4.82319 8.64601C4.99397 8.41834 4.92768 8.40143 3.86305 8.40143C3.12105 8.40143 2.87355 8.41598 2.85711 8.46049ZM5.49262 8.45085C5.48052 8.48473 5.50041 8.61969 5.53684 8.75076C5.62935 9.0838 5.62935 11.4047 5.53684 11.7378C5.50041 11.8688 5.47956 12.0011 5.49044 12.0316C5.50365 12.0685 5.66031 12.0871 5.95897 12.0871C7.12355 12.0871 7.72836 11.7319 7.72836 11.048C7.72836 10.6817 7.52823 10.3808 7.14481 10.1707C7.05904 10.1238 7.05878 10.1169 7.1404 10.0526C7.51021 9.76144 7.63308 9.47287 7.52752 9.14333C7.43871 8.86606 7.3038 8.70583 7.03561 8.55906C6.82641 8.44457 6.74494 8.43082 6.15977 8.41107C5.65839 8.39415 5.50967 8.40304 5.49262 8.45085ZM8.10505 8.46215C8.0884 8.50264 8.10424 8.58529 8.14027 8.64582C8.22953 8.79565 8.26617 11.0806 8.18678 11.5437C8.088 12.1201 8.05247 12.0635 8.51271 12.0635H8.91753L8.90185 11.9217C8.85327 11.4824 8.83905 10.7003 8.87897 10.663C8.90443 10.6392 9.0488 10.6065 9.19975 10.5902C9.5485 10.5527 9.97828 10.3654 10.1089 10.1941C10.5489 9.61709 10.3741 8.82419 9.73948 8.51781C9.49795 8.40119 8.14897 8.35526 8.10505 8.46215ZM14.9906 8.44769C14.9737 8.47316 14.985 8.57418 15.0157 8.67214C15.067 8.83653 15.0615 11.531 15.009 11.9217L14.9899 12.0635L15.3828 12.0773C15.7124 12.0888 15.781 12.0783 15.8083 12.012C15.8262 11.9684 15.8154 11.8948 15.7843 11.8483C15.7463 11.7915 15.7256 11.3008 15.7214 10.3543L15.715 8.94483H16.3898H17.0646V10.0789C17.0646 10.7026 17.0532 11.4043 17.0393 11.6382L17.014 12.0635L17.4117 12.0774L17.8094 12.0913L17.7739 11.8884C17.7544 11.7767 17.7279 11.0754 17.715 10.3297C17.6963 9.25197 17.7061 8.92735 17.7628 8.74675C17.802 8.62181 17.8241 8.493 17.812 8.46049C17.7843 8.38621 15.0395 8.37374 14.9906 8.44769ZM19.987 8.43271C19.9522 8.44585 19.9237 8.49168 19.9237 8.53463C19.9237 8.57758 19.8638 8.72997 19.7907 8.87329C19.7174 9.0166 19.6393 9.17636 19.617 9.22834C19.5946 9.28032 19.4837 9.5093 19.3705 9.7372C19.2573 9.9651 19.1647 10.162 19.1647 10.1748C19.1647 10.1877 19.0834 10.3627 18.9841 10.5638C18.8848 10.7649 18.7684 11.0038 18.7255 11.0948C18.551 11.4645 18.416 11.6908 18.2636 11.8695C18.1943 11.9506 18.1654 12.0235 18.1925 12.0488C18.2176 12.0722 18.4167 12.0851 18.6351 12.0774L19.0321 12.0635L19.145 11.6618C19.2071 11.4409 19.2784 11.1964 19.3035 11.1184L19.3491 10.9767H20.0479H20.7467L20.8706 11.3311C20.9388 11.526 21.0104 11.7705 21.0297 11.8745L21.0648 12.0635L21.4636 12.0774C21.6832 12.0851 21.885 12.0701 21.9129 12.0441C21.9465 12.0127 21.9214 11.9449 21.8376 11.8412C21.6984 11.6688 21.3801 11.0604 21.0023 10.2443C20.9602 10.1533 20.8738 9.97256 20.8104 9.84262C20.7469 9.71268 20.6601 9.53194 20.6174 9.44098C20.5747 9.35002 20.4669 9.12675 20.3779 8.94483C20.2889 8.76291 20.1964 8.5662 20.1723 8.50775C20.1281 8.40029 20.1016 8.38952 19.987 8.43271ZM6.74479 8.97157C6.87271 9.09627 6.89341 9.15293 6.89341 9.3786C6.89341 9.62483 6.88137 9.65054 6.6952 9.80075C6.57056 9.9014 6.4438 9.96075 6.35363 9.96075H6.21027V9.39372V8.8267H6.40322C6.55245 8.8267 6.62982 8.85949 6.74479 8.97157ZM9.40115 8.92314C9.49856 8.98788 9.57502 9.10501 9.63397 9.27952C9.70947 9.50321 9.71286 9.57045 9.65816 9.76135C9.62324 9.88335 9.5566 10.0224 9.51015 10.0704C9.40621 10.1776 9.12379 10.2915 8.96196 10.2915H8.84163V9.55911V8.8267H9.0489C9.17642 8.8267 9.31193 8.86379 9.40115 8.92314ZM12.9183 8.91747C13.2681 9.0768 13.6995 9.57985 13.6995 9.8283C13.6995 9.87442 13.7264 10.0061 13.7593 10.121C13.8063 10.285 13.8051 10.3891 13.7538 10.606C13.6635 10.9872 13.5579 11.1702 13.3101 11.3753C12.6732 11.9025 11.7253 11.6121 11.3915 10.7877C11.2527 10.4448 11.261 9.77718 11.4076 9.48823C11.6916 8.92843 12.3753 8.6701 12.9183 8.91747ZM20.1335 9.61817C20.1642 9.68966 20.2072 9.79064 20.229 9.84262C20.2509 9.8946 20.3164 10.0342 20.3746 10.1529C20.4327 10.2715 20.4803 10.3831 20.4803 10.401C20.4803 10.4187 20.2868 10.4333 20.0502 10.4333C19.8051 10.4333 19.6201 10.4135 19.6201 10.3873C19.6201 10.362 19.669 10.2397 19.7287 10.1156C19.8654 9.83142 19.9092 9.72803 19.9493 9.59455C19.9922 9.45118 20.0658 9.46059 20.1335 9.61817ZM6.75445 10.4218C6.97427 10.5563 7.07052 10.7372 7.07052 11.0157C7.07052 11.242 7.05058 11.2952 6.92003 11.4171C6.76908 11.558 6.33754 11.7297 6.25455 11.6818C6.23021 11.6677 6.21027 11.3473 6.21027 10.9697V10.2832L6.42422 10.317C6.54192 10.3355 6.69049 10.3827 6.75445 10.4218ZM16.002 13.6735C15.8071 13.8135 15.5794 13.9609 15.4959 14.0011C15.3298 14.0812 15.2139 14.1457 15.0055 14.2739C14.8737 14.355 14.8609 14.3547 14.651 14.2652C14.3395 14.1323 13.4318 13.8586 13.0164 13.7723C12.3056 13.6244 12.1212 13.6013 11.2359 13.5486C10.4881 13.5041 10.2654 13.5065 9.92959 13.5625L9.52477 13.6301L10.1573 13.6658C11.1103 13.7195 12.0107 13.8705 12.9911 14.141C13.1442 14.1832 13.4402 14.2597 13.6489 14.311C14.1893 14.4439 14.2795 14.4846 14.2091 14.5639C14.1775 14.5994 14.0898 14.6395 14.0142 14.653C13.9385 14.6665 13.7286 14.7087 13.5477 14.7467C13.3668 14.7847 13.0875 14.8307 12.9271 14.8489C12.4535 14.9026 12.6481 14.9695 13.2778 14.9695C13.9035 14.9695 14.7136 14.8594 14.9039 14.7485C15.0051 14.6895 15.0546 14.6896 15.2835 14.7493C15.4281 14.7871 15.6353 14.8324 15.7438 14.8499C15.9347 14.8808 15.938 14.8846 15.845 14.9636C15.7922 15.0086 15.6123 15.0839 15.4453 15.131C15.2783 15.1781 15.0962 15.2326 15.0405 15.252C14.866 15.3127 14.5407 15.4083 14.3827 15.4453C14.2992 15.4649 14.0373 15.5258 13.8007 15.5808C13.5642 15.6358 13.2883 15.7015 13.1876 15.7268C13.087 15.7521 12.945 15.7728 12.8721 15.7728C12.7992 15.7728 12.6424 15.7939 12.5237 15.8198C12.405 15.8456 12.1542 15.8792 11.9664 15.8944C11.7785 15.9096 11.6248 15.9403 11.6248 15.9626C11.6248 16.135 13.7023 16.0172 14.5851 15.7949C14.7521 15.7528 14.9684 15.7019 15.0658 15.6818C15.3157 15.6302 16.3172 15.3062 16.5555 15.2001C16.6651 15.1512 16.7947 15.1112 16.8434 15.1112C16.8922 15.1112 16.9441 15.0931 16.9588 15.071C16.9734 15.0489 17.0943 14.9922 17.2274 14.9451C17.3606 14.898 17.6401 14.7862 17.8487 14.6966C18.0573 14.607 18.3333 14.4949 18.4622 14.4475C18.5912 14.4 18.7962 14.3194 18.918 14.2684C19.0397 14.2173 19.3101 14.1189 19.5189 14.0497C19.7276 13.9806 19.9732 13.8935 20.0646 13.8561C20.156 13.8187 20.2655 13.7882 20.3079 13.7882C20.3509 13.7882 20.3699 13.7653 20.3509 13.7365C20.307 13.6701 19.7467 13.7451 19.3418 13.8715C19.2583 13.8976 19.0875 13.9454 18.9622 13.9778C18.7302 14.0378 18.3603 14.148 18.1779 14.2114C18.0359 14.2607 17.7698 14.3466 17.4442 14.4482C17.2911 14.4959 17.0558 14.5796 16.9213 14.6341C16.7868 14.6886 16.6422 14.7332 16.6001 14.7332C16.558 14.7332 16.4602 14.7754 16.3827 14.8269L16.2418 14.9206L15.9091 14.7679C15.7261 14.6838 15.5822 14.596 15.5892 14.5727C15.6005 14.5354 15.8395 14.4021 16.2929 14.1802C16.3694 14.1427 16.4448 14.0644 16.4605 14.0061C16.5028 13.8485 16.465 13.4429 16.4068 13.4301C16.379 13.4241 16.1968 13.5336 16.002 13.6735ZM21.1751 13.5362C21.0424 13.5742 20.9469 13.6251 20.963 13.6494C20.9792 13.6738 21.2173 13.6937 21.4922 13.6937C22.3355 13.6937 23.112 13.9083 24.0479 14.4002C24.1592 14.4587 24.2862 14.5363 24.3302 14.5726C24.489 14.704 24.5286 14.6506 24.5286 14.305V13.9713L24.2123 13.8406C23.9137 13.7172 23.6014 13.6284 23.0477 13.5092C22.698 13.434 21.4709 13.4517 21.1751 13.5362ZM3.7796 13.5955C3.29235 13.6846 3.44537 13.7798 4.08494 13.7852C4.32151 13.7872 4.70862 13.8125 4.94519 13.8412C5.18176 13.87 5.48735 13.9071 5.62434 13.9236C5.95144 13.963 5.97006 14.0445 5.66816 14.1151C5.1686 14.2321 4.81474 14.3198 4.69218 14.3571C4.6226 14.3784 4.37211 14.4511 4.13554 14.5189C3.89897 14.5866 3.65987 14.66 3.60421 14.682C3.54855 14.7039 3.41192 14.7543 3.30059 14.794C3.18927 14.8337 2.93316 14.9266 2.73146 15.0005L2.36479 15.1349L2.36459 15.4223C2.36449 15.5804 2.37865 15.723 2.39596 15.7392C2.41332 15.7554 2.50086 15.7164 2.59053 15.6526C2.68015 15.5888 2.76997 15.5365 2.79006 15.5365C2.8102 15.5365 3.03574 15.443 3.29133 15.3288C4.3167 14.8704 4.89985 14.6495 6.13381 14.2521L6.58868 14.1056L6.96876 14.1887C7.1778 14.2344 7.4627 14.2983 7.60185 14.3308C7.74101 14.3633 7.9915 14.4163 8.15849 14.4487C8.32548 14.4811 8.57596 14.5342 8.71512 14.5668C9.94376 14.8547 11.9553 15.0727 12.0509 14.9282C12.066 14.9056 11.8567 14.8505 11.5858 14.8057C11.0654 14.7198 10.5363 14.6129 10.2838 14.5428C10.0856 14.4877 9.32099 14.3065 9.09464 14.2609C8.99723 14.2413 8.88338 14.2145 8.84163 14.2014C8.69908 14.1566 8.20944 14.0285 7.96969 13.9733C7.83802 13.943 7.70438 13.889 7.67275 13.8534C7.6308 13.8062 7.54371 13.7965 7.35177 13.8176C7.16697 13.8378 7.04421 13.8256 6.94027 13.7765C6.85885 13.738 6.65558 13.6933 6.48859 13.6772C6.3216 13.661 6.01418 13.6272 5.80544 13.602C5.37628 13.5501 4.05094 13.5459 3.7796 13.5955ZM2.41504 13.7893C2.26196 13.8091 2.00009 13.8613 1.8331 13.9054C1.66611 13.9494 1.46117 14.0029 1.37768 14.0244C1.11798 14.0911 0.887939 14.1815 0.416217 14.4021L-0.0392098 14.6151L-0.0544922 14.9174C-0.0628419 15.0837 -0.0488751 15.2392 -0.0233712 15.2631C0.00471354 15.2893 0.114471 15.2324 0.254996 15.1188C0.568179 14.8657 1.2538 14.4512 1.65599 14.2719C2.04599 14.0979 2.51427 13.93 2.60946 13.93C2.64685 13.9299 2.73531 13.8874 2.80605 13.8354L2.93473 13.7409L2.81404 13.7471C2.74765 13.7505 2.56811 13.7695 2.41504 13.7893ZM7.33376 14.8691C7.27784 14.9013 7.28219 15.4358 7.33902 15.5217C7.35699 15.5488 7.44625 15.5844 7.53739 15.6006C7.62852 15.6169 7.79415 15.6505 7.90547 15.6752C8.86359 15.8882 9.33567 15.9489 10.3724 15.9929C10.8317 16.0123 11.0176 16.005 11.0176 15.9674C11.0176 15.9383 10.9678 15.9145 10.907 15.9145C10.8462 15.9145 10.6698 15.8847 10.5149 15.8482C10.36 15.8118 10.108 15.7568 9.9549 15.7263C9.4772 15.6307 8.70905 15.3945 8.2476 15.2011C8.12959 15.1517 8.02019 15.1112 8.0044 15.1112C7.98861 15.1112 7.84323 15.0499 7.6813 14.9748C7.51937 14.8998 7.36296 14.8522 7.33376 14.8691ZM24.2166 15.0403C24.1735 15.0805 23.6504 15.1689 22.1249 15.3939C21.4282 15.4967 19.901 15.5548 19.4021 15.4976C18.8586 15.4352 18.2681 15.4239 18.3248 15.4768C18.3672 15.5163 18.8308 15.5967 19.6454 15.7058C20.463 15.8152 22.6353 15.8123 23.6789 15.7003C24.1244 15.6526 24.4816 15.5926 24.4916 15.564C24.5015 15.5359 24.5002 15.4012 24.4889 15.2648C24.4706 15.0452 24.4552 15.0167 24.355 15.0167C24.2928 15.0167 24.2305 15.0273 24.2166 15.0403Z"/>
</svg>
