<svg xmlns="http://www.w3.org/2000/svg" xmlns:xlink="http://www.w3.org/1999/xlink"><defs><style>
    .sprite-symbol-usage {display: none;}
    .sprite-symbol-usage:target {display: inline;}
  </style><symbol viewBox="0 0 24 24" id="icon-arrow-bottom">
<path fill-rule="evenodd" clip-rule="evenodd" d="M17.5017 8.44254C17.8096 8.71963 17.8346 9.19385 17.5575 9.50173L12.5 15.1211L7.44252 9.50173C7.16543 9.19385 7.19039 8.71963 7.49827 8.44254C7.80615 8.16544 8.28037 8.1904 8.55746 8.49828L12.5 12.8789L16.4425 8.49828C16.7196 8.1904 17.1938 8.16544 17.5017 8.44254Z" />
</symbol><symbol viewBox="0 0 24 24" id="icon-arrow-double">
<path d="M12 5C12.1083 5 12.2021 5.04948 12.2812 5.14844L13.8813 7.14844C13.9604 7.2474 14 7.36458 14 7.5C14 7.63542 13.9604 7.7526 13.8813 7.85156C13.8021 7.95052 13.7083 8 13.6 8H12.8V16H13.6C13.7083 16 13.8021 16.0495 13.8813 16.1484C13.9604 16.2474 14 16.3646 14 16.5C14 16.6354 13.9604 16.7526 13.8813 16.8516L12.2812 18.8516C12.2021 18.9505 12.1083 19 12 19C11.8917 19 11.7979 18.9505 11.7188 18.8516L10.1187 16.8516C10.0396 16.7526 10 16.6354 10 16.5C10 16.3646 10.0396 16.2474 10.1187 16.1484C10.1979 16.0495 10.2917 16 10.4 16H11.2V8H10.4C10.2917 8 10.1979 7.95052 10.1187 7.85156C10.0396 7.7526 10 7.63542 10 7.5C10 7.36458 10.0396 7.2474 10.1187 7.14844L11.7188 5.14844C11.7979 5.04948 11.8917 5 12 5Z" />
</symbol><symbol viewBox="0 0 10 6" id="icon-arrow-drop">
<path fill-rule="evenodd" clip-rule="evenodd" d="M0.219671 0.219669C0.512564 -0.0732237 0.987438 -0.0732229 1.28033 0.219671L4.74999 3.68934L8.21967 0.219669C8.51256 -0.0732237 8.98744 -0.0732229 9.28033 0.219671C9.57322 0.512564 9.57322 0.987438 9.28033 1.28033L4.74999 5.81066L0.219669 1.28033C-0.0732237 0.987436 -0.0732229 0.512562 0.219671 0.219669Z" />
</symbol><symbol viewBox="0 0 24 24" id="icon-arrow-left">
<path fill-rule="evenodd" clip-rule="evenodd" d="M14.5575 7.49828C14.2804 7.1904 13.8062 7.16544 13.4983 7.44254L7.87886 12.5L13.4983 17.5575C13.8062 17.8346 14.2804 17.8096 14.5575 17.5017C14.8346 17.1938 14.8096 16.7196 14.5017 16.4425L10.1211 12.5L14.5017 8.55748C14.8096 8.28038 14.8346 7.80617 14.5575 7.49828Z" />
</symbol><symbol viewBox="0 0 12 5" id="icon-arrow-review">
<path d="M8.192 4.64C8.29867 4.36267 8.416 4.10667 8.544 3.872C8.672 3.62667 8.816 3.39733 8.976 3.184H0.4V1.872H8.976C8.82667 1.65867 8.688 1.43467 8.56 1.2C8.432 0.954666 8.31467 0.693333 8.208 0.415999H9.424C10.0853 1.19467 10.8107 1.78667 11.6 2.192V2.88C10.8107 3.264 10.0853 3.85067 9.424 4.64H8.192Z" />
</symbol><symbol viewBox="0 0 24 24" id="icon-arrow-right">
<path fill-rule="evenodd" clip-rule="evenodd" d="M9.44254 7.49828C9.71963 7.1904 10.1938 7.16544 10.5017 7.44254L16.1211 12.5L10.5017 17.5575C10.1938 17.8346 9.71963 17.8096 9.44254 17.5017C9.16544 17.1938 9.1904 16.7196 9.49828 16.4425L13.8789 12.5L9.49828 8.55748C9.1904 8.28038 9.16544 7.80617 9.44254 7.49828Z" />
</symbol><symbol viewBox="0 0 24 24" id="icon-arrow-top">
<path fill-rule="evenodd" clip-rule="evenodd" d="M7.49828 14.5575C7.1904 14.2804 7.16544 13.8062 7.44254 13.4983L12.5 7.87886L17.5575 13.4983C17.8346 13.8062 17.8096 14.2804 17.5017 14.5575C17.1938 14.8346 16.7196 14.8096 16.4425 14.5017L12.5 10.1211L8.55748 14.5017C8.28038 14.8096 7.80617 14.8346 7.49828 14.5575Z" />
</symbol><symbol viewBox="0 0 24 24" id="icon-box">
<path d="M19.9509 7.58217C19.9485 7.57773 19.9466 7.57313 19.9441 7.56872C19.9408 7.56307 19.9371 7.5579 19.9337 7.55241C19.831 7.38125 19.6858 7.23958 19.5123 7.14117L12.5694 3.21395C12.3955 3.11625 12.1994 3.06494 12 3.06494C11.8006 3.06494 11.6045 3.11625 11.4307 3.21395L4.48772 7.14121C4.30887 7.24252 4.16021 7.38968 4.05705 7.56756C4.05615 7.56913 4.05508 7.57055 4.05419 7.57212C4.05263 7.57491 4.05149 7.57782 4.04998 7.58064C3.95187 7.75412 3.90022 7.95003 3.90002 8.14936V15.9796C3.90022 16.1847 3.95472 16.386 4.05797 16.5631C4.16122 16.7402 4.30953 16.8868 4.4878 16.9878L11.4307 20.9151C11.5844 21.001 11.7558 21.0504 11.9316 21.0597C11.9526 21.0628 11.9737 21.0646 11.9949 21.0649C11.9966 21.0649 11.9984 21.0649 12.0001 21.0649C12.0226 21.0648 12.0451 21.0631 12.0674 21.0598C12.2436 21.0506 12.4154 21.0011 12.5694 20.9151L19.5123 16.9878C19.6906 16.8867 19.8389 16.7402 19.9421 16.5631C20.0453 16.386 20.0998 16.1847 20.1 15.9796V8.14936C20.0998 7.95062 20.0485 7.75528 19.9509 7.58217ZM11.9187 4.07807C11.9435 4.06411 11.9715 4.05678 12 4.05678C12.0285 4.05678 12.0565 4.06411 12.0814 4.07807L18.6007 7.76574L16.0584 9.22059L9.40487 5.5L11.9187 4.07807ZM12.0849 11.4944L5.40815 7.76074L8.39403 6.07179L15.0534 9.79569L12.0849 11.4944ZM4.97589 16.1237C4.95041 16.1093 4.9292 16.0883 4.91444 16.063C4.89968 16.0377 4.89189 16.009 4.89186 15.9797V8.6091L11.5888 12.354L11.5118 19.8208L4.97589 16.1237ZM19.0242 16.1237L12.5038 19.812L12.5807 12.3541L15.5652 10.6462V13.7611C15.5652 13.8927 15.6175 14.0189 15.7105 14.112C15.8035 14.2051 15.9296 14.2574 16.0612 14.2574C16.1927 14.2574 16.3188 14.2051 16.4118 14.112C16.5048 14.0189 16.5571 13.8927 16.5571 13.7611V10.0786L19.1082 8.61876V15.9796C19.1082 16.0089 19.1004 16.0377 19.0856 16.063C19.0709 16.0883 19.0497 16.1092 19.0242 16.1237Z" />
</symbol><symbol viewBox="0 0 24 24" id="icon-call">
<path fill-rule="evenodd" clip-rule="evenodd" d="M8.39587 3.81625C8.15487 3.6094 7.84656 3.49694 7.52838 3.50006L7.52347 3.50011L4.8086 3.50009C4.62666 3.50029 4.44678 3.53829 4.28041 3.61163C4.11397 3.685 3.96473 3.79212 3.84217 3.92612C3.71961 4.06011 3.62641 4.21805 3.56843 4.38984C3.51084 4.56049 3.48925 4.74113 3.50499 4.92044C3.79424 7.6326 4.71923 10.2388 6.2052 12.528L6.20759 12.5317C7.55766 14.6521 9.35901 16.45 11.4838 17.7975L11.4877 17.7999C13.7711 19.2778 16.3699 20.2009 19.0756 20.4951C19.256 20.5108 19.4378 20.489 19.6094 20.431C19.7823 20.3727 19.941 20.2789 20.0754 20.1559C20.2098 20.0328 20.3169 19.8832 20.3899 19.7166C20.4629 19.55 20.5002 19.37 20.4994 19.1882L20.4994 19.1862V16.464C20.5074 16.1439 20.3974 15.832 20.1898 15.5874C19.9826 15.3434 19.6928 15.1835 19.3751 15.1383C18.4697 15.0189 17.5808 14.7978 16.7251 14.4792L16.724 14.4787C16.4894 14.3907 16.2344 14.3717 15.9893 14.4239C15.7446 14.4759 15.5201 14.5968 15.3422 14.772C15.3419 14.7723 15.3415 14.7726 15.3412 14.7729L14.1938 15.9181C14.0347 16.0768 13.7893 16.11 13.5938 15.999C11.2499 14.6689 9.30894 12.7318 7.97597 10.3922C7.86438 10.1964 7.89765 9.95007 8.0572 9.79083L9.20553 8.64478C9.38108 8.46725 9.50197 8.2434 9.55404 7.99971C9.60621 7.75561 9.58717 7.50169 9.49915 7.26801L9.49873 7.26688C9.1794 6.41281 8.95781 5.52545 8.83818 4.62169C8.79336 4.30885 8.63632 4.02262 8.39587 3.81625ZM7.52117 2.50009C8.08051 2.49522 8.62278 2.69317 9.04717 3.05742C9.47224 3.42226 9.75008 3.9291 9.8286 4.48355L9.82925 4.48815C9.9389 5.31787 10.1422 6.13256 10.4354 6.91667L9.96711 7.09176L10.435 6.91554C10.5905 7.32844 10.6242 7.77723 10.532 8.20869C10.4398 8.64014 10.2256 9.03604 9.91498 9.34954L9.91301 9.35152L9.03765 10.2251C10.2072 12.1536 11.8277 13.7708 13.7604 14.9379L14.6388 14.0612C14.9529 13.7512 15.3493 13.5377 15.7811 13.4458C16.2126 13.3539 16.6615 13.3874 17.0746 13.5422C17.8603 13.8348 18.6766 14.0377 19.508 14.1472L19.5125 14.1477C20.0733 14.2267 20.5857 14.5087 20.9521 14.9403C21.3171 15.3702 21.5118 15.9187 21.4994 16.4823V19.1857M7.52117 2.50009L4.80837 2.50009C4.48781 2.50039 4.17032 2.5673 3.87703 2.69659C3.58374 2.82589 3.32056 3.01475 3.10428 3.2512C2.888 3.48766 2.72337 3.76653 2.62093 4.07009C2.51849 4.37364 2.48049 4.69519 2.50938 5.01424L2.51015 5.02206C2.81547 7.8915 3.79358 10.6488 5.36521 13.0706C6.79365 15.3135 8.69907 17.2152 10.9463 18.6407" />
</symbol><symbol viewBox="0 0 24 24" id="icon-check">
<path fill-rule="evenodd" clip-rule="evenodd" d="M16.4302 8.38564C16.7695 8.62318 16.852 9.09082 16.6145 9.43016L12.4145 15.4302C12.2997 15.5941 12.1241 15.7054 11.9269 15.7393C11.7296 15.7731 11.527 15.7267 11.3641 15.6104L8.56413 13.6104C8.22707 13.3696 8.149 12.9012 8.38976 12.5641C8.63051 12.2271 9.09893 12.149 9.43599 12.3898L11.6198 13.9497L15.3856 8.56997C15.6232 8.23063 16.0908 8.1481 16.4302 8.38564Z" />
</symbol><symbol viewBox="0 0 18 18" id="icon-clip">
<path fill-rule="evenodd" clip-rule="evenodd" d="M10.0135 0.672116C9.76965 0.800775 9.62313 0.906427 9.46306 1.06907C9.34308 1.19099 8.28156 2.32758 7.10412 3.59482C4.32229 6.58886 3.79691 7.15371 3.05478 7.94881C1.93797 9.14531 1.92103 9.16557 1.52575 9.77881C0.892295 10.7616 0.627595 11.6746 0.671086 12.7268C0.720424 13.921 1.16779 15.0618 1.91916 15.9097C2.57605 16.651 3.74914 17.2853 4.76793 17.4501C5.78942 17.6153 6.81606 17.3684 7.72827 16.738C8.20209 16.4106 8.33608 16.2827 9.42325 15.12C9.96568 14.5399 10.575 13.8898 10.7774 13.6755C10.9797 13.4612 11.3018 13.1183 11.493 12.9135C11.6843 12.7087 12.0066 12.3657 12.2092 12.1511C12.5362 11.8049 14.2136 10.0127 15.9835 8.11847C16.8853 7.15337 17.1493 6.80562 17.4063 6.24408C17.5884 5.84628 17.6384 5.62081 17.6613 5.0955C17.697 4.27255 17.549 3.49327 17.2361 2.8578C16.9422 2.26082 16.5997 1.89375 16.0809 1.61976C15.4269 1.27434 14.9105 1.13027 14.316 1.12735C13.5572 1.12366 12.8308 1.41571 12.0659 2.0319C11.9323 2.13948 7.62079 6.69207 5.80417 8.64368C5.50376 8.9664 5.33956 9.24828 5.16762 9.73635C4.97522 10.2825 4.92671 10.81 5.03127 11.2193C5.08716 11.4381 5.26288 11.8111 5.41943 12.0433C5.60483 12.3182 6.27769 12.7462 6.68432 12.8478C7.01411 12.9303 7.37722 12.9012 7.72096 12.7649C8.28917 12.5396 8.30399 12.5256 10.6661 9.97372C11.8604 8.68356 13.1281 7.31521 13.4832 6.93292C13.8383 6.55064 14.185 6.14924 14.2537 6.04091C14.565 5.54969 14.5725 5.08052 14.2725 4.85251C14.1495 4.75903 13.8684 4.76316 13.6141 4.86224C13.2088 5.02014 13.0458 5.16771 11.9073 6.4073C11.3081 7.05958 10.7036 7.71525 10.5637 7.86434C10.4238 8.01343 9.73138 8.76262 9.02499 9.52919C7.68893 10.979 7.54451 11.1246 7.3437 11.2232C7.108 11.3391 6.79008 11.2827 6.61784 11.0946C6.43976 10.9001 6.37892 10.5172 6.48867 10.2814C6.51963 10.2148 6.83201 9.85695 7.18279 9.48612C7.53361 9.11532 8.74009 7.83635 9.86391 6.64392C10.9877 5.45149 12.1524 4.21667 12.4521 3.89985C13.1409 3.17167 13.4424 2.94861 13.9821 2.76794C14.3482 2.64538 14.9056 2.69024 15.2557 2.87047C15.7594 3.12986 16.0963 3.60594 16.227 4.24317C16.3143 4.6691 16.2321 5.14114 15.9798 5.66185C15.7831 6.06805 15.8431 5.99981 13.2214 8.79616C12.8632 9.17821 12.2565 9.82605 11.8732 10.2358C8.05317 14.3195 7.16768 15.2465 6.87108 15.4723C6.58558 15.6896 6.21789 15.8655 5.90906 15.9323C5.5715 16.0055 4.89897 15.9805 4.5332 15.8812C3.96363 15.7267 3.3955 15.3469 2.96607 14.8337C2.53352 14.3167 2.34195 13.9317 2.20107 13.2966C2.12386 12.9485 2.11728 12.8616 2.12981 12.354C2.1428 11.8288 2.15024 11.7754 2.25281 11.473C2.31284 11.296 2.45242 10.9717 2.56299 10.7524L2.76396 10.3536L4.47832 8.4994C5.4212 7.47961 7.23266 5.52133 8.50377 4.14772C10.3157 2.1897 10.8342 1.61 10.9042 1.46413C11.0774 1.10353 10.991 0.736225 10.6929 0.565346C10.5048 0.457525 10.3842 0.4765 10.0135 0.672116Z" />
</symbol><symbol viewBox="0 0 24 24" id="icon-close">
<path fill-rule="evenodd" clip-rule="evenodd" d="M18.5002 6.12592C18.7931 6.41881 18.7931 6.89369 18.5002 7.18658L7.18648 18.5003C6.89359 18.7932 6.41871 18.7932 6.12582 18.5003C5.83293 18.2074 5.83293 17.7325 6.12582 17.4396L17.4395 6.12592C17.7324 5.83303 18.2073 5.83303 18.5002 6.12592Z" />
<path fill-rule="evenodd" clip-rule="evenodd" d="M6.12714 6.12603C6.42003 5.83314 6.89491 5.83314 7.1878 6.12603L18.5015 17.4397C18.7944 17.7326 18.7944 18.2075 18.5015 18.5004C18.2086 18.7933 17.7337 18.7933 17.4408 18.5004L6.12714 7.18669C5.83425 6.8938 5.83425 6.41893 6.12714 6.12603Z" />
</symbol><symbol viewBox="0 0 24 24" id="icon-control">
<path fill-rule="evenodd" clip-rule="evenodd" d="M12.5528 3.89581C12.3905 3.9901 12.2524 4.35035 12.2956 4.56654C12.3155 4.66583 12.5713 5.03089 12.8641 5.3779C13.1569 5.72486 13.3967 6.02374 13.3971 6.04204C13.3974 6.06035 13.2094 6.21707 12.9792 6.39033C12.749 6.56358 12.5068 6.77324 12.441 6.85633C12.2699 7.07213 12.286 7.40395 12.4767 7.59468C12.6155 7.73355 12.6856 7.75014 13.1335 7.75014H13.6347L13.6772 8.01541C13.7396 8.40561 14.0678 8.97463 14.4212 9.30518C14.7936 9.65353 15.2877 9.89118 15.8343 9.98484C17.129 10.2066 18.4763 9.29575 18.7759 7.99615C18.8729 7.57537 18.8628 4.63512 18.7639 4.50017C18.6978 4.41006 18.2419 4.34535 16.0004 4.10814C13.1962 3.8114 12.7457 3.7836 12.5528 3.89581ZM15.8513 4.81483L18.1465 5.05223V5.38797V5.72378H16.1316H14.1165L13.6739 5.20136C13.0801 4.50043 13.0771 4.4946 13.341 4.54032C13.4592 4.56077 14.5889 4.68432 15.8513 4.81483ZM6.43273 6.55123C5.33575 7.00438 4.37364 7.39141 4.29475 7.41142C4.04869 7.47373 3.90002 7.73057 3.90002 8.09342C3.90002 8.39566 4.79154 12.9676 4.89747 13.2087C4.92349 13.2679 5.72832 14.1733 6.68601 15.2208C8.61283 17.3284 8.75738 17.4461 9.42557 17.4521C9.95637 17.4569 10.1665 17.3519 10.9061 16.7124L11.5931 16.1183L11.6099 17.9921C11.6212 19.2458 11.6499 19.8939 11.6968 19.9505C11.754 20.0193 12.5271 20.035 15.8726 20.035C19.9157 20.035 19.9793 20.033 20.0462 19.9081C20.0929 19.8208 20.1084 18.5928 20.0959 15.9662L20.0777 12.1511L19.9316 11.8576C19.6957 11.3832 19.3812 11.0665 18.921 10.8398L18.4978 10.6314L16.2574 10.6125C14.8095 10.6003 13.8992 10.6181 13.6839 10.6628C12.9747 10.81 12.5515 11.0865 11.2132 12.2771C10.5167 12.8968 9.85443 13.4907 9.7414 13.597L9.53587 13.7902L9.34864 13.6108C9.17085 13.4404 9.16604 13.4224 9.25341 13.2535C9.30394 13.1557 9.34541 13.0101 9.34548 12.93C9.34567 12.7233 8.4042 8.00895 8.3196 7.79276C8.19563 7.47595 8.00289 7.40503 7.17165 7.3702L6.41608 7.33854L7.45329 6.91566C8.36285 6.5449 8.49613 6.50595 8.53602 6.59904C8.56103 6.65749 8.8119 7.88553 9.09354 9.32798C9.37511 10.7705 9.63161 11.9994 9.66346 12.059C9.80858 12.3302 10.2951 12.1954 10.2951 11.8839C10.2951 11.6392 9.22714 6.25481 9.14115 6.06611C9.05783 5.88317 8.79031 5.72289 8.57288 5.72562C8.49278 5.72657 7.52971 6.09815 6.43273 6.55123ZM18.1465 6.73696V7.05358H15.733H13.3195L13.7226 6.73823L14.1258 6.42287L16.1362 6.42161L18.1465 6.42034V6.73696ZM18.0832 7.83272C18.0832 8.00977 17.7465 8.57785 17.5278 8.76991C16.4346 9.7299 14.7983 9.27359 14.3819 7.89262L14.3389 7.75014H16.2111C17.7077 7.75014 18.0832 7.76673 18.0832 7.83272ZM8.14915 10.4889L8.63087 12.8794H7.09289H5.5549L5.45555 12.4203C5.22476 11.3543 4.59652 8.23299 4.59652 8.15225C4.59652 8.07942 4.85745 8.06739 6.13198 8.08145L7.66743 8.09842L8.14915 10.4889ZM16.9329 11.3499C16.9213 11.3794 15.8861 12.679 14.6324 14.2379L12.3529 17.0723L12.3213 16.0998C12.3039 15.565 12.2666 15.0918 12.2384 15.0482C12.2102 15.0047 12.0999 14.9691 11.9933 14.9691C11.8363 14.9691 11.637 15.1108 10.9471 15.7131C10.4784 16.1224 10.0054 16.5212 9.89603 16.5996C9.66663 16.764 9.35529 16.7833 9.09594 16.6492C8.99704 16.598 8.29896 15.8856 7.54466 15.0661L6.17313 13.5759H7.24143H8.30966L8.83146 14.1142C9.20105 14.4955 9.39765 14.6524 9.50536 14.6524C9.61426 14.6524 10.1212 14.2384 11.2902 13.1948C12.9032 11.7547 13.1848 11.5494 13.7658 11.3894C14.1042 11.2961 16.9681 11.2604 16.9329 11.3499ZM18.302 11.3665C18.4398 11.4047 18.6431 11.4976 18.7539 11.5729L18.9552 11.7098L15.9541 15.5083L12.953 19.3067L12.6372 19.3259L12.3213 19.345V18.8121V18.2791L15.1231 14.7893C16.6641 12.87 17.9534 11.2991 17.9882 11.2983C18.023 11.2976 18.1642 11.3283 18.302 11.3665ZM19.4119 15.9664L19.4129 19.3384H16.6554C14.3091 19.3384 13.9055 19.3252 13.9486 19.2497C13.9764 19.2009 15.1949 17.6489 16.6563 15.8009C18.3743 13.6282 19.3306 12.4679 19.3621 12.5176C19.3889 12.5598 19.4114 14.1118 19.4119 15.9664Z" />
</symbol><symbol viewBox="0 0 24 24" id="icon-europe">
<path fill-rule="evenodd" clip-rule="evenodd" d="M-1.98343 6.06637C-1.981 6.12142 -1.96901 6.13261 -1.95287 6.09495C-1.93824 6.06084 -1.94006 6.02006 -1.95686 6.00437C-1.97366 5.98868 -1.98561 6.01656 -1.98343 6.06637ZM26.3543 6.06637C26.3567 6.12142 26.3687 6.13261 26.3849 6.09495C26.3995 6.06084 26.3977 6.02006 26.3809 6.00437C26.3641 5.98868 26.3521 6.01656 26.3543 6.06637ZM-3.83409 7.88113C-3.8518 7.90788 -3.83151 7.91582 -3.78647 7.8997C-3.69882 7.86828 -3.68278 7.8344 -3.75555 7.8344C-3.78176 7.8344 -3.81708 7.85543 -3.83409 7.88113ZM-3.96095 8.21242C-4.00654 8.23992 -4.01282 8.25849 -3.97658 8.25896C-3.94344 8.25934 -3.90225 8.23841 -3.88504 8.21242C-3.84623 8.15373 -3.86374 8.15373 -3.96095 8.21242ZM12.0043 8.40941C11.3457 8.61661 10.8832 9.07293 10.6681 9.72784C10.5944 9.95229 10.5978 10.4722 10.6747 10.7516C10.8057 11.2272 11.1712 11.6898 11.6023 11.9258C12.0331 12.1615 12.8449 12.1711 13.3566 11.9465C13.4861 11.8897 13.7052 11.7375 13.8435 11.6084C14.331 11.1532 14.5341 10.5044 14.3911 9.85892C14.2366 9.16143 13.8042 8.65711 13.177 8.44306C12.8898 8.34501 12.2659 8.3271 12.0043 8.40941ZM2.85711 8.46049C2.84516 8.493 2.86035 8.58335 2.89086 8.66132C2.95872 8.83468 2.96742 11.4164 2.90144 11.8154L2.85655 12.0871H3.84255H4.8286L4.91766 11.8863C4.96665 11.7758 5.04093 11.6251 5.08273 11.5513C5.18272 11.3746 5.10363 11.2861 4.93512 11.3861C4.77324 11.4822 4.32404 11.5696 3.93313 11.5812L3.60421 11.591V11.0239V10.4569L3.81644 10.4425C3.9386 10.4342 4.09319 10.4593 4.18078 10.5016C4.40668 10.6107 4.45191 10.5955 4.60398 10.3605C4.85178 9.97738 4.83326 9.96075 4.15923 9.96075H3.57572L3.58994 9.40554L3.60421 8.85032L3.82626 8.83549C4.03322 8.82164 4.20153 8.85921 4.47539 8.98036C4.60499 9.03768 4.74278 8.96094 4.74278 8.83142C4.74278 8.78842 4.77896 8.70498 4.82319 8.64601C4.99397 8.41834 4.92768 8.40143 3.86305 8.40143C3.12105 8.40143 2.87355 8.41598 2.85711 8.46049ZM5.49262 8.45085C5.48052 8.48473 5.50041 8.61969 5.53684 8.75076C5.62935 9.0838 5.62935 11.4047 5.53684 11.7378C5.50041 11.8688 5.47956 12.0011 5.49044 12.0316C5.50365 12.0685 5.66031 12.0871 5.95897 12.0871C7.12355 12.0871 7.72836 11.7319 7.72836 11.048C7.72836 10.6817 7.52823 10.3808 7.14481 10.1707C7.05904 10.1238 7.05878 10.1169 7.1404 10.0526C7.51021 9.76144 7.63308 9.47287 7.52752 9.14333C7.43871 8.86606 7.3038 8.70583 7.03561 8.55906C6.82641 8.44457 6.74494 8.43082 6.15977 8.41107C5.65839 8.39415 5.50967 8.40304 5.49262 8.45085ZM8.10505 8.46215C8.0884 8.50264 8.10424 8.58529 8.14027 8.64582C8.22953 8.79565 8.26617 11.0806 8.18678 11.5437C8.088 12.1201 8.05247 12.0635 8.51271 12.0635H8.91753L8.90185 11.9217C8.85327 11.4824 8.83905 10.7003 8.87897 10.663C8.90443 10.6392 9.0488 10.6065 9.19975 10.5902C9.5485 10.5527 9.97828 10.3654 10.1089 10.1941C10.5489 9.61709 10.3741 8.82419 9.73948 8.51781C9.49795 8.40119 8.14897 8.35526 8.10505 8.46215ZM14.9906 8.44769C14.9737 8.47316 14.985 8.57418 15.0157 8.67214C15.067 8.83653 15.0615 11.531 15.009 11.9217L14.9899 12.0635L15.3828 12.0773C15.7124 12.0888 15.781 12.0783 15.8083 12.012C15.8262 11.9684 15.8154 11.8948 15.7843 11.8483C15.7463 11.7915 15.7256 11.3008 15.7214 10.3543L15.715 8.94483H16.3898H17.0646V10.0789C17.0646 10.7026 17.0532 11.4043 17.0393 11.6382L17.014 12.0635L17.4117 12.0774L17.8094 12.0913L17.7739 11.8884C17.7544 11.7767 17.7279 11.0754 17.715 10.3297C17.6963 9.25197 17.7061 8.92735 17.7628 8.74675C17.802 8.62181 17.8241 8.493 17.812 8.46049C17.7843 8.38621 15.0395 8.37374 14.9906 8.44769ZM19.987 8.43271C19.9522 8.44585 19.9237 8.49168 19.9237 8.53463C19.9237 8.57758 19.8638 8.72997 19.7907 8.87329C19.7174 9.0166 19.6393 9.17636 19.617 9.22834C19.5946 9.28032 19.4837 9.5093 19.3705 9.7372C19.2573 9.9651 19.1647 10.162 19.1647 10.1748C19.1647 10.1877 19.0834 10.3627 18.9841 10.5638C18.8848 10.7649 18.7684 11.0038 18.7255 11.0948C18.551 11.4645 18.416 11.6908 18.2636 11.8695C18.1943 11.9506 18.1654 12.0235 18.1925 12.0488C18.2176 12.0722 18.4167 12.0851 18.6351 12.0774L19.0321 12.0635L19.145 11.6618C19.2071 11.4409 19.2784 11.1964 19.3035 11.1184L19.3491 10.9767H20.0479H20.7467L20.8706 11.3311C20.9388 11.526 21.0104 11.7705 21.0297 11.8745L21.0648 12.0635L21.4636 12.0774C21.6832 12.0851 21.885 12.0701 21.9129 12.0441C21.9465 12.0127 21.9214 11.9449 21.8376 11.8412C21.6984 11.6688 21.3801 11.0604 21.0023 10.2443C20.9602 10.1533 20.8738 9.97256 20.8104 9.84262C20.7469 9.71268 20.6601 9.53194 20.6174 9.44098C20.5747 9.35002 20.4669 9.12675 20.3779 8.94483C20.2889 8.76291 20.1964 8.5662 20.1723 8.50775C20.1281 8.40029 20.1016 8.38952 19.987 8.43271ZM6.74479 8.97157C6.87271 9.09627 6.89341 9.15293 6.89341 9.3786C6.89341 9.62483 6.88137 9.65054 6.6952 9.80075C6.57056 9.9014 6.4438 9.96075 6.35363 9.96075H6.21027V9.39372V8.8267H6.40322C6.55245 8.8267 6.62982 8.85949 6.74479 8.97157ZM9.40115 8.92314C9.49856 8.98788 9.57502 9.10501 9.63397 9.27952C9.70947 9.50321 9.71286 9.57045 9.65816 9.76135C9.62324 9.88335 9.5566 10.0224 9.51015 10.0704C9.40621 10.1776 9.12379 10.2915 8.96196 10.2915H8.84163V9.55911V8.8267H9.0489C9.17642 8.8267 9.31193 8.86379 9.40115 8.92314ZM12.9183 8.91747C13.2681 9.0768 13.6995 9.57985 13.6995 9.8283C13.6995 9.87442 13.7264 10.0061 13.7593 10.121C13.8063 10.285 13.8051 10.3891 13.7538 10.606C13.6635 10.9872 13.5579 11.1702 13.3101 11.3753C12.6732 11.9025 11.7253 11.6121 11.3915 10.7877C11.2527 10.4448 11.261 9.77718 11.4076 9.48823C11.6916 8.92843 12.3753 8.6701 12.9183 8.91747ZM20.1335 9.61817C20.1642 9.68966 20.2072 9.79064 20.229 9.84262C20.2509 9.8946 20.3164 10.0342 20.3746 10.1529C20.4327 10.2715 20.4803 10.3831 20.4803 10.401C20.4803 10.4187 20.2868 10.4333 20.0502 10.4333C19.8051 10.4333 19.6201 10.4135 19.6201 10.3873C19.6201 10.362 19.669 10.2397 19.7287 10.1156C19.8654 9.83142 19.9092 9.72803 19.9493 9.59455C19.9922 9.45118 20.0658 9.46059 20.1335 9.61817ZM6.75445 10.4218C6.97427 10.5563 7.07052 10.7372 7.07052 11.0157C7.07052 11.242 7.05058 11.2952 6.92003 11.4171C6.76908 11.558 6.33754 11.7297 6.25455 11.6818C6.23021 11.6677 6.21027 11.3473 6.21027 10.9697V10.2832L6.42422 10.317C6.54192 10.3355 6.69049 10.3827 6.75445 10.4218ZM16.002 13.6735C15.8071 13.8135 15.5794 13.9609 15.4959 14.0011C15.3298 14.0812 15.2139 14.1457 15.0055 14.2739C14.8737 14.355 14.8609 14.3547 14.651 14.2652C14.3395 14.1323 13.4318 13.8586 13.0164 13.7723C12.3056 13.6244 12.1212 13.6013 11.2359 13.5486C10.4881 13.5041 10.2654 13.5065 9.92959 13.5625L9.52477 13.6301L10.1573 13.6658C11.1103 13.7195 12.0107 13.8705 12.9911 14.141C13.1442 14.1832 13.4402 14.2597 13.6489 14.311C14.1893 14.4439 14.2795 14.4846 14.2091 14.5639C14.1775 14.5994 14.0898 14.6395 14.0142 14.653C13.9385 14.6665 13.7286 14.7087 13.5477 14.7467C13.3668 14.7847 13.0875 14.8307 12.9271 14.8489C12.4535 14.9026 12.6481 14.9695 13.2778 14.9695C13.9035 14.9695 14.7136 14.8594 14.9039 14.7485C15.0051 14.6895 15.0546 14.6896 15.2835 14.7493C15.4281 14.7871 15.6353 14.8324 15.7438 14.8499C15.9347 14.8808 15.938 14.8846 15.845 14.9636C15.7922 15.0086 15.6123 15.0839 15.4453 15.131C15.2783 15.1781 15.0962 15.2326 15.0405 15.252C14.866 15.3127 14.5407 15.4083 14.3827 15.4453C14.2992 15.4649 14.0373 15.5258 13.8007 15.5808C13.5642 15.6358 13.2883 15.7015 13.1876 15.7268C13.087 15.7521 12.945 15.7728 12.8721 15.7728C12.7992 15.7728 12.6424 15.7939 12.5237 15.8198C12.405 15.8456 12.1542 15.8792 11.9664 15.8944C11.7785 15.9096 11.6248 15.9403 11.6248 15.9626C11.6248 16.135 13.7023 16.0172 14.5851 15.7949C14.7521 15.7528 14.9684 15.7019 15.0658 15.6818C15.3157 15.6302 16.3172 15.3062 16.5555 15.2001C16.6651 15.1512 16.7947 15.1112 16.8434 15.1112C16.8922 15.1112 16.9441 15.0931 16.9588 15.071C16.9734 15.0489 17.0943 14.9922 17.2274 14.9451C17.3606 14.898 17.6401 14.7862 17.8487 14.6966C18.0573 14.607 18.3333 14.4949 18.4622 14.4475C18.5912 14.4 18.7962 14.3194 18.918 14.2684C19.0397 14.2173 19.3101 14.1189 19.5189 14.0497C19.7276 13.9806 19.9732 13.8935 20.0646 13.8561C20.156 13.8187 20.2655 13.7882 20.3079 13.7882C20.3509 13.7882 20.3699 13.7653 20.3509 13.7365C20.307 13.6701 19.7467 13.7451 19.3418 13.8715C19.2583 13.8976 19.0875 13.9454 18.9622 13.9778C18.7302 14.0378 18.3603 14.148 18.1779 14.2114C18.0359 14.2607 17.7698 14.3466 17.4442 14.4482C17.2911 14.4959 17.0558 14.5796 16.9213 14.6341C16.7868 14.6886 16.6422 14.7332 16.6001 14.7332C16.558 14.7332 16.4602 14.7754 16.3827 14.8269L16.2418 14.9206L15.9091 14.7679C15.7261 14.6838 15.5822 14.596 15.5892 14.5727C15.6005 14.5354 15.8395 14.4021 16.2929 14.1802C16.3694 14.1427 16.4448 14.0644 16.4605 14.0061C16.5028 13.8485 16.465 13.4429 16.4068 13.4301C16.379 13.4241 16.1968 13.5336 16.002 13.6735ZM21.1751 13.5362C21.0424 13.5742 20.9469 13.6251 20.963 13.6494C20.9792 13.6738 21.2173 13.6937 21.4922 13.6937C22.3355 13.6937 23.112 13.9083 24.0479 14.4002C24.1592 14.4587 24.2862 14.5363 24.3302 14.5726C24.489 14.704 24.5286 14.6506 24.5286 14.305V13.9713L24.2123 13.8406C23.9137 13.7172 23.6014 13.6284 23.0477 13.5092C22.698 13.434 21.4709 13.4517 21.1751 13.5362ZM3.7796 13.5955C3.29235 13.6846 3.44537 13.7798 4.08494 13.7852C4.32151 13.7872 4.70862 13.8125 4.94519 13.8412C5.18176 13.87 5.48735 13.9071 5.62434 13.9236C5.95144 13.963 5.97006 14.0445 5.66816 14.1151C5.1686 14.2321 4.81474 14.3198 4.69218 14.3571C4.6226 14.3784 4.37211 14.4511 4.13554 14.5189C3.89897 14.5866 3.65987 14.66 3.60421 14.682C3.54855 14.7039 3.41192 14.7543 3.30059 14.794C3.18927 14.8337 2.93316 14.9266 2.73146 15.0005L2.36479 15.1349L2.36459 15.4223C2.36449 15.5804 2.37865 15.723 2.39596 15.7392C2.41332 15.7554 2.50086 15.7164 2.59053 15.6526C2.68015 15.5888 2.76997 15.5365 2.79006 15.5365C2.8102 15.5365 3.03574 15.443 3.29133 15.3288C4.3167 14.8704 4.89985 14.6495 6.13381 14.2521L6.58868 14.1056L6.96876 14.1887C7.1778 14.2344 7.4627 14.2983 7.60185 14.3308C7.74101 14.3633 7.9915 14.4163 8.15849 14.4487C8.32548 14.4811 8.57596 14.5342 8.71512 14.5668C9.94376 14.8547 11.9553 15.0727 12.0509 14.9282C12.066 14.9056 11.8567 14.8505 11.5858 14.8057C11.0654 14.7198 10.5363 14.6129 10.2838 14.5428C10.0856 14.4877 9.32099 14.3065 9.09464 14.2609C8.99723 14.2413 8.88338 14.2145 8.84163 14.2014C8.69908 14.1566 8.20944 14.0285 7.96969 13.9733C7.83802 13.943 7.70438 13.889 7.67275 13.8534C7.6308 13.8062 7.54371 13.7965 7.35177 13.8176C7.16697 13.8378 7.04421 13.8256 6.94027 13.7765C6.85885 13.738 6.65558 13.6933 6.48859 13.6772C6.3216 13.661 6.01418 13.6272 5.80544 13.602C5.37628 13.5501 4.05094 13.5459 3.7796 13.5955ZM2.41504 13.7893C2.26196 13.8091 2.00009 13.8613 1.8331 13.9054C1.66611 13.9494 1.46117 14.0029 1.37768 14.0244C1.11798 14.0911 0.887939 14.1815 0.416217 14.4021L-0.0392098 14.6151L-0.0544922 14.9174C-0.0628419 15.0837 -0.0488751 15.2392 -0.0233712 15.2631C0.00471354 15.2893 0.114471 15.2324 0.254996 15.1188C0.568179 14.8657 1.2538 14.4512 1.65599 14.2719C2.04599 14.0979 2.51427 13.93 2.60946 13.93C2.64685 13.9299 2.73531 13.8874 2.80605 13.8354L2.93473 13.7409L2.81404 13.7471C2.74765 13.7505 2.56811 13.7695 2.41504 13.7893ZM7.33376 14.8691C7.27784 14.9013 7.28219 15.4358 7.33902 15.5217C7.35699 15.5488 7.44625 15.5844 7.53739 15.6006C7.62852 15.6169 7.79415 15.6505 7.90547 15.6752C8.86359 15.8882 9.33567 15.9489 10.3724 15.9929C10.8317 16.0123 11.0176 16.005 11.0176 15.9674C11.0176 15.9383 10.9678 15.9145 10.907 15.9145C10.8462 15.9145 10.6698 15.8847 10.5149 15.8482C10.36 15.8118 10.108 15.7568 9.9549 15.7263C9.4772 15.6307 8.70905 15.3945 8.2476 15.2011C8.12959 15.1517 8.02019 15.1112 8.0044 15.1112C7.98861 15.1112 7.84323 15.0499 7.6813 14.9748C7.51937 14.8998 7.36296 14.8522 7.33376 14.8691ZM24.2166 15.0403C24.1735 15.0805 23.6504 15.1689 22.1249 15.3939C21.4282 15.4967 19.901 15.5548 19.4021 15.4976C18.8586 15.4352 18.2681 15.4239 18.3248 15.4768C18.3672 15.5163 18.8308 15.5967 19.6454 15.7058C20.463 15.8152 22.6353 15.8123 23.6789 15.7003C24.1244 15.6526 24.4816 15.5926 24.4916 15.564C24.5015 15.5359 24.5002 15.4012 24.4889 15.2648C24.4706 15.0452 24.4552 15.0167 24.355 15.0167C24.2928 15.0167 24.2305 15.0273 24.2166 15.0403Z" />
</symbol><symbol viewBox="0 0 24 24" id="icon-file">
<path d="M6.50178 23.875H18.4982C20.8365 23.875 22 22.7118 22 20.4077V10.3495C22 8.92049 21.8419 8.30011 20.9382 7.39179L14.7027 1.17733C13.8443 0.313299 13.1439 0.125 11.8674 0.125H6.50178C4.17479 0.125 3 1.29922 3 3.60332V20.4077C3 22.7229 4.17479 23.875 6.50178 23.875ZM6.59215 22.0915C5.42863 22.0915 4.81865 21.4823 4.81865 20.3745V3.63655C4.81865 2.53989 5.42863 1.90845 6.60343 1.90845H11.6189V8.34444C11.6189 9.74018 12.3418 10.427 13.7426 10.427H20.1813V20.3745C20.1813 21.4823 19.5826 22.0915 18.4079 22.0915H6.59215ZM13.9459 8.75431C13.5053 8.75431 13.3246 8.57707 13.3246 8.13397V2.25187L19.8312 8.75431H13.9459ZM13.3698 12.5096C13.3698 12.0554 12.9631 11.6898 12.5 11.6898C12.0369 11.6898 11.6415 12.0554 11.6415 12.5096V16.5306L11.7093 18.3363L10.7491 17.3615L9.73245 16.3424C9.57432 16.1762 9.33709 16.0876 9.13375 16.0876C8.67063 16.0876 8.33171 16.4088 8.33171 16.8519C8.33171 17.1067 8.43341 17.295 8.61414 17.4501L11.8674 20.3856C12.1046 20.5961 12.2854 20.6736 12.5 20.6736C12.7259 20.6736 12.8954 20.5961 13.1326 20.3856L16.3859 17.4501C16.5666 17.295 16.6682 17.1067 16.6682 16.8519C16.6682 16.4088 16.3294 16.0876 15.8775 16.0876C15.6516 16.0876 15.437 16.1762 15.2788 16.3424L14.2509 17.3615L13.2907 18.3363L13.3698 16.5306V12.5096Z" />
</symbol><symbol viewBox="0 0 24 24" id="icon-house">
<path d="M3.13984 8.69413L7.82207 5.71019C12.39 2.7987 12.5248 2.73833 13.3568 3.23728C16.1082 4.88654 17.439 5.78557 17.4445 5.99801C17.4506 6.24308 4.50238 14.6209 3.6113 14.9479C3.20704 15.0964 3.1238 14.5716 3.13131 11.9107L3.13984 8.69413Z" fill="#F05A63" />
<path fill-rule="evenodd" clip-rule="evenodd" d="M10.9856 12.0381L3 17.1778L3.01501 18.9726L3.02968 20.7674L5.61489 20.8623L8.20043 20.9573L15.2134 16.4863L22.2267 12.0156V10.4381C22.2267 8.96311 22.1346 8.79669 20.8109 7.87938C20.0321 7.33996 19.2996 6.89844 19.183 6.89844C19.0666 6.89844 15.3775 9.21112 10.9856 12.0381ZM16.4272 17.3409L10.7983 20.9299L16.5125 20.9302L22.2267 20.9305V17.3409C22.2267 15.3666 22.1885 13.7516 22.1414 13.7516C22.0943 13.752 19.5231 15.367 16.4272 17.3409Z" />
</symbol><symbol viewBox="0 0 24 24" id="icon-mail">
<path fill-rule="evenodd" clip-rule="evenodd" d="M3.212 5.59719C3.4487 5.09165 3.98055 4.72893 4.60864 4.72893H19.6346C20.2627 4.72893 20.7945 5.09165 21.0312 5.59719L12.1216 11.8268L3.212 5.59719ZM2.53434 5.39748C2.4998 5.42081 2.46888 5.45076 2.44356 5.48697C2.37066 5.59123 2.36247 5.7214 2.41056 5.82979C2.39073 5.94512 2.3804 6.06366 2.3804 6.18467V17.0191C2.3804 18.2184 3.39542 19.1749 4.60864 19.1749H19.6346C20.8478 19.1749 21.8628 18.2184 21.8628 17.0191V6.18467C21.8628 6.06366 21.8525 5.94512 21.8327 5.82978C21.8807 5.72139 21.8726 5.59123 21.7997 5.48697C21.7743 5.45076 21.7434 5.42082 21.7089 5.39749C21.3808 4.59278 20.5661 4.02893 19.6346 4.02893H4.60864C3.67712 4.02893 2.86245 4.59277 2.53434 5.39748ZM21.1628 6.35931V17.0191C21.1628 17.8061 20.4874 18.4749 19.6346 18.4749H4.60864C3.7558 18.4749 3.0804 17.8061 3.0804 17.0191V6.35931L11.9211 12.5407C12.0415 12.6249 12.2017 12.6249 12.3222 12.5407L21.1628 6.35931Z" />
<path fill-rule="evenodd" clip-rule="evenodd" d="M4.60854 4.12896C3.7173 4.12896 2.93945 4.66853 2.62684 5.43526C2.61937 5.45358 2.60662 5.46928 2.59022 5.48036C2.56567 5.49695 2.5436 5.51828 2.52541 5.54429C2.4734 5.61867 2.46739 5.71156 2.50186 5.78926C2.50987 5.8073 2.51236 5.82731 2.50901 5.84676C2.49014 5.95652 2.4803 6.06939 2.4803 6.1847V17.0191C2.4803 18.1594 3.44662 19.0749 4.60854 19.0749H19.6345C20.7964 19.0749 21.7627 18.1594 21.7627 17.0191V6.1847C21.7627 6.06939 21.7529 5.95652 21.734 5.84675C21.7307 5.8273 21.7331 5.80729 21.7411 5.78925C21.7756 5.71155 21.7696 5.61867 21.7176 5.54429C21.6994 5.51829 21.6773 5.49696 21.6528 5.48037C21.6364 5.46929 21.6236 5.45359 21.6162 5.43526C21.3036 4.66854 20.5257 4.12896 19.6345 4.12896H4.60854ZM2.45262 5.33332C2.8031 4.50479 3.64693 3.92896 4.60854 3.92896H19.6345C20.5961 3.92896 21.4399 4.5048 21.7904 5.33333C21.8246 5.36016 21.8554 5.39239 21.8815 5.42969C21.9688 5.55453 21.9838 5.70821 21.9358 5.84103C21.9535 5.95303 21.9627 6.06779 21.9627 6.1847V17.0191C21.9627 18.2775 20.899 19.2749 19.6345 19.2749H4.60854C3.34402 19.2749 2.2803 18.2775 2.2803 17.0191V6.1847C2.2803 6.0678 2.28951 5.95304 2.30725 5.84104C2.25918 5.70822 2.27421 5.55453 2.3615 5.42969C2.38758 5.39239 2.4184 5.36016 2.45262 5.33332ZM3.12133 5.55481C3.37437 5.01436 3.94137 4.62896 4.60854 4.62896H19.6345C20.3016 4.62896 20.8686 5.01436 21.1217 5.55481C21.1423 5.59884 21.1283 5.65131 21.0884 5.67917L12.1788 11.9088C12.1444 11.9328 12.0986 11.9328 12.0642 11.9088L3.15459 5.67917C3.11475 5.65131 3.10072 5.59884 3.12133 5.55481ZM3.34031 5.56498L12.1215 11.7048L20.9027 5.56498C20.6666 5.13345 20.1919 4.82896 19.6345 4.82896H4.60854C4.05113 4.82896 3.57641 5.13345 3.34031 5.56498ZM3.03409 6.27065C3.06715 6.25343 3.10705 6.25602 3.1376 6.27738L11.9782 12.4588C12.0643 12.5189 12.1787 12.5189 12.2648 12.4588L21.1054 6.27738C21.136 6.25602 21.1759 6.25343 21.2089 6.27065C21.242 6.28788 21.2627 6.32206 21.2627 6.35934V17.0191C21.2627 17.8648 20.5391 18.5749 19.6345 18.5749H4.60854C3.70394 18.5749 2.9803 17.8648 2.9803 17.0191V6.35934C2.9803 6.32206 3.00103 6.28788 3.03409 6.27065ZM3.1803 6.55128V17.0191C3.1803 17.7475 3.80744 18.3749 4.60854 18.3749H19.6345C20.4356 18.3749 21.0627 17.7475 21.0627 17.0191V6.55128L12.3794 12.6227C12.2245 12.731 12.0185 12.731 11.8636 12.6227L3.1803 6.55128Z" />
</symbol><symbol viewBox="0 0 24 24" id="icon-marker">
<path d="M18.3416 11.1323L7.25491 5.37027C6.33121 4.8902 5.38018 5.96516 5.96926 6.82347L9.14135 11.4453C9.36951 11.7777 9.37571 12.2146 9.15709 12.5534L5.86284 17.658C5.29912 18.5316 6.27718 19.5785 7.18698 19.0754L18.3644 12.8947C19.0627 12.5086 19.0497 11.5003 18.3416 11.1323Z" />
</symbol><symbol viewBox="0 0 24 24" id="icon-menu">
<path fill-rule="evenodd" clip-rule="evenodd" d="M3.25 6C3.25 5.58579 3.58579 5.25 4 5.25H20C20.4142 5.25 20.75 5.58579 20.75 6C20.75 6.41421 20.4142 6.75 20 6.75H4C3.58579 6.75 3.25 6.41421 3.25 6ZM3.25 12C3.25 11.5858 3.58579 11.25 4 11.25H20C20.4142 11.25 20.75 11.5858 20.75 12C20.75 12.4142 20.4142 12.75 20 12.75H4C3.58579 12.75 3.25 12.4142 3.25 12ZM3.25 18C3.25 17.5858 3.58579 17.25 4 17.25H20C20.4142 17.25 20.75 17.5858 20.75 18C20.75 18.4142 20.4142 18.75 20 18.75H4C3.58579 18.75 3.25 18.4142 3.25 18Z" />
</symbol><symbol viewBox="0 0 24 24" id="icon-person">
<path fill-rule="evenodd" clip-rule="evenodd" d="M10.25 14.7334C7.7151 14.7334 5.75 16.6392 5.75 18.8831V19.6997C5.75 20.1139 5.41421 20.4497 5 20.4497C4.58579 20.4497 4.25 20.1139 4.25 19.6997V18.8831C4.25 15.7149 6.98591 13.2334 10.25 13.2334H13.75C17.0141 13.2334 19.75 15.7149 19.75 18.8831V19.6997C19.75 20.1139 19.4142 20.4497 19 20.4497C18.5858 20.4497 18.25 20.1139 18.25 19.6997V18.8831C18.25 16.6392 16.2849 14.7334 13.75 14.7334H10.25Z" />
<path fill-rule="evenodd" clip-rule="evenodd" d="M11.9987 4.75C10.4799 4.75 9.24866 5.98122 9.24866 7.5C9.24866 9.01878 10.4799 10.25 11.9987 10.25C13.5174 10.25 14.7487 9.01878 14.7487 7.5C14.7487 5.98122 13.5174 4.75 11.9987 4.75ZM7.74866 7.5C7.74866 5.15279 9.65145 3.25 11.9987 3.25C14.3458 3.25 16.2487 5.15278 16.2487 7.5C16.2487 9.84722 14.3458 11.75 11.9987 11.75C9.65145 11.75 7.74866 9.84721 7.74866 7.5Z" />
</symbol><symbol viewBox="0 0 24 24" id="icon-phrase">
<path d="M12 3C6.5 3 2 6.77889 2 11.4444C2 16.11 6.5 19.8889 12 19.8889C13.24 19.8889 14.43 19.6989 15.53 19.3611C18.45 22 22 22 22 22C19.67 19.5406 19.3 17.8833 19.25 17.25C20.95 15.7406 22 13.6928 22 11.4444C22 6.77889 17.5 3 12 3Z" />
</symbol><symbol viewBox="0 0 24 24" id="icon-plane">
<path fill-rule="evenodd" clip-rule="evenodd" d="M9.20243 4.69679C9.29701 4.57278 9.44404 4.5 9.6 4.5H12C12.1825 4.5 12.3506 4.59948 12.4384 4.75952L15.496 10.3333H18.4C18.9637 10.3333 19.5 10.5668 19.8921 10.9752C20.2835 11.383 20.5 11.9318 20.5 12.5C20.5 13.0682 20.2835 13.617 19.8921 14.0248C19.5 14.4332 18.9637 14.6667 18.4 14.6667H15.496L12.4384 20.2405C12.3506 20.4005 12.1825 20.5 12 20.5H9.6C9.44404 20.5 9.29701 20.4272 9.20243 20.3032C9.10785 20.1792 9.07656 20.0182 9.11781 19.8677L10.5444 14.6667H8.21311L6.76069 16.1796C6.66641 16.2778 6.53615 16.3333 6.4 16.3333H4C3.82815 16.3333 3.66833 16.2451 3.57681 16.0996C3.48528 15.9542 3.47487 15.7719 3.54924 15.617L5.04538 12.5L3.54924 9.38303C3.47487 9.2281 3.48528 9.04584 3.57681 8.90038C3.66833 8.75493 3.82815 8.66667 4 8.66667H6.4C6.53615 8.66667 6.66641 8.72219 6.76069 8.8204L8.21311 10.3333H10.5444L9.11781 5.13226C9.07656 4.98185 9.10785 4.82081 9.20243 4.69679ZM10.2556 5.5L11.6822 10.7011C11.7234 10.8515 11.6922 11.0125 11.5976 11.1365C11.503 11.2606 11.356 11.3333 11.2 11.3333H8C7.86385 11.3333 7.73359 11.2778 7.63931 11.1796L6.18689 9.66667H4.79462L6.05076 12.2836C6.11641 12.4204 6.11641 12.5796 6.05076 12.7164L4.79462 15.3333H6.18689L7.63931 13.8204C7.73359 13.7222 7.86385 13.6667 8 13.6667H11.2C11.356 13.6667 11.503 13.7394 11.5976 13.8635C11.6922 13.9875 11.7234 14.1485 11.6822 14.2989L10.2556 19.5H11.704L14.7616 13.9262C14.8494 13.7661 15.0175 13.6667 15.2 13.6667H18.4C18.685 13.6667 18.9627 13.5489 19.1707 13.3322C19.3794 13.1149 19.5 12.8159 19.5 12.5C19.5 12.1841 19.3794 11.8851 19.1707 11.6678C18.9627 11.4511 18.685 11.3333 18.4 11.3333H15.2C15.0175 11.3333 14.8494 11.2339 14.7616 11.0738L11.704 5.5H10.2556Z" />
</symbol><symbol viewBox="0 0 24 24" id="icon-search">
<path fill-rule="evenodd" clip-rule="evenodd" d="M19.75 11.5C19.75 7.49594 16.5041 4.25 12.5 4.25C8.49593 4.25 5.25 7.49594 5.25 11.5C5.25 13.2716 5.88616 14.8956 6.9412 16.1545L4.48733 18.4526C4.185 18.7357 4.16944 19.2103 4.45258 19.5127C4.73572 19.815 5.21034 19.8306 5.51267 19.5474L8.01926 17.1999C9.25227 18.1703 10.809 18.75 12.5 18.75C16.5041 18.75 19.75 15.5041 19.75 11.5ZM12.5 5.75C15.6756 5.75 18.25 8.32436 18.25 11.5C18.25 14.6756 15.6756 17.25 12.5 17.25C10.9547 17.25 9.55315 16.6414 8.5193 15.6493C7.4279 14.6019 6.75 13.1308 6.75 11.5C6.75 8.32436 9.32436 5.75 12.5 5.75Z" />
</symbol><symbol viewBox="0 0 24 24" id="icon-shield">
<path fill-rule="evenodd" clip-rule="evenodd" d="M11.6074 4.03904C10.9388 4.26924 5.96372 6.17071 5.79288 6.26129C5.48074 6.42689 5.14982 6.84765 5.05868 7.19476C5.00346 7.40496 4.98809 8.35982 5.00887 10.2793C5.03648 12.8303 5.05163 13.1094 5.19216 13.6648C5.53959 15.0373 6.17347 16.138 7.18097 17.1178C7.724 17.6459 8.05478 17.8766 9.57727 18.7888C10.5488 19.3708 11.475 19.8901 11.6356 19.9428C12.13 20.105 12.4359 19.979 14.3835 18.8108C15.9368 17.879 16.2713 17.6463 16.8155 17.1178C17.8235 16.1389 18.4574 15.0387 18.8052 13.6648C18.9457 13.1094 18.9609 12.8303 18.9885 10.2793C19.0218 7.20323 19.0065 7.05354 18.6113 6.6049C18.3116 6.26457 18.3239 6.26997 15.0237 5.02784C12.4094 4.04393 11.966 3.91555 11.6074 4.03904ZM14.8646 6.24684C16.3798 6.8151 17.6597 7.31176 17.7086 7.35051C17.7769 7.40467 17.7974 8.04139 17.797 10.0942C17.7966 12.4897 17.7821 12.829 17.6581 13.3597C17.3347 14.7434 16.5706 15.9205 15.4851 16.7074C14.8863 17.1414 12.1304 18.7888 12.003 18.7888C11.8755 18.7888 9.10967 17.1393 8.51228 16.7069C7.42758 15.9218 6.66278 14.7437 6.33925 13.3597C6.21524 12.829 6.20079 12.4897 6.20037 10.0896C6.20001 8.06781 6.22107 7.3973 6.28639 7.3527C6.46541 7.23053 11.7922 5.22147 11.9474 5.2176C12.0365 5.21541 13.3493 5.67858 14.8646 6.24684ZM14.1931 9.84616C14.1108 9.90535 13.4596 10.6123 12.7459 11.4172C11.617 12.6904 11.4332 12.8687 11.3322 12.789C11.2683 12.7385 10.9279 12.4471 10.5757 12.1414C9.82217 11.4872 9.66066 11.3898 9.42878 11.4494C9.03666 11.5504 8.8309 12.0761 9.0637 12.3822C9.24934 12.6261 11.2221 14.2717 11.3769 14.3115C11.6707 14.3871 11.9175 14.1883 12.826 13.1437C13.3202 12.5755 14.0229 11.7703 14.3878 11.3542C14.959 10.7026 15.0511 10.562 15.0511 10.3411C15.0511 9.88148 14.548 9.59122 14.1931 9.84616Z" />
</symbol><symbol viewBox="0 0 24 24" id="icon-ship">
<path fill-rule="evenodd" clip-rule="evenodd" d="M3.97205 5.01575C3.84944 5.04644 3.78427 5.09783 3.7415 5.1975C3.71231 5.2655 3.70577 5.33964 3.67914 5.90362C3.67318 6.03022 3.66809 6.70839 3.66785 7.41069L3.6674 8.68759H3.50475C3.12092 8.68759 2.93895 8.76502 2.87436 8.95582C2.83857 9.06152 2.83468 9.22773 2.82781 10.9371L2.82029 12.8029L2.54428 12.8134C2.29415 12.8229 2.26009 12.8292 2.18128 12.8806C2.08384 12.9442 2 13.0912 2 13.1984C2 13.2437 2.1112 13.4835 2.32463 13.8984C2.50318 14.2455 2.65707 14.5394 2.6666 14.5515C2.67612 14.5635 2.81396 14.8151 2.9729 15.1105C3.13181 15.4058 3.28674 15.6919 3.31714 15.7462C3.34755 15.8004 3.45533 15.9977 3.55666 16.1846C3.658 16.3715 3.80813 16.6479 3.89028 16.7989C3.97245 16.9499 4.07089 17.1345 4.10904 17.209L4.1784 17.3445L3.97294 17.4489C3.61111 17.6328 3.37392 17.9258 3.27625 18.3095C3.18506 18.6676 3.36622 18.9686 3.67307 18.9686C3.79186 18.9686 3.95044 18.8765 4.01771 18.7684C4.04301 18.7278 4.0746 18.6354 4.08792 18.563C4.11853 18.3966 4.20528 18.2709 4.33381 18.2068C4.46875 18.1395 4.55793 18.1427 4.63398 18.2177C4.71077 18.2935 4.81613 18.4993 4.92282 18.7822C4.96831 18.9028 5.03978 19.0661 5.08167 19.1451C5.28823 19.5346 5.70334 19.7808 6.15656 19.7826C6.52835 19.7841 6.7713 19.6839 7.0374 19.4195C7.25194 19.2063 7.34358 19.0396 7.39395 18.7707C7.45407 18.4498 7.49013 18.3508 7.57863 18.2635C7.67706 18.1664 7.7845 18.1407 7.92677 18.1799C8.13003 18.236 8.20589 18.348 8.25831 18.6692C8.30953 18.983 8.35355 19.0896 8.52454 19.3139C8.64575 19.4729 8.87527 19.6504 9.04755 19.7184C9.15404 19.7604 9.21289 19.7667 9.5033 19.7675C9.81871 19.7683 9.84363 19.7652 9.96295 19.7102C10.4443 19.4881 10.6676 19.1786 10.7593 18.6063C10.8018 18.3409 10.9217 18.1975 11.1262 18.1673C11.2577 18.1479 11.3673 18.1878 11.4491 18.2851C11.5204 18.37 11.5527 18.4665 11.6115 18.7707C11.6617 19.0301 11.7554 19.2045 11.9553 19.4109C12.2151 19.679 12.467 19.779 12.8835 19.7795C13.3317 19.7799 13.7418 19.5234 13.9382 19.1195C13.9874 19.0184 14.0424 18.8617 14.0605 18.7713C14.132 18.4139 14.1439 18.3739 14.1987 18.3097C14.3215 18.1659 14.5126 18.1208 14.6676 18.1992C14.8344 18.2835 14.8738 18.3542 14.9287 18.6665C14.9917 19.0252 15.131 19.2979 15.3458 19.4832C15.5706 19.6771 15.8415 19.7798 16.1276 19.7795C16.5476 19.779 16.7995 19.678 17.059 19.4061C17.2593 19.1961 17.3499 19.0271 17.3995 18.7707C17.4651 18.4311 17.4939 18.3514 17.5821 18.2644C17.6815 18.1664 17.7885 18.1405 17.9312 18.1799C18.135 18.2362 18.2103 18.3478 18.2633 18.6726C18.3084 18.9489 18.363 19.087 18.5031 19.2791C18.6357 19.4607 18.8673 19.6462 19.052 19.7186C19.1581 19.7603 19.2182 19.7667 19.5077 19.7675C19.8231 19.7683 19.848 19.7652 19.9674 19.7102C20.2571 19.5765 20.47 19.3921 20.5941 19.1674C20.7364 18.9096 20.7877 18.5488 20.7053 18.3853C20.6825 18.3399 20.6259 18.273 20.5796 18.2366C20.4686 18.1493 20.2586 18.1306 20.1495 18.1983C20.0353 18.269 19.9608 18.3853 19.9266 18.5467C19.8763 18.7838 19.7528 18.9257 19.5667 18.9604C19.3871 18.9938 19.1722 18.8477 19.1235 18.6591C19.102 18.5758 19.0521 18.3091 19.0141 18.074C19.0042 18.0134 19.0569 17.888 19.3366 17.3068C19.5205 16.9247 19.748 16.4493 19.8422 16.2503C19.9365 16.0514 20.1286 15.647 20.2693 15.3516C20.41 15.0562 20.5828 14.6912 20.6533 14.5405C20.7238 14.3898 20.8485 14.1235 20.9303 13.9486C21.466 12.8049 21.8883 11.8768 21.9625 11.6804C22.0284 11.5057 22.0129 11.4377 21.8724 11.2861L21.7598 11.1647L19.511 11.1658L17.2623 11.1669L16.4193 11.9878L15.5763 12.8087H15.0465H14.5166L14.5151 11.1482C14.5132 9.01685 14.4932 8.1543 14.4435 8.06032C14.3569 7.89644 14.1711 7.87849 12.5483 7.87733L11.4137 7.87651L11.2978 7.99228L11.1818 8.10807V8.80336V9.49867L10.6427 9.50174C10.3462 9.50343 9.97851 9.50786 9.82567 9.51158C9.67282 9.51531 9.4027 9.51991 9.2254 9.52184L8.90304 9.52533L8.79913 9.63829L8.69522 9.75125L8.68176 11.0882C8.67436 11.8235 8.66269 12.5065 8.65584 12.606L8.64337 12.7868H8.2452H7.84702L7.84531 12.1785C7.84437 11.844 7.83975 11.5505 7.83504 11.5264C7.8303 11.5023 7.82439 11.1323 7.8219 10.7043C7.81939 10.2763 7.81009 9.69116 7.80122 9.40395C7.78581 8.90483 7.78292 8.87947 7.73544 8.82964C7.65949 8.74991 7.50414 8.70719 7.2412 8.69367L7.0022 8.68139L7.00203 7.91176C7.00187 7.11857 6.98482 6.89691 6.91677 6.80238C6.82935 6.68094 6.58666 6.6141 6.43691 6.67024C6.40563 6.68197 6.33495 6.73254 6.27984 6.78266L6.17962 6.87374V7.78065V8.68759H5.34592H4.51222V6.96958V5.25158L4.41537 5.16357C4.24788 5.01133 4.13714 4.97441 3.97205 5.01575ZM13.6718 10.7372V12.7649H12.8381H12.0044V10.7372V8.70951H12.8381H13.6718V10.7372ZM7.0022 11.1427V12.7649H5.34592H3.68963V11.1427V9.52059H5.34592H7.0022V11.1427ZM11.1374 11.5647L11.1374 12.7759L10.3259 12.7699L9.51442 12.7639V11.5587V10.3536H10.3259H11.1374V11.5647ZM20.8848 12.0001C20.8999 12.0149 20.82 12.203 20.5973 12.6772C20.5152 12.852 20.3903 13.1184 20.3197 13.2691C20.2491 13.4198 20.0889 13.7601 19.9636 14.0254C19.8383 14.2906 19.6735 14.6408 19.5972 14.8036C19.521 14.9663 19.3162 15.4004 19.1421 15.7681C18.968 16.1358 18.7251 16.6488 18.6024 16.908C18.4796 17.1672 18.3709 17.3882 18.3608 17.3992C18.3498 17.411 18.2808 17.4021 18.1914 17.3773C17.8687 17.2878 17.4376 17.3523 17.1733 17.5295C16.934 17.69 16.7069 17.9803 16.6392 18.2123C16.6216 18.2726 16.5969 18.3948 16.5842 18.484C16.5425 18.7777 16.4582 18.8936 16.2453 18.9498C16.1507 18.9747 16.1363 18.9723 16.0145 18.9122C15.8532 18.8325 15.7958 18.7329 15.7499 18.4533C15.7324 18.3467 15.7065 18.2242 15.6923 18.181C15.5704 17.8095 15.2035 17.46 14.8525 17.3813C14.6543 17.3369 14.3577 17.3366 14.1608 17.3808C13.9106 17.4369 13.637 17.6337 13.4735 17.8751C13.3595 18.0434 13.3032 18.1955 13.2625 18.4446C13.2166 18.726 13.1579 18.8321 13.006 18.9083C12.9398 18.9414 12.8643 18.9686 12.8381 18.9686C12.8119 18.9686 12.7362 18.9414 12.6698 18.9083C12.524 18.8355 12.4653 18.7371 12.4271 18.5018C12.333 17.9218 12.01 17.5242 11.5168 17.3814C11.3628 17.3368 11.0111 17.3355 10.8417 17.379C10.5568 17.4522 10.2919 17.639 10.1359 17.8768C10.0446 18.016 9.95748 18.2715 9.90606 18.5511C9.8696 18.7492 9.83098 18.8193 9.71553 18.8968C9.56909 18.9951 9.3877 18.9828 9.24561 18.8649C9.15513 18.7898 9.12543 18.7175 9.0807 18.4632C8.98979 17.9466 8.76798 17.6406 8.33612 17.4363C8.17007 17.3577 8.16814 17.3574 7.86925 17.3574C7.40607 17.3574 7.22877 17.4275 6.93551 17.7267C6.73066 17.9357 6.62595 18.1586 6.57979 18.484C6.53813 18.7777 6.45383 18.8936 6.24085 18.9498C6.14634 18.9747 6.13191 18.9723 6.0101 18.9122C5.84756 18.8319 5.79111 18.7326 5.74398 18.4439C5.70314 18.1937 5.62486 17.9962 5.50065 17.8298C5.3774 17.6647 5.26726 17.4886 5.06824 17.1381C4.97922 16.9814 4.86379 16.7792 4.81173 16.6888C4.17916 15.5899 3.1345 13.6774 3.15606 13.6576C3.16218 13.652 5.92339 13.6411 9.2921 13.6334C12.6608 13.6258 15.5221 13.6135 15.6505 13.6062C15.7878 13.5983 15.9149 13.5787 15.9593 13.5585C16.0007 13.5397 16.3909 13.1756 16.8263 12.7494L17.618 11.9746L19.2446 11.9807C20.1393 11.984 20.8774 11.9927 20.8848 12.0001Z" />
</symbol><symbol viewBox="0 0 24 24" id="icon-storage">
<path fill-rule="evenodd" clip-rule="evenodd" d="M12.0499 3.70844C11.9261 3.74793 10.1702 4.29812 8.14796 4.9311C6.12569 5.5641 4.42742 6.10433 4.37403 6.13161C4.25396 6.19296 4.14916 6.30411 4.06464 6.45974C4.00862 6.56293 4 6.65809 4 7.17397C4 7.72263 4.00596 7.78011 4.07638 7.90942C4.19524 8.1277 4.3722 8.25181 4.64919 8.31122L4.7444 8.33163V12.9258V17.52L4.86212 17.6357C4.99376 17.765 5.13007 17.7858 5.29543 17.7018C5.51902 17.5882 5.50611 17.8845 5.50611 12.8741V8.33034H12.5H19.4939V12.8741C19.4939 17.8845 19.481 17.5882 19.7046 17.7018C19.8699 17.7858 20.0062 17.765 20.1379 17.6357L20.2556 17.52V12.9258V8.33163L20.3508 8.31122C20.6278 8.25181 20.8048 8.1277 20.9236 7.90942C20.994 7.78011 21 7.72263 21 7.17397C21 6.60177 20.9966 6.573 20.9134 6.42876C20.7425 6.13246 20.84 6.16922 17.2953 5.06462C15.4863 4.50086 13.7412 3.95488 13.4175 3.85136C12.7038 3.62304 12.413 3.59267 12.0499 3.70844ZM16.1145 5.47666C18.0398 6.07702 19.7592 6.6134 19.9353 6.66864L20.2556 6.76904V7.17557V7.5821H12.5H4.7444V7.17975V6.7774L8.5443 5.58465C10.6343 4.92861 12.4049 4.39036 12.4791 4.38849C12.5677 4.38624 13.8135 4.75914 16.1145 5.47666ZM9.60896 9.82327C9.53279 9.8579 9.42844 9.93027 9.37709 9.98408C9.17056 10.2004 9.17617 10.1282 9.17617 12.5784V14.822L8.33656 14.8327L7.49694 14.8434L7.33172 14.9388C7.24084 14.9913 7.12398 15.0973 7.07205 15.1744L6.9776 15.3146L6.96718 17.6638C6.95997 19.2947 6.96839 20.0522 6.99474 20.1412C7.04522 20.3117 7.22131 20.5031 7.39848 20.5801C7.53597 20.6398 7.76289 20.6426 12.5 20.6426C17.2371 20.6426 17.464 20.6398 17.6015 20.5801C17.7787 20.5031 17.9548 20.3117 18.0053 20.1412C18.0316 20.0522 18.04 19.2947 18.0328 17.6638L18.0224 15.3146L17.928 15.1744C17.876 15.0973 17.7592 14.9913 17.6683 14.9388L17.5031 14.8434L16.3006 14.8333L15.0982 14.8231L15.0888 12.5519L15.0794 10.2806L14.9754 10.1132C14.8973 9.98755 14.8246 9.92255 14.6835 9.85232L14.4957 9.75879L12.1216 9.75954C9.88456 9.76025 9.73946 9.76393 9.60896 9.82327ZM10.6364 11.3148C10.6472 12.0202 10.6569 12.1376 10.7129 12.2416C10.8026 12.4083 10.9023 12.5085 11.0631 12.5935C11.1951 12.6633 11.2455 12.6667 12.1365 12.6667H13.0713L13.2298 12.5752C13.317 12.5248 13.4339 12.4177 13.4895 12.3371L13.5906 12.1906L13.6015 11.3488L13.6123 10.507H13.9737H14.335V12.6667V14.8264H12.1365H9.93788V12.6667V10.507H10.2809H10.624L10.6364 11.3148ZM12.8462 11.2213V11.9355H12.1191H11.3921V11.2213V10.507H12.1191H12.8462V11.2213ZM8.41446 16.2872C8.41446 17.1254 8.4405 17.2814 8.61365 17.4801C8.83735 17.7368 8.89835 17.7498 9.88595 17.7504C10.362 17.7507 10.8061 17.7361 10.8727 17.7178C11.0421 17.6715 11.2507 17.4926 11.3265 17.3286C11.383 17.2065 11.3906 17.0945 11.3913 16.3824L11.3921 15.5746H11.7556H12.1191V17.7513V19.928H9.92057H7.722V17.7513V15.5746H8.06823H8.41446V16.2872ZM10.6303 16.2889V17.0031H9.90326H9.17617V16.2889V15.5746H9.90326H10.6303V16.2889ZM13.6087 16.3824C13.6094 17.0945 13.617 17.2065 13.6735 17.3286C13.7493 17.4926 13.9579 17.6715 14.1273 17.7178C14.1939 17.7361 14.638 17.7507 15.1141 17.7504C16.1016 17.7498 16.1627 17.7368 16.3864 17.4801C16.5595 17.2814 16.5855 17.1254 16.5855 16.2872V15.5746H16.9318H17.278V17.7513V19.928H15.0794H12.8809V17.7513V15.5746H13.2444H13.6079L13.6087 16.3824ZM15.8238 16.2889V17.0031H15.0967H14.3697V16.2889V15.5746H15.0967H15.8238V16.2889Z" />
</symbol><symbol viewBox="0 0 24 24" id="icon-transport">
<path d="M3 11.3745C3 11.01 3.14816 10.6604 3.41188 10.4026C3.6756 10.1448 4.03329 10 4.40625 10H12.8438C13.2167 10 13.5744 10.1448 13.8381 10.4026C14.1018 10.6604 14.25 11.01 14.25 11.3745V12.749H15.2063C15.4169 12.7492 15.6249 12.7957 15.8148 12.8849C16.0046 12.9742 16.1715 13.1041 16.3031 13.2649L17.6916 14.9601C17.8913 15.204 18.0001 15.5072 18 15.8197V17.7889C18 18.1534 17.8518 18.503 17.5881 18.7608C17.3244 19.0186 16.9667 19.1634 16.5938 19.1634H16.125C16.125 19.6494 15.9275 20.1156 15.5758 20.4593C15.2242 20.803 14.7473 20.996 14.25 20.996C13.7527 20.996 13.2758 20.803 12.9242 20.4593C12.5725 20.1156 12.375 19.6494 12.375 19.1634H7.6875C7.68804 19.4077 7.63861 19.6496 7.54211 19.8749C7.44562 20.1003 7.30401 20.3045 7.12561 20.4755C6.94721 20.6466 6.73561 20.7811 6.50327 20.8711C6.27092 20.9611 6.02252 21.0048 5.77265 20.9996C5.52278 20.9944 5.2765 20.9404 5.04828 20.8409C4.82006 20.7413 4.6145 20.5981 4.4437 20.4198C4.2729 20.2415 4.1403 20.0316 4.05369 19.8024C3.96708 19.5733 3.92821 19.3295 3.93937 19.0855C3.66473 18.991 3.42687 18.8155 3.2586 18.5833C3.09034 18.351 2.99998 18.0735 3 17.7889V11.3745ZM4.21312 18.2067C4.38263 17.9355 4.62142 17.712 4.90603 17.5583C5.19064 17.4046 5.51128 17.3259 5.83643 17.3299C6.16158 17.334 6.48006 17.4207 6.76055 17.5815C7.04104 17.7423 7.27391 17.9716 7.43625 18.247H12.6262C12.7912 17.9687 13.0278 17.7375 13.3125 17.5763V11.3745C13.3125 11.253 13.2631 11.1365 13.1752 11.0505C13.0873 10.9646 12.9681 10.9163 12.8438 10.9163H4.40625C4.28193 10.9163 4.1627 10.9646 4.07479 11.0505C3.98689 11.1365 3.9375 11.253 3.9375 11.3745V17.7889C3.93743 17.8771 3.96339 17.9634 4.01228 18.0375C4.06118 18.1116 4.13091 18.1704 4.21312 18.2067ZM14.25 17.3307C14.5791 17.3307 14.9024 17.4154 15.1875 17.5762C15.4725 17.7371 15.7092 17.9684 15.8738 18.247H16.5938C16.7181 18.247 16.8373 18.1988 16.9252 18.1128C17.0131 18.0269 17.0625 17.9104 17.0625 17.7889V15.8187C17.0623 15.7148 17.0259 15.6139 16.9594 15.5328L15.5719 13.8376C15.528 13.784 15.4724 13.7406 15.4091 13.7108C15.3458 13.681 15.2765 13.6654 15.2063 13.6653H14.25V17.3307ZM5.8125 18.247C5.56386 18.247 5.3254 18.3436 5.14959 18.5154C4.97377 18.6873 4.875 18.9203 4.875 19.1634C4.875 19.4064 4.97377 19.6395 5.14959 19.8113C5.3254 19.9832 5.56386 20.0797 5.8125 20.0797C6.06114 20.0797 6.2996 19.9832 6.47541 19.8113C6.65123 19.6395 6.75 19.4064 6.75 19.1634C6.75 18.9203 6.65123 18.6873 6.47541 18.5154C6.2996 18.3436 6.06114 18.247 5.8125 18.247ZM14.25 18.247C14.0014 18.247 13.7629 18.3436 13.5871 18.5154C13.4113 18.6873 13.3125 18.9203 13.3125 19.1634C13.3125 19.4064 13.4113 19.6395 13.5871 19.8113C13.7629 19.9832 14.0014 20.0797 14.25 20.0797C14.4986 20.0797 14.7371 19.9832 14.9129 19.8113C15.0887 19.6395 15.1875 19.4064 15.1875 19.1634C15.1875 18.9203 15.0887 18.6873 14.9129 18.5154C14.7371 18.3436 14.4986 18.247 14.25 18.247Z" />
<path fill-rule="evenodd" clip-rule="evenodd" d="M13.0723 3.38871L13.3687 7.26575L13.368 7.26639L12.0709 7.26266L11.9225 6.77297L11.8873 6.673C11.6941 6.20482 11.2894 5.91043 10.834 5.89479L10.7415 5.89688C10.2276 5.9477 9.84753 6.3771 9.82939 6.90519L9.81222 7.40499L9.71676 7.42278C9.45112 7.4733 9.20925 7.6205 9.03176 7.83967C8.85427 8.05885 8.75197 8.33665 8.74201 8.62646C8.73206 8.91627 8.81506 9.20044 8.9771 9.43128C9.13913 9.66211 9.37032 9.82556 9.63188 9.89418L9.72528 9.91846L9.70811 10.4183C9.70079 10.6314 9.75325 10.8316 9.84933 11.0002H11.622C11.6896 10.907 11.7453 10.8038 11.7872 10.6931L11.9689 10.2148L13.2705 10.301L13.0973 11.4866L13.5 13.5002H13.7298L14.3333 9.38079L11.3696 9.18616L10.9389 10.3243C10.9178 10.3801 10.8812 10.4277 10.8342 10.4606C10.7873 10.4935 10.7321 10.5101 10.6762 10.5081C10.6474 10.5072 10.6251 10.4807 10.6262 10.4498L10.6709 9.14768L9.85209 8.93454C9.79471 8.91983 9.74392 8.88423 9.70829 8.83376C9.67267 8.78328 9.65441 8.72104 9.65659 8.65755C9.65877 8.59405 9.68126 8.53321 9.72026 8.4853C9.75927 8.43739 9.81238 8.40536 9.87063 8.39462L10.7021 8.23751L10.7463 6.93536C10.7468 6.92165 10.7519 6.90858 10.7607 6.89859C10.7695 6.88859 10.7813 6.88236 10.794 6.88104L10.8295 6.88094C10.9053 6.8842 10.9978 6.9519 11.0402 7.05344L11.058 7.10606L11.4031 8.2471L14.3646 8.25598L13.9901 3.35637C13.9915 3.3314 14.0226 3.3002 14.0593 3.30146C14.1425 3.30427 14.2236 3.33011 14.2947 3.37649C14.3657 3.42287 14.4244 3.48823 14.465 3.56625L14.4952 3.63247L16.3868 8.26157L19.4021 8.27033C19.4903 8.27046 19.5775 8.28928 19.6587 8.32572C19.7399 8.36215 19.8136 8.41549 19.8755 8.48267C19.9374 8.54986 19.9863 8.62958 20.0195 8.71728C20.0527 8.80498 20.0694 8.89893 20.0688 8.99378L20.0678 9.02205C20.0543 9.41335 19.7432 9.72594 19.3728 9.71322L16.3725 9.51536L14.4147 13.5002H15.4503L16.9046 10.5403L19.3242 10.6998C19.5336 10.7086 19.7429 10.6727 19.9398 10.5943C20.1368 10.5159 20.3176 10.3964 20.4718 10.2428C20.6261 10.0892 20.7508 9.90452 20.8387 9.6993C20.9266 9.49407 20.9761 9.27237 20.9842 9.04695L20.9851 9.00352C20.9873 8.77865 20.9482 8.55575 20.8702 8.34756C20.7921 8.13938 20.6766 7.95 20.5302 7.79025C20.3838 7.63051 20.2095 7.50354 20.0171 7.4166C19.8247 7.32967 19.6181 7.28447 19.4091 7.2836L16.9879 7.27747L15.3254 3.21063L15.2759 3.10293C15.028 2.62365 14.5833 2.33184 14.0931 2.315C13.5492 2.29632 13.0928 2.75536 13.0727 3.34L13.0723 3.38871Z" />
</symbol><symbol viewBox="0 0 24 24" id="icon-truck">
<path d="M3 7.15625C3 6.68383 3.18767 6.23077 3.52172 5.89672C3.85577 5.56267 4.30883 5.375 4.78125 5.375H15.4688C15.9412 5.375 16.3942 5.56267 16.7283 5.89672C17.0623 6.23077 17.25 6.68383 17.25 7.15625V8.9375H18.4613C18.7281 8.93774 18.9915 8.99794 19.232 9.11366C19.4725 9.22938 19.6839 9.39766 19.8506 9.60606L21.6093 11.8029C21.8624 12.119 22.0002 12.5119 22 12.9168V15.4687C22 15.9412 21.8123 16.3942 21.4783 16.7283C21.1442 17.0623 20.6912 17.25 20.2188 17.25H19.625C19.625 17.8799 19.3748 18.484 18.9294 18.9294C18.484 19.3748 17.8799 19.625 17.25 19.625C16.6201 19.625 16.016 19.3748 15.5706 18.9294C15.1252 18.484 14.875 17.8799 14.875 17.25H8.9375C8.93818 17.5666 8.87557 17.8801 8.75335 18.1721C8.63112 18.4641 8.45175 18.7288 8.22577 18.9505C7.99979 19.1722 7.73178 19.3465 7.43747 19.4631C7.14317 19.5797 6.82852 19.6363 6.51202 19.6296C6.19553 19.6229 5.88357 19.5529 5.59449 19.4239C5.30541 19.2949 5.04504 19.1093 4.82869 18.8782C4.61234 18.6471 4.44438 18.3751 4.33467 18.0782C4.22497 17.7812 4.17574 17.4653 4.18988 17.1491C3.84199 17.0266 3.5407 16.7992 3.32757 16.4982C3.11443 16.1973 2.99998 15.8375 3 15.4687L3 7.15625ZM4.53663 16.0102C4.75133 15.6587 5.0538 15.3691 5.4143 15.1699C5.77481 14.9707 6.18096 14.8687 6.59281 14.874C7.00467 14.8793 7.40807 14.9916 7.76336 15.2C8.11866 15.4084 8.41361 15.7056 8.61925 16.0625H15.1932C15.4021 15.7018 15.7018 15.4021 16.0625 15.1932V7.15625C16.0625 6.99878 15.9999 6.84776 15.8886 6.73641C15.7772 6.62506 15.6262 6.5625 15.4688 6.5625H4.78125C4.62378 6.5625 4.47276 6.62506 4.36141 6.73641C4.25006 6.84776 4.1875 6.99878 4.1875 7.15625V15.4687C4.18741 15.583 4.2203 15.6949 4.28223 15.791C4.34416 15.887 4.43249 15.9632 4.53663 16.0102ZM17.25 14.875C17.6669 14.875 18.0764 14.9848 18.4375 15.1932C18.7985 15.4017 19.0983 15.7015 19.3068 16.0625H20.2188C20.3762 16.0625 20.5272 15.9999 20.6386 15.8886C20.7499 15.7772 20.8125 15.6262 20.8125 15.4687V12.9156C20.8123 12.7809 20.7662 12.6502 20.6819 12.5451L18.9244 10.3483C18.8688 10.2787 18.7984 10.2225 18.7182 10.1839C18.6381 10.1453 18.5502 10.1251 18.4613 10.125H17.25V14.875ZM6.5625 16.0625C6.24756 16.0625 5.94551 16.1876 5.72281 16.4103C5.50011 16.633 5.375 16.9351 5.375 17.25C5.375 17.5649 5.50011 17.867 5.72281 18.0897C5.94551 18.3124 6.24756 18.4375 6.5625 18.4375C6.87744 18.4375 7.17949 18.3124 7.40219 18.0897C7.62489 17.867 7.75 17.5649 7.75 17.25C7.75 16.9351 7.62489 16.633 7.40219 16.4103C7.17949 16.1876 6.87744 16.0625 6.5625 16.0625ZM17.25 16.0625C16.9351 16.0625 16.633 16.1876 16.4103 16.4103C16.1876 16.633 16.0625 16.9351 16.0625 17.25C16.0625 17.5649 16.1876 17.867 16.4103 18.0897C16.633 18.3124 16.9351 18.4375 17.25 18.4375C17.5649 18.4375 17.867 18.3124 18.0897 18.0897C18.3124 17.867 18.4375 17.5649 18.4375 17.25C18.4375 16.9351 18.3124 16.633 18.0897 16.4103C17.867 16.1876 17.5649 16.0625 17.25 16.0625Z" />
</symbol><symbol viewBox="0 0 24 24" id="icon-vk">
<path fill-rule="evenodd" clip-rule="evenodd" d="M2.4994 7.02423C1.89029 7.12549 1.84957 7.53405 2.31608 8.86275C2.88156 10.4732 4.16528 12.6805 5.55855 14.4379C6.61073 15.7651 7.78822 16.7032 9.19298 17.3335C10.3213 17.8398 11.5487 18.0725 12.6032 17.9802C13.2489 17.9236 13.4986 17.8262 13.625 17.5812C13.6877 17.4597 13.694 17.3443 13.6854 16.4715C13.6758 15.492 13.7125 14.9938 13.8045 14.8553C13.9298 14.6664 14.4084 14.6642 14.8234 14.8505C15.3845 15.1024 16.2606 15.8022 17.1749 16.7288C17.9983 17.5632 18.2462 17.7799 18.5118 17.8969L18.7386 17.9969H20.1061C21.4292 17.9969 21.4796 17.9943 21.6581 17.9167C21.8946 17.8139 22.001 17.6558 22 17.4088C21.9975 16.822 21.2206 15.8365 19.2831 13.9624C18.8702 13.563 18.504 13.18 18.4694 13.1115C18.3327 12.8405 18.3833 12.7103 18.8885 12.0345C20.588 9.76113 21.6112 8.04082 21.6102 7.4584C21.6099 7.32303 21.4641 7.13579 21.3067 7.06863C21.179 7.01416 20.995 7.00651 19.8131 7.00651C18.6204 7.00651 18.4446 7.01397 18.2871 7.07113C17.9975 7.17633 17.8553 7.35181 17.5339 8.00046C16.705 9.67328 15.6514 11.1935 14.8235 11.9111C14.3379 12.3321 14.0025 12.4272 13.8195 12.1958C13.7388 12.0937 13.7372 12.0569 13.718 9.76984C13.6992 7.53993 13.6953 7.44186 13.6203 7.30296C13.5773 7.22338 13.4925 7.12413 13.4319 7.08241C13.324 7.00817 13.2799 7.00651 11.4002 7.00651C9.26287 7.00651 9.31046 7.00122 9.14511 7.25642C9.00708 7.46932 9.05818 7.65752 9.34172 7.98058C9.56653 8.23674 9.68437 8.43214 9.80116 8.74259L9.90856 9.02816V10.9579C9.90856 13.0589 9.90645 13.0804 9.69289 13.1636C9.53422 13.2255 9.37583 13.1808 9.11604 13.0009C8.66192 12.6864 7.94102 11.7637 7.29987 10.6763C6.80663 9.83972 6.44304 9.07271 5.88944 7.70093C5.83146 7.55721 5.71972 7.36897 5.64114 7.28263C5.39277 7.00964 5.38359 7.00809 3.95023 7.0007C3.25183 6.9971 2.59896 7.00769 2.4994 7.02423Z" />
</symbol></defs><use id="icon-arrow-bottom-usage" xlink:href="#icon-arrow-bottom" class="sprite-symbol-usage" /><use id="icon-arrow-double-usage" xlink:href="#icon-arrow-double" class="sprite-symbol-usage" /><use id="icon-arrow-drop-usage" xlink:href="#icon-arrow-drop" class="sprite-symbol-usage" /><use id="icon-arrow-left-usage" xlink:href="#icon-arrow-left" class="sprite-symbol-usage" /><use id="icon-arrow-review-usage" xlink:href="#icon-arrow-review" class="sprite-symbol-usage" /><use id="icon-arrow-right-usage" xlink:href="#icon-arrow-right" class="sprite-symbol-usage" /><use id="icon-arrow-top-usage" xlink:href="#icon-arrow-top" class="sprite-symbol-usage" /><use id="icon-box-usage" xlink:href="#icon-box" class="sprite-symbol-usage" /><use id="icon-call-usage" xlink:href="#icon-call" class="sprite-symbol-usage" /><use id="icon-check-usage" xlink:href="#icon-check" class="sprite-symbol-usage" /><use id="icon-clip-usage" xlink:href="#icon-clip" class="sprite-symbol-usage" /><use id="icon-close-usage" xlink:href="#icon-close" class="sprite-symbol-usage" /><use id="icon-control-usage" xlink:href="#icon-control" class="sprite-symbol-usage" /><use id="icon-europe-usage" xlink:href="#icon-europe" class="sprite-symbol-usage" /><use id="icon-file-usage" xlink:href="#icon-file" class="sprite-symbol-usage" /><use id="icon-house-usage" xlink:href="#icon-house" class="sprite-symbol-usage" /><use id="icon-mail-usage" xlink:href="#icon-mail" class="sprite-symbol-usage" /><use id="icon-marker-usage" xlink:href="#icon-marker" class="sprite-symbol-usage" /><use id="icon-menu-usage" xlink:href="#icon-menu" class="sprite-symbol-usage" /><use id="icon-person-usage" xlink:href="#icon-person" class="sprite-symbol-usage" /><use id="icon-phrase-usage" xlink:href="#icon-phrase" class="sprite-symbol-usage" /><use id="icon-plane-usage" xlink:href="#icon-plane" class="sprite-symbol-usage" /><use id="icon-search-usage" xlink:href="#icon-search" class="sprite-symbol-usage" /><use id="icon-shield-usage" xlink:href="#icon-shield" class="sprite-symbol-usage" /><use id="icon-ship-usage" xlink:href="#icon-ship" class="sprite-symbol-usage" /><use id="icon-storage-usage" xlink:href="#icon-storage" class="sprite-symbol-usage" /><use id="icon-transport-usage" xlink:href="#icon-transport" class="sprite-symbol-usage" /><use id="icon-truck-usage" xlink:href="#icon-truck" class="sprite-symbol-usage" /><use id="icon-vk-usage" xlink:href="#icon-vk" class="sprite-symbol-usage" /></svg>